<?xml version="1.0" encoding="utf-8" standalone="no"?>
<!DOCTYPE svg PUBLIC "-//W3C//DTD SVG 1.1//EN"
  "http://www.w3.org/Graphics/SVG/1.1/DTD/svg11.dtd">
<svg xmlns:xlink="http://www.w3.org/1999/xlink" width="860.550985pt" height="292.65715pt" viewBox="0 0 860.550985 292.65715" xmlns="http://www.w3.org/2000/svg" version="1.1">
 <metadata>
  <rdf:RDF xmlns:dc="http://purl.org/dc/elements/1.1/" xmlns:cc="http://creativecommons.org/ns#" xmlns:rdf="http://www.w3.org/1999/02/22-rdf-syntax-ns#">
   <cc:Work>
    <dc:type rdf:resource="http://purl.org/dc/dcmitype/StillImage"/>
    <dc:date>2023-12-02T00:31:46.619461</dc:date>
    <dc:format>image/svg+xml</dc:format>
    <dc:creator>
     <cc:Agent>
      <dc:title>Matplotlib v3.7.1, https://matplotlib.org/</dc:title>
     </cc:Agent>
    </dc:creator>
   </cc:Work>
  </rdf:RDF>
 </metadata>
 <defs>
  <style type="text/css">*{stroke-linejoin: round; stroke-linecap: butt}</style>
 </defs>
 <g id="figure_1">
  <g id="patch_1">
   <path d="M 0 292.65715 
L 860.550985 292.65715 
L 860.550985 0 
L 0 0 
z
" style="fill: #ffffff"/>
  </g>
  <g id="axes_1">
   <g id="patch_2">
    <path d="M 29.5 267.3334 
L 157.397885 267.3334 
L 157.397885 21.9534 
L 29.5 21.9534 
z
" style="fill: #eeeeee"/>
   </g>
   <g id="matplotlib.axis_1">
    <g id="xtick_1">
     <g id="line2d_1">
      <path d="M 35.31354 267.3334 
L 35.31354 21.9534 
" clip-path="url(#p3026dbec13)" style="fill: none; stroke-dasharray: 1.85,0.8; stroke-dashoffset: 0; stroke: #b2b2b2; stroke-width: 0.5"/>
     </g>
     <g id="line2d_2">
      <defs>
       <path id="m253919954c" d="M 0 0 
L 0 -3.5 
" style="stroke: #000000; stroke-width: 0.8"/>
      </defs>
      <g>
       <use xlink:href="#m253919954c" x="35.31354" y="267.3334" style="stroke: #000000; stroke-width: 0.8"/>
      </g>
     </g>
     <g id="text_1">
      <!-- 0 -->
      <g transform="translate(32.76854 276.91215) scale(0.08 -0.08)">
       <defs>
        <path id="DejaVuSans-30" d="M 2034 4250 
Q 1547 4250 1301 3770 
Q 1056 3291 1056 2328 
Q 1056 1369 1301 889 
Q 1547 409 2034 409 
Q 2525 409 2770 889 
Q 3016 1369 3016 2328 
Q 3016 3291 2770 3770 
Q 2525 4250 2034 4250 
z
M 2034 4750 
Q 2819 4750 3233 4129 
Q 3647 3509 3647 2328 
Q 3647 1150 3233 529 
Q 2819 -91 2034 -91 
Q 1250 -91 836 529 
Q 422 1150 422 2328 
Q 422 3509 836 4129 
Q 1250 4750 2034 4750 
z
" transform="scale(0.015625)"/>
       </defs>
       <use xlink:href="#DejaVuSans-30"/>
      </g>
     </g>
    </g>
    <g id="xtick_2">
     <g id="line2d_3">
      <path d="M 81.821862 267.3334 
L 81.821862 21.9534 
" clip-path="url(#p3026dbec13)" style="fill: none; stroke-dasharray: 1.85,0.8; stroke-dashoffset: 0; stroke: #b2b2b2; stroke-width: 0.5"/>
     </g>
     <g id="line2d_4">
      <g>
       <use xlink:href="#m253919954c" x="81.821862" y="267.3334" style="stroke: #000000; stroke-width: 0.8"/>
      </g>
     </g>
     <g id="text_2">
      <!-- 50 -->
      <g transform="translate(76.731862 276.91215) scale(0.08 -0.08)">
       <defs>
        <path id="DejaVuSans-35" d="M 691 4666 
L 3169 4666 
L 3169 4134 
L 1269 4134 
L 1269 2991 
Q 1406 3038 1543 3061 
Q 1681 3084 1819 3084 
Q 2600 3084 3056 2656 
Q 3513 2228 3513 1497 
Q 3513 744 3044 326 
Q 2575 -91 1722 -91 
Q 1428 -91 1123 -41 
Q 819 9 494 109 
L 494 744 
Q 775 591 1075 516 
Q 1375 441 1709 441 
Q 2250 441 2565 725 
Q 2881 1009 2881 1497 
Q 2881 1984 2565 2268 
Q 2250 2553 1709 2553 
Q 1456 2553 1204 2497 
Q 953 2441 691 2322 
L 691 4666 
z
" transform="scale(0.015625)"/>
       </defs>
       <use xlink:href="#DejaVuSans-35"/>
       <use xlink:href="#DejaVuSans-30" x="63.623047"/>
      </g>
     </g>
    </g>
    <g id="xtick_3">
     <g id="line2d_5">
      <path d="M 128.330184 267.3334 
L 128.330184 21.9534 
" clip-path="url(#p3026dbec13)" style="fill: none; stroke-dasharray: 1.85,0.8; stroke-dashoffset: 0; stroke: #b2b2b2; stroke-width: 0.5"/>
     </g>
     <g id="line2d_6">
      <g>
       <use xlink:href="#m253919954c" x="128.330184" y="267.3334" style="stroke: #000000; stroke-width: 0.8"/>
      </g>
     </g>
     <g id="text_3">
      <!-- 100 -->
      <g transform="translate(120.695184 276.91215) scale(0.08 -0.08)">
       <defs>
        <path id="DejaVuSans-31" d="M 794 531 
L 1825 531 
L 1825 4091 
L 703 3866 
L 703 4441 
L 1819 4666 
L 2450 4666 
L 2450 531 
L 3481 531 
L 3481 0 
L 794 0 
L 794 531 
z
" transform="scale(0.015625)"/>
       </defs>
       <use xlink:href="#DejaVuSans-31"/>
       <use xlink:href="#DejaVuSans-30" x="63.623047"/>
       <use xlink:href="#DejaVuSans-30" x="127.246094"/>
      </g>
     </g>
    </g>
   </g>
   <g id="matplotlib.axis_2">
    <g id="ytick_1">
     <g id="line2d_7">
      <path d="M 29.5 224.727235 
L 157.397885 224.727235 
" clip-path="url(#p3026dbec13)" style="fill: none; stroke-dasharray: 1.85,0.8; stroke-dashoffset: 0; stroke: #b2b2b2; stroke-width: 0.5"/>
     </g>
     <g id="line2d_8">
      <defs>
       <path id="m7baa7eb870" d="M 0 0 
L 3.5 0 
" style="stroke: #000000; stroke-width: 0.8"/>
      </defs>
      <g>
       <use xlink:href="#m7baa7eb870" x="29.5" y="224.727235" style="stroke: #000000; stroke-width: 0.8"/>
      </g>
     </g>
     <g id="text_4">
      <!-- $\mathdefault{10^{-2}}$ -->
      <g transform="translate(7.2 227.76661) scale(0.08 -0.08)">
       <defs>
        <path id="DejaVuSans-2212" d="M 678 2272 
L 4684 2272 
L 4684 1741 
L 678 1741 
L 678 2272 
z
" transform="scale(0.015625)"/>
        <path id="DejaVuSans-32" d="M 1228 531 
L 3431 531 
L 3431 0 
L 469 0 
L 469 531 
Q 828 903 1448 1529 
Q 2069 2156 2228 2338 
Q 2531 2678 2651 2914 
Q 2772 3150 2772 3378 
Q 2772 3750 2511 3984 
Q 2250 4219 1831 4219 
Q 1534 4219 1204 4116 
Q 875 4013 500 3803 
L 500 4441 
Q 881 4594 1212 4672 
Q 1544 4750 1819 4750 
Q 2544 4750 2975 4387 
Q 3406 4025 3406 3419 
Q 3406 3131 3298 2873 
Q 3191 2616 2906 2266 
Q 2828 2175 2409 1742 
Q 1991 1309 1228 531 
z
" transform="scale(0.015625)"/>
       </defs>
       <use xlink:href="#DejaVuSans-31" transform="translate(0 0.765625)"/>
       <use xlink:href="#DejaVuSans-30" transform="translate(63.623047 0.765625)"/>
       <use xlink:href="#DejaVuSans-2212" transform="translate(128.203125 39.046875) scale(0.7)"/>
       <use xlink:href="#DejaVuSans-32" transform="translate(186.855469 39.046875) scale(0.7)"/>
      </g>
     </g>
    </g>
    <g id="ytick_2">
     <g id="line2d_9">
      <defs>
       <path id="ma55ca55dfb" d="M 0 0 
L 2 0 
" style="stroke: #000000; stroke-width: 0.6"/>
      </defs>
      <g>
       <use xlink:href="#ma55ca55dfb" x="29.5" y="262.313587" style="stroke: #000000; stroke-width: 0.6"/>
      </g>
     </g>
    </g>
    <g id="ytick_3">
     <g id="line2d_10">
      <g>
       <use xlink:href="#ma55ca55dfb" x="29.5" y="248.242069" style="stroke: #000000; stroke-width: 0.6"/>
      </g>
     </g>
    </g>
    <g id="ytick_4">
     <g id="line2d_11">
      <g>
       <use xlink:href="#ma55ca55dfb" x="29.5" y="235.83011" style="stroke: #000000; stroke-width: 0.6"/>
      </g>
     </g>
    </g>
    <g id="ytick_5">
     <g id="line2d_12">
      <g>
       <use xlink:href="#ma55ca55dfb" x="29.5" y="151.683489" style="stroke: #000000; stroke-width: 0.6"/>
      </g>
     </g>
    </g>
    <g id="ytick_6">
     <g id="line2d_13">
      <g>
       <use xlink:href="#ma55ca55dfb" x="29.5" y="108.955637" style="stroke: #000000; stroke-width: 0.6"/>
      </g>
     </g>
    </g>
    <g id="ytick_7">
     <g id="line2d_14">
      <g>
       <use xlink:href="#ma55ca55dfb" x="29.5" y="78.639743" style="stroke: #000000; stroke-width: 0.6"/>
      </g>
     </g>
    </g>
    <g id="ytick_8">
     <g id="line2d_15">
      <g>
       <use xlink:href="#ma55ca55dfb" x="29.5" y="55.124909" style="stroke: #000000; stroke-width: 0.6"/>
      </g>
     </g>
    </g>
    <g id="ytick_9">
     <g id="line2d_16">
      <g>
       <use xlink:href="#ma55ca55dfb" x="29.5" y="35.911891" style="stroke: #000000; stroke-width: 0.6"/>
      </g>
     </g>
    </g>
   </g>
   <g id="line2d_17">
    <path d="M 35.31354 33.107036 
L 36.243707 41.335788 
L 37.173873 48.486445 
L 38.10404 85.708778 
L 39.034206 85.723325 
L 39.964372 85.850716 
L 40.894539 86.770524 
L 41.824705 86.887566 
L 42.754872 87.510278 
L 43.685038 87.567828 
L 44.615205 88.050508 
L 45.545371 88.712682 
L 46.475537 92.047088 
L 47.405704 92.408195 
L 48.33587 94.290502 
L 49.266037 109.01445 
L 50.196203 113.436232 
L 51.12637 116.941366 
L 52.056536 120.971662 
L 52.986702 124.105896 
L 53.916869 139.27971 
L 54.847035 139.451853 
L 55.777202 140.836934 
L 56.707368 142.029985 
L 57.637535 148.223308 
L 58.567701 148.223308 
L 59.497868 148.969942 
L 60.428034 155.243617 
L 61.3582 159.967414 
L 62.288367 164.964003 
L 63.218533 184.920712 
L 64.1487 192.159647 
L 65.078866 193.267468 
L 66.009033 194.177433 
L 66.939199 198.991109 
L 67.869365 199.414093 
L 68.799532 202.499164 
L 69.729698 203.725627 
L 70.659865 204.280057 
L 71.590031 206.827722 
L 72.520198 207.045468 
L 73.450364 207.188186 
L 74.380531 208.046036 
L 75.310697 208.138597 
L 76.240863 208.829086 
L 77.17103 209.096962 
L 78.101196 210.968552 
L 79.031363 211.498428 
L 79.961529 212.041918 
L 80.891696 215.402647 
L 81.821862 215.402647 
L 82.752028 216.055821 
L 83.682195 218.869473 
L 84.612361 219.278633 
L 85.542528 222.356741 
L 86.472694 222.830453 
L 87.402861 225.774017 
L 88.333027 225.908592 
L 89.263193 226.758025 
L 90.19336 226.89161 
L 91.123526 227.006738 
L 92.053693 227.773207 
L 92.983859 227.844198 
L 93.914026 228.254233 
L 94.844192 228.328017 
L 95.774359 228.380981 
L 96.704525 228.734549 
L 97.634691 228.791043 
L 98.564858 229.239301 
L 99.495024 229.430908 
L 100.425191 230.609381 
L 101.355357 231.01243 
L 102.285524 231.25057 
L 103.21569 232.763483 
L 104.145856 232.968531 
L 105.076023 232.968531 
L 106.006189 233.100773 
L 106.936356 234.122419 
L 107.866522 234.264283 
L 108.796689 235.399463 
L 109.726855 235.628918 
L 110.657022 237.204685 
L 111.587188 237.324158 
L 112.517354 237.812656 
L 113.447521 237.943724 
L 114.377687 238.481037 
L 115.307854 238.652101 
L 116.23802 239.409813 
L 117.168187 239.502362 
L 118.098353 240.209985 
L 119.028519 240.275289 
L 119.958686 240.548473 
L 120.888852 240.627875 
L 121.819019 240.960085 
L 122.749185 241.064079 
L 123.679352 241.498483 
L 124.609518 241.680295 
L 125.539684 242.40256 
L 126.469851 242.605649 
L 127.400017 243.464515 
L 128.330184 243.464515 
L 129.26035 243.573441 
L 130.190517 244.493124 
L 131.120683 244.636095 
L 132.05085 245.805657 
L 132.981016 245.881241 
L 133.911182 246.522578 
L 134.841349 246.623682 
L 135.771515 247.446476 
L 136.701682 247.525659 
L 137.631848 248.20306 
L 138.562015 248.313843 
L 139.492181 249.202793 
L 140.422347 249.303579 
L 141.352514 250.168651 
L 142.28268 250.271303 
L 143.212847 251.14908 
L 144.143013 251.24113 
L 145.07318 252.005996 
L 146.003346 252.197036 
L 146.933512 252.248698 
L 147.863679 252.693233 
L 148.793845 254.679643 
L 149.724012 254.696238 
L 150.654178 254.844201 
L 151.584345 256.179764 
" clip-path="url(#p3026dbec13)" style="fill: none; stroke: #348abd; stroke-width: 2; stroke-linecap: square"/>
   </g>
   <g id="patch_3">
    <path d="M 29.5 267.3334 
L 29.5 21.9534 
" style="fill: none; stroke: #bcbcbc; stroke-width: 0.8; stroke-linejoin: miter; stroke-linecap: square"/>
   </g>
   <g id="patch_4">
    <path d="M 157.397885 267.3334 
L 157.397885 21.9534 
" style="fill: none; stroke: #bcbcbc; stroke-width: 0.8; stroke-linejoin: miter; stroke-linecap: square"/>
   </g>
   <g id="patch_5">
    <path d="M 29.5 267.3334 
L 157.397885 267.3334 
" style="fill: none; stroke: #bcbcbc; stroke-width: 0.8; stroke-linejoin: miter; stroke-linecap: square"/>
   </g>
   <g id="patch_6">
    <path d="M 29.5 21.9534 
L 157.397885 21.9534 
" style="fill: none; stroke: #bcbcbc; stroke-width: 0.8; stroke-linejoin: miter; stroke-linecap: square"/>
   </g>
   <g id="text_5">
    <!-- Total Loss -->
    <g transform="translate(65.532742 15.9534) scale(0.1152 -0.1152)">
     <defs>
      <path id="DejaVuSans-54" d="M -19 4666 
L 3928 4666 
L 3928 4134 
L 2272 4134 
L 2272 0 
L 1638 0 
L 1638 4134 
L -19 4134 
L -19 4666 
z
" transform="scale(0.015625)"/>
      <path id="DejaVuSans-6f" d="M 1959 3097 
Q 1497 3097 1228 2736 
Q 959 2375 959 1747 
Q 959 1119 1226 758 
Q 1494 397 1959 397 
Q 2419 397 2687 759 
Q 2956 1122 2956 1747 
Q 2956 2369 2687 2733 
Q 2419 3097 1959 3097 
z
M 1959 3584 
Q 2709 3584 3137 3096 
Q 3566 2609 3566 1747 
Q 3566 888 3137 398 
Q 2709 -91 1959 -91 
Q 1206 -91 779 398 
Q 353 888 353 1747 
Q 353 2609 779 3096 
Q 1206 3584 1959 3584 
z
" transform="scale(0.015625)"/>
      <path id="DejaVuSans-74" d="M 1172 4494 
L 1172 3500 
L 2356 3500 
L 2356 3053 
L 1172 3053 
L 1172 1153 
Q 1172 725 1289 603 
Q 1406 481 1766 481 
L 2356 481 
L 2356 0 
L 1766 0 
Q 1100 0 847 248 
Q 594 497 594 1153 
L 594 3053 
L 172 3053 
L 172 3500 
L 594 3500 
L 594 4494 
L 1172 4494 
z
" transform="scale(0.015625)"/>
      <path id="DejaVuSans-61" d="M 2194 1759 
Q 1497 1759 1228 1600 
Q 959 1441 959 1056 
Q 959 750 1161 570 
Q 1363 391 1709 391 
Q 2188 391 2477 730 
Q 2766 1069 2766 1631 
L 2766 1759 
L 2194 1759 
z
M 3341 1997 
L 3341 0 
L 2766 0 
L 2766 531 
Q 2569 213 2275 61 
Q 1981 -91 1556 -91 
Q 1019 -91 701 211 
Q 384 513 384 1019 
Q 384 1609 779 1909 
Q 1175 2209 1959 2209 
L 2766 2209 
L 2766 2266 
Q 2766 2663 2505 2880 
Q 2244 3097 1772 3097 
Q 1472 3097 1187 3025 
Q 903 2953 641 2809 
L 641 3341 
Q 956 3463 1253 3523 
Q 1550 3584 1831 3584 
Q 2591 3584 2966 3190 
Q 3341 2797 3341 1997 
z
" transform="scale(0.015625)"/>
      <path id="DejaVuSans-6c" d="M 603 4863 
L 1178 4863 
L 1178 0 
L 603 0 
L 603 4863 
z
" transform="scale(0.015625)"/>
      <path id="DejaVuSans-20" transform="scale(0.015625)"/>
      <path id="DejaVuSans-4c" d="M 628 4666 
L 1259 4666 
L 1259 531 
L 3531 531 
L 3531 0 
L 628 0 
L 628 4666 
z
" transform="scale(0.015625)"/>
      <path id="DejaVuSans-73" d="M 2834 3397 
L 2834 2853 
Q 2591 2978 2328 3040 
Q 2066 3103 1784 3103 
Q 1356 3103 1142 2972 
Q 928 2841 928 2578 
Q 928 2378 1081 2264 
Q 1234 2150 1697 2047 
L 1894 2003 
Q 2506 1872 2764 1633 
Q 3022 1394 3022 966 
Q 3022 478 2636 193 
Q 2250 -91 1575 -91 
Q 1294 -91 989 -36 
Q 684 19 347 128 
L 347 722 
Q 666 556 975 473 
Q 1284 391 1588 391 
Q 1994 391 2212 530 
Q 2431 669 2431 922 
Q 2431 1156 2273 1281 
Q 2116 1406 1581 1522 
L 1381 1569 
Q 847 1681 609 1914 
Q 372 2147 372 2553 
Q 372 3047 722 3315 
Q 1072 3584 1716 3584 
Q 2034 3584 2315 3537 
Q 2597 3491 2834 3397 
z
" transform="scale(0.015625)"/>
     </defs>
     <use xlink:href="#DejaVuSans-54"/>
     <use xlink:href="#DejaVuSans-6f" x="44.083984"/>
     <use xlink:href="#DejaVuSans-74" x="105.265625"/>
     <use xlink:href="#DejaVuSans-61" x="144.474609"/>
     <use xlink:href="#DejaVuSans-6c" x="205.753906"/>
     <use xlink:href="#DejaVuSans-20" x="233.537109"/>
     <use xlink:href="#DejaVuSans-4c" x="265.324219"/>
     <use xlink:href="#DejaVuSans-6f" x="319.287109"/>
     <use xlink:href="#DejaVuSans-73" x="380.46875"/>
     <use xlink:href="#DejaVuSans-73" x="432.568359"/>
    </g>
   </g>
  </g>
  <g id="axes_2">
   <g id="patch_7">
    <path d="M 203.488275 267.3334 
L 331.38616 267.3334 
L 331.38616 21.9534 
L 203.488275 21.9534 
z
" style="fill: #eeeeee"/>
   </g>
   <g id="matplotlib.axis_3">
    <g id="xtick_4">
     <g id="line2d_18">
      <path d="M 209.301815 267.3334 
L 209.301815 21.9534 
" clip-path="url(#p55a2478274)" style="fill: none; stroke-dasharray: 1.85,0.8; stroke-dashoffset: 0; stroke: #b2b2b2; stroke-width: 0.5"/>
     </g>
     <g id="line2d_19">
      <g>
       <use xlink:href="#m253919954c" x="209.301815" y="267.3334" style="stroke: #000000; stroke-width: 0.8"/>
      </g>
     </g>
     <g id="text_6">
      <!-- 0 -->
      <g transform="translate(206.756815 276.91215) scale(0.08 -0.08)">
       <use xlink:href="#DejaVuSans-30"/>
      </g>
     </g>
    </g>
    <g id="xtick_5">
     <g id="line2d_20">
      <path d="M 255.810137 267.3334 
L 255.810137 21.9534 
" clip-path="url(#p55a2478274)" style="fill: none; stroke-dasharray: 1.85,0.8; stroke-dashoffset: 0; stroke: #b2b2b2; stroke-width: 0.5"/>
     </g>
     <g id="line2d_21">
      <g>
       <use xlink:href="#m253919954c" x="255.810137" y="267.3334" style="stroke: #000000; stroke-width: 0.8"/>
      </g>
     </g>
     <g id="text_7">
      <!-- 50 -->
      <g transform="translate(250.720137 276.91215) scale(0.08 -0.08)">
       <use xlink:href="#DejaVuSans-35"/>
       <use xlink:href="#DejaVuSans-30" x="63.623047"/>
      </g>
     </g>
    </g>
    <g id="xtick_6">
     <g id="line2d_22">
      <path d="M 302.318459 267.3334 
L 302.318459 21.9534 
" clip-path="url(#p55a2478274)" style="fill: none; stroke-dasharray: 1.85,0.8; stroke-dashoffset: 0; stroke: #b2b2b2; stroke-width: 0.5"/>
     </g>
     <g id="line2d_23">
      <g>
       <use xlink:href="#m253919954c" x="302.318459" y="267.3334" style="stroke: #000000; stroke-width: 0.8"/>
      </g>
     </g>
     <g id="text_8">
      <!-- 100 -->
      <g transform="translate(294.683459 276.91215) scale(0.08 -0.08)">
       <use xlink:href="#DejaVuSans-31"/>
       <use xlink:href="#DejaVuSans-30" x="63.623047"/>
       <use xlink:href="#DejaVuSans-30" x="127.246094"/>
      </g>
     </g>
    </g>
   </g>
   <g id="matplotlib.axis_4">
    <g id="ytick_10">
     <g id="line2d_24">
      <path d="M 203.488275 237.22333 
L 331.38616 237.22333 
" clip-path="url(#p55a2478274)" style="fill: none; stroke-dasharray: 1.85,0.8; stroke-dashoffset: 0; stroke: #b2b2b2; stroke-width: 0.5"/>
     </g>
     <g id="line2d_25">
      <g>
       <use xlink:href="#m7baa7eb870" x="203.488275" y="237.22333" style="stroke: #000000; stroke-width: 0.8"/>
      </g>
     </g>
     <g id="text_9">
      <!-- $\mathdefault{10^{-5}}$ -->
      <g transform="translate(181.188275 240.262705) scale(0.08 -0.08)">
       <use xlink:href="#DejaVuSans-31" transform="translate(0 0.684375)"/>
       <use xlink:href="#DejaVuSans-30" transform="translate(63.623047 0.684375)"/>
       <use xlink:href="#DejaVuSans-2212" transform="translate(128.203125 38.965625) scale(0.7)"/>
       <use xlink:href="#DejaVuSans-35" transform="translate(186.855469 38.965625) scale(0.7)"/>
      </g>
     </g>
    </g>
    <g id="ytick_11">
     <g id="line2d_26">
      <g>
       <use xlink:href="#ma55ca55dfb" x="203.488275" y="258.583086" style="stroke: #000000; stroke-width: 0.6"/>
      </g>
     </g>
    </g>
    <g id="ytick_12">
     <g id="line2d_27">
      <g>
       <use xlink:href="#ma55ca55dfb" x="203.488275" y="96.701482" style="stroke: #000000; stroke-width: 0.6"/>
      </g>
     </g>
     <g id="text_10">
      <!-- $\mathdefault{2\times10^{-5}}$ -->
      <g transform="translate(166.728275 99.740857) scale(0.08 -0.08)">
       <defs>
        <path id="DejaVuSans-d7" d="M 4488 3438 
L 3059 2003 
L 4488 575 
L 4116 197 
L 2681 1631 
L 1247 197 
L 878 575 
L 2303 2003 
L 878 3438 
L 1247 3816 
L 2681 2381 
L 4116 3816 
L 4488 3438 
z
" transform="scale(0.015625)"/>
       </defs>
       <use xlink:href="#DejaVuSans-32" transform="translate(0 0.684375)"/>
       <use xlink:href="#DejaVuSans-d7" transform="translate(81.181641 0.684375)"/>
       <use xlink:href="#DejaVuSans-31" transform="translate(182.529297 0.684375)"/>
       <use xlink:href="#DejaVuSans-30" transform="translate(246.152344 0.684375)"/>
       <use xlink:href="#DejaVuSans-2212" transform="translate(310.732422 38.965625) scale(0.7)"/>
       <use xlink:href="#DejaVuSans-35" transform="translate(369.384766 38.965625) scale(0.7)"/>
      </g>
     </g>
    </g>
   </g>
   <g id="line2d_28">
    <path d="M 209.301815 256.064337 
L 210.231982 256.07674 
L 211.162148 256.087202 
L 212.092315 256.179764 
L 213.022481 256.179237 
L 213.952647 256.1745 
L 214.882814 256.123489 
L 215.81298 256.110981 
L 216.743147 255.976561 
L 217.673313 255.925701 
L 218.60348 255.433212 
L 219.533646 254.621322 
L 220.463812 242.768814 
L 221.393979 241.822715 
L 222.324145 237.306066 
L 223.254312 187.569648 
L 224.184478 166.145913 
L 225.114645 159.987721 
L 226.044811 156.506992 
L 226.974978 153.837656 
L 227.905144 129.594681 
L 228.83531 129.634479 
L 229.765477 129.989603 
L 230.695643 128.082152 
L 231.62581 110.770252 
L 232.555976 110.770252 
L 233.486143 110.224082 
L 234.416309 105.163598 
L 235.346475 101.069269 
L 236.276642 96.006325 
L 237.206808 72.008157 
L 238.136975 67.89998 
L 239.067141 65.350246 
L 239.997308 64.30976 
L 240.927474 54.923841 
L 241.857641 55.053477 
L 242.787807 56.206679 
L 243.717973 55.69576 
L 244.64814 56.16445 
L 245.578306 60.3443 
L 246.508473 60.394331 
L 247.438639 60.451867 
L 248.368806 60.963198 
L 249.298972 61.071619 
L 250.229138 62.044658 
L 251.159305 62.297417 
L 252.089471 64.557006 
L 253.019638 65.133967 
L 253.949804 65.651026 
L 254.879971 70.20859 
L 255.810137 70.20859 
L 256.740303 70.341225 
L 257.67047 71.32985 
L 258.600636 71.369648 
L 259.530803 71.674024 
L 260.460969 71.581609 
L 261.391136 70.641627 
L 262.321302 70.520998 
L 263.251469 69.429123 
L 264.181635 69.3462 
L 265.111801 69.24864 
L 266.041968 68.367178 
L 266.972134 68.290265 
L 267.902301 67.591151 
L 268.832467 67.528647 
L 269.762634 67.486371 
L 270.6928 67.103938 
L 271.622966 67.051874 
L 272.553133 66.580368 
L 273.483299 66.403879 
L 274.413466 64.917382 
L 275.343632 64.498088 
L 276.273799 64.265934 
L 277.203965 62.089902 
L 278.134132 61.866109 
L 279.064298 61.866109 
L 279.994464 61.749999 
L 280.924631 60.686762 
L 281.854797 60.5841 
L 282.784964 59.640036 
L 283.71513 59.495496 
L 284.645297 58.15817 
L 285.575463 58.073223 
L 286.505629 57.686694 
L 287.435796 57.595285 
L 288.365962 57.178893 
L 289.296129 56.976929 
L 290.226295 55.096316 
L 291.156462 55.042547 
L 292.086628 54.553614 
L 293.016794 54.496858 
L 293.946961 54.239846 
L 294.877127 54.161309 
L 295.807294 53.805332 
L 296.73746 53.675135 
L 297.667627 53.08365 
L 298.597793 52.894175 
L 299.52796 52.030697 
L 300.458126 51.779287 
L 301.388292 50.631035 
L 302.318459 50.631035 
L 303.248625 50.473207 
L 304.178792 49.031891 
L 305.108958 48.821047 
L 306.039125 46.892563 
L 306.969291 46.778101 
L 307.899457 45.740319 
L 308.829624 45.615299 
L 309.75979 44.483154 
L 310.689957 44.384146 
L 311.620123 43.48893 
L 312.55029 43.358133 
L 313.480456 42.174609 
L 314.410622 42.068991 
L 315.340789 41.115127 
L 316.270955 41.011726 
L 317.201122 40.078137 
L 318.131288 39.980295 
L 319.061455 39.097211 
L 319.991621 38.973501 
L 320.921788 38.919294 
L 321.851954 38.430735 
L 322.78212 34.132287 
L 323.712287 34.122063 
L 324.642453 34.030084 
L 325.57262 33.107036 
" clip-path="url(#p55a2478274)" style="fill: none; stroke: #348abd; stroke-width: 2; stroke-linecap: square"/>
   </g>
   <g id="patch_8">
    <path d="M 203.488275 267.3334 
L 203.488275 21.9534 
" style="fill: none; stroke: #bcbcbc; stroke-width: 0.8; stroke-linejoin: miter; stroke-linecap: square"/>
   </g>
   <g id="patch_9">
    <path d="M 331.38616 267.3334 
L 331.38616 21.9534 
" style="fill: none; stroke: #bcbcbc; stroke-width: 0.8; stroke-linejoin: miter; stroke-linecap: square"/>
   </g>
   <g id="patch_10">
    <path d="M 203.488275 267.3334 
L 331.38616 267.3334 
" style="fill: none; stroke: #bcbcbc; stroke-width: 0.8; stroke-linejoin: miter; stroke-linecap: square"/>
   </g>
   <g id="patch_11">
    <path d="M 203.488275 21.9534 
L 331.38616 21.9534 
" style="fill: none; stroke: #bcbcbc; stroke-width: 0.8; stroke-linejoin: miter; stroke-linecap: square"/>
   </g>
   <g id="text_11">
    <!-- Regularization -->
    <g transform="translate(226.158717 15.9534) scale(0.1152 -0.1152)">
     <defs>
      <path id="DejaVuSans-52" d="M 2841 2188 
Q 3044 2119 3236 1894 
Q 3428 1669 3622 1275 
L 4263 0 
L 3584 0 
L 2988 1197 
Q 2756 1666 2539 1819 
Q 2322 1972 1947 1972 
L 1259 1972 
L 1259 0 
L 628 0 
L 628 4666 
L 2053 4666 
Q 2853 4666 3247 4331 
Q 3641 3997 3641 3322 
Q 3641 2881 3436 2590 
Q 3231 2300 2841 2188 
z
M 1259 4147 
L 1259 2491 
L 2053 2491 
Q 2509 2491 2742 2702 
Q 2975 2913 2975 3322 
Q 2975 3731 2742 3939 
Q 2509 4147 2053 4147 
L 1259 4147 
z
" transform="scale(0.015625)"/>
      <path id="DejaVuSans-65" d="M 3597 1894 
L 3597 1613 
L 953 1613 
Q 991 1019 1311 708 
Q 1631 397 2203 397 
Q 2534 397 2845 478 
Q 3156 559 3463 722 
L 3463 178 
Q 3153 47 2828 -22 
Q 2503 -91 2169 -91 
Q 1331 -91 842 396 
Q 353 884 353 1716 
Q 353 2575 817 3079 
Q 1281 3584 2069 3584 
Q 2775 3584 3186 3129 
Q 3597 2675 3597 1894 
z
M 3022 2063 
Q 3016 2534 2758 2815 
Q 2500 3097 2075 3097 
Q 1594 3097 1305 2825 
Q 1016 2553 972 2059 
L 3022 2063 
z
" transform="scale(0.015625)"/>
      <path id="DejaVuSans-67" d="M 2906 1791 
Q 2906 2416 2648 2759 
Q 2391 3103 1925 3103 
Q 1463 3103 1205 2759 
Q 947 2416 947 1791 
Q 947 1169 1205 825 
Q 1463 481 1925 481 
Q 2391 481 2648 825 
Q 2906 1169 2906 1791 
z
M 3481 434 
Q 3481 -459 3084 -895 
Q 2688 -1331 1869 -1331 
Q 1566 -1331 1297 -1286 
Q 1028 -1241 775 -1147 
L 775 -588 
Q 1028 -725 1275 -790 
Q 1522 -856 1778 -856 
Q 2344 -856 2625 -561 
Q 2906 -266 2906 331 
L 2906 616 
Q 2728 306 2450 153 
Q 2172 0 1784 0 
Q 1141 0 747 490 
Q 353 981 353 1791 
Q 353 2603 747 3093 
Q 1141 3584 1784 3584 
Q 2172 3584 2450 3431 
Q 2728 3278 2906 2969 
L 2906 3500 
L 3481 3500 
L 3481 434 
z
" transform="scale(0.015625)"/>
      <path id="DejaVuSans-75" d="M 544 1381 
L 544 3500 
L 1119 3500 
L 1119 1403 
Q 1119 906 1312 657 
Q 1506 409 1894 409 
Q 2359 409 2629 706 
Q 2900 1003 2900 1516 
L 2900 3500 
L 3475 3500 
L 3475 0 
L 2900 0 
L 2900 538 
Q 2691 219 2414 64 
Q 2138 -91 1772 -91 
Q 1169 -91 856 284 
Q 544 659 544 1381 
z
M 1991 3584 
L 1991 3584 
z
" transform="scale(0.015625)"/>
      <path id="DejaVuSans-72" d="M 2631 2963 
Q 2534 3019 2420 3045 
Q 2306 3072 2169 3072 
Q 1681 3072 1420 2755 
Q 1159 2438 1159 1844 
L 1159 0 
L 581 0 
L 581 3500 
L 1159 3500 
L 1159 2956 
Q 1341 3275 1631 3429 
Q 1922 3584 2338 3584 
Q 2397 3584 2469 3576 
Q 2541 3569 2628 3553 
L 2631 2963 
z
" transform="scale(0.015625)"/>
      <path id="DejaVuSans-69" d="M 603 3500 
L 1178 3500 
L 1178 0 
L 603 0 
L 603 3500 
z
M 603 4863 
L 1178 4863 
L 1178 4134 
L 603 4134 
L 603 4863 
z
" transform="scale(0.015625)"/>
      <path id="DejaVuSans-7a" d="M 353 3500 
L 3084 3500 
L 3084 2975 
L 922 459 
L 3084 459 
L 3084 0 
L 275 0 
L 275 525 
L 2438 3041 
L 353 3041 
L 353 3500 
z
" transform="scale(0.015625)"/>
      <path id="DejaVuSans-6e" d="M 3513 2113 
L 3513 0 
L 2938 0 
L 2938 2094 
Q 2938 2591 2744 2837 
Q 2550 3084 2163 3084 
Q 1697 3084 1428 2787 
Q 1159 2491 1159 1978 
L 1159 0 
L 581 0 
L 581 3500 
L 1159 3500 
L 1159 2956 
Q 1366 3272 1645 3428 
Q 1925 3584 2291 3584 
Q 2894 3584 3203 3211 
Q 3513 2838 3513 2113 
z
" transform="scale(0.015625)"/>
     </defs>
     <use xlink:href="#DejaVuSans-52"/>
     <use xlink:href="#DejaVuSans-65" x="64.982422"/>
     <use xlink:href="#DejaVuSans-67" x="126.505859"/>
     <use xlink:href="#DejaVuSans-75" x="189.982422"/>
     <use xlink:href="#DejaVuSans-6c" x="253.361328"/>
     <use xlink:href="#DejaVuSans-61" x="281.144531"/>
     <use xlink:href="#DejaVuSans-72" x="342.423828"/>
     <use xlink:href="#DejaVuSans-69" x="383.537109"/>
     <use xlink:href="#DejaVuSans-7a" x="411.320312"/>
     <use xlink:href="#DejaVuSans-61" x="463.810547"/>
     <use xlink:href="#DejaVuSans-74" x="525.089844"/>
     <use xlink:href="#DejaVuSans-69" x="564.298828"/>
     <use xlink:href="#DejaVuSans-6f" x="592.082031"/>
     <use xlink:href="#DejaVuSans-6e" x="653.263672"/>
    </g>
   </g>
  </g>
  <g id="axes_3">
   <g id="patch_12">
    <path d="M 377.47655 267.3334 
L 505.374435 267.3334 
L 505.374435 21.9534 
L 377.47655 21.9534 
z
" style="fill: #eeeeee"/>
   </g>
   <g id="matplotlib.axis_5">
    <g id="xtick_7">
     <g id="line2d_29">
      <path d="M 383.29009 267.3334 
L 383.29009 21.9534 
" clip-path="url(#p453c98ba8f)" style="fill: none; stroke-dasharray: 1.85,0.8; stroke-dashoffset: 0; stroke: #b2b2b2; stroke-width: 0.5"/>
     </g>
     <g id="line2d_30">
      <g>
       <use xlink:href="#m253919954c" x="383.29009" y="267.3334" style="stroke: #000000; stroke-width: 0.8"/>
      </g>
     </g>
     <g id="text_12">
      <!-- 0 -->
      <g transform="translate(380.74509 276.91215) scale(0.08 -0.08)">
       <use xlink:href="#DejaVuSans-30"/>
      </g>
     </g>
    </g>
    <g id="xtick_8">
     <g id="line2d_31">
      <path d="M 429.798412 267.3334 
L 429.798412 21.9534 
" clip-path="url(#p453c98ba8f)" style="fill: none; stroke-dasharray: 1.85,0.8; stroke-dashoffset: 0; stroke: #b2b2b2; stroke-width: 0.5"/>
     </g>
     <g id="line2d_32">
      <g>
       <use xlink:href="#m253919954c" x="429.798412" y="267.3334" style="stroke: #000000; stroke-width: 0.8"/>
      </g>
     </g>
     <g id="text_13">
      <!-- 50 -->
      <g transform="translate(424.708412 276.91215) scale(0.08 -0.08)">
       <use xlink:href="#DejaVuSans-35"/>
       <use xlink:href="#DejaVuSans-30" x="63.623047"/>
      </g>
     </g>
    </g>
    <g id="xtick_9">
     <g id="line2d_33">
      <path d="M 476.306734 267.3334 
L 476.306734 21.9534 
" clip-path="url(#p453c98ba8f)" style="fill: none; stroke-dasharray: 1.85,0.8; stroke-dashoffset: 0; stroke: #b2b2b2; stroke-width: 0.5"/>
     </g>
     <g id="line2d_34">
      <g>
       <use xlink:href="#m253919954c" x="476.306734" y="267.3334" style="stroke: #000000; stroke-width: 0.8"/>
      </g>
     </g>
     <g id="text_14">
      <!-- 100 -->
      <g transform="translate(468.671734 276.91215) scale(0.08 -0.08)">
       <use xlink:href="#DejaVuSans-31"/>
       <use xlink:href="#DejaVuSans-30" x="63.623047"/>
       <use xlink:href="#DejaVuSans-30" x="127.246094"/>
      </g>
     </g>
    </g>
   </g>
   <g id="matplotlib.axis_6">
    <g id="ytick_13">
     <g id="line2d_35">
      <path d="M 377.47655 198.940553 
L 505.374435 198.940553 
" clip-path="url(#p453c98ba8f)" style="fill: none; stroke-dasharray: 1.85,0.8; stroke-dashoffset: 0; stroke: #b2b2b2; stroke-width: 0.5"/>
     </g>
     <g id="line2d_36">
      <g>
       <use xlink:href="#m7baa7eb870" x="377.47655" y="198.940553" style="stroke: #000000; stroke-width: 0.8"/>
      </g>
     </g>
     <g id="text_15">
      <!-- $\mathdefault{10^{-4}}$ -->
      <g transform="translate(355.17655 201.979928) scale(0.08 -0.08)">
       <defs>
        <path id="DejaVuSans-34" d="M 2419 4116 
L 825 1625 
L 2419 1625 
L 2419 4116 
z
M 2253 4666 
L 3047 4666 
L 3047 1625 
L 3713 1625 
L 3713 1100 
L 3047 1100 
L 3047 0 
L 2419 0 
L 2419 1100 
L 313 1100 
L 313 1709 
L 2253 4666 
z
" transform="scale(0.015625)"/>
       </defs>
       <use xlink:href="#DejaVuSans-31" transform="translate(0 0.684375)"/>
       <use xlink:href="#DejaVuSans-30" transform="translate(63.623047 0.684375)"/>
       <use xlink:href="#DejaVuSans-2212" transform="translate(128.203125 38.965625) scale(0.7)"/>
       <use xlink:href="#DejaVuSans-34" transform="translate(186.855469 38.965625) scale(0.7)"/>
      </g>
     </g>
    </g>
    <g id="ytick_14">
     <g id="line2d_37">
      <path d="M 377.47655 38.398443 
L 505.374435 38.398443 
" clip-path="url(#p453c98ba8f)" style="fill: none; stroke-dasharray: 1.85,0.8; stroke-dashoffset: 0; stroke: #b2b2b2; stroke-width: 0.5"/>
     </g>
     <g id="line2d_38">
      <g>
       <use xlink:href="#m7baa7eb870" x="377.47655" y="38.398443" style="stroke: #000000; stroke-width: 0.8"/>
      </g>
     </g>
     <g id="text_16">
      <!-- $\mathdefault{10^{-3}}$ -->
      <g transform="translate(355.17655 41.437818) scale(0.08 -0.08)">
       <defs>
        <path id="DejaVuSans-33" d="M 2597 2516 
Q 3050 2419 3304 2112 
Q 3559 1806 3559 1356 
Q 3559 666 3084 287 
Q 2609 -91 1734 -91 
Q 1441 -91 1130 -33 
Q 819 25 488 141 
L 488 750 
Q 750 597 1062 519 
Q 1375 441 1716 441 
Q 2309 441 2620 675 
Q 2931 909 2931 1356 
Q 2931 1769 2642 2001 
Q 2353 2234 1838 2234 
L 1294 2234 
L 1294 2753 
L 1863 2753 
Q 2328 2753 2575 2939 
Q 2822 3125 2822 3475 
Q 2822 3834 2567 4026 
Q 2313 4219 1838 4219 
Q 1578 4219 1281 4162 
Q 984 4106 628 3988 
L 628 4550 
Q 988 4650 1302 4700 
Q 1616 4750 1894 4750 
Q 2613 4750 3031 4423 
Q 3450 4097 3450 3541 
Q 3450 3153 3228 2886 
Q 3006 2619 2597 2516 
z
" transform="scale(0.015625)"/>
       </defs>
       <use xlink:href="#DejaVuSans-31" transform="translate(0 0.765625)"/>
       <use xlink:href="#DejaVuSans-30" transform="translate(63.623047 0.765625)"/>
       <use xlink:href="#DejaVuSans-2212" transform="translate(128.203125 39.046875) scale(0.7)"/>
       <use xlink:href="#DejaVuSans-33" transform="translate(186.855469 39.046875) scale(0.7)"/>
      </g>
     </g>
    </g>
    <g id="ytick_15">
     <g id="line2d_39">
      <g>
       <use xlink:href="#ma55ca55dfb" x="377.47655" y="262.826682" style="stroke: #000000; stroke-width: 0.6"/>
      </g>
     </g>
    </g>
    <g id="ytick_16">
     <g id="line2d_40">
      <g>
       <use xlink:href="#ma55ca55dfb" x="377.47655" y="247.268544" style="stroke: #000000; stroke-width: 0.6"/>
      </g>
     </g>
    </g>
    <g id="ytick_17">
     <g id="line2d_41">
      <g>
       <use xlink:href="#ma55ca55dfb" x="377.47655" y="234.55662" style="stroke: #000000; stroke-width: 0.6"/>
      </g>
     </g>
    </g>
    <g id="ytick_18">
     <g id="line2d_42">
      <g>
       <use xlink:href="#ma55ca55dfb" x="377.47655" y="223.808841" style="stroke: #000000; stroke-width: 0.6"/>
      </g>
     </g>
    </g>
    <g id="ytick_19">
     <g id="line2d_43">
      <g>
       <use xlink:href="#ma55ca55dfb" x="377.47655" y="214.498691" style="stroke: #000000; stroke-width: 0.6"/>
      </g>
     </g>
    </g>
    <g id="ytick_20">
     <g id="line2d_44">
      <g>
       <use xlink:href="#ma55ca55dfb" x="377.47655" y="206.286557" style="stroke: #000000; stroke-width: 0.6"/>
      </g>
     </g>
    </g>
    <g id="ytick_21">
     <g id="line2d_45">
      <g>
       <use xlink:href="#ma55ca55dfb" x="377.47655" y="150.612562" style="stroke: #000000; stroke-width: 0.6"/>
      </g>
     </g>
    </g>
    <g id="ytick_22">
     <g id="line2d_46">
      <g>
       <use xlink:href="#ma55ca55dfb" x="377.47655" y="122.3425" style="stroke: #000000; stroke-width: 0.6"/>
      </g>
     </g>
    </g>
    <g id="ytick_23">
     <g id="line2d_47">
      <g>
       <use xlink:href="#ma55ca55dfb" x="377.47655" y="102.284572" style="stroke: #000000; stroke-width: 0.6"/>
      </g>
     </g>
    </g>
    <g id="ytick_24">
     <g id="line2d_48">
      <g>
       <use xlink:href="#ma55ca55dfb" x="377.47655" y="86.726434" style="stroke: #000000; stroke-width: 0.6"/>
      </g>
     </g>
    </g>
    <g id="ytick_25">
     <g id="line2d_49">
      <g>
       <use xlink:href="#ma55ca55dfb" x="377.47655" y="74.014509" style="stroke: #000000; stroke-width: 0.6"/>
      </g>
     </g>
    </g>
    <g id="ytick_26">
     <g id="line2d_50">
      <g>
       <use xlink:href="#ma55ca55dfb" x="377.47655" y="63.26673" style="stroke: #000000; stroke-width: 0.6"/>
      </g>
     </g>
    </g>
    <g id="ytick_27">
     <g id="line2d_51">
      <g>
       <use xlink:href="#ma55ca55dfb" x="377.47655" y="53.956581" style="stroke: #000000; stroke-width: 0.6"/>
      </g>
     </g>
    </g>
    <g id="ytick_28">
     <g id="line2d_52">
      <g>
       <use xlink:href="#ma55ca55dfb" x="377.47655" y="45.744447" style="stroke: #000000; stroke-width: 0.6"/>
      </g>
     </g>
    </g>
   </g>
   <g id="line2d_53">
    <path d="M 383.29009 256.179764 
L 384.220257 255.099499 
L 385.150423 254.175048 
L 386.08059 247.343996 
L 387.010756 247.344585 
L 387.940922 247.349969 
L 388.871089 247.412229 
L 389.801255 247.15671 
L 390.731422 245.047036 
L 391.661588 245.205699 
L 392.591755 246.975078 
L 393.521921 250.469911 
L 394.452088 234.572802 
L 395.382254 233.509333 
L 396.31242 227.982331 
L 397.242587 207.708468 
L 398.172753 187.809584 
L 399.10292 184.093369 
L 400.033086 182.140041 
L 400.963253 180.925132 
L 401.893419 165.266134 
L 402.823585 165.643858 
L 403.753752 169.002196 
L 404.683918 170.868473 
L 405.614085 164.059724 
L 406.544251 164.059724 
L 407.474418 165.373912 
L 408.404584 165.09009 
L 409.334751 163.699405 
L 410.264917 150.443266 
L 411.195083 85.674373 
L 412.12525 87.752732 
L 413.055416 82.173016 
L 413.985583 81.457579 
L 414.915749 77.310557 
L 415.845916 78.341064 
L 416.776082 85.840432 
L 417.706248 85.013552 
L 418.636415 85.783273 
L 419.566581 87.85545 
L 420.496748 87.125168 
L 421.426914 86.679604 
L 422.357081 82.95337 
L 423.287247 82.943982 
L 424.217413 82.975957 
L 425.14758 83.334649 
L 426.077746 87.294813 
L 427.007913 88.585501 
L 427.938079 89.992027 
L 428.868246 104.152984 
L 429.798412 104.152984 
L 430.728579 102.957515 
L 431.658745 88.990367 
L 432.588911 88.845053 
L 433.519078 88.530921 
L 434.449244 87.729779 
L 435.379411 81.802217 
L 436.309577 81.216314 
L 437.239744 75.751394 
L 438.16991 75.18168 
L 439.100076 74.701446 
L 440.030243 70.495601 
L 440.960409 70.142255 
L 441.890576 67.204785 
L 442.820742 67.208189 
L 443.750909 67.202263 
L 444.681075 67.310773 
L 445.611242 67.18883 
L 446.541408 66.224385 
L 447.471574 65.164538 
L 448.401741 56.612308 
L 449.331907 56.637313 
L 450.262074 55.744351 
L 451.19224 51.121791 
L 452.122407 49.591789 
L 453.052573 49.591789 
L 453.982739 48.89555 
L 454.912906 43.118319 
L 455.843072 42.588284 
L 456.773239 38.474527 
L 457.703405 38.198388 
L 458.633572 36.487049 
L 459.563738 36.100768 
L 460.493904 34.474849 
L 461.424071 34.199363 
L 462.354237 33.107036 
L 463.284404 33.153359 
L 464.21457 35.599259 
L 465.144737 35.456939 
L 466.074903 34.316329 
L 467.00507 34.256567 
L 467.935236 34.025579 
L 468.865402 34.005517 
L 469.795569 33.982497 
L 470.725735 34.13942 
L 471.655902 35.020716 
L 472.586068 35.047237 
L 473.516235 35.470036 
L 474.446401 36.091729 
L 475.376567 39.543127 
L 476.306734 39.543127 
L 477.2369 40.098547 
L 478.167067 46.145399 
L 479.097233 46.942271 
L 480.0274 55.778622 
L 480.957566 56.225599 
L 481.887732 60.639428 
L 482.817899 61.067257 
L 483.748065 65.239108 
L 484.678232 65.552147 
L 485.608398 68.540463 
L 486.538565 69.170482 
L 487.468731 75.141186 
L 488.398898 75.401259 
L 489.329064 77.845009 
L 490.25923 78.023573 
L 491.189397 79.575535 
L 492.119563 79.746437 
L 493.04973 80.95288 
L 493.979896 80.299723 
L 494.910063 80.281731 
L 495.840229 80.011602 
L 496.770395 68.000324 
L 497.700562 68.014156 
L 498.630728 68.138696 
L 499.560895 69.388783 
" clip-path="url(#p453c98ba8f)" style="fill: none; stroke: #348abd; stroke-width: 2; stroke-linecap: square"/>
   </g>
   <g id="patch_13">
    <path d="M 377.47655 267.3334 
L 377.47655 21.9534 
" style="fill: none; stroke: #bcbcbc; stroke-width: 0.8; stroke-linejoin: miter; stroke-linecap: square"/>
   </g>
   <g id="patch_14">
    <path d="M 505.374435 267.3334 
L 505.374435 21.9534 
" style="fill: none; stroke: #bcbcbc; stroke-width: 0.8; stroke-linejoin: miter; stroke-linecap: square"/>
   </g>
   <g id="patch_15">
    <path d="M 377.47655 267.3334 
L 505.374435 267.3334 
" style="fill: none; stroke: #bcbcbc; stroke-width: 0.8; stroke-linejoin: miter; stroke-linecap: square"/>
   </g>
   <g id="patch_16">
    <path d="M 377.47655 21.9534 
L 505.374435 21.9534 
" style="fill: none; stroke: #bcbcbc; stroke-width: 0.8; stroke-linejoin: miter; stroke-linecap: square"/>
   </g>
   <g id="text_17">
    <!-- 2nd Order Penalty -->
    <g transform="translate(389.166093 15.9534) scale(0.1152 -0.1152)">
     <defs>
      <path id="DejaVuSans-64" d="M 2906 2969 
L 2906 4863 
L 3481 4863 
L 3481 0 
L 2906 0 
L 2906 525 
Q 2725 213 2448 61 
Q 2172 -91 1784 -91 
Q 1150 -91 751 415 
Q 353 922 353 1747 
Q 353 2572 751 3078 
Q 1150 3584 1784 3584 
Q 2172 3584 2448 3432 
Q 2725 3281 2906 2969 
z
M 947 1747 
Q 947 1113 1208 752 
Q 1469 391 1925 391 
Q 2381 391 2643 752 
Q 2906 1113 2906 1747 
Q 2906 2381 2643 2742 
Q 2381 3103 1925 3103 
Q 1469 3103 1208 2742 
Q 947 2381 947 1747 
z
" transform="scale(0.015625)"/>
      <path id="DejaVuSans-4f" d="M 2522 4238 
Q 1834 4238 1429 3725 
Q 1025 3213 1025 2328 
Q 1025 1447 1429 934 
Q 1834 422 2522 422 
Q 3209 422 3611 934 
Q 4013 1447 4013 2328 
Q 4013 3213 3611 3725 
Q 3209 4238 2522 4238 
z
M 2522 4750 
Q 3503 4750 4090 4092 
Q 4678 3434 4678 2328 
Q 4678 1225 4090 567 
Q 3503 -91 2522 -91 
Q 1538 -91 948 565 
Q 359 1222 359 2328 
Q 359 3434 948 4092 
Q 1538 4750 2522 4750 
z
" transform="scale(0.015625)"/>
      <path id="DejaVuSans-50" d="M 1259 4147 
L 1259 2394 
L 2053 2394 
Q 2494 2394 2734 2622 
Q 2975 2850 2975 3272 
Q 2975 3691 2734 3919 
Q 2494 4147 2053 4147 
L 1259 4147 
z
M 628 4666 
L 2053 4666 
Q 2838 4666 3239 4311 
Q 3641 3956 3641 3272 
Q 3641 2581 3239 2228 
Q 2838 1875 2053 1875 
L 1259 1875 
L 1259 0 
L 628 0 
L 628 4666 
z
" transform="scale(0.015625)"/>
      <path id="DejaVuSans-79" d="M 2059 -325 
Q 1816 -950 1584 -1140 
Q 1353 -1331 966 -1331 
L 506 -1331 
L 506 -850 
L 844 -850 
Q 1081 -850 1212 -737 
Q 1344 -625 1503 -206 
L 1606 56 
L 191 3500 
L 800 3500 
L 1894 763 
L 2988 3500 
L 3597 3500 
L 2059 -325 
z
" transform="scale(0.015625)"/>
     </defs>
     <use xlink:href="#DejaVuSans-32"/>
     <use xlink:href="#DejaVuSans-6e" x="63.623047"/>
     <use xlink:href="#DejaVuSans-64" x="127.001953"/>
     <use xlink:href="#DejaVuSans-20" x="190.478516"/>
     <use xlink:href="#DejaVuSans-4f" x="222.265625"/>
     <use xlink:href="#DejaVuSans-72" x="300.976562"/>
     <use xlink:href="#DejaVuSans-64" x="340.339844"/>
     <use xlink:href="#DejaVuSans-65" x="403.816406"/>
     <use xlink:href="#DejaVuSans-72" x="465.339844"/>
     <use xlink:href="#DejaVuSans-20" x="506.453125"/>
     <use xlink:href="#DejaVuSans-50" x="538.240234"/>
     <use xlink:href="#DejaVuSans-65" x="594.917969"/>
     <use xlink:href="#DejaVuSans-6e" x="656.441406"/>
     <use xlink:href="#DejaVuSans-61" x="719.820312"/>
     <use xlink:href="#DejaVuSans-6c" x="781.099609"/>
     <use xlink:href="#DejaVuSans-74" x="808.882812"/>
     <use xlink:href="#DejaVuSans-79" x="848.091797"/>
    </g>
   </g>
  </g>
  <g id="axes_4">
   <g id="patch_17">
    <path d="M 551.464825 267.3334 
L 679.36271 267.3334 
L 679.36271 21.9534 
L 551.464825 21.9534 
z
" style="fill: #eeeeee"/>
   </g>
   <g id="matplotlib.axis_7">
    <g id="xtick_10">
     <g id="line2d_54">
      <path d="M 557.278365 267.3334 
L 557.278365 21.9534 
" clip-path="url(#p65a563c2b1)" style="fill: none; stroke-dasharray: 1.85,0.8; stroke-dashoffset: 0; stroke: #b2b2b2; stroke-width: 0.5"/>
     </g>
     <g id="line2d_55">
      <g>
       <use xlink:href="#m253919954c" x="557.278365" y="267.3334" style="stroke: #000000; stroke-width: 0.8"/>
      </g>
     </g>
     <g id="text_18">
      <!-- 0 -->
      <g transform="translate(554.733365 276.91215) scale(0.08 -0.08)">
       <use xlink:href="#DejaVuSans-30"/>
      </g>
     </g>
    </g>
    <g id="xtick_11">
     <g id="line2d_56">
      <path d="M 603.786687 267.3334 
L 603.786687 21.9534 
" clip-path="url(#p65a563c2b1)" style="fill: none; stroke-dasharray: 1.85,0.8; stroke-dashoffset: 0; stroke: #b2b2b2; stroke-width: 0.5"/>
     </g>
     <g id="line2d_57">
      <g>
       <use xlink:href="#m253919954c" x="603.786687" y="267.3334" style="stroke: #000000; stroke-width: 0.8"/>
      </g>
     </g>
     <g id="text_19">
      <!-- 50 -->
      <g transform="translate(598.696687 276.91215) scale(0.08 -0.08)">
       <use xlink:href="#DejaVuSans-35"/>
       <use xlink:href="#DejaVuSans-30" x="63.623047"/>
      </g>
     </g>
    </g>
    <g id="xtick_12">
     <g id="line2d_58">
      <path d="M 650.295009 267.3334 
L 650.295009 21.9534 
" clip-path="url(#p65a563c2b1)" style="fill: none; stroke-dasharray: 1.85,0.8; stroke-dashoffset: 0; stroke: #b2b2b2; stroke-width: 0.5"/>
     </g>
     <g id="line2d_59">
      <g>
       <use xlink:href="#m253919954c" x="650.295009" y="267.3334" style="stroke: #000000; stroke-width: 0.8"/>
      </g>
     </g>
     <g id="text_20">
      <!-- 100 -->
      <g transform="translate(642.660009 276.91215) scale(0.08 -0.08)">
       <use xlink:href="#DejaVuSans-31"/>
       <use xlink:href="#DejaVuSans-30" x="63.623047"/>
       <use xlink:href="#DejaVuSans-30" x="127.246094"/>
      </g>
     </g>
    </g>
   </g>
   <g id="matplotlib.axis_8">
    <g id="ytick_29">
     <g id="line2d_60">
      <g>
       <use xlink:href="#ma55ca55dfb" x="551.464825" y="169.849932" style="stroke: #000000; stroke-width: 0.6"/>
      </g>
     </g>
     <g id="text_21">
      <!-- $\mathdefault{8\times10^{-7}}$ -->
      <g transform="translate(514.704825 172.889307) scale(0.08 -0.08)">
       <defs>
        <path id="DejaVuSans-38" d="M 2034 2216 
Q 1584 2216 1326 1975 
Q 1069 1734 1069 1313 
Q 1069 891 1326 650 
Q 1584 409 2034 409 
Q 2484 409 2743 651 
Q 3003 894 3003 1313 
Q 3003 1734 2745 1975 
Q 2488 2216 2034 2216 
z
M 1403 2484 
Q 997 2584 770 2862 
Q 544 3141 544 3541 
Q 544 4100 942 4425 
Q 1341 4750 2034 4750 
Q 2731 4750 3128 4425 
Q 3525 4100 3525 3541 
Q 3525 3141 3298 2862 
Q 3072 2584 2669 2484 
Q 3125 2378 3379 2068 
Q 3634 1759 3634 1313 
Q 3634 634 3220 271 
Q 2806 -91 2034 -91 
Q 1263 -91 848 271 
Q 434 634 434 1313 
Q 434 1759 690 2068 
Q 947 2378 1403 2484 
z
M 1172 3481 
Q 1172 3119 1398 2916 
Q 1625 2713 2034 2713 
Q 2441 2713 2670 2916 
Q 2900 3119 2900 3481 
Q 2900 3844 2670 4047 
Q 2441 4250 2034 4250 
Q 1625 4250 1398 4047 
Q 1172 3844 1172 3481 
z
" transform="scale(0.015625)"/>
        <path id="DejaVuSans-37" d="M 525 4666 
L 3525 4666 
L 3525 4397 
L 1831 0 
L 1172 0 
L 2766 4134 
L 525 4134 
L 525 4666 
z
" transform="scale(0.015625)"/>
       </defs>
       <use xlink:href="#DejaVuSans-38" transform="translate(0 0.684375)"/>
       <use xlink:href="#DejaVuSans-d7" transform="translate(81.181641 0.684375)"/>
       <use xlink:href="#DejaVuSans-31" transform="translate(182.529297 0.684375)"/>
       <use xlink:href="#DejaVuSans-30" transform="translate(246.152344 0.684375)"/>
       <use xlink:href="#DejaVuSans-2212" transform="translate(310.732422 38.965625) scale(0.7)"/>
       <use xlink:href="#DejaVuSans-37" transform="translate(369.384766 38.965625) scale(0.7)"/>
      </g>
     </g>
    </g>
    <g id="ytick_30">
     <g id="line2d_61">
      <g>
       <use xlink:href="#ma55ca55dfb" x="551.464825" y="83.596846" style="stroke: #000000; stroke-width: 0.6"/>
      </g>
     </g>
     <g id="text_22">
      <!-- $\mathdefault{9\times10^{-7}}$ -->
      <g transform="translate(514.704825 86.636221) scale(0.08 -0.08)">
       <defs>
        <path id="DejaVuSans-39" d="M 703 97 
L 703 672 
Q 941 559 1184 500 
Q 1428 441 1663 441 
Q 2288 441 2617 861 
Q 2947 1281 2994 2138 
Q 2813 1869 2534 1725 
Q 2256 1581 1919 1581 
Q 1219 1581 811 2004 
Q 403 2428 403 3163 
Q 403 3881 828 4315 
Q 1253 4750 1959 4750 
Q 2769 4750 3195 4129 
Q 3622 3509 3622 2328 
Q 3622 1225 3098 567 
Q 2575 -91 1691 -91 
Q 1453 -91 1209 -44 
Q 966 3 703 97 
z
M 1959 2075 
Q 2384 2075 2632 2365 
Q 2881 2656 2881 3163 
Q 2881 3666 2632 3958 
Q 2384 4250 1959 4250 
Q 1534 4250 1286 3958 
Q 1038 3666 1038 3163 
Q 1038 2656 1286 2365 
Q 1534 2075 1959 2075 
z
" transform="scale(0.015625)"/>
       </defs>
       <use xlink:href="#DejaVuSans-39" transform="translate(0 0.684375)"/>
       <use xlink:href="#DejaVuSans-d7" transform="translate(81.181641 0.684375)"/>
       <use xlink:href="#DejaVuSans-31" transform="translate(182.529297 0.684375)"/>
       <use xlink:href="#DejaVuSans-30" transform="translate(246.152344 0.684375)"/>
       <use xlink:href="#DejaVuSans-2212" transform="translate(310.732422 38.965625) scale(0.7)"/>
       <use xlink:href="#DejaVuSans-37" transform="translate(369.384766 38.965625) scale(0.7)"/>
      </g>
     </g>
    </g>
   </g>
   <g id="line2d_62">
    <path d="M 557.278365 33.107036 
L 558.208532 36.703403 
L 559.138698 40.14097 
L 560.068865 71.20013 
L 560.999031 71.361268 
L 561.929198 72.811963 
L 562.859364 87.364323 
L 563.78953 88.326843 
L 564.719697 97.0344 
L 565.649863 97.561545 
L 566.58003 102.347771 
L 567.510196 106.253031 
L 568.440363 147.608934 
L 569.370529 148.49923 
L 570.300695 153.040293 
L 571.230862 224.335557 
L 572.161028 256.179764 
L 573.091195 248.269132 
L 574.021361 243.292848 
L 574.951528 238.432945 
L 575.881694 190.615468 
L 576.811861 190.409888 
L 577.742027 188.538882 
L 578.672193 188.362541 
L 579.60236 180.271716 
L 580.532526 180.271716 
L 581.462693 180.318269 
L 582.392859 180.415131 
L 583.323026 185.218385 
L 584.253192 182.833767 
L 585.183358 153.806432 
L 586.113525 149.120507 
L 587.043691 139.632522 
L 587.973858 135.159004 
L 588.904024 78.345475 
L 589.834191 78.031027 
L 590.764357 75.410419 
L 591.694523 61.875781 
L 592.62469 62.274378 
L 593.554856 65.982393 
L 594.485023 64.407762 
L 595.415189 63.465174 
L 596.345356 55.085188 
L 597.275522 55.108765 
L 598.205689 55.263241 
L 599.135855 56.094241 
L 600.066021 62.594311 
L 600.996188 66.90793 
L 601.926354 70.061717 
L 602.856521 92.234224 
L 603.786687 92.234224 
L 604.716854 91.089579 
L 605.64702 81.020593 
L 606.577186 81.909692 
L 607.507353 89.357802 
L 608.437519 89.591997 
L 609.367686 90.620117 
L 610.297852 90.881717 
L 611.228019 93.233725 
L 612.158185 92.984542 
L 613.088352 93.077776 
L 614.018518 93.952418 
L 614.948684 93.918033 
L 615.878851 93.541034 
L 616.809017 94.053236 
L 617.739184 94.337608 
L 618.66935 96.87731 
L 619.599517 97.051501 
L 620.529683 98.58879 
L 621.459849 98.961077 
L 622.390016 101.727747 
L 623.320182 100.843396 
L 624.250349 100.47053 
L 625.180515 95.710296 
L 626.110682 95.532616 
L 627.040848 95.532616 
L 627.971014 95.266154 
L 628.901181 92.70828 
L 629.831347 92.393223 
L 630.761514 89.356776 
L 631.69168 88.919591 
L 632.621847 84.397184 
L 633.552013 84.174827 
L 634.48218 83.140363 
L 635.412346 82.84612 
L 636.342512 81.481449 
L 637.272679 80.936946 
L 638.202845 75.41728 
L 639.133012 75.33738 
L 640.063178 74.595598 
L 640.993345 74.541095 
L 641.923511 74.289788 
L 642.853677 74.257913 
L 643.783844 74.10609 
L 644.71401 74.001681 
L 645.644177 73.513619 
L 646.574343 73.746041 
L 647.50451 74.787142 
L 648.434676 74.836316 
L 649.364842 75.040403 
L 650.295009 75.040403 
L 651.225175 75.089502 
L 652.155342 75.524178 
L 653.085508 75.664262 
L 654.015675 76.982327 
L 654.945841 77.11398 
L 655.876008 78.326464 
L 656.806174 78.553574 
L 657.73634 80.631425 
L 658.666507 80.805387 
L 659.596673 82.394195 
L 660.52684 82.438109 
L 661.457006 82.861507 
L 662.387173 83.002678 
L 663.317339 84.294585 
L 664.247505 84.343197 
L 665.177672 84.793687 
L 666.107838 84.803786 
L 667.038005 84.904835 
L 667.968171 84.573849 
L 668.898338 84.546386 
L 669.828504 84.298936 
L 670.758671 82.129285 
L 671.688837 82.089081 
L 672.619003 81.727025 
L 673.54917 78.110808 
" clip-path="url(#p65a563c2b1)" style="fill: none; stroke: #348abd; stroke-width: 2; stroke-linecap: square"/>
   </g>
   <g id="patch_18">
    <path d="M 551.464825 267.3334 
L 551.464825 21.9534 
" style="fill: none; stroke: #bcbcbc; stroke-width: 0.8; stroke-linejoin: miter; stroke-linecap: square"/>
   </g>
   <g id="patch_19">
    <path d="M 679.36271 267.3334 
L 679.36271 21.9534 
" style="fill: none; stroke: #bcbcbc; stroke-width: 0.8; stroke-linejoin: miter; stroke-linecap: square"/>
   </g>
   <g id="patch_20">
    <path d="M 551.464825 267.3334 
L 679.36271 267.3334 
" style="fill: none; stroke: #bcbcbc; stroke-width: 0.8; stroke-linejoin: miter; stroke-linecap: square"/>
   </g>
   <g id="patch_21">
    <path d="M 551.464825 21.9534 
L 679.36271 21.9534 
" style="fill: none; stroke: #bcbcbc; stroke-width: 0.8; stroke-linejoin: miter; stroke-linecap: square"/>
   </g>
   <g id="text_23">
    <!-- 1st Order Penalty -->
    <g transform="translate(565.202768 15.9534) scale(0.1152 -0.1152)">
     <use xlink:href="#DejaVuSans-31"/>
     <use xlink:href="#DejaVuSans-73" x="63.623047"/>
     <use xlink:href="#DejaVuSans-74" x="115.722656"/>
     <use xlink:href="#DejaVuSans-20" x="154.931641"/>
     <use xlink:href="#DejaVuSans-4f" x="186.71875"/>
     <use xlink:href="#DejaVuSans-72" x="265.429688"/>
     <use xlink:href="#DejaVuSans-64" x="304.792969"/>
     <use xlink:href="#DejaVuSans-65" x="368.269531"/>
     <use xlink:href="#DejaVuSans-72" x="429.792969"/>
     <use xlink:href="#DejaVuSans-20" x="470.90625"/>
     <use xlink:href="#DejaVuSans-50" x="502.693359"/>
     <use xlink:href="#DejaVuSans-65" x="559.371094"/>
     <use xlink:href="#DejaVuSans-6e" x="620.894531"/>
     <use xlink:href="#DejaVuSans-61" x="684.273438"/>
     <use xlink:href="#DejaVuSans-6c" x="745.552734"/>
     <use xlink:href="#DejaVuSans-74" x="773.335938"/>
     <use xlink:href="#DejaVuSans-79" x="812.544922"/>
    </g>
   </g>
  </g>
  <g id="axes_5">
   <g id="patch_22">
    <path d="M 725.4531 267.3334 
L 853.350985 267.3334 
L 853.350985 21.9534 
L 725.4531 21.9534 
z
" style="fill: #eeeeee"/>
   </g>
   <g id="matplotlib.axis_9">
    <g id="xtick_13">
     <g id="line2d_63">
      <path d="M 731.26664 267.3334 
L 731.26664 21.9534 
" clip-path="url(#p01e20077fe)" style="fill: none; stroke-dasharray: 1.85,0.8; stroke-dashoffset: 0; stroke: #b2b2b2; stroke-width: 0.5"/>
     </g>
     <g id="line2d_64">
      <g>
       <use xlink:href="#m253919954c" x="731.26664" y="267.3334" style="stroke: #000000; stroke-width: 0.8"/>
      </g>
     </g>
     <g id="text_24">
      <!-- 0 -->
      <g transform="translate(728.72164 276.91215) scale(0.08 -0.08)">
       <use xlink:href="#DejaVuSans-30"/>
      </g>
     </g>
    </g>
    <g id="xtick_14">
     <g id="line2d_65">
      <path d="M 777.774962 267.3334 
L 777.774962 21.9534 
" clip-path="url(#p01e20077fe)" style="fill: none; stroke-dasharray: 1.85,0.8; stroke-dashoffset: 0; stroke: #b2b2b2; stroke-width: 0.5"/>
     </g>
     <g id="line2d_66">
      <g>
       <use xlink:href="#m253919954c" x="777.774962" y="267.3334" style="stroke: #000000; stroke-width: 0.8"/>
      </g>
     </g>
     <g id="text_25">
      <!-- 50 -->
      <g transform="translate(772.684962 276.91215) scale(0.08 -0.08)">
       <use xlink:href="#DejaVuSans-35"/>
       <use xlink:href="#DejaVuSans-30" x="63.623047"/>
      </g>
     </g>
    </g>
    <g id="xtick_15">
     <g id="line2d_67">
      <path d="M 824.283284 267.3334 
L 824.283284 21.9534 
" clip-path="url(#p01e20077fe)" style="fill: none; stroke-dasharray: 1.85,0.8; stroke-dashoffset: 0; stroke: #b2b2b2; stroke-width: 0.5"/>
     </g>
     <g id="line2d_68">
      <g>
       <use xlink:href="#m253919954c" x="824.283284" y="267.3334" style="stroke: #000000; stroke-width: 0.8"/>
      </g>
     </g>
     <g id="text_26">
      <!-- 100 -->
      <g transform="translate(816.648284 276.91215) scale(0.08 -0.08)">
       <use xlink:href="#DejaVuSans-31"/>
       <use xlink:href="#DejaVuSans-30" x="63.623047"/>
       <use xlink:href="#DejaVuSans-30" x="127.246094"/>
      </g>
     </g>
    </g>
   </g>
   <g id="matplotlib.axis_10">
    <g id="ytick_31">
     <g id="line2d_69">
      <path d="M 725.4531 216.517881 
L 853.350985 216.517881 
" clip-path="url(#p01e20077fe)" style="fill: none; stroke-dasharray: 1.85,0.8; stroke-dashoffset: 0; stroke: #b2b2b2; stroke-width: 0.5"/>
     </g>
     <g id="line2d_70">
      <g>
       <use xlink:href="#m7baa7eb870" x="725.4531" y="216.517881" style="stroke: #000000; stroke-width: 0.8"/>
      </g>
     </g>
     <g id="text_27">
      <!-- $\mathdefault{10^{-2}}$ -->
      <g transform="translate(703.1531 219.557256) scale(0.08 -0.08)">
       <use xlink:href="#DejaVuSans-31" transform="translate(0 0.765625)"/>
       <use xlink:href="#DejaVuSans-30" transform="translate(63.623047 0.765625)"/>
       <use xlink:href="#DejaVuSans-2212" transform="translate(128.203125 39.046875) scale(0.7)"/>
       <use xlink:href="#DejaVuSans-32" transform="translate(186.855469 39.046875) scale(0.7)"/>
      </g>
     </g>
    </g>
    <g id="ytick_32">
     <g id="line2d_71">
      <g>
       <use xlink:href="#ma55ca55dfb" x="725.4531" y="252.511345" style="stroke: #000000; stroke-width: 0.6"/>
      </g>
     </g>
    </g>
    <g id="ytick_33">
     <g id="line2d_72">
      <g>
       <use xlink:href="#ma55ca55dfb" x="725.4531" y="239.03617" style="stroke: #000000; stroke-width: 0.6"/>
      </g>
     </g>
    </g>
    <g id="ytick_34">
     <g id="line2d_73">
      <g>
       <use xlink:href="#ma55ca55dfb" x="725.4531" y="227.150223" style="stroke: #000000; stroke-width: 0.6"/>
      </g>
     </g>
    </g>
    <g id="ytick_35">
     <g id="line2d_74">
      <g>
       <use xlink:href="#ma55ca55dfb" x="725.4531" y="146.569687" style="stroke: #000000; stroke-width: 0.6"/>
      </g>
     </g>
    </g>
    <g id="ytick_36">
     <g id="line2d_75">
      <g>
       <use xlink:href="#ma55ca55dfb" x="725.4531" y="105.652616" style="stroke: #000000; stroke-width: 0.6"/>
      </g>
     </g>
    </g>
    <g id="ytick_37">
     <g id="line2d_76">
      <g>
       <use xlink:href="#ma55ca55dfb" x="725.4531" y="76.621493" style="stroke: #000000; stroke-width: 0.6"/>
      </g>
     </g>
    </g>
    <g id="ytick_38">
     <g id="line2d_77">
      <g>
       <use xlink:href="#ma55ca55dfb" x="725.4531" y="54.103204" style="stroke: #000000; stroke-width: 0.6"/>
      </g>
     </g>
    </g>
    <g id="ytick_39">
     <g id="line2d_78">
      <g>
       <use xlink:href="#ma55ca55dfb" x="725.4531" y="35.704422" style="stroke: #000000; stroke-width: 0.6"/>
      </g>
     </g>
    </g>
   </g>
   <g id="line2d_79">
    <path d="M 731.26664 33.107036 
L 732.196807 40.995466 
L 733.126973 47.85102 
L 734.05714 83.552857 
L 734.987306 83.56681 
L 735.917473 83.688988 
L 736.847639 84.571075 
L 737.777805 84.683827 
L 738.707972 85.285352 
L 739.638138 85.340227 
L 740.568305 85.799718 
L 741.498471 86.428136 
L 742.428638 89.662957 
L 743.358804 90.012236 
L 744.288971 91.833858 
L 745.219137 106.051809 
L 746.149303 110.408476 
L 747.07947 113.805883 
L 748.009636 117.69945 
L 748.939803 120.726735 
L 749.869969 135.501606 
L 750.800136 135.66381 
L 751.730302 136.966004 
L 752.660468 138.099367 
L 753.590635 144.160393 
L 754.520801 144.160393 
L 755.450968 144.866807 
L 756.381134 150.935776 
L 757.311301 155.523656 
L 758.241467 160.562224 
L 759.171633 182.139682 
L 760.1018 189.231975 
L 761.031966 190.65734 
L 761.962133 191.610922 
L 762.892299 196.711928 
L 763.822466 197.066898 
L 764.752632 199.673575 
L 765.682799 200.954159 
L 766.612965 201.460223 
L 767.543131 203.876482 
L 768.473298 204.140705 
L 769.403464 204.312142 
L 770.333631 205.419586 
L 771.263797 205.513137 
L 772.193964 206.204002 
L 773.12413 206.448325 
L 774.054296 208.058719 
L 774.984463 208.50499 
L 775.914629 208.958405 
L 776.844796 211.478251 
L 777.774962 211.478251 
L 778.705129 212.193365 
L 779.635295 215.873929 
L 780.565462 216.29566 
L 781.495628 219.417529 
L 782.425794 219.953947 
L 783.355961 223.39808 
L 784.286127 223.583835 
L 785.216294 224.930844 
L 786.14646 225.120109 
L 787.076627 225.282725 
L 788.006793 226.478087 
L 788.936959 226.586837 
L 789.867126 227.315073 
L 790.797292 227.390829 
L 791.727459 227.446103 
L 792.657625 227.799439 
L 793.587792 227.870806 
L 794.517958 228.4383 
L 795.448124 228.753375 
L 796.378291 231.004558 
L 797.308457 231.423335 
L 798.238624 231.789152 
L 799.16879 234.017118 
L 800.098957 234.456438 
L 801.029123 234.456438 
L 801.95929 234.699733 
L 802.889456 236.695688 
L 803.819622 236.935692 
L 804.749789 238.871805 
L 805.679955 239.169933 
L 806.610122 241.197443 
L 807.540288 241.401087 
L 808.470455 242.250086 
L 809.400621 242.447926 
L 810.330787 243.256027 
L 811.260954 243.434325 
L 812.19112 243.775434 
L 813.121287 243.904691 
L 814.051453 244.908237 
L 814.98162 244.992035 
L 815.911786 245.339097 
L 816.841952 245.430413 
L 817.772119 245.800161 
L 818.702285 245.882157 
L 819.632452 246.178935 
L 820.562618 246.373082 
L 821.492785 247.079813 
L 822.422951 247.176215 
L 823.353118 247.43258 
L 824.283284 247.43258 
L 825.21345 247.444403 
L 826.143617 247.331642 
L 827.073783 247.346655 
L 828.00395 247.159266 
L 828.934116 247.171617 
L 829.864283 247.202617 
L 830.794449 247.24867 
L 831.724615 247.541453 
L 832.654782 247.582885 
L 833.584948 247.903305 
L 834.515115 247.938951 
L 835.445281 248.13923 
L 836.375448 248.213712 
L 837.305614 248.831929 
L 838.235781 248.918267 
L 839.165947 249.654743 
L 840.096113 249.731176 
L 841.02628 250.390606 
L 841.956446 250.660737 
L 842.886613 250.716315 
L 843.816779 251.207703 
L 844.746946 254.789726 
L 845.677112 254.805314 
L 846.607278 254.94409 
L 847.537445 256.179764 
" clip-path="url(#p01e20077fe)" style="fill: none; stroke: #348abd; stroke-width: 2; stroke-linecap: square"/>
   </g>
   <g id="patch_23">
    <path d="M 725.4531 267.3334 
L 725.4531 21.9534 
" style="fill: none; stroke: #bcbcbc; stroke-width: 0.8; stroke-linejoin: miter; stroke-linecap: square"/>
   </g>
   <g id="patch_24">
    <path d="M 853.350985 267.3334 
L 853.350985 21.9534 
" style="fill: none; stroke: #bcbcbc; stroke-width: 0.8; stroke-linejoin: miter; stroke-linecap: square"/>
   </g>
   <g id="patch_25">
    <path d="M 725.4531 267.3334 
L 853.350985 267.3334 
" style="fill: none; stroke: #bcbcbc; stroke-width: 0.8; stroke-linejoin: miter; stroke-linecap: square"/>
   </g>
   <g id="patch_26">
    <path d="M 725.4531 21.9534 
L 853.350985 21.9534 
" style="fill: none; stroke: #bcbcbc; stroke-width: 0.8; stroke-linejoin: miter; stroke-linecap: square"/>
   </g>
   <g id="text_28">
    <!-- MSE Loss -->
    <g transform="translate(762.671143 15.9534) scale(0.1152 -0.1152)">
     <defs>
      <path id="DejaVuSans-4d" d="M 628 4666 
L 1569 4666 
L 2759 1491 
L 3956 4666 
L 4897 4666 
L 4897 0 
L 4281 0 
L 4281 4097 
L 3078 897 
L 2444 897 
L 1241 4097 
L 1241 0 
L 628 0 
L 628 4666 
z
" transform="scale(0.015625)"/>
      <path id="DejaVuSans-53" d="M 3425 4513 
L 3425 3897 
Q 3066 4069 2747 4153 
Q 2428 4238 2131 4238 
Q 1616 4238 1336 4038 
Q 1056 3838 1056 3469 
Q 1056 3159 1242 3001 
Q 1428 2844 1947 2747 
L 2328 2669 
Q 3034 2534 3370 2195 
Q 3706 1856 3706 1288 
Q 3706 609 3251 259 
Q 2797 -91 1919 -91 
Q 1588 -91 1214 -16 
Q 841 59 441 206 
L 441 856 
Q 825 641 1194 531 
Q 1563 422 1919 422 
Q 2459 422 2753 634 
Q 3047 847 3047 1241 
Q 3047 1584 2836 1778 
Q 2625 1972 2144 2069 
L 1759 2144 
Q 1053 2284 737 2584 
Q 422 2884 422 3419 
Q 422 4038 858 4394 
Q 1294 4750 2059 4750 
Q 2388 4750 2728 4690 
Q 3069 4631 3425 4513 
z
" transform="scale(0.015625)"/>
      <path id="DejaVuSans-45" d="M 628 4666 
L 3578 4666 
L 3578 4134 
L 1259 4134 
L 1259 2753 
L 3481 2753 
L 3481 2222 
L 1259 2222 
L 1259 531 
L 3634 531 
L 3634 0 
L 628 0 
L 628 4666 
z
" transform="scale(0.015625)"/>
     </defs>
     <use xlink:href="#DejaVuSans-4d"/>
     <use xlink:href="#DejaVuSans-53" x="86.279297"/>
     <use xlink:href="#DejaVuSans-45" x="149.755859"/>
     <use xlink:href="#DejaVuSans-20" x="212.939453"/>
     <use xlink:href="#DejaVuSans-4c" x="244.726562"/>
     <use xlink:href="#DejaVuSans-6f" x="298.689453"/>
     <use xlink:href="#DejaVuSans-73" x="359.871094"/>
     <use xlink:href="#DejaVuSans-73" x="411.970703"/>
    </g>
   </g>
  </g>
  <g id="text_29">
   <!-- Wolfe Iterations -->
   <g transform="translate(398.520985 283.7934) scale(0.08 -0.08)">
    <defs>
     <path id="DejaVuSans-57" d="M 213 4666 
L 850 4666 
L 1831 722 
L 2809 4666 
L 3519 4666 
L 4500 722 
L 5478 4666 
L 6119 4666 
L 4947 0 
L 4153 0 
L 3169 4050 
L 2175 0 
L 1381 0 
L 213 4666 
z
" transform="scale(0.015625)"/>
     <path id="DejaVuSans-66" d="M 2375 4863 
L 2375 4384 
L 1825 4384 
Q 1516 4384 1395 4259 
Q 1275 4134 1275 3809 
L 1275 3500 
L 2222 3500 
L 2222 3053 
L 1275 3053 
L 1275 0 
L 697 0 
L 697 3053 
L 147 3053 
L 147 3500 
L 697 3500 
L 697 3744 
Q 697 4328 969 4595 
Q 1241 4863 1831 4863 
L 2375 4863 
z
" transform="scale(0.015625)"/>
     <path id="DejaVuSans-49" d="M 628 4666 
L 1259 4666 
L 1259 0 
L 628 0 
L 628 4666 
z
" transform="scale(0.015625)"/>
    </defs>
    <use xlink:href="#DejaVuSans-57"/>
    <use xlink:href="#DejaVuSans-6f" x="93.001953"/>
    <use xlink:href="#DejaVuSans-6c" x="154.183594"/>
    <use xlink:href="#DejaVuSans-66" x="181.966797"/>
    <use xlink:href="#DejaVuSans-65" x="217.171875"/>
    <use xlink:href="#DejaVuSans-20" x="278.695312"/>
    <use xlink:href="#DejaVuSans-49" x="310.482422"/>
    <use xlink:href="#DejaVuSans-74" x="339.974609"/>
    <use xlink:href="#DejaVuSans-65" x="379.183594"/>
    <use xlink:href="#DejaVuSans-72" x="440.707031"/>
    <use xlink:href="#DejaVuSans-61" x="481.820312"/>
    <use xlink:href="#DejaVuSans-74" x="543.099609"/>
    <use xlink:href="#DejaVuSans-69" x="582.308594"/>
    <use xlink:href="#DejaVuSans-6f" x="610.091797"/>
    <use xlink:href="#DejaVuSans-6e" x="671.273438"/>
    <use xlink:href="#DejaVuSans-73" x="734.652344"/>
   </g>
  </g>
 </g>
 <defs>
  <clipPath id="p3026dbec13">
   <rect x="29.5" y="21.9534" width="127.897885" height="245.38"/>
  </clipPath>
  <clipPath id="p55a2478274">
   <rect x="203.488275" y="21.9534" width="127.897885" height="245.38"/>
  </clipPath>
  <clipPath id="p453c98ba8f">
   <rect x="377.47655" y="21.9534" width="127.897885" height="245.38"/>
  </clipPath>
  <clipPath id="p65a563c2b1">
   <rect x="551.464825" y="21.9534" width="127.897885" height="245.38"/>
  </clipPath>
  <clipPath id="p01e20077fe">
   <rect x="725.4531" y="21.9534" width="127.897885" height="245.38"/>
  </clipPath>
 </defs>
</svg>
