<?xml version="1.0" encoding="utf-8" standalone="no"?>
<!DOCTYPE svg PUBLIC "-//W3C//DTD SVG 1.1//EN"
  "http://www.w3.org/Graphics/SVG/1.1/DTD/svg11.dtd">
<svg xmlns:xlink="http://www.w3.org/1999/xlink" width="860.550985pt" height="435.21715pt" viewBox="0 0 860.550985 435.21715" xmlns="http://www.w3.org/2000/svg" version="1.1">
 <metadata>
  <rdf:RDF xmlns:dc="http://purl.org/dc/elements/1.1/" xmlns:cc="http://creativecommons.org/ns#" xmlns:rdf="http://www.w3.org/1999/02/22-rdf-syntax-ns#">
   <cc:Work>
    <dc:type rdf:resource="http://purl.org/dc/dcmitype/StillImage"/>
    <dc:date>2023-11-19T05:55:16.896630</dc:date>
    <dc:format>image/svg+xml</dc:format>
    <dc:creator>
     <cc:Agent>
      <dc:title>Matplotlib v3.7.1, https://matplotlib.org/</dc:title>
     </cc:Agent>
    </dc:creator>
   </cc:Work>
  </rdf:RDF>
 </metadata>
 <defs>
  <style type="text/css">*{stroke-linejoin: round; stroke-linecap: butt}</style>
 </defs>
 <g id="figure_1">
  <g id="patch_1">
   <path d="M 0 435.21715 
L 860.550985 435.21715 
L 860.550985 0 
L 0 0 
z
" style="fill: #ffffff"/>
  </g>
  <g id="axes_1">
   <g id="patch_2">
    <path d="M 29.5 411.3334 
L 200.894954 411.3334 
L 200.894954 21.9534 
L 29.5 21.9534 
z
" style="fill: #eeeeee"/>
   </g>
   <g id="matplotlib.axis_1">
    <g id="xtick_1">
     <g id="line2d_1">
      <path d="M 37.29068 411.3334 
L 37.29068 21.9534 
" clip-path="url(#ped5d19ab52)" style="fill: none; stroke-dasharray: 1.85,0.8; stroke-dashoffset: 0; stroke: #b2b2b2; stroke-width: 0.5"/>
     </g>
     <g id="line2d_2">
      <defs>
       <path id="m5f7e764961" d="M 0 0 
L 0 -3.5 
" style="stroke: #000000; stroke-width: 0.8"/>
      </defs>
      <g>
       <use xlink:href="#m5f7e764961" x="37.29068" y="411.3334" style="stroke: #000000; stroke-width: 0.8"/>
      </g>
     </g>
     <g id="text_1">
      <!-- 0 -->
      <g transform="translate(34.74568 420.91215) scale(0.08 -0.08)">
       <defs>
        <path id="DejaVuSans-30" d="M 2034 4250 
Q 1547 4250 1301 3770 
Q 1056 3291 1056 2328 
Q 1056 1369 1301 889 
Q 1547 409 2034 409 
Q 2525 409 2770 889 
Q 3016 1369 3016 2328 
Q 3016 3291 2770 3770 
Q 2525 4250 2034 4250 
z
M 2034 4750 
Q 2819 4750 3233 4129 
Q 3647 3509 3647 2328 
Q 3647 1150 3233 529 
Q 2819 -91 2034 -91 
Q 1250 -91 836 529 
Q 422 1150 422 2328 
Q 422 3509 836 4129 
Q 1250 4750 2034 4750 
z
" transform="scale(0.015625)"/>
       </defs>
       <use xlink:href="#DejaVuSans-30"/>
      </g>
     </g>
    </g>
    <g id="xtick_2">
     <g id="line2d_3">
      <path d="M 98.155365 411.3334 
L 98.155365 21.9534 
" clip-path="url(#ped5d19ab52)" style="fill: none; stroke-dasharray: 1.85,0.8; stroke-dashoffset: 0; stroke: #b2b2b2; stroke-width: 0.5"/>
     </g>
     <g id="line2d_4">
      <g>
       <use xlink:href="#m5f7e764961" x="98.155365" y="411.3334" style="stroke: #000000; stroke-width: 0.8"/>
      </g>
     </g>
     <g id="text_2">
      <!-- 100 -->
      <g transform="translate(90.520365 420.91215) scale(0.08 -0.08)">
       <defs>
        <path id="DejaVuSans-31" d="M 794 531 
L 1825 531 
L 1825 4091 
L 703 3866 
L 703 4441 
L 1819 4666 
L 2450 4666 
L 2450 531 
L 3481 531 
L 3481 0 
L 794 0 
L 794 531 
z
" transform="scale(0.015625)"/>
       </defs>
       <use xlink:href="#DejaVuSans-31"/>
       <use xlink:href="#DejaVuSans-30" x="63.623047"/>
       <use xlink:href="#DejaVuSans-30" x="127.246094"/>
      </g>
     </g>
    </g>
    <g id="xtick_3">
     <g id="line2d_5">
      <path d="M 159.02005 411.3334 
L 159.02005 21.9534 
" clip-path="url(#ped5d19ab52)" style="fill: none; stroke-dasharray: 1.85,0.8; stroke-dashoffset: 0; stroke: #b2b2b2; stroke-width: 0.5"/>
     </g>
     <g id="line2d_6">
      <g>
       <use xlink:href="#m5f7e764961" x="159.02005" y="411.3334" style="stroke: #000000; stroke-width: 0.8"/>
      </g>
     </g>
     <g id="text_3">
      <!-- 200 -->
      <g transform="translate(151.38505 420.91215) scale(0.08 -0.08)">
       <defs>
        <path id="DejaVuSans-32" d="M 1228 531 
L 3431 531 
L 3431 0 
L 469 0 
L 469 531 
Q 828 903 1448 1529 
Q 2069 2156 2228 2338 
Q 2531 2678 2651 2914 
Q 2772 3150 2772 3378 
Q 2772 3750 2511 3984 
Q 2250 4219 1831 4219 
Q 1534 4219 1204 4116 
Q 875 4013 500 3803 
L 500 4441 
Q 881 4594 1212 4672 
Q 1544 4750 1819 4750 
Q 2544 4750 2975 4387 
Q 3406 4025 3406 3419 
Q 3406 3131 3298 2873 
Q 3191 2616 2906 2266 
Q 2828 2175 2409 1742 
Q 1991 1309 1228 531 
z
" transform="scale(0.015625)"/>
       </defs>
       <use xlink:href="#DejaVuSans-32"/>
       <use xlink:href="#DejaVuSans-30" x="63.623047"/>
       <use xlink:href="#DejaVuSans-30" x="127.246094"/>
      </g>
     </g>
    </g>
   </g>
   <g id="matplotlib.axis_2">
    <g id="ytick_1">
     <g id="line2d_7">
      <path d="M 29.5 291.145615 
L 200.894954 291.145615 
" clip-path="url(#ped5d19ab52)" style="fill: none; stroke-dasharray: 1.85,0.8; stroke-dashoffset: 0; stroke: #b2b2b2; stroke-width: 0.5"/>
     </g>
     <g id="line2d_8">
      <defs>
       <path id="m7c3ba44eca" d="M 0 0 
L 3.5 0 
" style="stroke: #000000; stroke-width: 0.8"/>
      </defs>
      <g>
       <use xlink:href="#m7c3ba44eca" x="29.5" y="291.145615" style="stroke: #000000; stroke-width: 0.8"/>
      </g>
     </g>
     <g id="text_4">
      <!-- $\mathdefault{10^{-2}}$ -->
      <g transform="translate(7.2 294.18499) scale(0.08 -0.08)">
       <defs>
        <path id="DejaVuSans-2212" d="M 678 2272 
L 4684 2272 
L 4684 1741 
L 678 1741 
L 678 2272 
z
" transform="scale(0.015625)"/>
       </defs>
       <use xlink:href="#DejaVuSans-31" transform="translate(0 0.765625)"/>
       <use xlink:href="#DejaVuSans-30" transform="translate(63.623047 0.765625)"/>
       <use xlink:href="#DejaVuSans-2212" transform="translate(128.203125 39.046875) scale(0.7)"/>
       <use xlink:href="#DejaVuSans-32" transform="translate(186.855469 39.046875) scale(0.7)"/>
      </g>
     </g>
    </g>
    <g id="ytick_2">
     <g id="line2d_9">
      <defs>
       <path id="m3125466d85" d="M 0 0 
L 2 0 
" style="stroke: #000000; stroke-width: 0.6"/>
      </defs>
      <g>
       <use xlink:href="#m3125466d85" x="29.5" y="389.903598" style="stroke: #000000; stroke-width: 0.6"/>
      </g>
     </g>
    </g>
    <g id="ytick_3">
     <g id="line2d_10">
      <g>
       <use xlink:href="#m3125466d85" x="29.5" y="363.926851" style="stroke: #000000; stroke-width: 0.6"/>
      </g>
     </g>
    </g>
    <g id="ytick_4">
     <g id="line2d_11">
      <g>
       <use xlink:href="#m3125466d85" x="29.5" y="341.963824" style="stroke: #000000; stroke-width: 0.6"/>
      </g>
     </g>
    </g>
    <g id="ytick_5">
     <g id="line2d_12">
      <g>
       <use xlink:href="#m3125466d85" x="29.5" y="322.938584" style="stroke: #000000; stroke-width: 0.6"/>
      </g>
     </g>
    </g>
    <g id="ytick_6">
     <g id="line2d_13">
      <g>
       <use xlink:href="#m3125466d85" x="29.5" y="306.157134" style="stroke: #000000; stroke-width: 0.6"/>
      </g>
     </g>
    </g>
    <g id="ytick_7">
     <g id="line2d_14">
      <g>
       <use xlink:href="#m3125466d85" x="29.5" y="192.387631" style="stroke: #000000; stroke-width: 0.6"/>
      </g>
     </g>
    </g>
    <g id="ytick_8">
     <g id="line2d_15">
      <g>
       <use xlink:href="#m3125466d85" x="29.5" y="134.617914" style="stroke: #000000; stroke-width: 0.6"/>
      </g>
     </g>
    </g>
    <g id="ytick_9">
     <g id="line2d_16">
      <g>
       <use xlink:href="#m3125466d85" x="29.5" y="93.629648" style="stroke: #000000; stroke-width: 0.6"/>
      </g>
     </g>
    </g>
    <g id="ytick_10">
     <g id="line2d_17">
      <g>
       <use xlink:href="#m3125466d85" x="29.5" y="61.836678" style="stroke: #000000; stroke-width: 0.6"/>
      </g>
     </g>
    </g>
    <g id="ytick_11">
     <g id="line2d_18">
      <g>
       <use xlink:href="#m3125466d85" x="29.5" y="35.859931" style="stroke: #000000; stroke-width: 0.6"/>
      </g>
     </g>
    </g>
   </g>
   <g id="line2d_19">
    <path d="M 37.29068 39.652491 
L 38.507973 57.936447 
L 39.11662 100.791495 
L 39.725267 100.811407 
L 40.333914 100.982462 
L 40.942561 101.880066 
L 41.551208 101.901158 
L 42.159855 102.052367 
L 42.768501 102.088015 
L 43.377148 102.316844 
L 43.985795 102.359796 
L 44.594442 102.681901 
L 45.203089 102.825661 
L 45.811736 103.317169 
L 46.420382 103.463931 
L 47.029029 104.116229 
L 47.637676 107.626877 
L 48.85497 109.264583 
L 49.463617 114.541627 
L 50.072264 116.69051 
L 50.68091 130.270822 
L 51.289557 135.770509 
L 51.898204 135.770509 
L 53.115498 140.328945 
L 53.724145 142.70314 
L 54.332792 151.463138 
L 54.941438 153.484783 
L 55.550085 159.848073 
L 56.158732 162.827825 
L 56.767379 164.28516 
L 57.376026 172.786303 
L 57.984673 173.768018 
L 58.59332 177.618398 
L 59.201966 179.729509 
L 59.810613 190.909555 
L 61.027907 195.184766 
L 61.636554 203.728663 
L 62.245201 204.692735 
L 62.853848 210.349258 
L 63.462494 211.314196 
L 64.071141 219.654891 
L 64.679788 82.314598 
L 65.288435 224.180959 
L 65.897082 221.2978 
L 66.505729 228.456266 
L 67.114375 228.456266 
L 67.723022 230.491853 
L 68.331669 233.685118 
L 68.940316 243.710639 
L 70.15761 247.82378 
L 70.766257 255.518513 
L 72.592197 261.559306 
L 73.200844 263.00062 
L 73.809491 268.483596 
L 74.418138 268.919417 
L 75.026785 270.563985 
L 75.635431 271.415167 
L 76.244078 275.87866 
L 76.852725 276.56717 
L 77.461372 281.321589 
L 78.070019 282.568418 
L 78.678666 289.784398 
L 79.895959 292.313563 
L 80.504606 297.707326 
L 81.7219 297.864269 
L 82.330547 298.291612 
L 83.54784 298.30855 
L 84.765134 298.519487 
L 85.373781 298.56888 
L 86.591075 298.850652 
L 87.199722 298.94691 
L 87.808368 299.303856 
L 90.242956 299.772306 
L 91.46025 300.301394 
L 92.068896 300.387041 
L 92.677543 300.749747 
L 95.720778 301.711501 
L 96.329424 301.787634 
L 96.938071 302.239821 
L 97.546718 302.425134 
L 98.155365 302.91065 
L 99.372659 302.955577 
L 100.589952 303.253984 
L 101.198599 303.973691 
L 102.415893 304.350823 
L 103.02454 304.759846 
L 104.241833 304.928792 
L 104.85048 305.216175 
L 113.371536 306.189182 
L 113.980183 306.427086 
L 115.197477 306.461242 
L 115.806124 306.669458 
L 116.414771 306.719464 
L 119.458005 307.7269 
L 120.066652 308.263292 
L 120.675298 308.549046 
L 121.283945 309.486969 
L 121.892592 309.646675 
L 122.501239 310.206041 
L 123.109886 310.31519 
L 123.718533 310.719086 
L 124.32718 310.791035 
L 124.935826 311.047955 
L 125.544473 311.103491 
L 126.15312 311.325013 
L 126.761767 311.393093 
L 127.370414 311.631183 
L 129.196354 311.869319 
L 129.805001 312.068305 
L 131.022295 312.112788 
L 131.630942 312.412153 
L 132.239589 312.52851 
L 132.848236 312.868649 
L 133.456882 313.0509 
L 134.065529 313.10665 
L 134.674176 313.321544 
L 135.282823 313.354664 
L 135.89147 313.607693 
L 136.500117 313.651431 
L 137.108764 313.904303 
L 137.71741 313.954937 
L 138.326057 314.146615 
L 138.934704 314.187414 
L 139.543351 314.522911 
L 140.151998 314.598762 
L 140.760645 315.183481 
L 141.369291 315.283402 
L 141.977938 315.729212 
L 142.586585 315.888954 
L 143.195232 316.507776 
L 143.803879 316.626815 
L 144.412526 317.50828 
L 145.021173 317.672988 
L 145.629819 318.352167 
L 146.238466 318.352167 
L 146.847113 318.559169 
L 147.45576 319.378662 
L 148.064407 319.56675 
L 148.673054 320.376339 
L 149.281701 321.604219 
L 149.890347 322.24727 
L 150.498994 322.504704 
L 151.107641 324.542706 
L 151.716288 324.784999 
L 152.324935 326.820434 
L 152.933582 327.386786 
L 153.542229 329.652556 
L 154.150875 330.134998 
L 154.759522 332.803688 
L 155.368169 333.108975 
L 155.976816 335.666708 
L 156.585463 336.080512 
L 157.19411 337.813774 
L 157.802756 338.138193 
L 158.411403 339.61111 
L 159.02005 345.599939 
L 159.628697 345.947855 
L 160.237344 348.73076 
L 160.845991 349.082271 
L 161.454638 351.784216 
L 162.063284 351.784216 
L 162.671931 352.006485 
L 163.280578 352.87149 
L 163.889225 353.457091 
L 164.497872 356.019619 
L 165.106519 356.129845 
L 165.715166 356.608226 
L 166.323812 360.213678 
L 166.932459 360.358555 
L 167.541106 361.010928 
L 168.149753 366.923571 
L 168.7584 367.082425 
L 169.367047 367.782246 
L 169.975694 373.711299 
L 170.58434 373.779121 
L 171.192987 374.079049 
L 171.801634 376.76496 
L 172.410281 376.822775 
L 173.018928 377.32342 
L 173.627575 380.509316 
L 174.236222 380.549186 
L 174.844868 380.88085 
L 175.453515 380.922119 
L 176.062162 381.279644 
L 176.670809 383.514871 
L 178.496749 383.562889 
L 179.105396 383.774794 
L 179.714043 384.782587 
L 180.32269 384.802891 
L 180.931337 384.982882 
L 181.539984 386.44505 
L 182.148631 386.461046 
L 182.757277 386.603426 
L 183.365924 387.279933 
L 183.974571 387.310693 
L 184.583218 387.581935 
L 185.191865 388.77173 
L 185.800512 388.787198 
L 186.409159 388.92511 
L 187.017805 389.576651 
L 188.235099 389.687795 
L 188.843746 390.169088 
L 189.452393 392.381862 
L 190.669687 392.454711 
L 191.278333 393.040719 
L 192.495627 393.103089 
L 193.104274 393.634309 
L 193.104274 393.634309 
" clip-path="url(#ped5d19ab52)" style="fill: none; stroke: #348abd; stroke-width: 2; stroke-linecap: square"/>
   </g>
   <g id="patch_3">
    <path d="M 29.5 411.3334 
L 29.5 21.9534 
" style="fill: none; stroke: #bcbcbc; stroke-width: 0.8; stroke-linejoin: miter; stroke-linecap: square"/>
   </g>
   <g id="patch_4">
    <path d="M 200.894954 411.3334 
L 200.894954 21.9534 
" style="fill: none; stroke: #bcbcbc; stroke-width: 0.8; stroke-linejoin: miter; stroke-linecap: square"/>
   </g>
   <g id="patch_5">
    <path d="M 29.5 411.3334 
L 200.894954 411.3334 
" style="fill: none; stroke: #bcbcbc; stroke-width: 0.8; stroke-linejoin: miter; stroke-linecap: square"/>
   </g>
   <g id="patch_6">
    <path d="M 29.5 21.9534 
L 200.894954 21.9534 
" style="fill: none; stroke: #bcbcbc; stroke-width: 0.8; stroke-linejoin: miter; stroke-linecap: square"/>
   </g>
   <g id="text_5">
    <!-- Total Loss -->
    <g transform="translate(87.281277 15.9534) scale(0.1152 -0.1152)">
     <defs>
      <path id="DejaVuSans-54" d="M -19 4666 
L 3928 4666 
L 3928 4134 
L 2272 4134 
L 2272 0 
L 1638 0 
L 1638 4134 
L -19 4134 
L -19 4666 
z
" transform="scale(0.015625)"/>
      <path id="DejaVuSans-6f" d="M 1959 3097 
Q 1497 3097 1228 2736 
Q 959 2375 959 1747 
Q 959 1119 1226 758 
Q 1494 397 1959 397 
Q 2419 397 2687 759 
Q 2956 1122 2956 1747 
Q 2956 2369 2687 2733 
Q 2419 3097 1959 3097 
z
M 1959 3584 
Q 2709 3584 3137 3096 
Q 3566 2609 3566 1747 
Q 3566 888 3137 398 
Q 2709 -91 1959 -91 
Q 1206 -91 779 398 
Q 353 888 353 1747 
Q 353 2609 779 3096 
Q 1206 3584 1959 3584 
z
" transform="scale(0.015625)"/>
      <path id="DejaVuSans-74" d="M 1172 4494 
L 1172 3500 
L 2356 3500 
L 2356 3053 
L 1172 3053 
L 1172 1153 
Q 1172 725 1289 603 
Q 1406 481 1766 481 
L 2356 481 
L 2356 0 
L 1766 0 
Q 1100 0 847 248 
Q 594 497 594 1153 
L 594 3053 
L 172 3053 
L 172 3500 
L 594 3500 
L 594 4494 
L 1172 4494 
z
" transform="scale(0.015625)"/>
      <path id="DejaVuSans-61" d="M 2194 1759 
Q 1497 1759 1228 1600 
Q 959 1441 959 1056 
Q 959 750 1161 570 
Q 1363 391 1709 391 
Q 2188 391 2477 730 
Q 2766 1069 2766 1631 
L 2766 1759 
L 2194 1759 
z
M 3341 1997 
L 3341 0 
L 2766 0 
L 2766 531 
Q 2569 213 2275 61 
Q 1981 -91 1556 -91 
Q 1019 -91 701 211 
Q 384 513 384 1019 
Q 384 1609 779 1909 
Q 1175 2209 1959 2209 
L 2766 2209 
L 2766 2266 
Q 2766 2663 2505 2880 
Q 2244 3097 1772 3097 
Q 1472 3097 1187 3025 
Q 903 2953 641 2809 
L 641 3341 
Q 956 3463 1253 3523 
Q 1550 3584 1831 3584 
Q 2591 3584 2966 3190 
Q 3341 2797 3341 1997 
z
" transform="scale(0.015625)"/>
      <path id="DejaVuSans-6c" d="M 603 4863 
L 1178 4863 
L 1178 0 
L 603 0 
L 603 4863 
z
" transform="scale(0.015625)"/>
      <path id="DejaVuSans-20" transform="scale(0.015625)"/>
      <path id="DejaVuSans-4c" d="M 628 4666 
L 1259 4666 
L 1259 531 
L 3531 531 
L 3531 0 
L 628 0 
L 628 4666 
z
" transform="scale(0.015625)"/>
      <path id="DejaVuSans-73" d="M 2834 3397 
L 2834 2853 
Q 2591 2978 2328 3040 
Q 2066 3103 1784 3103 
Q 1356 3103 1142 2972 
Q 928 2841 928 2578 
Q 928 2378 1081 2264 
Q 1234 2150 1697 2047 
L 1894 2003 
Q 2506 1872 2764 1633 
Q 3022 1394 3022 966 
Q 3022 478 2636 193 
Q 2250 -91 1575 -91 
Q 1294 -91 989 -36 
Q 684 19 347 128 
L 347 722 
Q 666 556 975 473 
Q 1284 391 1588 391 
Q 1994 391 2212 530 
Q 2431 669 2431 922 
Q 2431 1156 2273 1281 
Q 2116 1406 1581 1522 
L 1381 1569 
Q 847 1681 609 1914 
Q 372 2147 372 2553 
Q 372 3047 722 3315 
Q 1072 3584 1716 3584 
Q 2034 3584 2315 3537 
Q 2597 3491 2834 3397 
z
" transform="scale(0.015625)"/>
     </defs>
     <use xlink:href="#DejaVuSans-54"/>
     <use xlink:href="#DejaVuSans-6f" x="44.083984"/>
     <use xlink:href="#DejaVuSans-74" x="105.265625"/>
     <use xlink:href="#DejaVuSans-61" x="144.474609"/>
     <use xlink:href="#DejaVuSans-6c" x="205.753906"/>
     <use xlink:href="#DejaVuSans-20" x="233.537109"/>
     <use xlink:href="#DejaVuSans-4c" x="265.324219"/>
     <use xlink:href="#DejaVuSans-6f" x="319.287109"/>
     <use xlink:href="#DejaVuSans-73" x="380.46875"/>
     <use xlink:href="#DejaVuSans-73" x="432.568359"/>
    </g>
   </g>
  </g>
  <g id="axes_2">
   <g id="patch_7">
    <path d="M 246.985344 411.3334 
L 418.380297 411.3334 
L 418.380297 21.9534 
L 246.985344 21.9534 
z
" style="fill: #eeeeee"/>
   </g>
   <g id="matplotlib.axis_3">
    <g id="xtick_4">
     <g id="line2d_20">
      <path d="M 254.776024 411.3334 
L 254.776024 21.9534 
" clip-path="url(#p476c8f1057)" style="fill: none; stroke-dasharray: 1.85,0.8; stroke-dashoffset: 0; stroke: #b2b2b2; stroke-width: 0.5"/>
     </g>
     <g id="line2d_21">
      <g>
       <use xlink:href="#m5f7e764961" x="254.776024" y="411.3334" style="stroke: #000000; stroke-width: 0.8"/>
      </g>
     </g>
     <g id="text_6">
      <!-- 0 -->
      <g transform="translate(252.231024 420.91215) scale(0.08 -0.08)">
       <use xlink:href="#DejaVuSans-30"/>
      </g>
     </g>
    </g>
    <g id="xtick_5">
     <g id="line2d_22">
      <path d="M 315.640709 411.3334 
L 315.640709 21.9534 
" clip-path="url(#p476c8f1057)" style="fill: none; stroke-dasharray: 1.85,0.8; stroke-dashoffset: 0; stroke: #b2b2b2; stroke-width: 0.5"/>
     </g>
     <g id="line2d_23">
      <g>
       <use xlink:href="#m5f7e764961" x="315.640709" y="411.3334" style="stroke: #000000; stroke-width: 0.8"/>
      </g>
     </g>
     <g id="text_7">
      <!-- 100 -->
      <g transform="translate(308.005709 420.91215) scale(0.08 -0.08)">
       <use xlink:href="#DejaVuSans-31"/>
       <use xlink:href="#DejaVuSans-30" x="63.623047"/>
       <use xlink:href="#DejaVuSans-30" x="127.246094"/>
      </g>
     </g>
    </g>
    <g id="xtick_6">
     <g id="line2d_24">
      <path d="M 376.505394 411.3334 
L 376.505394 21.9534 
" clip-path="url(#p476c8f1057)" style="fill: none; stroke-dasharray: 1.85,0.8; stroke-dashoffset: 0; stroke: #b2b2b2; stroke-width: 0.5"/>
     </g>
     <g id="line2d_25">
      <g>
       <use xlink:href="#m5f7e764961" x="376.505394" y="411.3334" style="stroke: #000000; stroke-width: 0.8"/>
      </g>
     </g>
     <g id="text_8">
      <!-- 200 -->
      <g transform="translate(368.870394 420.91215) scale(0.08 -0.08)">
       <use xlink:href="#DejaVuSans-32"/>
       <use xlink:href="#DejaVuSans-30" x="63.623047"/>
       <use xlink:href="#DejaVuSans-30" x="127.246094"/>
      </g>
     </g>
    </g>
   </g>
   <g id="matplotlib.axis_4">
    <g id="ytick_12">
     <g id="line2d_26">
      <path d="M 246.985344 95.735906 
L 418.380297 95.735906 
" clip-path="url(#p476c8f1057)" style="fill: none; stroke-dasharray: 1.85,0.8; stroke-dashoffset: 0; stroke: #b2b2b2; stroke-width: 0.5"/>
     </g>
     <g id="line2d_27">
      <g>
       <use xlink:href="#m7c3ba44eca" x="246.985344" y="95.735906" style="stroke: #000000; stroke-width: 0.8"/>
      </g>
     </g>
     <g id="text_9">
      <!-- $\mathdefault{10^{-6}}$ -->
      <g transform="translate(224.685344 98.775281) scale(0.08 -0.08)">
       <defs>
        <path id="DejaVuSans-36" d="M 2113 2584 
Q 1688 2584 1439 2293 
Q 1191 2003 1191 1497 
Q 1191 994 1439 701 
Q 1688 409 2113 409 
Q 2538 409 2786 701 
Q 3034 994 3034 1497 
Q 3034 2003 2786 2293 
Q 2538 2584 2113 2584 
z
M 3366 4563 
L 3366 3988 
Q 3128 4100 2886 4159 
Q 2644 4219 2406 4219 
Q 1781 4219 1451 3797 
Q 1122 3375 1075 2522 
Q 1259 2794 1537 2939 
Q 1816 3084 2150 3084 
Q 2853 3084 3261 2657 
Q 3669 2231 3669 1497 
Q 3669 778 3244 343 
Q 2819 -91 2113 -91 
Q 1303 -91 875 529 
Q 447 1150 447 2328 
Q 447 3434 972 4092 
Q 1497 4750 2381 4750 
Q 2619 4750 2861 4703 
Q 3103 4656 3366 4563 
z
" transform="scale(0.015625)"/>
       </defs>
       <use xlink:href="#DejaVuSans-31" transform="translate(0 0.765625)"/>
       <use xlink:href="#DejaVuSans-30" transform="translate(63.623047 0.765625)"/>
       <use xlink:href="#DejaVuSans-2212" transform="translate(128.203125 39.046875) scale(0.7)"/>
       <use xlink:href="#DejaVuSans-36" transform="translate(186.855469 39.046875) scale(0.7)"/>
      </g>
     </g>
    </g>
    <g id="ytick_13">
     <g id="line2d_28">
      <g>
       <use xlink:href="#m3125466d85" x="246.985344" y="380.368638" style="stroke: #000000; stroke-width: 0.6"/>
      </g>
     </g>
    </g>
    <g id="ytick_14">
     <g id="line2d_29">
      <g>
       <use xlink:href="#m3125466d85" x="246.985344" y="305.500436" style="stroke: #000000; stroke-width: 0.6"/>
      </g>
     </g>
     <g id="text_10">
      <!-- $\mathdefault{6\times10^{-7}}$ -->
      <g transform="translate(210.225344 308.539811) scale(0.08 -0.08)">
       <defs>
        <path id="DejaVuSans-d7" d="M 4488 3438 
L 3059 2003 
L 4488 575 
L 4116 197 
L 2681 1631 
L 1247 197 
L 878 575 
L 2303 2003 
L 878 3438 
L 1247 3816 
L 2681 2381 
L 4116 3816 
L 4488 3438 
z
" transform="scale(0.015625)"/>
        <path id="DejaVuSans-37" d="M 525 4666 
L 3525 4666 
L 3525 4397 
L 1831 0 
L 1172 0 
L 2766 4134 
L 525 4134 
L 525 4666 
z
" transform="scale(0.015625)"/>
       </defs>
       <use xlink:href="#DejaVuSans-36" transform="translate(0 0.684375)"/>
       <use xlink:href="#DejaVuSans-d7" transform="translate(81.181641 0.684375)"/>
       <use xlink:href="#DejaVuSans-31" transform="translate(182.529297 0.684375)"/>
       <use xlink:href="#DejaVuSans-30" transform="translate(246.152344 0.684375)"/>
       <use xlink:href="#DejaVuSans-2212" transform="translate(310.732422 38.965625) scale(0.7)"/>
       <use xlink:href="#DejaVuSans-37" transform="translate(369.384766 38.965625) scale(0.7)"/>
      </g>
     </g>
    </g>
    <g id="ytick_15">
     <g id="line2d_30">
      <g>
       <use xlink:href="#m3125466d85" x="246.985344" y="242.200274" style="stroke: #000000; stroke-width: 0.6"/>
      </g>
     </g>
    </g>
    <g id="ytick_16">
     <g id="line2d_31">
      <g>
       <use xlink:href="#m3125466d85" x="246.985344" y="187.367179" style="stroke: #000000; stroke-width: 0.6"/>
      </g>
     </g>
    </g>
    <g id="ytick_17">
     <g id="line2d_32">
      <g>
       <use xlink:href="#m3125466d85" x="246.985344" y="139.000962" style="stroke: #000000; stroke-width: 0.6"/>
      </g>
     </g>
    </g>
   </g>
   <g id="line2d_33">
    <path d="M 254.776024 393.627125 
L 257.819258 393.618735 
L 258.427905 393.477007 
L 260.253845 393.379224 
L 260.862492 393.119242 
L 261.471139 393.052406 
L 262.079786 392.360515 
L 262.688433 392.009772 
L 263.297079 390.097014 
L 263.905726 389.545542 
L 264.514373 386.720197 
L 265.12302 361.751381 
L 265.731667 352.425386 
L 266.340314 349.603959 
L 266.948961 321.146803 
L 267.557607 317.951817 
L 268.166254 287.274512 
L 268.774901 287.050653 
L 269.383548 287.050653 
L 271.209489 278.917604 
L 271.818135 266.617924 
L 272.426782 263.405435 
L 273.035429 243.430148 
L 273.644076 242.961605 
L 275.470017 243.06966 
L 276.078663 243.423861 
L 276.68731 242.583871 
L 277.295957 235.293057 
L 277.904604 235.446049 
L 278.513251 233.802526 
L 279.121898 223.78808 
L 279.730544 223.088542 
L 280.339191 216.717902 
L 280.947838 215.550196 
L 281.556485 204.958967 
L 282.165132 150.250119 
L 282.773779 199.240707 
L 283.382426 182.344111 
L 283.991072 190.521423 
L 284.599719 190.521423 
L 285.817013 185.697123 
L 286.42566 173.783109 
L 287.034307 173.214113 
L 287.642954 171.8205 
L 288.2516 161.962537 
L 288.860247 161.860246 
L 290.077541 160.568887 
L 290.686188 160.172049 
L 291.294835 157.530255 
L 291.903482 157.594428 
L 292.512128 157.88172 
L 293.120775 157.62485 
L 293.729422 155.280773 
L 294.946716 155.262478 
L 295.555363 155.073746 
L 296.164009 153.512512 
L 296.772656 153.213708 
L 297.381303 152.705127 
L 297.98995 148.302808 
L 299.207244 148.322892 
L 300.424537 148.249301 
L 301.033184 148.27559 
L 302.250478 148.731383 
L 302.859125 148.843949 
L 303.467772 149.350029 
L 304.685065 149.71125 
L 305.293712 150.560806 
L 305.902359 150.788096 
L 306.511006 151.267931 
L 307.7283 151.425301 
L 308.945593 152.090352 
L 310.162887 152.228163 
L 310.771534 152.433197 
L 312.597475 152.354285 
L 313.814768 152.126849 
L 314.423415 151.49294 
L 315.032062 151.27031 
L 315.640709 150.182072 
L 316.858002 150.116835 
L 317.466649 149.821263 
L 318.075296 149.679279 
L 318.683943 148.470617 
L 319.901237 147.602752 
L 320.509884 143.950703 
L 321.727177 143.945978 
L 322.944471 143.721839 
L 323.553118 143.646209 
L 324.161765 143.30467 
L 324.770412 143.21046 
L 325.379058 142.784543 
L 325.987705 142.66554 
L 326.596352 142.127248 
L 327.204999 141.994849 
L 327.813646 141.395499 
L 328.422293 141.225367 
L 329.03094 140.454278 
L 329.639586 140.203709 
L 330.248233 139.065013 
L 330.85688 138.540925 
L 331.465527 136.139784 
L 332.074174 136.139784 
L 332.682821 135.813102 
L 333.291467 133.340344 
L 333.900114 132.949633 
L 334.508761 131.042054 
L 335.117408 130.279146 
L 335.726055 126.77153 
L 336.943349 125.293346 
L 337.551995 122.030675 
L 338.160642 120.646308 
L 338.769289 114.208853 
L 339.377936 113.630745 
L 339.986583 110.993904 
L 340.59523 110.639538 
L 341.203877 109.029158 
L 341.812523 108.463058 
L 342.42117 105.885167 
L 343.029817 105.632824 
L 343.638464 104.489201 
L 344.247111 103.932702 
L 344.855758 101.400284 
L 345.464405 101.068332 
L 346.073051 100.028465 
L 346.681698 99.818686 
L 347.290345 98.868381 
L 347.898992 98.868381 
L 348.507639 98.588202 
L 349.116286 96.532457 
L 349.724933 95.777225 
L 350.333579 93.280533 
L 350.942226 92.24879 
L 351.550873 92.081256 
L 352.15952 91.322058 
L 352.768167 91.280539 
L 353.376814 90.903742 
L 353.98546 90.723105 
L 354.594107 89.457833 
L 355.202754 89.314827 
L 355.811401 88.666065 
L 356.420048 88.55595 
L 357.028695 87.552927 
L 357.637342 87.3529 
L 358.245988 85.51358 
L 358.854635 85.234673 
L 359.463282 83.832317 
L 360.071929 83.51091 
L 360.680576 82.024016 
L 361.289223 81.760779 
L 361.89787 79.318872 
L 362.506516 79.107885 
L 363.115163 78.134671 
L 363.72381 78.134671 
L 364.332457 77.837488 
L 364.941104 76.467699 
L 365.549751 76.25047 
L 366.158398 75.252417 
L 366.767044 69.19857 
L 367.375691 71.211588 
L 367.984338 71.124038 
L 368.592985 70.299669 
L 369.201632 70.235784 
L 369.810279 69.645411 
L 370.418925 69.242072 
L 371.027572 67.304217 
L 371.636219 67.129051 
L 372.244866 66.00306 
L 372.853513 65.88019 
L 373.46216 64.740123 
L 374.070807 64.622002 
L 374.679453 64.076633 
L 375.2881 63.989122 
L 375.896747 63.58914 
L 376.505394 61.474484 
L 377.114041 61.379195 
L 377.722688 60.500182 
L 378.331335 60.422468 
L 378.939981 59.707751 
L 379.548628 59.707751 
L 380.157275 59.578542 
L 380.765922 58.992312 
L 381.374569 58.745007 
L 381.983216 56.463276 
L 383.200509 56.383607 
L 383.809156 55.658264 
L 384.417803 55.616897 
L 385.02645 55.430352 
L 385.635097 53.35378 
L 386.852391 53.223735 
L 387.461037 52.049929 
L 388.678331 51.95676 
L 389.286978 51.116176 
L 389.895625 51.101016 
L 390.504272 50.964691 
L 391.112918 49.596831 
L 391.721565 49.57255 
L 392.330212 49.354035 
L 392.938859 49.333395 
L 393.547506 49.147515 
L 394.156153 47.281005 
L 395.982093 47.246654 
L 396.59074 47.091863 
L 397.199387 46.238489 
L 398.416681 46.128012 
L 399.025328 45.131088 
L 400.242621 45.033823 
L 400.851268 44.595198 
L 401.459915 44.575291 
L 402.068562 44.395836 
L 402.677209 43.495544 
L 403.894502 43.400268 
L 404.503149 42.970281 
L 405.720443 42.908334 
L 406.32909 42.628888 
L 406.937737 40.162148 
L 408.15503 40.137153 
L 408.763677 39.911621 
L 409.980971 39.885745 
L 410.589618 39.652491 
L 410.589618 39.652491 
" clip-path="url(#p476c8f1057)" style="fill: none; stroke: #348abd; stroke-width: 2; stroke-linecap: square"/>
   </g>
   <g id="patch_8">
    <path d="M 246.985344 411.3334 
L 246.985344 21.9534 
" style="fill: none; stroke: #bcbcbc; stroke-width: 0.8; stroke-linejoin: miter; stroke-linecap: square"/>
   </g>
   <g id="patch_9">
    <path d="M 418.380297 411.3334 
L 418.380297 21.9534 
" style="fill: none; stroke: #bcbcbc; stroke-width: 0.8; stroke-linejoin: miter; stroke-linecap: square"/>
   </g>
   <g id="patch_10">
    <path d="M 246.985344 411.3334 
L 418.380297 411.3334 
" style="fill: none; stroke: #bcbcbc; stroke-width: 0.8; stroke-linejoin: miter; stroke-linecap: square"/>
   </g>
   <g id="patch_11">
    <path d="M 246.985344 21.9534 
L 418.380297 21.9534 
" style="fill: none; stroke: #bcbcbc; stroke-width: 0.8; stroke-linejoin: miter; stroke-linecap: square"/>
   </g>
   <g id="text_11">
    <!-- Regularization -->
    <g transform="translate(291.404321 15.9534) scale(0.1152 -0.1152)">
     <defs>
      <path id="DejaVuSans-52" d="M 2841 2188 
Q 3044 2119 3236 1894 
Q 3428 1669 3622 1275 
L 4263 0 
L 3584 0 
L 2988 1197 
Q 2756 1666 2539 1819 
Q 2322 1972 1947 1972 
L 1259 1972 
L 1259 0 
L 628 0 
L 628 4666 
L 2053 4666 
Q 2853 4666 3247 4331 
Q 3641 3997 3641 3322 
Q 3641 2881 3436 2590 
Q 3231 2300 2841 2188 
z
M 1259 4147 
L 1259 2491 
L 2053 2491 
Q 2509 2491 2742 2702 
Q 2975 2913 2975 3322 
Q 2975 3731 2742 3939 
Q 2509 4147 2053 4147 
L 1259 4147 
z
" transform="scale(0.015625)"/>
      <path id="DejaVuSans-65" d="M 3597 1894 
L 3597 1613 
L 953 1613 
Q 991 1019 1311 708 
Q 1631 397 2203 397 
Q 2534 397 2845 478 
Q 3156 559 3463 722 
L 3463 178 
Q 3153 47 2828 -22 
Q 2503 -91 2169 -91 
Q 1331 -91 842 396 
Q 353 884 353 1716 
Q 353 2575 817 3079 
Q 1281 3584 2069 3584 
Q 2775 3584 3186 3129 
Q 3597 2675 3597 1894 
z
M 3022 2063 
Q 3016 2534 2758 2815 
Q 2500 3097 2075 3097 
Q 1594 3097 1305 2825 
Q 1016 2553 972 2059 
L 3022 2063 
z
" transform="scale(0.015625)"/>
      <path id="DejaVuSans-67" d="M 2906 1791 
Q 2906 2416 2648 2759 
Q 2391 3103 1925 3103 
Q 1463 3103 1205 2759 
Q 947 2416 947 1791 
Q 947 1169 1205 825 
Q 1463 481 1925 481 
Q 2391 481 2648 825 
Q 2906 1169 2906 1791 
z
M 3481 434 
Q 3481 -459 3084 -895 
Q 2688 -1331 1869 -1331 
Q 1566 -1331 1297 -1286 
Q 1028 -1241 775 -1147 
L 775 -588 
Q 1028 -725 1275 -790 
Q 1522 -856 1778 -856 
Q 2344 -856 2625 -561 
Q 2906 -266 2906 331 
L 2906 616 
Q 2728 306 2450 153 
Q 2172 0 1784 0 
Q 1141 0 747 490 
Q 353 981 353 1791 
Q 353 2603 747 3093 
Q 1141 3584 1784 3584 
Q 2172 3584 2450 3431 
Q 2728 3278 2906 2969 
L 2906 3500 
L 3481 3500 
L 3481 434 
z
" transform="scale(0.015625)"/>
      <path id="DejaVuSans-75" d="M 544 1381 
L 544 3500 
L 1119 3500 
L 1119 1403 
Q 1119 906 1312 657 
Q 1506 409 1894 409 
Q 2359 409 2629 706 
Q 2900 1003 2900 1516 
L 2900 3500 
L 3475 3500 
L 3475 0 
L 2900 0 
L 2900 538 
Q 2691 219 2414 64 
Q 2138 -91 1772 -91 
Q 1169 -91 856 284 
Q 544 659 544 1381 
z
M 1991 3584 
L 1991 3584 
z
" transform="scale(0.015625)"/>
      <path id="DejaVuSans-72" d="M 2631 2963 
Q 2534 3019 2420 3045 
Q 2306 3072 2169 3072 
Q 1681 3072 1420 2755 
Q 1159 2438 1159 1844 
L 1159 0 
L 581 0 
L 581 3500 
L 1159 3500 
L 1159 2956 
Q 1341 3275 1631 3429 
Q 1922 3584 2338 3584 
Q 2397 3584 2469 3576 
Q 2541 3569 2628 3553 
L 2631 2963 
z
" transform="scale(0.015625)"/>
      <path id="DejaVuSans-69" d="M 603 3500 
L 1178 3500 
L 1178 0 
L 603 0 
L 603 3500 
z
M 603 4863 
L 1178 4863 
L 1178 4134 
L 603 4134 
L 603 4863 
z
" transform="scale(0.015625)"/>
      <path id="DejaVuSans-7a" d="M 353 3500 
L 3084 3500 
L 3084 2975 
L 922 459 
L 3084 459 
L 3084 0 
L 275 0 
L 275 525 
L 2438 3041 
L 353 3041 
L 353 3500 
z
" transform="scale(0.015625)"/>
      <path id="DejaVuSans-6e" d="M 3513 2113 
L 3513 0 
L 2938 0 
L 2938 2094 
Q 2938 2591 2744 2837 
Q 2550 3084 2163 3084 
Q 1697 3084 1428 2787 
Q 1159 2491 1159 1978 
L 1159 0 
L 581 0 
L 581 3500 
L 1159 3500 
L 1159 2956 
Q 1366 3272 1645 3428 
Q 1925 3584 2291 3584 
Q 2894 3584 3203 3211 
Q 3513 2838 3513 2113 
z
" transform="scale(0.015625)"/>
     </defs>
     <use xlink:href="#DejaVuSans-52"/>
     <use xlink:href="#DejaVuSans-65" x="64.982422"/>
     <use xlink:href="#DejaVuSans-67" x="126.505859"/>
     <use xlink:href="#DejaVuSans-75" x="189.982422"/>
     <use xlink:href="#DejaVuSans-6c" x="253.361328"/>
     <use xlink:href="#DejaVuSans-61" x="281.144531"/>
     <use xlink:href="#DejaVuSans-72" x="342.423828"/>
     <use xlink:href="#DejaVuSans-69" x="383.537109"/>
     <use xlink:href="#DejaVuSans-7a" x="411.320312"/>
     <use xlink:href="#DejaVuSans-61" x="463.810547"/>
     <use xlink:href="#DejaVuSans-74" x="525.089844"/>
     <use xlink:href="#DejaVuSans-69" x="564.298828"/>
     <use xlink:href="#DejaVuSans-6f" x="592.082031"/>
     <use xlink:href="#DejaVuSans-6e" x="653.263672"/>
    </g>
   </g>
  </g>
  <g id="axes_3">
   <g id="patch_12">
    <path d="M 464.470688 411.3334 
L 635.865641 411.3334 
L 635.865641 21.9534 
L 464.470688 21.9534 
z
" style="fill: #eeeeee"/>
   </g>
   <g id="matplotlib.axis_5">
    <g id="xtick_7">
     <g id="line2d_34">
      <path d="M 472.261367 411.3334 
L 472.261367 21.9534 
" clip-path="url(#p437d1d585c)" style="fill: none; stroke-dasharray: 1.85,0.8; stroke-dashoffset: 0; stroke: #b2b2b2; stroke-width: 0.5"/>
     </g>
     <g id="line2d_35">
      <g>
       <use xlink:href="#m5f7e764961" x="472.261367" y="411.3334" style="stroke: #000000; stroke-width: 0.8"/>
      </g>
     </g>
     <g id="text_12">
      <!-- 0 -->
      <g transform="translate(469.716367 420.91215) scale(0.08 -0.08)">
       <use xlink:href="#DejaVuSans-30"/>
      </g>
     </g>
    </g>
    <g id="xtick_8">
     <g id="line2d_36">
      <path d="M 533.126053 411.3334 
L 533.126053 21.9534 
" clip-path="url(#p437d1d585c)" style="fill: none; stroke-dasharray: 1.85,0.8; stroke-dashoffset: 0; stroke: #b2b2b2; stroke-width: 0.5"/>
     </g>
     <g id="line2d_37">
      <g>
       <use xlink:href="#m5f7e764961" x="533.126053" y="411.3334" style="stroke: #000000; stroke-width: 0.8"/>
      </g>
     </g>
     <g id="text_13">
      <!-- 100 -->
      <g transform="translate(525.491053 420.91215) scale(0.08 -0.08)">
       <use xlink:href="#DejaVuSans-31"/>
       <use xlink:href="#DejaVuSans-30" x="63.623047"/>
       <use xlink:href="#DejaVuSans-30" x="127.246094"/>
      </g>
     </g>
    </g>
    <g id="xtick_9">
     <g id="line2d_38">
      <path d="M 593.990738 411.3334 
L 593.990738 21.9534 
" clip-path="url(#p437d1d585c)" style="fill: none; stroke-dasharray: 1.85,0.8; stroke-dashoffset: 0; stroke: #b2b2b2; stroke-width: 0.5"/>
     </g>
     <g id="line2d_39">
      <g>
       <use xlink:href="#m5f7e764961" x="593.990738" y="411.3334" style="stroke: #000000; stroke-width: 0.8"/>
      </g>
     </g>
     <g id="text_14">
      <!-- 200 -->
      <g transform="translate(586.355738 420.91215) scale(0.08 -0.08)">
       <use xlink:href="#DejaVuSans-32"/>
       <use xlink:href="#DejaVuSans-30" x="63.623047"/>
       <use xlink:href="#DejaVuSans-30" x="127.246094"/>
      </g>
     </g>
    </g>
   </g>
   <g id="matplotlib.axis_6">
    <g id="ytick_18">
     <g id="line2d_40">
      <path d="M 464.470688 318.179858 
L 635.865641 318.179858 
" clip-path="url(#p437d1d585c)" style="fill: none; stroke-dasharray: 1.85,0.8; stroke-dashoffset: 0; stroke: #b2b2b2; stroke-width: 0.5"/>
     </g>
     <g id="line2d_41">
      <g>
       <use xlink:href="#m7c3ba44eca" x="464.470688" y="318.179858" style="stroke: #000000; stroke-width: 0.8"/>
      </g>
     </g>
     <g id="text_15">
      <!-- $\mathdefault{10^{-6}}$ -->
      <g transform="translate(442.170688 321.219233) scale(0.08 -0.08)">
       <use xlink:href="#DejaVuSans-31" transform="translate(0 0.765625)"/>
       <use xlink:href="#DejaVuSans-30" transform="translate(63.623047 0.765625)"/>
       <use xlink:href="#DejaVuSans-2212" transform="translate(128.203125 39.046875) scale(0.7)"/>
       <use xlink:href="#DejaVuSans-36" transform="translate(186.855469 39.046875) scale(0.7)"/>
      </g>
     </g>
    </g>
    <g id="ytick_19">
     <g id="line2d_42">
      <path d="M 464.470688 210.491947 
L 635.865641 210.491947 
" clip-path="url(#p437d1d585c)" style="fill: none; stroke-dasharray: 1.85,0.8; stroke-dashoffset: 0; stroke: #b2b2b2; stroke-width: 0.5"/>
     </g>
     <g id="line2d_43">
      <g>
       <use xlink:href="#m7c3ba44eca" x="464.470688" y="210.491947" style="stroke: #000000; stroke-width: 0.8"/>
      </g>
     </g>
     <g id="text_16">
      <!-- $\mathdefault{10^{-5}}$ -->
      <g transform="translate(442.170688 213.531322) scale(0.08 -0.08)">
       <defs>
        <path id="DejaVuSans-35" d="M 691 4666 
L 3169 4666 
L 3169 4134 
L 1269 4134 
L 1269 2991 
Q 1406 3038 1543 3061 
Q 1681 3084 1819 3084 
Q 2600 3084 3056 2656 
Q 3513 2228 3513 1497 
Q 3513 744 3044 326 
Q 2575 -91 1722 -91 
Q 1428 -91 1123 -41 
Q 819 9 494 109 
L 494 744 
Q 775 591 1075 516 
Q 1375 441 1709 441 
Q 2250 441 2565 725 
Q 2881 1009 2881 1497 
Q 2881 1984 2565 2268 
Q 2250 2553 1709 2553 
Q 1456 2553 1204 2497 
Q 953 2441 691 2322 
L 691 4666 
z
" transform="scale(0.015625)"/>
       </defs>
       <use xlink:href="#DejaVuSans-31" transform="translate(0 0.684375)"/>
       <use xlink:href="#DejaVuSans-30" transform="translate(63.623047 0.684375)"/>
       <use xlink:href="#DejaVuSans-2212" transform="translate(128.203125 38.965625) scale(0.7)"/>
       <use xlink:href="#DejaVuSans-35" transform="translate(186.855469 38.965625) scale(0.7)"/>
      </g>
     </g>
    </g>
    <g id="ytick_20">
     <g id="line2d_44">
      <path d="M 464.470688 102.804036 
L 635.865641 102.804036 
" clip-path="url(#p437d1d585c)" style="fill: none; stroke-dasharray: 1.85,0.8; stroke-dashoffset: 0; stroke: #b2b2b2; stroke-width: 0.5"/>
     </g>
     <g id="line2d_45">
      <g>
       <use xlink:href="#m7c3ba44eca" x="464.470688" y="102.804036" style="stroke: #000000; stroke-width: 0.8"/>
      </g>
     </g>
     <g id="text_17">
      <!-- $\mathdefault{10^{-4}}$ -->
      <g transform="translate(442.170688 105.843411) scale(0.08 -0.08)">
       <defs>
        <path id="DejaVuSans-34" d="M 2419 4116 
L 825 1625 
L 2419 1625 
L 2419 4116 
z
M 2253 4666 
L 3047 4666 
L 3047 1625 
L 3713 1625 
L 3713 1100 
L 3047 1100 
L 3047 0 
L 2419 0 
L 2419 1100 
L 313 1100 
L 313 1709 
L 2253 4666 
z
" transform="scale(0.015625)"/>
       </defs>
       <use xlink:href="#DejaVuSans-31" transform="translate(0 0.684375)"/>
       <use xlink:href="#DejaVuSans-30" transform="translate(63.623047 0.684375)"/>
       <use xlink:href="#DejaVuSans-2212" transform="translate(128.203125 38.965625) scale(0.7)"/>
       <use xlink:href="#DejaVuSans-34" transform="translate(186.855469 38.965625) scale(0.7)"/>
      </g>
     </g>
    </g>
    <g id="ytick_21">
     <g id="line2d_46">
      <g>
       <use xlink:href="#m3125466d85" x="464.470688" y="393.450478" style="stroke: #000000; stroke-width: 0.6"/>
      </g>
     </g>
    </g>
    <g id="ytick_22">
     <g id="line2d_47">
      <g>
       <use xlink:href="#m3125466d85" x="464.470688" y="374.487578" style="stroke: #000000; stroke-width: 0.6"/>
      </g>
     </g>
    </g>
    <g id="ytick_23">
     <g id="line2d_48">
      <g>
       <use xlink:href="#m3125466d85" x="464.470688" y="361.033187" style="stroke: #000000; stroke-width: 0.6"/>
      </g>
     </g>
    </g>
    <g id="ytick_24">
     <g id="line2d_49">
      <g>
       <use xlink:href="#m3125466d85" x="464.470688" y="350.59715" style="stroke: #000000; stroke-width: 0.6"/>
      </g>
     </g>
    </g>
    <g id="ytick_25">
     <g id="line2d_50">
      <g>
       <use xlink:href="#m3125466d85" x="464.470688" y="342.070287" style="stroke: #000000; stroke-width: 0.6"/>
      </g>
     </g>
    </g>
    <g id="ytick_26">
     <g id="line2d_51">
      <g>
       <use xlink:href="#m3125466d85" x="464.470688" y="334.860927" style="stroke: #000000; stroke-width: 0.6"/>
      </g>
     </g>
    </g>
    <g id="ytick_27">
     <g id="line2d_52">
      <g>
       <use xlink:href="#m3125466d85" x="464.470688" y="328.615895" style="stroke: #000000; stroke-width: 0.6"/>
      </g>
     </g>
    </g>
    <g id="ytick_28">
     <g id="line2d_53">
      <g>
       <use xlink:href="#m3125466d85" x="464.470688" y="323.107387" style="stroke: #000000; stroke-width: 0.6"/>
      </g>
     </g>
    </g>
    <g id="ytick_29">
     <g id="line2d_54">
      <g>
       <use xlink:href="#m3125466d85" x="464.470688" y="285.762567" style="stroke: #000000; stroke-width: 0.6"/>
      </g>
     </g>
    </g>
    <g id="ytick_30">
     <g id="line2d_55">
      <g>
       <use xlink:href="#m3125466d85" x="464.470688" y="266.799667" style="stroke: #000000; stroke-width: 0.6"/>
      </g>
     </g>
    </g>
    <g id="ytick_31">
     <g id="line2d_56">
      <g>
       <use xlink:href="#m3125466d85" x="464.470688" y="253.345275" style="stroke: #000000; stroke-width: 0.6"/>
      </g>
     </g>
    </g>
    <g id="ytick_32">
     <g id="line2d_57">
      <g>
       <use xlink:href="#m3125466d85" x="464.470688" y="242.909239" style="stroke: #000000; stroke-width: 0.6"/>
      </g>
     </g>
    </g>
    <g id="ytick_33">
     <g id="line2d_58">
      <g>
       <use xlink:href="#m3125466d85" x="464.470688" y="234.382376" style="stroke: #000000; stroke-width: 0.6"/>
      </g>
     </g>
    </g>
    <g id="ytick_34">
     <g id="line2d_59">
      <g>
       <use xlink:href="#m3125466d85" x="464.470688" y="227.173016" style="stroke: #000000; stroke-width: 0.6"/>
      </g>
     </g>
    </g>
    <g id="ytick_35">
     <g id="line2d_60">
      <g>
       <use xlink:href="#m3125466d85" x="464.470688" y="220.927984" style="stroke: #000000; stroke-width: 0.6"/>
      </g>
     </g>
    </g>
    <g id="ytick_36">
     <g id="line2d_61">
      <g>
       <use xlink:href="#m3125466d85" x="464.470688" y="215.419476" style="stroke: #000000; stroke-width: 0.6"/>
      </g>
     </g>
    </g>
    <g id="ytick_37">
     <g id="line2d_62">
      <g>
       <use xlink:href="#m3125466d85" x="464.470688" y="178.074656" style="stroke: #000000; stroke-width: 0.6"/>
      </g>
     </g>
    </g>
    <g id="ytick_38">
     <g id="line2d_63">
      <g>
       <use xlink:href="#m3125466d85" x="464.470688" y="159.111756" style="stroke: #000000; stroke-width: 0.6"/>
      </g>
     </g>
    </g>
    <g id="ytick_39">
     <g id="line2d_64">
      <g>
       <use xlink:href="#m3125466d85" x="464.470688" y="145.657364" style="stroke: #000000; stroke-width: 0.6"/>
      </g>
     </g>
    </g>
    <g id="ytick_40">
     <g id="line2d_65">
      <g>
       <use xlink:href="#m3125466d85" x="464.470688" y="135.221328" style="stroke: #000000; stroke-width: 0.6"/>
      </g>
     </g>
    </g>
    <g id="ytick_41">
     <g id="line2d_66">
      <g>
       <use xlink:href="#m3125466d85" x="464.470688" y="126.694465" style="stroke: #000000; stroke-width: 0.6"/>
      </g>
     </g>
    </g>
    <g id="ytick_42">
     <g id="line2d_67">
      <g>
       <use xlink:href="#m3125466d85" x="464.470688" y="119.485105" style="stroke: #000000; stroke-width: 0.6"/>
      </g>
     </g>
    </g>
    <g id="ytick_43">
     <g id="line2d_68">
      <g>
       <use xlink:href="#m3125466d85" x="464.470688" y="113.240073" style="stroke: #000000; stroke-width: 0.6"/>
      </g>
     </g>
    </g>
    <g id="ytick_44">
     <g id="line2d_69">
      <g>
       <use xlink:href="#m3125466d85" x="464.470688" y="107.731565" style="stroke: #000000; stroke-width: 0.6"/>
      </g>
     </g>
    </g>
    <g id="ytick_45">
     <g id="line2d_70">
      <g>
       <use xlink:href="#m3125466d85" x="464.470688" y="70.386745" style="stroke: #000000; stroke-width: 0.6"/>
      </g>
     </g>
    </g>
    <g id="ytick_46">
     <g id="line2d_71">
      <g>
       <use xlink:href="#m3125466d85" x="464.470688" y="51.423845" style="stroke: #000000; stroke-width: 0.6"/>
      </g>
     </g>
    </g>
    <g id="ytick_47">
     <g id="line2d_72">
      <g>
       <use xlink:href="#m3125466d85" x="464.470688" y="37.969453" style="stroke: #000000; stroke-width: 0.6"/>
      </g>
     </g>
    </g>
    <g id="ytick_48">
     <g id="line2d_73">
      <g>
       <use xlink:href="#m3125466d85" x="464.470688" y="27.533416" style="stroke: #000000; stroke-width: 0.6"/>
      </g>
     </g>
    </g>
   </g>
   <g id="line2d_74">
    <path d="M 472.261367 110.004471 
L 473.478661 108.910482 
L 474.087308 104.711011 
L 474.695955 104.734488 
L 475.304602 104.94592 
L 475.913248 107.071604 
L 476.521895 107.030052 
L 477.130542 106.65284 
L 477.739189 106.568138 
L 478.347836 105.805737 
L 478.956483 105.759381 
L 479.56513 105.13612 
L 480.173776 104.942743 
L 480.782423 103.358303 
L 481.39107 103.008036 
L 481.999717 101.556812 
L 482.608364 94.403343 
L 483.217011 89.977778 
L 483.825658 88.467807 
L 484.434304 70.432526 
L 485.042951 68.180966 
L 485.651598 44.517627 
L 486.260245 45.279472 
L 486.868892 45.279472 
L 487.477539 43.559738 
L 488.694832 41.954329 
L 489.303479 39.733677 
L 489.912126 39.652491 
L 490.520773 40.067912 
L 491.12942 43.189236 
L 491.738067 44.846454 
L 492.346713 60.955131 
L 492.95536 62.185386 
L 493.564007 67.367226 
L 494.172654 69.601952 
L 494.781301 91.561361 
L 495.389948 93.529884 
L 495.998595 98.152564 
L 496.607241 133.608891 
L 497.215888 135.055558 
L 497.824535 150.86437 
L 498.433182 153.167924 
L 499.041829 157.105512 
L 499.043414 436.21715 
M 500.25749 436.21715 
L 500.259123 148.572756 
L 500.867769 162.196264 
L 501.476416 146.669321 
L 502.085063 146.669321 
L 503.302357 128.792737 
L 503.911004 115.990975 
L 504.519651 106.552599 
L 505.128297 106.058564 
L 505.736944 134.241656 
L 506.345591 137.031189 
L 506.954238 149.516254 
L 508.171532 201.498812 
L 508.780178 231.08954 
L 509.388825 228.73094 
L 509.997472 222.193115 
L 510.606119 236.085257 
L 511.214766 393.634309 
L 511.823413 356.246039 
L 512.43206 199.043851 
L 513.040706 191.287378 
L 513.649353 127.082415 
L 514.258 121.141027 
L 514.866647 116.781704 
L 515.475294 76.795217 
L 516.692588 75.923609 
L 517.301234 70.777255 
L 518.518528 70.668826 
L 519.127175 69.652226 
L 519.735822 70.765765 
L 520.344469 70.683203 
L 520.953116 70.363527 
L 521.561762 71.845108 
L 522.170409 71.909302 
L 522.779056 72.320392 
L 523.387703 73.180056 
L 523.99635 74.799312 
L 524.604997 73.704313 
L 525.213643 73.755882 
L 526.430937 74.688551 
L 527.039584 74.744317 
L 527.648231 75.423283 
L 528.256878 75.620371 
L 528.865525 75.621676 
L 529.474171 76.926183 
L 530.082818 77.033882 
L 530.691465 77.665789 
L 531.300112 77.282592 
L 531.908759 75.422517 
L 532.517406 75.131429 
L 533.126053 76.941229 
L 533.734699 76.941229 
L 534.343346 77.167214 
L 534.951993 78.204786 
L 535.56064 78.016543 
L 536.169287 76.897001 
L 536.777934 76.289112 
L 537.386581 76.314136 
L 537.995227 78.349226 
L 538.603874 76.843505 
L 539.212521 76.301815 
L 539.821168 73.796196 
L 541.038462 73.039436 
L 541.647109 71.628045 
L 542.255755 71.268116 
L 542.864402 69.649429 
L 543.473049 69.618572 
L 544.690343 69.298856 
L 545.29899 68.542466 
L 545.907636 68.497106 
L 546.516283 68.272621 
L 547.12493 68.168298 
L 547.733577 67.710276 
L 548.342224 68.280925 
L 548.950871 70.783799 
L 550.168164 70.727664 
L 550.776811 70.261387 
L 551.385458 70.153909 
L 551.994105 69.675835 
L 552.602752 69.602324 
L 553.211399 68.696373 
L 553.820046 69.76002 
L 554.428692 70.013144 
L 555.037339 71.309263 
L 555.645986 70.112818 
L 556.254633 63.358647 
L 556.86328 64.367303 
L 557.471927 68.674054 
L 558.080574 67.927822 
L 558.68922 64.715671 
L 559.297867 64.454799 
L 559.906514 63.276017 
L 560.515161 63.331374 
L 561.123808 63.702964 
L 561.732455 63.898106 
L 562.341101 64.874647 
L 562.949748 64.59289 
L 563.558395 63.707607 
L 564.167042 63.763932 
L 564.775689 64.036815 
L 565.384336 64.036815 
L 565.992983 63.78749 
L 566.601629 61.99884 
L 567.818923 61.844703 
L 568.42757 60.394537 
L 569.036217 60.276666 
L 569.644864 59.762182 
L 570.253511 59.532648 
L 570.862157 57.594668 
L 571.470804 57.648411 
L 572.079451 58.298068 
L 572.688098 57.691258 
L 573.296745 55.102578 
L 573.905392 55.086947 
L 574.514039 55.528411 
L 575.122685 55.697212 
L 575.731332 58.690266 
L 576.339979 58.986068 
L 576.948626 61.319773 
L 577.557273 61.873139 
L 578.16592 65.765732 
L 578.774567 66.136371 
L 579.383213 71.847281 
L 579.99186 72.335662 
L 580.600507 75.474359 
L 581.209154 75.474359 
L 581.817801 75.186776 
L 582.426448 74.724932 
L 583.035094 75.226079 
L 583.643741 78.369063 
L 584.252388 115.108805 
L 584.861035 102.616573 
L 585.469682 102.241114 
L 586.078329 98.807927 
L 586.686976 98.434606 
L 587.295622 95.659871 
L 587.904269 96.95 
L 588.512916 103.520901 
L 589.121563 102.656207 
L 589.73021 96.581344 
L 590.338857 96.096991 
L 590.947504 92.560536 
L 591.55615 91.63379 
L 592.164797 87.113656 
L 592.773444 86.113074 
L 593.382091 82.764483 
L 593.990738 70.397412 
L 594.599385 69.895454 
L 595.208032 67.122616 
L 595.816678 66.366907 
L 596.425325 59.647039 
L 597.033972 59.647039 
L 597.642619 59.849335 
L 598.251266 60.671481 
L 598.859913 61.026895 
L 599.468559 59.611627 
L 600.685853 59.658194 
L 601.2945 66.448411 
L 601.903147 66.852339 
L 602.511794 68.877538 
L 603.120441 113.957754 
L 603.729087 113.847043 
L 604.337734 113.350789 
L 604.946381 108.12048 
L 605.555028 108.01025 
L 606.163675 107.51658 
L 606.772322 102.340642 
L 607.380969 102.21277 
L 607.989615 101.067243 
L 608.598262 90.730887 
L 609.206909 90.883839 
L 609.815556 92.161192 
L 610.424203 92.222642 
L 611.03285 92.778883 
L 611.641497 97.488448 
L 612.85879 97.514317 
L 613.467437 97.747879 
L 614.076084 98.940181 
L 614.684731 105.549906 
L 615.293378 105.522799 
L 615.902025 105.276855 
L 616.510671 102.151858 
L 617.119318 102.272783 
L 617.727965 103.365359 
L 618.336612 109.005739 
L 618.945259 109.200291 
L 619.553906 110.967718 
L 620.162552 120.405463 
L 620.771199 120.538969 
L 621.379846 121.759469 
L 621.988493 128.427723 
L 622.59714 128.59208 
L 623.205787 129.340205 
L 623.814434 133.682632 
L 624.42308 188.748576 
L 625.031727 188.653415 
L 625.640374 187.797652 
L 626.249021 179.272947 
L 626.857668 179.203904 
L 627.466315 178.89312 
L 628.074962 175.560378 
L 628.074962 175.560378 
" clip-path="url(#p437d1d585c)" style="fill: none; stroke: #348abd; stroke-width: 2; stroke-linecap: square"/>
   </g>
   <g id="patch_13">
    <path d="M 464.470688 411.3334 
L 464.470688 21.9534 
" style="fill: none; stroke: #bcbcbc; stroke-width: 0.8; stroke-linejoin: miter; stroke-linecap: square"/>
   </g>
   <g id="patch_14">
    <path d="M 635.865641 411.3334 
L 635.865641 21.9534 
" style="fill: none; stroke: #bcbcbc; stroke-width: 0.8; stroke-linejoin: miter; stroke-linecap: square"/>
   </g>
   <g id="patch_15">
    <path d="M 464.470688 411.3334 
L 635.865641 411.3334 
" style="fill: none; stroke: #bcbcbc; stroke-width: 0.8; stroke-linejoin: miter; stroke-linecap: square"/>
   </g>
   <g id="patch_16">
    <path d="M 464.470688 21.9534 
L 635.865641 21.9534 
" style="fill: none; stroke: #bcbcbc; stroke-width: 0.8; stroke-linejoin: miter; stroke-linecap: square"/>
   </g>
   <g id="text_18">
    <!-- 2nd Order Penalty -->
    <g transform="translate(497.908764 15.9534) scale(0.1152 -0.1152)">
     <defs>
      <path id="DejaVuSans-64" d="M 2906 2969 
L 2906 4863 
L 3481 4863 
L 3481 0 
L 2906 0 
L 2906 525 
Q 2725 213 2448 61 
Q 2172 -91 1784 -91 
Q 1150 -91 751 415 
Q 353 922 353 1747 
Q 353 2572 751 3078 
Q 1150 3584 1784 3584 
Q 2172 3584 2448 3432 
Q 2725 3281 2906 2969 
z
M 947 1747 
Q 947 1113 1208 752 
Q 1469 391 1925 391 
Q 2381 391 2643 752 
Q 2906 1113 2906 1747 
Q 2906 2381 2643 2742 
Q 2381 3103 1925 3103 
Q 1469 3103 1208 2742 
Q 947 2381 947 1747 
z
" transform="scale(0.015625)"/>
      <path id="DejaVuSans-4f" d="M 2522 4238 
Q 1834 4238 1429 3725 
Q 1025 3213 1025 2328 
Q 1025 1447 1429 934 
Q 1834 422 2522 422 
Q 3209 422 3611 934 
Q 4013 1447 4013 2328 
Q 4013 3213 3611 3725 
Q 3209 4238 2522 4238 
z
M 2522 4750 
Q 3503 4750 4090 4092 
Q 4678 3434 4678 2328 
Q 4678 1225 4090 567 
Q 3503 -91 2522 -91 
Q 1538 -91 948 565 
Q 359 1222 359 2328 
Q 359 3434 948 4092 
Q 1538 4750 2522 4750 
z
" transform="scale(0.015625)"/>
      <path id="DejaVuSans-50" d="M 1259 4147 
L 1259 2394 
L 2053 2394 
Q 2494 2394 2734 2622 
Q 2975 2850 2975 3272 
Q 2975 3691 2734 3919 
Q 2494 4147 2053 4147 
L 1259 4147 
z
M 628 4666 
L 2053 4666 
Q 2838 4666 3239 4311 
Q 3641 3956 3641 3272 
Q 3641 2581 3239 2228 
Q 2838 1875 2053 1875 
L 1259 1875 
L 1259 0 
L 628 0 
L 628 4666 
z
" transform="scale(0.015625)"/>
      <path id="DejaVuSans-79" d="M 2059 -325 
Q 1816 -950 1584 -1140 
Q 1353 -1331 966 -1331 
L 506 -1331 
L 506 -850 
L 844 -850 
Q 1081 -850 1212 -737 
Q 1344 -625 1503 -206 
L 1606 56 
L 191 3500 
L 800 3500 
L 1894 763 
L 2988 3500 
L 3597 3500 
L 2059 -325 
z
" transform="scale(0.015625)"/>
     </defs>
     <use xlink:href="#DejaVuSans-32"/>
     <use xlink:href="#DejaVuSans-6e" x="63.623047"/>
     <use xlink:href="#DejaVuSans-64" x="127.001953"/>
     <use xlink:href="#DejaVuSans-20" x="190.478516"/>
     <use xlink:href="#DejaVuSans-4f" x="222.265625"/>
     <use xlink:href="#DejaVuSans-72" x="300.976562"/>
     <use xlink:href="#DejaVuSans-64" x="340.339844"/>
     <use xlink:href="#DejaVuSans-65" x="403.816406"/>
     <use xlink:href="#DejaVuSans-72" x="465.339844"/>
     <use xlink:href="#DejaVuSans-20" x="506.453125"/>
     <use xlink:href="#DejaVuSans-50" x="538.240234"/>
     <use xlink:href="#DejaVuSans-65" x="594.917969"/>
     <use xlink:href="#DejaVuSans-6e" x="656.441406"/>
     <use xlink:href="#DejaVuSans-61" x="719.820312"/>
     <use xlink:href="#DejaVuSans-6c" x="781.099609"/>
     <use xlink:href="#DejaVuSans-74" x="808.882812"/>
     <use xlink:href="#DejaVuSans-79" x="848.091797"/>
    </g>
   </g>
  </g>
  <g id="axes_4">
   <g id="patch_17">
    <path d="M 681.956031 411.3334 
L 853.350985 411.3334 
L 853.350985 21.9534 
L 681.956031 21.9534 
z
" style="fill: #eeeeee"/>
   </g>
   <g id="matplotlib.axis_7">
    <g id="xtick_10">
     <g id="line2d_75">
      <path d="M 689.746711 411.3334 
L 689.746711 21.9534 
" clip-path="url(#p32b9e99ef7)" style="fill: none; stroke-dasharray: 1.85,0.8; stroke-dashoffset: 0; stroke: #b2b2b2; stroke-width: 0.5"/>
     </g>
     <g id="line2d_76">
      <g>
       <use xlink:href="#m5f7e764961" x="689.746711" y="411.3334" style="stroke: #000000; stroke-width: 0.8"/>
      </g>
     </g>
     <g id="text_19">
      <!-- 0 -->
      <g transform="translate(687.201711 420.91215) scale(0.08 -0.08)">
       <use xlink:href="#DejaVuSans-30"/>
      </g>
     </g>
    </g>
    <g id="xtick_11">
     <g id="line2d_77">
      <path d="M 750.611396 411.3334 
L 750.611396 21.9534 
" clip-path="url(#p32b9e99ef7)" style="fill: none; stroke-dasharray: 1.85,0.8; stroke-dashoffset: 0; stroke: #b2b2b2; stroke-width: 0.5"/>
     </g>
     <g id="line2d_78">
      <g>
       <use xlink:href="#m5f7e764961" x="750.611396" y="411.3334" style="stroke: #000000; stroke-width: 0.8"/>
      </g>
     </g>
     <g id="text_20">
      <!-- 100 -->
      <g transform="translate(742.976396 420.91215) scale(0.08 -0.08)">
       <use xlink:href="#DejaVuSans-31"/>
       <use xlink:href="#DejaVuSans-30" x="63.623047"/>
       <use xlink:href="#DejaVuSans-30" x="127.246094"/>
      </g>
     </g>
    </g>
    <g id="xtick_12">
     <g id="line2d_79">
      <path d="M 811.476082 411.3334 
L 811.476082 21.9534 
" clip-path="url(#p32b9e99ef7)" style="fill: none; stroke-dasharray: 1.85,0.8; stroke-dashoffset: 0; stroke: #b2b2b2; stroke-width: 0.5"/>
     </g>
     <g id="line2d_80">
      <g>
       <use xlink:href="#m5f7e764961" x="811.476082" y="411.3334" style="stroke: #000000; stroke-width: 0.8"/>
      </g>
     </g>
     <g id="text_21">
      <!-- 200 -->
      <g transform="translate(803.841082 420.91215) scale(0.08 -0.08)">
       <use xlink:href="#DejaVuSans-32"/>
       <use xlink:href="#DejaVuSans-30" x="63.623047"/>
       <use xlink:href="#DejaVuSans-30" x="127.246094"/>
      </g>
     </g>
    </g>
   </g>
   <g id="matplotlib.axis_8">
    <g id="ytick_49">
     <g id="line2d_81">
      <path d="M 681.956031 290.62187 
L 853.350985 290.62187 
" clip-path="url(#p32b9e99ef7)" style="fill: none; stroke-dasharray: 1.85,0.8; stroke-dashoffset: 0; stroke: #b2b2b2; stroke-width: 0.5"/>
     </g>
     <g id="line2d_82">
      <g>
       <use xlink:href="#m7c3ba44eca" x="681.956031" y="290.62187" style="stroke: #000000; stroke-width: 0.8"/>
      </g>
     </g>
     <g id="text_22">
      <!-- $\mathdefault{10^{-2}}$ -->
      <g transform="translate(659.656031 293.661245) scale(0.08 -0.08)">
       <use xlink:href="#DejaVuSans-31" transform="translate(0 0.765625)"/>
       <use xlink:href="#DejaVuSans-30" transform="translate(63.623047 0.765625)"/>
       <use xlink:href="#DejaVuSans-2212" transform="translate(128.203125 39.046875) scale(0.7)"/>
       <use xlink:href="#DejaVuSans-32" transform="translate(186.855469 39.046875) scale(0.7)"/>
      </g>
     </g>
    </g>
    <g id="ytick_50">
     <g id="line2d_83">
      <g>
       <use xlink:href="#m3125466d85" x="681.956031" y="389.256706" style="stroke: #000000; stroke-width: 0.6"/>
      </g>
     </g>
    </g>
    <g id="ytick_51">
     <g id="line2d_84">
      <g>
       <use xlink:href="#m3125466d85" x="681.956031" y="363.312351" style="stroke: #000000; stroke-width: 0.6"/>
      </g>
     </g>
    </g>
    <g id="ytick_52">
     <g id="line2d_85">
      <g>
       <use xlink:href="#m3125466d85" x="681.956031" y="341.37671" style="stroke: #000000; stroke-width: 0.6"/>
      </g>
     </g>
    </g>
    <g id="ytick_53">
     <g id="line2d_86">
      <g>
       <use xlink:href="#m3125466d85" x="681.956031" y="322.375195" style="stroke: #000000; stroke-width: 0.6"/>
      </g>
     </g>
    </g>
    <g id="ytick_54">
     <g id="line2d_87">
      <g>
       <use xlink:href="#m3125466d85" x="681.956031" y="305.61467" style="stroke: #000000; stroke-width: 0.6"/>
      </g>
     </g>
    </g>
    <g id="ytick_55">
     <g id="line2d_88">
      <g>
       <use xlink:href="#m3125466d85" x="681.956031" y="191.987034" style="stroke: #000000; stroke-width: 0.6"/>
      </g>
     </g>
    </g>
    <g id="ytick_56">
     <g id="line2d_89">
      <g>
       <use xlink:href="#m3125466d85" x="681.956031" y="134.289353" style="stroke: #000000; stroke-width: 0.6"/>
      </g>
     </g>
    </g>
    <g id="ytick_57">
     <g id="line2d_90">
      <g>
       <use xlink:href="#m3125466d85" x="681.956031" y="93.352198" style="stroke: #000000; stroke-width: 0.6"/>
      </g>
     </g>
    </g>
    <g id="ytick_58">
     <g id="line2d_91">
      <g>
       <use xlink:href="#m3125466d85" x="681.956031" y="61.598873" style="stroke: #000000; stroke-width: 0.6"/>
      </g>
     </g>
    </g>
    <g id="ytick_59">
     <g id="line2d_92">
      <g>
       <use xlink:href="#m3125466d85" x="681.956031" y="35.654517" style="stroke: #000000; stroke-width: 0.6"/>
      </g>
     </g>
    </g>
   </g>
   <g id="line2d_93">
    <path d="M 689.746711 39.652491 
L 690.964005 57.948077 
L 691.572652 100.866527 
L 692.181299 100.886284 
L 692.789945 101.055937 
L 693.398592 101.938665 
L 694.007239 101.960078 
L 694.615886 102.114272 
L 695.224533 102.150598 
L 695.83318 102.385453 
L 696.441827 102.428812 
L 697.050473 102.75611 
L 697.65912 102.90156 
L 698.267767 103.40629 
L 698.876414 103.556108 
L 699.485061 104.221405 
L 700.093708 107.804511 
L 701.311001 109.510229 
L 701.919648 115.066066 
L 702.528295 117.266367 
L 703.136942 131.559532 
L 703.745589 137.088992 
L 704.354236 137.088992 
L 705.571529 141.793791 
L 706.180176 144.223904 
L 706.788823 153.188554 
L 707.39747 155.241257 
L 708.006117 161.674229 
L 708.614764 164.551896 
L 709.22341 165.955214 
L 709.832057 173.939862 
L 710.440704 174.890893 
L 711.049351 178.615799 
L 711.657998 180.679557 
L 712.266645 191.41419 
L 713.483938 195.589646 
L 714.092585 203.718875 
L 714.701232 204.672255 
L 715.309879 210.221402 
L 715.918526 211.173162 
L 716.527173 219.496972 
L 717.13582 82.054134 
L 717.744466 224.082285 
L 718.353113 221.113215 
L 718.96176 228.377174 
L 719.570407 228.377174 
L 720.179054 230.497629 
L 720.787701 233.787144 
L 721.396347 244.026033 
L 722.004994 246.420862 
L 722.613641 248.345556 
L 723.222288 255.615602 
L 725.048229 261.330541 
L 725.656875 262.663581 
L 726.265522 268.076726 
L 726.874169 268.516325 
L 727.482816 270.172421 
L 728.091463 270.99839 
L 728.70011 275.387562 
L 729.308757 276.078402 
L 729.917403 280.991351 
L 730.52605 282.269135 
L 731.134697 290.115844 
L 732.351991 292.869001 
L 732.960638 299.811293 
L 734.177931 300.020841 
L 734.786578 300.771274 
L 736.003872 300.795599 
L 736.612519 300.99574 
L 737.829812 301.06023 
L 738.438459 301.281411 
L 739.655753 301.366952 
L 740.2644 301.704835 
L 741.481694 301.844583 
L 746.350868 303.278754 
L 746.959515 303.616493 
L 748.176809 303.835971 
L 748.785456 303.935446 
L 749.394103 304.505517 
L 750.00275 304.711914 
L 750.611396 305.098492 
L 751.82869 305.131024 
L 753.045984 305.385662 
L 753.654631 306.183484 
L 756.089218 307.079622 
L 756.697865 307.191858 
L 757.306512 307.640078 
L 758.523805 307.797445 
L 759.132452 308.057428 
L 759.741099 308.109164 
L 760.349746 308.326217 
L 762.175687 308.502842 
L 763.39298 308.665544 
L 765.827568 309.008939 
L 768.870802 309.418018 
L 769.479449 309.6763 
L 770.088096 309.795229 
L 770.696743 310.269005 
L 771.914036 310.457657 
L 773.13133 311.291057 
L 773.739977 312.768753 
L 774.348624 312.850116 
L 775.565917 313.25732 
L 776.174564 313.921786 
L 776.783211 314.016761 
L 777.391858 314.37778 
L 778.000505 314.430158 
L 778.609152 314.626561 
L 779.826445 314.844524 
L 780.435092 314.918437 
L 781.043739 315.130755 
L 781.652386 315.180245 
L 782.261033 315.361775 
L 783.478326 315.428179 
L 784.086973 315.888004 
L 784.69562 316.018547 
L 785.912914 316.687134 
L 786.521561 316.755163 
L 787.130208 317.023295 
L 787.738854 317.07854 
L 788.347501 317.522346 
L 788.956148 317.562218 
L 790.173442 317.870937 
L 790.782089 318.326435 
L 791.390736 318.370172 
L 791.999382 318.671467 
L 792.608029 318.732619 
L 793.216676 319.041042 
L 793.825323 319.11584 
L 794.43397 319.358617 
L 795.042617 319.473166 
L 795.651263 319.774497 
L 796.25991 319.866185 
L 796.868557 320.328403 
L 797.477204 320.461533 
L 798.085851 320.936645 
L 798.694498 320.936645 
L 799.303145 321.167538 
L 799.911791 322.036322 
L 800.520438 322.193957 
L 801.129085 322.811672 
L 801.737732 322.422475 
L 802.346379 323.492209 
L 802.955026 323.767148 
L 803.563673 325.969699 
L 804.172319 326.231062 
L 804.780966 328.417628 
L 805.389613 328.932928 
L 805.99826 330.949201 
L 806.606907 331.472268 
L 807.215554 334.443209 
L 807.824201 334.775984 
L 808.432847 337.550837 
L 809.041494 338.020827 
L 809.650141 340.042328 
L 810.258788 340.433886 
L 810.867435 342.151806 
L 811.476082 349.263818 
L 812.084728 349.668353 
L 812.693375 352.805928 
L 813.302022 353.245912 
L 813.910669 356.798166 
L 814.519316 356.798166 
L 815.127963 357.004458 
L 815.73661 357.803546 
L 816.345256 358.36897 
L 816.953903 361.205795 
L 817.56255 361.320011 
L 818.171197 361.812257 
L 818.779844 364.748491 
L 819.388491 364.853664 
L 819.997138 365.309054 
L 820.605784 368.253615 
L 821.214431 368.419049 
L 821.823078 369.148528 
L 822.431725 375.398876 
L 823.040372 375.473161 
L 823.649019 375.802228 
L 824.257666 378.809508 
L 824.866312 378.875653 
L 825.474959 379.451919 
L 826.083606 383.39633 
L 826.692253 383.425597 
L 827.3009 383.669992 
L 827.909547 383.707702 
L 828.518194 384.032825 
L 829.12684 385.989114 
L 830.952781 386.020901 
L 831.561428 386.159092 
L 832.170075 386.786446 
L 832.778721 386.808642 
L 833.387368 387.005715 
L 833.996015 388.679533 
L 835.213309 388.767268 
L 835.821956 389.136876 
L 836.430603 389.157812 
L 837.039249 389.34138 
L 837.647896 390.109994 
L 838.86519 390.209222 
L 839.473837 390.614078 
L 840.691131 390.694299 
L 841.299777 391.035683 
L 841.908424 392.226906 
L 843.125718 392.309409 
L 843.734365 392.991662 
L 844.951659 393.058874 
L 845.560305 393.634309 
L 845.560305 393.634309 
" clip-path="url(#p32b9e99ef7)" style="fill: none; stroke: #348abd; stroke-width: 2; stroke-linecap: square"/>
   </g>
   <g id="patch_18">
    <path d="M 681.956031 411.3334 
L 681.956031 21.9534 
" style="fill: none; stroke: #bcbcbc; stroke-width: 0.8; stroke-linejoin: miter; stroke-linecap: square"/>
   </g>
   <g id="patch_19">
    <path d="M 853.350985 411.3334 
L 853.350985 21.9534 
" style="fill: none; stroke: #bcbcbc; stroke-width: 0.8; stroke-linejoin: miter; stroke-linecap: square"/>
   </g>
   <g id="patch_20">
    <path d="M 681.956031 411.3334 
L 853.350985 411.3334 
" style="fill: none; stroke: #bcbcbc; stroke-width: 0.8; stroke-linejoin: miter; stroke-linecap: square"/>
   </g>
   <g id="patch_21">
    <path d="M 681.956031 21.9534 
L 853.350985 21.9534 
" style="fill: none; stroke: #bcbcbc; stroke-width: 0.8; stroke-linejoin: miter; stroke-linecap: square"/>
   </g>
   <g id="text_23">
    <!-- MSE Loss -->
    <g transform="translate(740.922608 15.9534) scale(0.1152 -0.1152)">
     <defs>
      <path id="DejaVuSans-4d" d="M 628 4666 
L 1569 4666 
L 2759 1491 
L 3956 4666 
L 4897 4666 
L 4897 0 
L 4281 0 
L 4281 4097 
L 3078 897 
L 2444 897 
L 1241 4097 
L 1241 0 
L 628 0 
L 628 4666 
z
" transform="scale(0.015625)"/>
      <path id="DejaVuSans-53" d="M 3425 4513 
L 3425 3897 
Q 3066 4069 2747 4153 
Q 2428 4238 2131 4238 
Q 1616 4238 1336 4038 
Q 1056 3838 1056 3469 
Q 1056 3159 1242 3001 
Q 1428 2844 1947 2747 
L 2328 2669 
Q 3034 2534 3370 2195 
Q 3706 1856 3706 1288 
Q 3706 609 3251 259 
Q 2797 -91 1919 -91 
Q 1588 -91 1214 -16 
Q 841 59 441 206 
L 441 856 
Q 825 641 1194 531 
Q 1563 422 1919 422 
Q 2459 422 2753 634 
Q 3047 847 3047 1241 
Q 3047 1584 2836 1778 
Q 2625 1972 2144 2069 
L 1759 2144 
Q 1053 2284 737 2584 
Q 422 2884 422 3419 
Q 422 4038 858 4394 
Q 1294 4750 2059 4750 
Q 2388 4750 2728 4690 
Q 3069 4631 3425 4513 
z
" transform="scale(0.015625)"/>
      <path id="DejaVuSans-45" d="M 628 4666 
L 3578 4666 
L 3578 4134 
L 1259 4134 
L 1259 2753 
L 3481 2753 
L 3481 2222 
L 1259 2222 
L 1259 531 
L 3634 531 
L 3634 0 
L 628 0 
L 628 4666 
z
" transform="scale(0.015625)"/>
     </defs>
     <use xlink:href="#DejaVuSans-4d"/>
     <use xlink:href="#DejaVuSans-53" x="86.279297"/>
     <use xlink:href="#DejaVuSans-45" x="149.755859"/>
     <use xlink:href="#DejaVuSans-20" x="212.939453"/>
     <use xlink:href="#DejaVuSans-4c" x="244.726562"/>
     <use xlink:href="#DejaVuSans-6f" x="298.689453"/>
     <use xlink:href="#DejaVuSans-73" x="359.871094"/>
     <use xlink:href="#DejaVuSans-73" x="411.970703"/>
    </g>
   </g>
  </g>
  <g id="text_24">
   <!-- Wolfe Iterations -->
   <g transform="translate(398.520985 426.3534) scale(0.08 -0.08)">
    <defs>
     <path id="DejaVuSans-57" d="M 213 4666 
L 850 4666 
L 1831 722 
L 2809 4666 
L 3519 4666 
L 4500 722 
L 5478 4666 
L 6119 4666 
L 4947 0 
L 4153 0 
L 3169 4050 
L 2175 0 
L 1381 0 
L 213 4666 
z
" transform="scale(0.015625)"/>
     <path id="DejaVuSans-66" d="M 2375 4863 
L 2375 4384 
L 1825 4384 
Q 1516 4384 1395 4259 
Q 1275 4134 1275 3809 
L 1275 3500 
L 2222 3500 
L 2222 3053 
L 1275 3053 
L 1275 0 
L 697 0 
L 697 3053 
L 147 3053 
L 147 3500 
L 697 3500 
L 697 3744 
Q 697 4328 969 4595 
Q 1241 4863 1831 4863 
L 2375 4863 
z
" transform="scale(0.015625)"/>
     <path id="DejaVuSans-49" d="M 628 4666 
L 1259 4666 
L 1259 0 
L 628 0 
L 628 4666 
z
" transform="scale(0.015625)"/>
    </defs>
    <use xlink:href="#DejaVuSans-57"/>
    <use xlink:href="#DejaVuSans-6f" x="93.001953"/>
    <use xlink:href="#DejaVuSans-6c" x="154.183594"/>
    <use xlink:href="#DejaVuSans-66" x="181.966797"/>
    <use xlink:href="#DejaVuSans-65" x="217.171875"/>
    <use xlink:href="#DejaVuSans-20" x="278.695312"/>
    <use xlink:href="#DejaVuSans-49" x="310.482422"/>
    <use xlink:href="#DejaVuSans-74" x="339.974609"/>
    <use xlink:href="#DejaVuSans-65" x="379.183594"/>
    <use xlink:href="#DejaVuSans-72" x="440.707031"/>
    <use xlink:href="#DejaVuSans-61" x="481.820312"/>
    <use xlink:href="#DejaVuSans-74" x="543.099609"/>
    <use xlink:href="#DejaVuSans-69" x="582.308594"/>
    <use xlink:href="#DejaVuSans-6f" x="610.091797"/>
    <use xlink:href="#DejaVuSans-6e" x="671.273438"/>
    <use xlink:href="#DejaVuSans-73" x="734.652344"/>
   </g>
  </g>
 </g>
 <defs>
  <clipPath id="ped5d19ab52">
   <rect x="29.5" y="21.9534" width="171.394954" height="389.38"/>
  </clipPath>
  <clipPath id="p476c8f1057">
   <rect x="246.985344" y="21.9534" width="171.394954" height="389.38"/>
  </clipPath>
  <clipPath id="p437d1d585c">
   <rect x="464.470688" y="21.9534" width="171.394954" height="389.38"/>
  </clipPath>
  <clipPath id="p32b9e99ef7">
   <rect x="681.956031" y="21.9534" width="171.394954" height="389.38"/>
  </clipPath>
 </defs>
</svg>
