<?xml version="1.0" encoding="utf-8" standalone="no"?>
<!DOCTYPE svg PUBLIC "-//W3C//DTD SVG 1.1//EN"
  "http://www.w3.org/Graphics/SVG/1.1/DTD/svg11.dtd">
<svg xmlns:xlink="http://www.w3.org/1999/xlink" width="860.550985pt" height="435.21715pt" viewBox="0 0 860.550985 435.21715" xmlns="http://www.w3.org/2000/svg" version="1.1">
 <metadata>
  <rdf:RDF xmlns:dc="http://purl.org/dc/elements/1.1/" xmlns:cc="http://creativecommons.org/ns#" xmlns:rdf="http://www.w3.org/1999/02/22-rdf-syntax-ns#">
   <cc:Work>
    <dc:type rdf:resource="http://purl.org/dc/dcmitype/StillImage"/>
    <dc:date>2023-11-19T05:54:49.308049</dc:date>
    <dc:format>image/svg+xml</dc:format>
    <dc:creator>
     <cc:Agent>
      <dc:title>Matplotlib v3.7.1, https://matplotlib.org/</dc:title>
     </cc:Agent>
    </dc:creator>
   </cc:Work>
  </rdf:RDF>
 </metadata>
 <defs>
  <style type="text/css">*{stroke-linejoin: round; stroke-linecap: butt}</style>
 </defs>
 <g id="figure_1">
  <g id="patch_1">
   <path d="M 0 435.21715 
L 860.550985 435.21715 
L 860.550985 0 
L 0 0 
z
" style="fill: #ffffff"/>
  </g>
  <g id="axes_1">
   <g id="patch_2">
    <path d="M 29.5 411.3334 
L 200.894954 411.3334 
L 200.894954 21.9534 
L 29.5 21.9534 
z
" style="fill: #eeeeee"/>
   </g>
   <g id="matplotlib.axis_1">
    <g id="xtick_1">
     <g id="line2d_1">
      <path d="M 37.29068 411.3334 
L 37.29068 21.9534 
" clip-path="url(#p881b99cd81)" style="fill: none; stroke-dasharray: 1.85,0.8; stroke-dashoffset: 0; stroke: #b2b2b2; stroke-width: 0.5"/>
     </g>
     <g id="line2d_2">
      <defs>
       <path id="m37a060fb49" d="M 0 0 
L 0 -3.5 
" style="stroke: #000000; stroke-width: 0.8"/>
      </defs>
      <g>
       <use xlink:href="#m37a060fb49" x="37.29068" y="411.3334" style="stroke: #000000; stroke-width: 0.8"/>
      </g>
     </g>
     <g id="text_1">
      <!-- 0 -->
      <g transform="translate(34.74568 420.91215) scale(0.08 -0.08)">
       <defs>
        <path id="DejaVuSans-30" d="M 2034 4250 
Q 1547 4250 1301 3770 
Q 1056 3291 1056 2328 
Q 1056 1369 1301 889 
Q 1547 409 2034 409 
Q 2525 409 2770 889 
Q 3016 1369 3016 2328 
Q 3016 3291 2770 3770 
Q 2525 4250 2034 4250 
z
M 2034 4750 
Q 2819 4750 3233 4129 
Q 3647 3509 3647 2328 
Q 3647 1150 3233 529 
Q 2819 -91 2034 -91 
Q 1250 -91 836 529 
Q 422 1150 422 2328 
Q 422 3509 836 4129 
Q 1250 4750 2034 4750 
z
" transform="scale(0.015625)"/>
       </defs>
       <use xlink:href="#DejaVuSans-30"/>
      </g>
     </g>
    </g>
    <g id="xtick_2">
     <g id="line2d_3">
      <path d="M 78.952069 411.3334 
L 78.952069 21.9534 
" clip-path="url(#p881b99cd81)" style="fill: none; stroke-dasharray: 1.85,0.8; stroke-dashoffset: 0; stroke: #b2b2b2; stroke-width: 0.5"/>
     </g>
     <g id="line2d_4">
      <g>
       <use xlink:href="#m37a060fb49" x="78.952069" y="411.3334" style="stroke: #000000; stroke-width: 0.8"/>
      </g>
     </g>
     <g id="text_2">
      <!-- 50 -->
      <g transform="translate(73.862069 420.91215) scale(0.08 -0.08)">
       <defs>
        <path id="DejaVuSans-35" d="M 691 4666 
L 3169 4666 
L 3169 4134 
L 1269 4134 
L 1269 2991 
Q 1406 3038 1543 3061 
Q 1681 3084 1819 3084 
Q 2600 3084 3056 2656 
Q 3513 2228 3513 1497 
Q 3513 744 3044 326 
Q 2575 -91 1722 -91 
Q 1428 -91 1123 -41 
Q 819 9 494 109 
L 494 744 
Q 775 591 1075 516 
Q 1375 441 1709 441 
Q 2250 441 2565 725 
Q 2881 1009 2881 1497 
Q 2881 1984 2565 2268 
Q 2250 2553 1709 2553 
Q 1456 2553 1204 2497 
Q 953 2441 691 2322 
L 691 4666 
z
" transform="scale(0.015625)"/>
       </defs>
       <use xlink:href="#DejaVuSans-35"/>
       <use xlink:href="#DejaVuSans-30" x="63.623047"/>
      </g>
     </g>
    </g>
    <g id="xtick_3">
     <g id="line2d_5">
      <path d="M 120.613457 411.3334 
L 120.613457 21.9534 
" clip-path="url(#p881b99cd81)" style="fill: none; stroke-dasharray: 1.85,0.8; stroke-dashoffset: 0; stroke: #b2b2b2; stroke-width: 0.5"/>
     </g>
     <g id="line2d_6">
      <g>
       <use xlink:href="#m37a060fb49" x="120.613457" y="411.3334" style="stroke: #000000; stroke-width: 0.8"/>
      </g>
     </g>
     <g id="text_3">
      <!-- 100 -->
      <g transform="translate(112.978457 420.91215) scale(0.08 -0.08)">
       <defs>
        <path id="DejaVuSans-31" d="M 794 531 
L 1825 531 
L 1825 4091 
L 703 3866 
L 703 4441 
L 1819 4666 
L 2450 4666 
L 2450 531 
L 3481 531 
L 3481 0 
L 794 0 
L 794 531 
z
" transform="scale(0.015625)"/>
       </defs>
       <use xlink:href="#DejaVuSans-31"/>
       <use xlink:href="#DejaVuSans-30" x="63.623047"/>
       <use xlink:href="#DejaVuSans-30" x="127.246094"/>
      </g>
     </g>
    </g>
    <g id="xtick_4">
     <g id="line2d_7">
      <path d="M 162.274846 411.3334 
L 162.274846 21.9534 
" clip-path="url(#p881b99cd81)" style="fill: none; stroke-dasharray: 1.85,0.8; stroke-dashoffset: 0; stroke: #b2b2b2; stroke-width: 0.5"/>
     </g>
     <g id="line2d_8">
      <g>
       <use xlink:href="#m37a060fb49" x="162.274846" y="411.3334" style="stroke: #000000; stroke-width: 0.8"/>
      </g>
     </g>
     <g id="text_4">
      <!-- 150 -->
      <g transform="translate(154.639846 420.91215) scale(0.08 -0.08)">
       <use xlink:href="#DejaVuSans-31"/>
       <use xlink:href="#DejaVuSans-35" x="63.623047"/>
       <use xlink:href="#DejaVuSans-30" x="127.246094"/>
      </g>
     </g>
    </g>
   </g>
   <g id="matplotlib.axis_2">
    <g id="ytick_1">
     <g id="line2d_9">
      <path d="M 29.5 312.502445 
L 200.894954 312.502445 
" clip-path="url(#p881b99cd81)" style="fill: none; stroke-dasharray: 1.85,0.8; stroke-dashoffset: 0; stroke: #b2b2b2; stroke-width: 0.5"/>
     </g>
     <g id="line2d_10">
      <defs>
       <path id="mb5cc7f0d45" d="M 0 0 
L 3.5 0 
" style="stroke: #000000; stroke-width: 0.8"/>
      </defs>
      <g>
       <use xlink:href="#mb5cc7f0d45" x="29.5" y="312.502445" style="stroke: #000000; stroke-width: 0.8"/>
      </g>
     </g>
     <g id="text_5">
      <!-- $\mathdefault{10^{-2}}$ -->
      <g transform="translate(7.2 315.54182) scale(0.08 -0.08)">
       <defs>
        <path id="DejaVuSans-2212" d="M 678 2272 
L 4684 2272 
L 4684 1741 
L 678 1741 
L 678 2272 
z
" transform="scale(0.015625)"/>
        <path id="DejaVuSans-32" d="M 1228 531 
L 3431 531 
L 3431 0 
L 469 0 
L 469 531 
Q 828 903 1448 1529 
Q 2069 2156 2228 2338 
Q 2531 2678 2651 2914 
Q 2772 3150 2772 3378 
Q 2772 3750 2511 3984 
Q 2250 4219 1831 4219 
Q 1534 4219 1204 4116 
Q 875 4013 500 3803 
L 500 4441 
Q 881 4594 1212 4672 
Q 1544 4750 1819 4750 
Q 2544 4750 2975 4387 
Q 3406 4025 3406 3419 
Q 3406 3131 3298 2873 
Q 3191 2616 2906 2266 
Q 2828 2175 2409 1742 
Q 1991 1309 1228 531 
z
" transform="scale(0.015625)"/>
       </defs>
       <use xlink:href="#DejaVuSans-31" transform="translate(0 0.765625)"/>
       <use xlink:href="#DejaVuSans-30" transform="translate(63.623047 0.765625)"/>
       <use xlink:href="#DejaVuSans-2212" transform="translate(128.203125 39.046875) scale(0.7)"/>
       <use xlink:href="#DejaVuSans-32" transform="translate(186.855469 39.046875) scale(0.7)"/>
      </g>
     </g>
    </g>
    <g id="ytick_2">
     <g id="line2d_11">
      <defs>
       <path id="mc25cf1fb21" d="M 0 0 
L 2 0 
" style="stroke: #000000; stroke-width: 0.6"/>
      </defs>
      <g>
       <use xlink:href="#mc25cf1fb21" x="29.5" y="394.493769" style="stroke: #000000; stroke-width: 0.6"/>
      </g>
     </g>
    </g>
    <g id="ytick_3">
     <g id="line2d_12">
      <g>
       <use xlink:href="#mc25cf1fb21" x="29.5" y="369.751435" style="stroke: #000000; stroke-width: 0.6"/>
      </g>
     </g>
    </g>
    <g id="ytick_4">
     <g id="line2d_13">
      <g>
       <use xlink:href="#mc25cf1fb21" x="29.5" y="348.31865" style="stroke: #000000; stroke-width: 0.6"/>
      </g>
     </g>
    </g>
    <g id="ytick_5">
     <g id="line2d_14">
      <g>
       <use xlink:href="#mc25cf1fb21" x="29.5" y="329.413594" style="stroke: #000000; stroke-width: 0.6"/>
      </g>
     </g>
    </g>
    <g id="ytick_6">
     <g id="line2d_15">
      <g>
       <use xlink:href="#mc25cf1fb21" x="29.5" y="201.247149" style="stroke: #000000; stroke-width: 0.6"/>
      </g>
     </g>
    </g>
    <g id="ytick_7">
     <g id="line2d_16">
      <g>
       <use xlink:href="#mc25cf1fb21" x="29.5" y="136.166973" style="stroke: #000000; stroke-width: 0.6"/>
      </g>
     </g>
    </g>
    <g id="ytick_8">
     <g id="line2d_17">
      <g>
       <use xlink:href="#mc25cf1fb21" x="29.5" y="89.991854" style="stroke: #000000; stroke-width: 0.6"/>
      </g>
     </g>
    </g>
    <g id="ytick_9">
     <g id="line2d_18">
      <g>
       <use xlink:href="#mc25cf1fb21" x="29.5" y="54.175649" style="stroke: #000000; stroke-width: 0.6"/>
      </g>
     </g>
    </g>
    <g id="ytick_10">
     <g id="line2d_19">
      <g>
       <use xlink:href="#mc25cf1fb21" x="29.5" y="24.911678" style="stroke: #000000; stroke-width: 0.6"/>
      </g>
     </g>
    </g>
   </g>
   <g id="line2d_20">
    <path d="M 37.29068 39.652491 
L 38.123907 49.427571 
L 38.957135 99.978798 
L 39.790363 100.225037 
L 40.623591 102.360948 
L 41.456819 115.754223 
L 42.290046 117.171032 
L 43.123274 123.193109 
L 43.956502 128.06385 
L 44.78973 157.324902 
L 45.622957 158.251435 
L 46.456185 159.003209 
L 48.122641 160.013302 
L 48.955869 160.401381 
L 49.789096 162.102524 
L 53.955235 162.193633 
L 56.454919 162.394662 
L 57.288146 162.716561 
L 58.121374 162.797889 
L 58.954602 163.115058 
L 60.621057 163.396199 
L 61.454285 164.130236 
L 64.787196 164.660629 
L 65.620424 165.099465 
L 66.453652 165.170727 
L 67.28688 165.697616 
L 68.120107 165.697616 
L 68.953335 165.881701 
L 71.453019 168.016566 
L 72.286246 170.355367 
L 73.119474 66.022472 
L 73.952702 170.723274 
L 74.78593 172.241532 
L 75.619157 172.501628 
L 76.452385 173.412211 
L 77.285613 163.090413 
L 78.118841 174.11446 
L 78.952069 174.996055 
L 79.785296 182.231042 
L 81.451752 193.311518 
L 82.28498 211.599887 
L 83.118207 223.599817 
L 83.951435 229.307825 
L 84.784663 232.767292 
L 85.617891 248.945708 
L 86.451119 249.379011 
L 87.284346 251.233428 
L 88.117574 254.172591 
L 88.950802 268.808825 
L 89.78403 269.484272 
L 90.617257 270.010894 
L 91.450485 272.90617 
L 92.283713 273.035652 
L 93.116941 274.012427 
L 93.950169 274.363564 
L 94.783396 276.705384 
L 95.616624 277.189195 
L 96.449852 279.282471 
L 97.28308 280.804815 
L 98.116307 281.740293 
L 98.949535 285.276482 
L 99.782763 285.276482 
L 100.615991 286.235485 
L 101.449219 286.859152 
L 102.282446 288.972733 
L 103.115674 289.140743 
L 103.948902 290.146268 
L 104.78213 290.20251 
L 106.448585 290.589134 
L 107.281813 291.208983 
L 108.115041 291.475178 
L 108.948269 293.409607 
L 109.781496 293.770917 
L 110.614724 296.392241 
L 111.447952 296.939918 
L 112.28118 300.950023 
L 113.114407 302.047424 
L 113.947635 302.804312 
L 114.780863 308.11356 
L 115.614091 309.583754 
L 116.447318 310.252927 
L 117.280546 313.50149 
L 118.113774 314.372434 
L 118.947002 317.89917 
L 119.78023 319.247108 
L 120.613457 324.601806 
L 121.446685 326.51101 
L 122.279913 330.856745 
L 123.113141 332.053626 
L 123.946368 332.783983 
L 124.779596 335.545218 
L 125.612824 336.701531 
L 126.446052 340.662034 
L 127.27928 341.754729 
L 128.112507 346.120352 
L 128.945735 347.856561 
L 129.778963 348.814387 
L 130.612191 353.906475 
L 131.445418 353.906475 
L 132.278646 354.52787 
L 133.111874 356.989954 
L 133.945102 357.445892 
L 134.77833 359.275821 
L 135.611557 359.706881 
L 136.444785 363.085092 
L 137.278013 363.448148 
L 138.111241 364.948872 
L 138.944468 365.780911 
L 139.777696 366.228551 
L 140.610924 369.222562 
L 141.444152 370.736913 
L 142.27738 371.465675 
L 143.110607 374.38175 
L 143.943835 374.825918 
L 144.777063 377.582975 
L 145.610291 377.967941 
L 146.443518 378.205333 
L 147.276746 380.308194 
L 148.109974 380.697393 
L 148.943202 379.733845 
L 149.77643 381.065207 
L 150.609657 381.262943 
L 151.442885 382.891239 
L 152.276113 383.316154 
L 153.109341 386.057661 
L 153.942568 386.188045 
L 154.775796 387.203143 
L 155.609024 387.417698 
L 156.442252 388.152683 
L 157.27548 388.296417 
L 158.108707 389.011571 
L 158.941935 389.198075 
L 159.775163 389.951436 
L 160.608391 390.012261 
L 161.441618 390.364997 
L 163.941302 390.441623 
L 164.77453 390.724447 
L 166.440985 390.820079 
L 167.274213 391.193816 
L 168.107441 391.214832 
L 168.940668 391.393871 
L 169.773896 391.952959 
L 171.440352 392.030764 
L 172.27358 392.472111 
L 173.940035 392.53156 
L 174.773263 392.750172 
L 178.106174 392.830694 
L 178.939402 392.955126 
L 182.272313 393.07211 
L 183.105541 393.091854 
L 183.938768 393.241392 
L 188.938135 393.365561 
L 192.271046 393.49926 
L 193.104274 393.634309 
L 193.104274 393.634309 
" clip-path="url(#p881b99cd81)" style="fill: none; stroke: #348abd; stroke-width: 2; stroke-linecap: square"/>
   </g>
   <g id="patch_3">
    <path d="M 29.5 411.3334 
L 29.5 21.9534 
" style="fill: none; stroke: #bcbcbc; stroke-width: 0.8; stroke-linejoin: miter; stroke-linecap: square"/>
   </g>
   <g id="patch_4">
    <path d="M 200.894954 411.3334 
L 200.894954 21.9534 
" style="fill: none; stroke: #bcbcbc; stroke-width: 0.8; stroke-linejoin: miter; stroke-linecap: square"/>
   </g>
   <g id="patch_5">
    <path d="M 29.5 411.3334 
L 200.894954 411.3334 
" style="fill: none; stroke: #bcbcbc; stroke-width: 0.8; stroke-linejoin: miter; stroke-linecap: square"/>
   </g>
   <g id="patch_6">
    <path d="M 29.5 21.9534 
L 200.894954 21.9534 
" style="fill: none; stroke: #bcbcbc; stroke-width: 0.8; stroke-linejoin: miter; stroke-linecap: square"/>
   </g>
   <g id="text_6">
    <!-- Total Loss -->
    <g transform="translate(87.281277 15.9534) scale(0.1152 -0.1152)">
     <defs>
      <path id="DejaVuSans-54" d="M -19 4666 
L 3928 4666 
L 3928 4134 
L 2272 4134 
L 2272 0 
L 1638 0 
L 1638 4134 
L -19 4134 
L -19 4666 
z
" transform="scale(0.015625)"/>
      <path id="DejaVuSans-6f" d="M 1959 3097 
Q 1497 3097 1228 2736 
Q 959 2375 959 1747 
Q 959 1119 1226 758 
Q 1494 397 1959 397 
Q 2419 397 2687 759 
Q 2956 1122 2956 1747 
Q 2956 2369 2687 2733 
Q 2419 3097 1959 3097 
z
M 1959 3584 
Q 2709 3584 3137 3096 
Q 3566 2609 3566 1747 
Q 3566 888 3137 398 
Q 2709 -91 1959 -91 
Q 1206 -91 779 398 
Q 353 888 353 1747 
Q 353 2609 779 3096 
Q 1206 3584 1959 3584 
z
" transform="scale(0.015625)"/>
      <path id="DejaVuSans-74" d="M 1172 4494 
L 1172 3500 
L 2356 3500 
L 2356 3053 
L 1172 3053 
L 1172 1153 
Q 1172 725 1289 603 
Q 1406 481 1766 481 
L 2356 481 
L 2356 0 
L 1766 0 
Q 1100 0 847 248 
Q 594 497 594 1153 
L 594 3053 
L 172 3053 
L 172 3500 
L 594 3500 
L 594 4494 
L 1172 4494 
z
" transform="scale(0.015625)"/>
      <path id="DejaVuSans-61" d="M 2194 1759 
Q 1497 1759 1228 1600 
Q 959 1441 959 1056 
Q 959 750 1161 570 
Q 1363 391 1709 391 
Q 2188 391 2477 730 
Q 2766 1069 2766 1631 
L 2766 1759 
L 2194 1759 
z
M 3341 1997 
L 3341 0 
L 2766 0 
L 2766 531 
Q 2569 213 2275 61 
Q 1981 -91 1556 -91 
Q 1019 -91 701 211 
Q 384 513 384 1019 
Q 384 1609 779 1909 
Q 1175 2209 1959 2209 
L 2766 2209 
L 2766 2266 
Q 2766 2663 2505 2880 
Q 2244 3097 1772 3097 
Q 1472 3097 1187 3025 
Q 903 2953 641 2809 
L 641 3341 
Q 956 3463 1253 3523 
Q 1550 3584 1831 3584 
Q 2591 3584 2966 3190 
Q 3341 2797 3341 1997 
z
" transform="scale(0.015625)"/>
      <path id="DejaVuSans-6c" d="M 603 4863 
L 1178 4863 
L 1178 0 
L 603 0 
L 603 4863 
z
" transform="scale(0.015625)"/>
      <path id="DejaVuSans-20" transform="scale(0.015625)"/>
      <path id="DejaVuSans-4c" d="M 628 4666 
L 1259 4666 
L 1259 531 
L 3531 531 
L 3531 0 
L 628 0 
L 628 4666 
z
" transform="scale(0.015625)"/>
      <path id="DejaVuSans-73" d="M 2834 3397 
L 2834 2853 
Q 2591 2978 2328 3040 
Q 2066 3103 1784 3103 
Q 1356 3103 1142 2972 
Q 928 2841 928 2578 
Q 928 2378 1081 2264 
Q 1234 2150 1697 2047 
L 1894 2003 
Q 2506 1872 2764 1633 
Q 3022 1394 3022 966 
Q 3022 478 2636 193 
Q 2250 -91 1575 -91 
Q 1294 -91 989 -36 
Q 684 19 347 128 
L 347 722 
Q 666 556 975 473 
Q 1284 391 1588 391 
Q 1994 391 2212 530 
Q 2431 669 2431 922 
Q 2431 1156 2273 1281 
Q 2116 1406 1581 1522 
L 1381 1569 
Q 847 1681 609 1914 
Q 372 2147 372 2553 
Q 372 3047 722 3315 
Q 1072 3584 1716 3584 
Q 2034 3584 2315 3537 
Q 2597 3491 2834 3397 
z
" transform="scale(0.015625)"/>
     </defs>
     <use xlink:href="#DejaVuSans-54"/>
     <use xlink:href="#DejaVuSans-6f" x="44.083984"/>
     <use xlink:href="#DejaVuSans-74" x="105.265625"/>
     <use xlink:href="#DejaVuSans-61" x="144.474609"/>
     <use xlink:href="#DejaVuSans-6c" x="205.753906"/>
     <use xlink:href="#DejaVuSans-20" x="233.537109"/>
     <use xlink:href="#DejaVuSans-4c" x="265.324219"/>
     <use xlink:href="#DejaVuSans-6f" x="319.287109"/>
     <use xlink:href="#DejaVuSans-73" x="380.46875"/>
     <use xlink:href="#DejaVuSans-73" x="432.568359"/>
    </g>
   </g>
  </g>
  <g id="axes_2">
   <g id="patch_7">
    <path d="M 246.985344 411.3334 
L 418.380297 411.3334 
L 418.380297 21.9534 
L 246.985344 21.9534 
z
" style="fill: #eeeeee"/>
   </g>
   <g id="matplotlib.axis_3">
    <g id="xtick_5">
     <g id="line2d_21">
      <path d="M 254.776024 411.3334 
L 254.776024 21.9534 
" clip-path="url(#p2f89a51e3c)" style="fill: none; stroke-dasharray: 1.85,0.8; stroke-dashoffset: 0; stroke: #b2b2b2; stroke-width: 0.5"/>
     </g>
     <g id="line2d_22">
      <g>
       <use xlink:href="#m37a060fb49" x="254.776024" y="411.3334" style="stroke: #000000; stroke-width: 0.8"/>
      </g>
     </g>
     <g id="text_7">
      <!-- 0 -->
      <g transform="translate(252.231024 420.91215) scale(0.08 -0.08)">
       <use xlink:href="#DejaVuSans-30"/>
      </g>
     </g>
    </g>
    <g id="xtick_6">
     <g id="line2d_23">
      <path d="M 296.437412 411.3334 
L 296.437412 21.9534 
" clip-path="url(#p2f89a51e3c)" style="fill: none; stroke-dasharray: 1.85,0.8; stroke-dashoffset: 0; stroke: #b2b2b2; stroke-width: 0.5"/>
     </g>
     <g id="line2d_24">
      <g>
       <use xlink:href="#m37a060fb49" x="296.437412" y="411.3334" style="stroke: #000000; stroke-width: 0.8"/>
      </g>
     </g>
     <g id="text_8">
      <!-- 50 -->
      <g transform="translate(291.347412 420.91215) scale(0.08 -0.08)">
       <use xlink:href="#DejaVuSans-35"/>
       <use xlink:href="#DejaVuSans-30" x="63.623047"/>
      </g>
     </g>
    </g>
    <g id="xtick_7">
     <g id="line2d_25">
      <path d="M 338.098801 411.3334 
L 338.098801 21.9534 
" clip-path="url(#p2f89a51e3c)" style="fill: none; stroke-dasharray: 1.85,0.8; stroke-dashoffset: 0; stroke: #b2b2b2; stroke-width: 0.5"/>
     </g>
     <g id="line2d_26">
      <g>
       <use xlink:href="#m37a060fb49" x="338.098801" y="411.3334" style="stroke: #000000; stroke-width: 0.8"/>
      </g>
     </g>
     <g id="text_9">
      <!-- 100 -->
      <g transform="translate(330.463801 420.91215) scale(0.08 -0.08)">
       <use xlink:href="#DejaVuSans-31"/>
       <use xlink:href="#DejaVuSans-30" x="63.623047"/>
       <use xlink:href="#DejaVuSans-30" x="127.246094"/>
      </g>
     </g>
    </g>
    <g id="xtick_8">
     <g id="line2d_27">
      <path d="M 379.76019 411.3334 
L 379.76019 21.9534 
" clip-path="url(#p2f89a51e3c)" style="fill: none; stroke-dasharray: 1.85,0.8; stroke-dashoffset: 0; stroke: #b2b2b2; stroke-width: 0.5"/>
     </g>
     <g id="line2d_28">
      <g>
       <use xlink:href="#m37a060fb49" x="379.76019" y="411.3334" style="stroke: #000000; stroke-width: 0.8"/>
      </g>
     </g>
     <g id="text_10">
      <!-- 150 -->
      <g transform="translate(372.12519 420.91215) scale(0.08 -0.08)">
       <use xlink:href="#DejaVuSans-31"/>
       <use xlink:href="#DejaVuSans-35" x="63.623047"/>
       <use xlink:href="#DejaVuSans-30" x="127.246094"/>
      </g>
     </g>
    </g>
   </g>
   <g id="matplotlib.axis_4">
    <g id="ytick_11">
     <g id="line2d_29">
      <g>
       <use xlink:href="#mc25cf1fb21" x="246.985344" y="310.045809" style="stroke: #000000; stroke-width: 0.6"/>
      </g>
     </g>
     <g id="text_11">
      <!-- $\mathdefault{4\times10^{-7}}$ -->
      <g transform="translate(210.225344 313.085184) scale(0.08 -0.08)">
       <defs>
        <path id="DejaVuSans-34" d="M 2419 4116 
L 825 1625 
L 2419 1625 
L 2419 4116 
z
M 2253 4666 
L 3047 4666 
L 3047 1625 
L 3713 1625 
L 3713 1100 
L 3047 1100 
L 3047 0 
L 2419 0 
L 2419 1100 
L 313 1100 
L 313 1709 
L 2253 4666 
z
" transform="scale(0.015625)"/>
        <path id="DejaVuSans-d7" d="M 4488 3438 
L 3059 2003 
L 4488 575 
L 4116 197 
L 2681 1631 
L 1247 197 
L 878 575 
L 2303 2003 
L 878 3438 
L 1247 3816 
L 2681 2381 
L 4116 3816 
L 4488 3438 
z
" transform="scale(0.015625)"/>
        <path id="DejaVuSans-37" d="M 525 4666 
L 3525 4666 
L 3525 4397 
L 1831 0 
L 1172 0 
L 2766 4134 
L 525 4134 
L 525 4666 
z
" transform="scale(0.015625)"/>
       </defs>
       <use xlink:href="#DejaVuSans-34" transform="translate(0 0.684375)"/>
       <use xlink:href="#DejaVuSans-d7" transform="translate(81.181641 0.684375)"/>
       <use xlink:href="#DejaVuSans-31" transform="translate(182.529297 0.684375)"/>
       <use xlink:href="#DejaVuSans-30" transform="translate(246.152344 0.684375)"/>
       <use xlink:href="#DejaVuSans-2212" transform="translate(310.732422 38.965625) scale(0.7)"/>
       <use xlink:href="#DejaVuSans-37" transform="translate(369.384766 38.965625) scale(0.7)"/>
      </g>
     </g>
    </g>
    <g id="ytick_12">
     <g id="line2d_30">
      <g>
       <use xlink:href="#mc25cf1fb21" x="246.985344" y="168.132647" style="stroke: #000000; stroke-width: 0.6"/>
      </g>
     </g>
     <g id="text_12">
      <!-- $\mathdefault{5\times10^{-7}}$ -->
      <g transform="translate(210.225344 171.172022) scale(0.08 -0.08)">
       <use xlink:href="#DejaVuSans-35" transform="translate(0 0.684375)"/>
       <use xlink:href="#DejaVuSans-d7" transform="translate(81.181641 0.684375)"/>
       <use xlink:href="#DejaVuSans-31" transform="translate(182.529297 0.684375)"/>
       <use xlink:href="#DejaVuSans-30" transform="translate(246.152344 0.684375)"/>
       <use xlink:href="#DejaVuSans-2212" transform="translate(310.732422 38.965625) scale(0.7)"/>
       <use xlink:href="#DejaVuSans-37" transform="translate(369.384766 38.965625) scale(0.7)"/>
      </g>
     </g>
    </g>
    <g id="ytick_13">
     <g id="line2d_31">
      <g>
       <use xlink:href="#mc25cf1fb21" x="246.985344" y="52.18115" style="stroke: #000000; stroke-width: 0.6"/>
      </g>
     </g>
     <g id="text_13">
      <!-- $\mathdefault{6\times10^{-7}}$ -->
      <g transform="translate(210.225344 55.220525) scale(0.08 -0.08)">
       <defs>
        <path id="DejaVuSans-36" d="M 2113 2584 
Q 1688 2584 1439 2293 
Q 1191 2003 1191 1497 
Q 1191 994 1439 701 
Q 1688 409 2113 409 
Q 2538 409 2786 701 
Q 3034 994 3034 1497 
Q 3034 2003 2786 2293 
Q 2538 2584 2113 2584 
z
M 3366 4563 
L 3366 3988 
Q 3128 4100 2886 4159 
Q 2644 4219 2406 4219 
Q 1781 4219 1451 3797 
Q 1122 3375 1075 2522 
Q 1259 2794 1537 2939 
Q 1816 3084 2150 3084 
Q 2853 3084 3261 2657 
Q 3669 2231 3669 1497 
Q 3669 778 3244 343 
Q 2819 -91 2113 -91 
Q 1303 -91 875 529 
Q 447 1150 447 2328 
Q 447 3434 972 4092 
Q 1497 4750 2381 4750 
Q 2619 4750 2861 4703 
Q 3103 4656 3366 4563 
z
" transform="scale(0.015625)"/>
       </defs>
       <use xlink:href="#DejaVuSans-36" transform="translate(0 0.684375)"/>
       <use xlink:href="#DejaVuSans-d7" transform="translate(81.181641 0.684375)"/>
       <use xlink:href="#DejaVuSans-31" transform="translate(182.529297 0.684375)"/>
       <use xlink:href="#DejaVuSans-30" transform="translate(246.152344 0.684375)"/>
       <use xlink:href="#DejaVuSans-2212" transform="translate(310.732422 38.965625) scale(0.7)"/>
       <use xlink:href="#DejaVuSans-37" transform="translate(369.384766 38.965625) scale(0.7)"/>
      </g>
     </g>
    </g>
   </g>
   <g id="line2d_32">
    <path d="M 254.776024 393.634309 
L 259.77539 393.554021 
L 261.441846 393.461893 
L 262.275074 393.060767 
L 266.441212 392.820615 
L 267.27444 392.428894 
L 269.774124 392.302471 
L 270.607351 391.771236 
L 271.440579 391.47281 
L 272.273807 390.089468 
L 273.940262 388.468876 
L 274.77349 380.717692 
L 275.606718 378.960761 
L 276.439946 370.3851 
L 277.273173 366.192985 
L 278.106401 363.267329 
L 278.939629 333.219056 
L 279.772857 329.519822 
L 281.439312 325.595071 
L 282.27254 324.078751 
L 283.105768 311.431617 
L 283.938996 310.392267 
L 284.772223 300.832442 
L 285.605451 300.832442 
L 286.438679 298.044475 
L 287.271907 285.115323 
L 288.105135 270.218475 
L 288.938362 263.818685 
L 289.77159 233.567513 
L 290.604818 39.652491 
L 291.438046 229.32904 
L 292.271273 212.082327 
L 293.104501 208.901197 
L 293.937729 193.183459 
L 294.770957 139.591467 
L 295.604185 178.047189 
L 296.437412 176.288953 
L 297.27064 160.138883 
L 298.937096 148.676653 
L 299.770323 98.17138 
L 300.603551 103.820691 
L 302.270007 104.076318 
L 303.103235 104.957321 
L 303.936462 104.729152 
L 304.76969 103.698568 
L 305.602918 101.388528 
L 306.436146 80.379446 
L 307.269373 80.374974 
L 308.102601 80.224275 
L 308.935829 78.853185 
L 309.769057 78.764221 
L 310.602285 77.957204 
L 311.435512 77.633278 
L 312.26874 74.662366 
L 313.101968 74.465776 
L 313.935196 73.477752 
L 314.768423 72.99714 
L 315.601651 73.202556 
L 316.434879 74.089428 
L 317.268107 74.089428 
L 318.934562 74.611622 
L 319.76779 75.911855 
L 320.601018 76.016622 
L 321.434246 76.950026 
L 322.267473 76.989806 
L 323.933929 77.264954 
L 324.767157 77.697435 
L 325.600385 77.818053 
L 326.433612 78.886047 
L 327.26684 79.008274 
L 328.100068 80.074367 
L 328.933296 80.238065 
L 329.766523 81.633792 
L 331.432979 81.739758 
L 332.266207 82.448778 
L 333.099435 82.629711 
L 336.432346 82.811013 
L 337.265573 82.866526 
L 338.098801 83.047579 
L 340.598485 83.074966 
L 341.431712 83.150618 
L 342.26494 83.478379 
L 344.764623 83.581868 
L 346.431079 83.435912 
L 347.264307 83.378894 
L 348.097535 82.822583 
L 349.76399 82.793879 
L 352.263673 82.477908 
L 353.930129 82.393554 
L 354.763357 82.347369 
L 356.429812 81.968475 
L 357.26304 81.876549 
L 358.096268 81.101137 
L 358.929496 80.56269 
L 359.762723 80.303808 
L 360.595951 79.031716 
L 361.429179 78.821393 
L 362.262407 76.933363 
L 363.095634 76.666686 
L 363.928862 76.56175 
L 364.76209 75.605035 
L 365.595318 75.379595 
L 366.428546 74.349036 
L 367.261773 75.099265 
L 368.095001 75.053232 
L 368.928229 74.637836 
L 369.761457 74.494356 
L 370.594684 73.189478 
L 371.427912 73.104105 
L 372.26114 72.331472 
L 373.094368 72.134233 
L 373.927596 71.240521 
L 374.760823 71.104198 
L 375.594051 70.322583 
L 376.427279 70.162223 
L 377.260507 69.177144 
L 378.093734 69.096453 
L 378.926962 68.489497 
L 381.426646 68.382811 
L 382.259873 67.900659 
L 383.926329 67.768694 
L 384.759557 67.171824 
L 385.592784 67.153318 
L 386.426012 66.986909 
L 387.25924 66.147756 
L 388.925696 66.022558 
L 389.758923 65.045464 
L 391.425379 64.96671 
L 392.258607 64.285932 
L 400.590884 64.335307 
L 401.424112 64.550231 
L 407.256707 64.678089 
L 410.589618 64.795833 
L 410.589618 64.795833 
" clip-path="url(#p2f89a51e3c)" style="fill: none; stroke: #348abd; stroke-width: 2; stroke-linecap: square"/>
   </g>
   <g id="patch_8">
    <path d="M 246.985344 411.3334 
L 246.985344 21.9534 
" style="fill: none; stroke: #bcbcbc; stroke-width: 0.8; stroke-linejoin: miter; stroke-linecap: square"/>
   </g>
   <g id="patch_9">
    <path d="M 418.380297 411.3334 
L 418.380297 21.9534 
" style="fill: none; stroke: #bcbcbc; stroke-width: 0.8; stroke-linejoin: miter; stroke-linecap: square"/>
   </g>
   <g id="patch_10">
    <path d="M 246.985344 411.3334 
L 418.380297 411.3334 
" style="fill: none; stroke: #bcbcbc; stroke-width: 0.8; stroke-linejoin: miter; stroke-linecap: square"/>
   </g>
   <g id="patch_11">
    <path d="M 246.985344 21.9534 
L 418.380297 21.9534 
" style="fill: none; stroke: #bcbcbc; stroke-width: 0.8; stroke-linejoin: miter; stroke-linecap: square"/>
   </g>
   <g id="text_14">
    <!-- Regularization -->
    <g transform="translate(291.404321 15.9534) scale(0.1152 -0.1152)">
     <defs>
      <path id="DejaVuSans-52" d="M 2841 2188 
Q 3044 2119 3236 1894 
Q 3428 1669 3622 1275 
L 4263 0 
L 3584 0 
L 2988 1197 
Q 2756 1666 2539 1819 
Q 2322 1972 1947 1972 
L 1259 1972 
L 1259 0 
L 628 0 
L 628 4666 
L 2053 4666 
Q 2853 4666 3247 4331 
Q 3641 3997 3641 3322 
Q 3641 2881 3436 2590 
Q 3231 2300 2841 2188 
z
M 1259 4147 
L 1259 2491 
L 2053 2491 
Q 2509 2491 2742 2702 
Q 2975 2913 2975 3322 
Q 2975 3731 2742 3939 
Q 2509 4147 2053 4147 
L 1259 4147 
z
" transform="scale(0.015625)"/>
      <path id="DejaVuSans-65" d="M 3597 1894 
L 3597 1613 
L 953 1613 
Q 991 1019 1311 708 
Q 1631 397 2203 397 
Q 2534 397 2845 478 
Q 3156 559 3463 722 
L 3463 178 
Q 3153 47 2828 -22 
Q 2503 -91 2169 -91 
Q 1331 -91 842 396 
Q 353 884 353 1716 
Q 353 2575 817 3079 
Q 1281 3584 2069 3584 
Q 2775 3584 3186 3129 
Q 3597 2675 3597 1894 
z
M 3022 2063 
Q 3016 2534 2758 2815 
Q 2500 3097 2075 3097 
Q 1594 3097 1305 2825 
Q 1016 2553 972 2059 
L 3022 2063 
z
" transform="scale(0.015625)"/>
      <path id="DejaVuSans-67" d="M 2906 1791 
Q 2906 2416 2648 2759 
Q 2391 3103 1925 3103 
Q 1463 3103 1205 2759 
Q 947 2416 947 1791 
Q 947 1169 1205 825 
Q 1463 481 1925 481 
Q 2391 481 2648 825 
Q 2906 1169 2906 1791 
z
M 3481 434 
Q 3481 -459 3084 -895 
Q 2688 -1331 1869 -1331 
Q 1566 -1331 1297 -1286 
Q 1028 -1241 775 -1147 
L 775 -588 
Q 1028 -725 1275 -790 
Q 1522 -856 1778 -856 
Q 2344 -856 2625 -561 
Q 2906 -266 2906 331 
L 2906 616 
Q 2728 306 2450 153 
Q 2172 0 1784 0 
Q 1141 0 747 490 
Q 353 981 353 1791 
Q 353 2603 747 3093 
Q 1141 3584 1784 3584 
Q 2172 3584 2450 3431 
Q 2728 3278 2906 2969 
L 2906 3500 
L 3481 3500 
L 3481 434 
z
" transform="scale(0.015625)"/>
      <path id="DejaVuSans-75" d="M 544 1381 
L 544 3500 
L 1119 3500 
L 1119 1403 
Q 1119 906 1312 657 
Q 1506 409 1894 409 
Q 2359 409 2629 706 
Q 2900 1003 2900 1516 
L 2900 3500 
L 3475 3500 
L 3475 0 
L 2900 0 
L 2900 538 
Q 2691 219 2414 64 
Q 2138 -91 1772 -91 
Q 1169 -91 856 284 
Q 544 659 544 1381 
z
M 1991 3584 
L 1991 3584 
z
" transform="scale(0.015625)"/>
      <path id="DejaVuSans-72" d="M 2631 2963 
Q 2534 3019 2420 3045 
Q 2306 3072 2169 3072 
Q 1681 3072 1420 2755 
Q 1159 2438 1159 1844 
L 1159 0 
L 581 0 
L 581 3500 
L 1159 3500 
L 1159 2956 
Q 1341 3275 1631 3429 
Q 1922 3584 2338 3584 
Q 2397 3584 2469 3576 
Q 2541 3569 2628 3553 
L 2631 2963 
z
" transform="scale(0.015625)"/>
      <path id="DejaVuSans-69" d="M 603 3500 
L 1178 3500 
L 1178 0 
L 603 0 
L 603 3500 
z
M 603 4863 
L 1178 4863 
L 1178 4134 
L 603 4134 
L 603 4863 
z
" transform="scale(0.015625)"/>
      <path id="DejaVuSans-7a" d="M 353 3500 
L 3084 3500 
L 3084 2975 
L 922 459 
L 3084 459 
L 3084 0 
L 275 0 
L 275 525 
L 2438 3041 
L 353 3041 
L 353 3500 
z
" transform="scale(0.015625)"/>
      <path id="DejaVuSans-6e" d="M 3513 2113 
L 3513 0 
L 2938 0 
L 2938 2094 
Q 2938 2591 2744 2837 
Q 2550 3084 2163 3084 
Q 1697 3084 1428 2787 
Q 1159 2491 1159 1978 
L 1159 0 
L 581 0 
L 581 3500 
L 1159 3500 
L 1159 2956 
Q 1366 3272 1645 3428 
Q 1925 3584 2291 3584 
Q 2894 3584 3203 3211 
Q 3513 2838 3513 2113 
z
" transform="scale(0.015625)"/>
     </defs>
     <use xlink:href="#DejaVuSans-52"/>
     <use xlink:href="#DejaVuSans-65" x="64.982422"/>
     <use xlink:href="#DejaVuSans-67" x="126.505859"/>
     <use xlink:href="#DejaVuSans-75" x="189.982422"/>
     <use xlink:href="#DejaVuSans-6c" x="253.361328"/>
     <use xlink:href="#DejaVuSans-61" x="281.144531"/>
     <use xlink:href="#DejaVuSans-72" x="342.423828"/>
     <use xlink:href="#DejaVuSans-69" x="383.537109"/>
     <use xlink:href="#DejaVuSans-7a" x="411.320312"/>
     <use xlink:href="#DejaVuSans-61" x="463.810547"/>
     <use xlink:href="#DejaVuSans-74" x="525.089844"/>
     <use xlink:href="#DejaVuSans-69" x="564.298828"/>
     <use xlink:href="#DejaVuSans-6f" x="592.082031"/>
     <use xlink:href="#DejaVuSans-6e" x="653.263672"/>
    </g>
   </g>
  </g>
  <g id="axes_3">
   <g id="patch_12">
    <path d="M 464.470688 411.3334 
L 635.865641 411.3334 
L 635.865641 21.9534 
L 464.470688 21.9534 
z
" style="fill: #eeeeee"/>
   </g>
   <g id="matplotlib.axis_5">
    <g id="xtick_9">
     <g id="line2d_33">
      <path d="M 472.261367 411.3334 
L 472.261367 21.9534 
" clip-path="url(#p62cc590fd0)" style="fill: none; stroke-dasharray: 1.85,0.8; stroke-dashoffset: 0; stroke: #b2b2b2; stroke-width: 0.5"/>
     </g>
     <g id="line2d_34">
      <g>
       <use xlink:href="#m37a060fb49" x="472.261367" y="411.3334" style="stroke: #000000; stroke-width: 0.8"/>
      </g>
     </g>
     <g id="text_15">
      <!-- 0 -->
      <g transform="translate(469.716367 420.91215) scale(0.08 -0.08)">
       <use xlink:href="#DejaVuSans-30"/>
      </g>
     </g>
    </g>
    <g id="xtick_10">
     <g id="line2d_35">
      <path d="M 513.922756 411.3334 
L 513.922756 21.9534 
" clip-path="url(#p62cc590fd0)" style="fill: none; stroke-dasharray: 1.85,0.8; stroke-dashoffset: 0; stroke: #b2b2b2; stroke-width: 0.5"/>
     </g>
     <g id="line2d_36">
      <g>
       <use xlink:href="#m37a060fb49" x="513.922756" y="411.3334" style="stroke: #000000; stroke-width: 0.8"/>
      </g>
     </g>
     <g id="text_16">
      <!-- 50 -->
      <g transform="translate(508.832756 420.91215) scale(0.08 -0.08)">
       <use xlink:href="#DejaVuSans-35"/>
       <use xlink:href="#DejaVuSans-30" x="63.623047"/>
      </g>
     </g>
    </g>
    <g id="xtick_11">
     <g id="line2d_37">
      <path d="M 555.584145 411.3334 
L 555.584145 21.9534 
" clip-path="url(#p62cc590fd0)" style="fill: none; stroke-dasharray: 1.85,0.8; stroke-dashoffset: 0; stroke: #b2b2b2; stroke-width: 0.5"/>
     </g>
     <g id="line2d_38">
      <g>
       <use xlink:href="#m37a060fb49" x="555.584145" y="411.3334" style="stroke: #000000; stroke-width: 0.8"/>
      </g>
     </g>
     <g id="text_17">
      <!-- 100 -->
      <g transform="translate(547.949145 420.91215) scale(0.08 -0.08)">
       <use xlink:href="#DejaVuSans-31"/>
       <use xlink:href="#DejaVuSans-30" x="63.623047"/>
       <use xlink:href="#DejaVuSans-30" x="127.246094"/>
      </g>
     </g>
    </g>
    <g id="xtick_12">
     <g id="line2d_39">
      <path d="M 597.245534 411.3334 
L 597.245534 21.9534 
" clip-path="url(#p62cc590fd0)" style="fill: none; stroke-dasharray: 1.85,0.8; stroke-dashoffset: 0; stroke: #b2b2b2; stroke-width: 0.5"/>
     </g>
     <g id="line2d_40">
      <g>
       <use xlink:href="#m37a060fb49" x="597.245534" y="411.3334" style="stroke: #000000; stroke-width: 0.8"/>
      </g>
     </g>
     <g id="text_18">
      <!-- 150 -->
      <g transform="translate(589.610534 420.91215) scale(0.08 -0.08)">
       <use xlink:href="#DejaVuSans-31"/>
       <use xlink:href="#DejaVuSans-35" x="63.623047"/>
       <use xlink:href="#DejaVuSans-30" x="127.246094"/>
      </g>
     </g>
    </g>
   </g>
   <g id="matplotlib.axis_6">
    <g id="ytick_14">
     <g id="line2d_41">
      <path d="M 464.470688 359.581225 
L 635.865641 359.581225 
" clip-path="url(#p62cc590fd0)" style="fill: none; stroke-dasharray: 1.85,0.8; stroke-dashoffset: 0; stroke: #b2b2b2; stroke-width: 0.5"/>
     </g>
     <g id="line2d_42">
      <g>
       <use xlink:href="#mb5cc7f0d45" x="464.470688" y="359.581225" style="stroke: #000000; stroke-width: 0.8"/>
      </g>
     </g>
     <g id="text_19">
      <!-- $\mathdefault{10^{-4}}$ -->
      <g transform="translate(442.170688 362.6206) scale(0.08 -0.08)">
       <use xlink:href="#DejaVuSans-31" transform="translate(0 0.684375)"/>
       <use xlink:href="#DejaVuSans-30" transform="translate(63.623047 0.684375)"/>
       <use xlink:href="#DejaVuSans-2212" transform="translate(128.203125 38.965625) scale(0.7)"/>
       <use xlink:href="#DejaVuSans-34" transform="translate(186.855469 38.965625) scale(0.7)"/>
      </g>
     </g>
    </g>
    <g id="ytick_15">
     <g id="line2d_43">
      <path d="M 464.470688 164.113847 
L 635.865641 164.113847 
" clip-path="url(#p62cc590fd0)" style="fill: none; stroke-dasharray: 1.85,0.8; stroke-dashoffset: 0; stroke: #b2b2b2; stroke-width: 0.5"/>
     </g>
     <g id="line2d_44">
      <g>
       <use xlink:href="#mb5cc7f0d45" x="464.470688" y="164.113847" style="stroke: #000000; stroke-width: 0.8"/>
      </g>
     </g>
     <g id="text_20">
      <!-- $\mathdefault{10^{-3}}$ -->
      <g transform="translate(442.170688 167.153222) scale(0.08 -0.08)">
       <defs>
        <path id="DejaVuSans-33" d="M 2597 2516 
Q 3050 2419 3304 2112 
Q 3559 1806 3559 1356 
Q 3559 666 3084 287 
Q 2609 -91 1734 -91 
Q 1441 -91 1130 -33 
Q 819 25 488 141 
L 488 750 
Q 750 597 1062 519 
Q 1375 441 1716 441 
Q 2309 441 2620 675 
Q 2931 909 2931 1356 
Q 2931 1769 2642 2001 
Q 2353 2234 1838 2234 
L 1294 2234 
L 1294 2753 
L 1863 2753 
Q 2328 2753 2575 2939 
Q 2822 3125 2822 3475 
Q 2822 3834 2567 4026 
Q 2313 4219 1838 4219 
Q 1578 4219 1281 4162 
Q 984 4106 628 3988 
L 628 4550 
Q 988 4650 1302 4700 
Q 1616 4750 1894 4750 
Q 2613 4750 3031 4423 
Q 3450 4097 3450 3541 
Q 3450 3153 3228 2886 
Q 3006 2619 2597 2516 
z
" transform="scale(0.015625)"/>
       </defs>
       <use xlink:href="#DejaVuSans-31" transform="translate(0 0.765625)"/>
       <use xlink:href="#DejaVuSans-30" transform="translate(63.623047 0.765625)"/>
       <use xlink:href="#DejaVuSans-2212" transform="translate(128.203125 39.046875) scale(0.7)"/>
       <use xlink:href="#DejaVuSans-33" transform="translate(186.855469 39.046875) scale(0.7)"/>
      </g>
     </g>
    </g>
    <g id="ytick_16">
     <g id="line2d_45">
      <g>
       <use xlink:href="#mc25cf1fb21" x="464.470688" y="402.945419" style="stroke: #000000; stroke-width: 0.6"/>
      </g>
     </g>
    </g>
    <g id="ytick_17">
     <g id="line2d_46">
      <g>
       <use xlink:href="#mc25cf1fb21" x="464.470688" y="389.859505" style="stroke: #000000; stroke-width: 0.6"/>
      </g>
     </g>
    </g>
    <g id="ytick_18">
     <g id="line2d_47">
      <g>
       <use xlink:href="#mc25cf1fb21" x="464.470688" y="378.523972" style="stroke: #000000; stroke-width: 0.6"/>
      </g>
     </g>
    </g>
    <g id="ytick_19">
     <g id="line2d_48">
      <g>
       <use xlink:href="#mc25cf1fb21" x="464.470688" y="368.525322" style="stroke: #000000; stroke-width: 0.6"/>
      </g>
     </g>
    </g>
    <g id="ytick_20">
     <g id="line2d_49">
      <g>
       <use xlink:href="#mc25cf1fb21" x="464.470688" y="300.739681" style="stroke: #000000; stroke-width: 0.6"/>
      </g>
     </g>
    </g>
    <g id="ytick_21">
     <g id="line2d_50">
      <g>
       <use xlink:href="#mc25cf1fb21" x="464.470688" y="266.319584" style="stroke: #000000; stroke-width: 0.6"/>
      </g>
     </g>
    </g>
    <g id="ytick_22">
     <g id="line2d_51">
      <g>
       <use xlink:href="#mc25cf1fb21" x="464.470688" y="241.898137" style="stroke: #000000; stroke-width: 0.6"/>
      </g>
     </g>
    </g>
    <g id="ytick_23">
     <g id="line2d_52">
      <g>
       <use xlink:href="#mc25cf1fb21" x="464.470688" y="222.955391" style="stroke: #000000; stroke-width: 0.6"/>
      </g>
     </g>
    </g>
    <g id="ytick_24">
     <g id="line2d_53">
      <g>
       <use xlink:href="#mc25cf1fb21" x="464.470688" y="207.47804" style="stroke: #000000; stroke-width: 0.6"/>
      </g>
     </g>
    </g>
    <g id="ytick_25">
     <g id="line2d_54">
      <g>
       <use xlink:href="#mc25cf1fb21" x="464.470688" y="194.392127" style="stroke: #000000; stroke-width: 0.6"/>
      </g>
     </g>
    </g>
    <g id="ytick_26">
     <g id="line2d_55">
      <g>
       <use xlink:href="#mc25cf1fb21" x="464.470688" y="183.056593" style="stroke: #000000; stroke-width: 0.6"/>
      </g>
     </g>
    </g>
    <g id="ytick_27">
     <g id="line2d_56">
      <g>
       <use xlink:href="#mc25cf1fb21" x="464.470688" y="173.057943" style="stroke: #000000; stroke-width: 0.6"/>
      </g>
     </g>
    </g>
    <g id="ytick_28">
     <g id="line2d_57">
      <g>
       <use xlink:href="#mc25cf1fb21" x="464.470688" y="105.272302" style="stroke: #000000; stroke-width: 0.6"/>
      </g>
     </g>
    </g>
    <g id="ytick_29">
     <g id="line2d_58">
      <g>
       <use xlink:href="#mc25cf1fb21" x="464.470688" y="70.852206" style="stroke: #000000; stroke-width: 0.6"/>
      </g>
     </g>
    </g>
    <g id="ytick_30">
     <g id="line2d_59">
      <g>
       <use xlink:href="#mc25cf1fb21" x="464.470688" y="46.430758" style="stroke: #000000; stroke-width: 0.6"/>
      </g>
     </g>
    </g>
    <g id="ytick_31">
     <g id="line2d_60">
      <g>
       <use xlink:href="#mc25cf1fb21" x="464.470688" y="27.488012" style="stroke: #000000; stroke-width: 0.6"/>
      </g>
     </g>
    </g>
   </g>
   <g id="line2d_61">
    <path d="M 472.261367 369.667117 
L 473.094595 368.804198 
L 473.927823 361.616005 
L 474.761051 361.656491 
L 475.594278 362.02142 
L 476.427506 365.724141 
L 477.260734 365.115444 
L 478.92719 359.637441 
L 479.760417 334.13706 
L 480.593645 333.001536 
L 481.426873 331.34743 
L 483.926556 327.803895 
L 484.759784 317.88991 
L 485.593012 317.858318 
L 486.42624 317.574219 
L 487.259467 317.529502 
L 488.092695 317.122001 
L 488.925923 317.037136 
L 489.759151 316.659109 
L 490.592378 316.459868 
L 492.258834 316.360909 
L 493.092062 316.750159 
L 493.92529 318.581847 
L 494.758517 319.665523 
L 495.591745 320.275465 
L 496.424973 317.553887 
L 497.258201 317.214809 
L 498.091428 317.356271 
L 499.757884 317.935415 
L 500.591112 320.302292 
L 501.42434 320.235977 
L 502.257567 319.366491 
L 503.090795 319.366491 
L 503.924023 319.243907 
L 504.757251 318.44759 
L 505.590478 317.064764 
L 506.423706 314.846415 
L 507.256934 298.407589 
L 508.090162 39.652491 
L 508.92339 296.153598 
L 509.756617 289.0749 
L 510.589845 288.249806 
L 511.423073 286.992642 
L 512.256301 324.42391 
L 513.089528 291.641741 
L 513.922756 293.189703 
L 514.755984 316.060845 
L 515.589212 329.522879 
L 516.422439 340.678024 
L 517.255667 393.634309 
L 518.088895 367.453295 
L 519.755351 359.858986 
L 520.588578 322.037599 
L 521.421806 320.955355 
L 522.255034 316.114233 
L 523.088262 307.504899 
L 523.921489 235.596564 
L 525.587945 230.511232 
L 526.421173 209.811205 
L 527.254401 208.975156 
L 528.087628 201.477866 
L 528.920856 199.184849 
L 529.754084 178.810515 
L 530.587312 175.974514 
L 531.420539 163.064338 
L 532.253767 152.572862 
L 533.086995 150.637731 
L 533.920223 141.671851 
L 534.753451 141.671851 
L 535.586678 140.030172 
L 536.419906 139.167381 
L 537.253134 135.486768 
L 538.086362 135.131936 
L 538.919589 131.966117 
L 541.419273 131.940142 
L 542.252501 131.778855 
L 543.085728 131.881185 
L 543.918956 132.536575 
L 544.752184 132.821279 
L 545.585412 134.918584 
L 546.418639 135.07807 
L 547.251867 136.410935 
L 548.085095 136.641504 
L 548.918323 137.127329 
L 549.751551 141.499124 
L 550.584778 139.689347 
L 551.418006 139.980783 
L 552.251234 141.293343 
L 553.084462 141.322124 
L 553.917689 141.212805 
L 554.750917 140.650154 
L 555.584145 137.905263 
L 556.417373 136.979712 
L 557.250601 132.402715 
L 558.083828 134.09484 
L 558.917056 135.159145 
L 559.750284 139.827323 
L 560.583512 140.110705 
L 562.249967 141.569408 
L 563.083195 144.873724 
L 563.916423 149.863898 
L 564.749651 150.805937 
L 565.582878 157.24713 
L 566.416106 157.24713 
L 567.249334 157.494104 
L 568.082562 158.718542 
L 568.915789 159.580572 
L 569.749017 163.39229 
L 570.582245 164.326187 
L 571.415473 173.226945 
L 572.248701 174.07912 
L 573.081928 178.019707 
L 574.748384 179.84612 
L 575.581612 188.44335 
L 576.414839 187.287742 
L 577.248067 189.172646 
L 578.081295 199.978653 
L 578.914523 200.982283 
L 579.747751 208.263749 
L 580.580978 209.794793 
L 581.414206 209.77791 
L 582.247434 210.785502 
L 583.080662 210.767899 
L 583.913889 196.677541 
L 584.747117 210.191896 
L 585.580345 210.38925 
L 586.413573 212.417932 
L 587.246801 213.079351 
L 588.080028 219.654412 
L 588.913256 220.017017 
L 589.746484 223.258045 
L 590.579712 223.397922 
L 591.412939 223.817116 
L 592.246167 223.806674 
L 593.079395 223.604208 
L 593.912623 224.013706 
L 594.74585 226.20306 
L 595.579078 225.996894 
L 596.412306 224.191879 
L 598.911989 224.175576 
L 599.745217 224.043791 
L 600.578445 224.059478 
L 601.411673 224.189472 
L 602.2449 224.846629 
L 603.078128 224.961744 
L 603.911356 225.980389 
L 604.744584 230.050044 
L 606.411039 230.218579 
L 607.244267 231.916774 
L 608.077495 231.962728 
L 608.910723 232.16546 
L 609.74395 233.524928 
L 610.577178 233.584506 
L 611.410406 234.111256 
L 612.243634 234.156186 
L 613.076862 234.555237 
L 613.910089 236.360572 
L 615.576545 236.479129 
L 616.409773 237.221803 
L 618.076228 237.29529 
L 618.909456 237.947145 
L 627.241734 238.021245 
L 628.074962 238.172755 
L 628.074962 238.172755 
" clip-path="url(#p62cc590fd0)" style="fill: none; stroke: #348abd; stroke-width: 2; stroke-linecap: square"/>
   </g>
   <g id="patch_13">
    <path d="M 464.470688 411.3334 
L 464.470688 21.9534 
" style="fill: none; stroke: #bcbcbc; stroke-width: 0.8; stroke-linejoin: miter; stroke-linecap: square"/>
   </g>
   <g id="patch_14">
    <path d="M 635.865641 411.3334 
L 635.865641 21.9534 
" style="fill: none; stroke: #bcbcbc; stroke-width: 0.8; stroke-linejoin: miter; stroke-linecap: square"/>
   </g>
   <g id="patch_15">
    <path d="M 464.470688 411.3334 
L 635.865641 411.3334 
" style="fill: none; stroke: #bcbcbc; stroke-width: 0.8; stroke-linejoin: miter; stroke-linecap: square"/>
   </g>
   <g id="patch_16">
    <path d="M 464.470688 21.9534 
L 635.865641 21.9534 
" style="fill: none; stroke: #bcbcbc; stroke-width: 0.8; stroke-linejoin: miter; stroke-linecap: square"/>
   </g>
   <g id="text_21">
    <!-- 2nd Order Penalty -->
    <g transform="translate(497.908764 15.9534) scale(0.1152 -0.1152)">
     <defs>
      <path id="DejaVuSans-64" d="M 2906 2969 
L 2906 4863 
L 3481 4863 
L 3481 0 
L 2906 0 
L 2906 525 
Q 2725 213 2448 61 
Q 2172 -91 1784 -91 
Q 1150 -91 751 415 
Q 353 922 353 1747 
Q 353 2572 751 3078 
Q 1150 3584 1784 3584 
Q 2172 3584 2448 3432 
Q 2725 3281 2906 2969 
z
M 947 1747 
Q 947 1113 1208 752 
Q 1469 391 1925 391 
Q 2381 391 2643 752 
Q 2906 1113 2906 1747 
Q 2906 2381 2643 2742 
Q 2381 3103 1925 3103 
Q 1469 3103 1208 2742 
Q 947 2381 947 1747 
z
" transform="scale(0.015625)"/>
      <path id="DejaVuSans-4f" d="M 2522 4238 
Q 1834 4238 1429 3725 
Q 1025 3213 1025 2328 
Q 1025 1447 1429 934 
Q 1834 422 2522 422 
Q 3209 422 3611 934 
Q 4013 1447 4013 2328 
Q 4013 3213 3611 3725 
Q 3209 4238 2522 4238 
z
M 2522 4750 
Q 3503 4750 4090 4092 
Q 4678 3434 4678 2328 
Q 4678 1225 4090 567 
Q 3503 -91 2522 -91 
Q 1538 -91 948 565 
Q 359 1222 359 2328 
Q 359 3434 948 4092 
Q 1538 4750 2522 4750 
z
" transform="scale(0.015625)"/>
      <path id="DejaVuSans-50" d="M 1259 4147 
L 1259 2394 
L 2053 2394 
Q 2494 2394 2734 2622 
Q 2975 2850 2975 3272 
Q 2975 3691 2734 3919 
Q 2494 4147 2053 4147 
L 1259 4147 
z
M 628 4666 
L 2053 4666 
Q 2838 4666 3239 4311 
Q 3641 3956 3641 3272 
Q 3641 2581 3239 2228 
Q 2838 1875 2053 1875 
L 1259 1875 
L 1259 0 
L 628 0 
L 628 4666 
z
" transform="scale(0.015625)"/>
      <path id="DejaVuSans-79" d="M 2059 -325 
Q 1816 -950 1584 -1140 
Q 1353 -1331 966 -1331 
L 506 -1331 
L 506 -850 
L 844 -850 
Q 1081 -850 1212 -737 
Q 1344 -625 1503 -206 
L 1606 56 
L 191 3500 
L 800 3500 
L 1894 763 
L 2988 3500 
L 3597 3500 
L 2059 -325 
z
" transform="scale(0.015625)"/>
     </defs>
     <use xlink:href="#DejaVuSans-32"/>
     <use xlink:href="#DejaVuSans-6e" x="63.623047"/>
     <use xlink:href="#DejaVuSans-64" x="127.001953"/>
     <use xlink:href="#DejaVuSans-20" x="190.478516"/>
     <use xlink:href="#DejaVuSans-4f" x="222.265625"/>
     <use xlink:href="#DejaVuSans-72" x="300.976562"/>
     <use xlink:href="#DejaVuSans-64" x="340.339844"/>
     <use xlink:href="#DejaVuSans-65" x="403.816406"/>
     <use xlink:href="#DejaVuSans-72" x="465.339844"/>
     <use xlink:href="#DejaVuSans-20" x="506.453125"/>
     <use xlink:href="#DejaVuSans-50" x="538.240234"/>
     <use xlink:href="#DejaVuSans-65" x="594.917969"/>
     <use xlink:href="#DejaVuSans-6e" x="656.441406"/>
     <use xlink:href="#DejaVuSans-61" x="719.820312"/>
     <use xlink:href="#DejaVuSans-6c" x="781.099609"/>
     <use xlink:href="#DejaVuSans-74" x="808.882812"/>
     <use xlink:href="#DejaVuSans-79" x="848.091797"/>
    </g>
   </g>
  </g>
  <g id="axes_4">
   <g id="patch_17">
    <path d="M 681.956031 411.3334 
L 853.350985 411.3334 
L 853.350985 21.9534 
L 681.956031 21.9534 
z
" style="fill: #eeeeee"/>
   </g>
   <g id="matplotlib.axis_7">
    <g id="xtick_13">
     <g id="line2d_62">
      <path d="M 689.746711 411.3334 
L 689.746711 21.9534 
" clip-path="url(#p063c4da2c3)" style="fill: none; stroke-dasharray: 1.85,0.8; stroke-dashoffset: 0; stroke: #b2b2b2; stroke-width: 0.5"/>
     </g>
     <g id="line2d_63">
      <g>
       <use xlink:href="#m37a060fb49" x="689.746711" y="411.3334" style="stroke: #000000; stroke-width: 0.8"/>
      </g>
     </g>
     <g id="text_22">
      <!-- 0 -->
      <g transform="translate(687.201711 420.91215) scale(0.08 -0.08)">
       <use xlink:href="#DejaVuSans-30"/>
      </g>
     </g>
    </g>
    <g id="xtick_14">
     <g id="line2d_64">
      <path d="M 731.4081 411.3334 
L 731.4081 21.9534 
" clip-path="url(#p063c4da2c3)" style="fill: none; stroke-dasharray: 1.85,0.8; stroke-dashoffset: 0; stroke: #b2b2b2; stroke-width: 0.5"/>
     </g>
     <g id="line2d_65">
      <g>
       <use xlink:href="#m37a060fb49" x="731.4081" y="411.3334" style="stroke: #000000; stroke-width: 0.8"/>
      </g>
     </g>
     <g id="text_23">
      <!-- 50 -->
      <g transform="translate(726.3181 420.91215) scale(0.08 -0.08)">
       <use xlink:href="#DejaVuSans-35"/>
       <use xlink:href="#DejaVuSans-30" x="63.623047"/>
      </g>
     </g>
    </g>
    <g id="xtick_15">
     <g id="line2d_66">
      <path d="M 773.069489 411.3334 
L 773.069489 21.9534 
" clip-path="url(#p063c4da2c3)" style="fill: none; stroke-dasharray: 1.85,0.8; stroke-dashoffset: 0; stroke: #b2b2b2; stroke-width: 0.5"/>
     </g>
     <g id="line2d_67">
      <g>
       <use xlink:href="#m37a060fb49" x="773.069489" y="411.3334" style="stroke: #000000; stroke-width: 0.8"/>
      </g>
     </g>
     <g id="text_24">
      <!-- 100 -->
      <g transform="translate(765.434489 420.91215) scale(0.08 -0.08)">
       <use xlink:href="#DejaVuSans-31"/>
       <use xlink:href="#DejaVuSans-30" x="63.623047"/>
       <use xlink:href="#DejaVuSans-30" x="127.246094"/>
      </g>
     </g>
    </g>
    <g id="xtick_16">
     <g id="line2d_68">
      <path d="M 814.730878 411.3334 
L 814.730878 21.9534 
" clip-path="url(#p063c4da2c3)" style="fill: none; stroke-dasharray: 1.85,0.8; stroke-dashoffset: 0; stroke: #b2b2b2; stroke-width: 0.5"/>
     </g>
     <g id="line2d_69">
      <g>
       <use xlink:href="#m37a060fb49" x="814.730878" y="411.3334" style="stroke: #000000; stroke-width: 0.8"/>
      </g>
     </g>
     <g id="text_25">
      <!-- 150 -->
      <g transform="translate(807.095878 420.91215) scale(0.08 -0.08)">
       <use xlink:href="#DejaVuSans-31"/>
       <use xlink:href="#DejaVuSans-35" x="63.623047"/>
       <use xlink:href="#DejaVuSans-30" x="127.246094"/>
      </g>
     </g>
    </g>
   </g>
   <g id="matplotlib.axis_8">
    <g id="ytick_32">
     <g id="line2d_70">
      <path d="M 681.956031 303.822713 
L 853.350985 303.822713 
" clip-path="url(#p063c4da2c3)" style="fill: none; stroke-dasharray: 1.85,0.8; stroke-dashoffset: 0; stroke: #b2b2b2; stroke-width: 0.5"/>
     </g>
     <g id="line2d_71">
      <g>
       <use xlink:href="#mb5cc7f0d45" x="681.956031" y="303.822713" style="stroke: #000000; stroke-width: 0.8"/>
      </g>
     </g>
     <g id="text_26">
      <!-- $\mathdefault{10^{-2}}$ -->
      <g transform="translate(659.656031 306.862088) scale(0.08 -0.08)">
       <use xlink:href="#DejaVuSans-31" transform="translate(0 0.765625)"/>
       <use xlink:href="#DejaVuSans-30" transform="translate(63.623047 0.765625)"/>
       <use xlink:href="#DejaVuSans-2212" transform="translate(128.203125 39.046875) scale(0.7)"/>
       <use xlink:href="#DejaVuSans-32" transform="translate(186.855469 39.046875) scale(0.7)"/>
      </g>
     </g>
    </g>
    <g id="ytick_33">
     <g id="line2d_72">
      <g>
       <use xlink:href="#mc25cf1fb21" x="681.956031" y="383.281973" style="stroke: #000000; stroke-width: 0.6"/>
      </g>
     </g>
    </g>
    <g id="ytick_34">
     <g id="line2d_73">
      <g>
       <use xlink:href="#mc25cf1fb21" x="681.956031" y="359.303734" style="stroke: #000000; stroke-width: 0.6"/>
      </g>
     </g>
    </g>
    <g id="ytick_35">
     <g id="line2d_74">
      <g>
       <use xlink:href="#mc25cf1fb21" x="681.956031" y="338.532839" style="stroke: #000000; stroke-width: 0.6"/>
      </g>
     </g>
    </g>
    <g id="ytick_36">
     <g id="line2d_75">
      <g>
       <use xlink:href="#mc25cf1fb21" x="681.956031" y="320.21161" style="stroke: #000000; stroke-width: 0.6"/>
      </g>
     </g>
    </g>
    <g id="ytick_37">
     <g id="line2d_76">
      <g>
       <use xlink:href="#mc25cf1fb21" x="681.956031" y="196.003216" style="stroke: #000000; stroke-width: 0.6"/>
      </g>
     </g>
    </g>
    <g id="ytick_38">
     <g id="line2d_77">
      <g>
       <use xlink:href="#mc25cf1fb21" x="681.956031" y="132.932853" style="stroke: #000000; stroke-width: 0.6"/>
      </g>
     </g>
    </g>
    <g id="ytick_39">
     <g id="line2d_78">
      <g>
       <use xlink:href="#mc25cf1fb21" x="681.956031" y="88.183719" style="stroke: #000000; stroke-width: 0.6"/>
      </g>
     </g>
    </g>
    <g id="ytick_40">
     <g id="line2d_79">
      <g>
       <use xlink:href="#mc25cf1fb21" x="681.956031" y="53.473594" style="stroke: #000000; stroke-width: 0.6"/>
      </g>
     </g>
    </g>
    <g id="ytick_41">
     <g id="line2d_80">
      <g>
       <use xlink:href="#mc25cf1fb21" x="681.956031" y="25.113356" style="stroke: #000000; stroke-width: 0.6"/>
      </g>
     </g>
    </g>
   </g>
   <g id="line2d_81">
    <path d="M 689.746711 39.652491 
L 690.579939 49.144381 
L 691.413167 98.268267 
L 692.246394 98.507325 
L 693.079622 100.58097 
L 693.91285 113.577391 
L 694.746078 114.957316 
L 695.579306 120.824642 
L 696.412533 125.575139 
L 697.245761 154.239832 
L 698.078989 155.153282 
L 698.912217 155.901854 
L 700.578672 156.910845 
L 701.4119 157.30024 
L 702.245128 159.068728 
L 706.411267 159.167722 
L 710.577406 159.760624 
L 711.410633 160.048221 
L 713.077089 160.302675 
L 713.910317 161.050815 
L 717.243228 161.56367 
L 718.076456 161.963729 
L 718.909683 162.034012 
L 719.742911 162.55821 
L 720.576139 162.55821 
L 721.409367 162.739232 
L 723.90905 164.876306 
L 724.742278 167.392895 
L 725.575506 80.189814 
L 726.408733 167.788408 
L 727.241961 169.393181 
L 728.075189 169.662413 
L 728.908417 170.576453 
L 729.741644 159.958651 
L 730.574872 171.180813 
L 731.4081 172.016508 
L 732.241328 178.735751 
L 733.907783 189.244111 
L 734.741011 206.597322 
L 735.574239 218.487506 
L 736.407467 224.087352 
L 737.240694 227.50152 
L 738.073922 243.872376 
L 738.90715 244.31795 
L 739.740378 246.233943 
L 740.573606 249.31062 
L 741.406833 266.675514 
L 742.240061 267.524692 
L 743.073289 268.208911 
L 743.906517 272.718421 
L 744.739744 272.923578 
L 745.572972 274.616302 
L 746.4062 275.202799 
L 747.239428 279.974773 
L 748.072656 280.860523 
L 748.905883 284.99877 
L 749.739111 288.473036 
L 750.572339 289.849198 
L 751.405567 295.562044 
L 752.238794 295.562044 
L 753.072022 296.984856 
L 753.90525 297.869253 
L 754.738478 301.090084 
L 755.571705 301.365167 
L 756.404933 303.30169 
L 757.238161 303.36383 
L 758.904617 303.800409 
L 759.737844 304.532491 
L 760.571072 304.800848 
L 761.4043 306.774989 
L 762.237528 307.099819 
L 763.070755 309.448915 
L 763.903983 310.014617 
L 764.737211 314.113766 
L 765.570439 315.27247 
L 766.403667 315.982745 
L 767.236894 320.707 
L 768.070122 322.833845 
L 768.90335 323.499647 
L 769.736578 326.760473 
L 770.569805 327.724921 
L 771.403033 331.702302 
L 772.236261 333.378092 
L 773.069489 340.260853 
L 773.902717 342.729821 
L 774.735944 349.279001 
L 775.569172 350.064143 
L 776.4024 350.534919 
L 777.235628 352.119483 
L 778.068855 353.349624 
L 778.902083 357.632899 
L 779.735311 358.65635 
L 780.568539 362.551458 
L 781.401767 362.906829 
L 782.234994 363.697603 
L 783.068222 367.482292 
L 783.90145 367.482292 
L 784.734678 368.108998 
L 785.567905 370.518541 
L 786.401133 370.775087 
L 787.234361 371.719517 
L 788.067589 371.936409 
L 788.900817 373.289887 
L 789.734044 373.472674 
L 791.4005 374.843509 
L 792.233728 375.102908 
L 793.066955 376.392535 
L 793.900183 378.295043 
L 794.733411 378.667146 
L 795.566639 379.568633 
L 796.399867 379.849642 
L 797.233094 381.436661 
L 798.066322 381.573665 
L 798.89955 381.828887 
L 799.732778 383.885502 
L 800.566005 384.302332 
L 801.399233 386.003761 
L 802.232461 384.796222 
L 803.065689 384.971252 
L 803.898917 386.342015 
L 804.732144 386.677081 
L 805.565372 388.464705 
L 806.3986 388.542971 
L 807.231828 389.092245 
L 808.065055 389.296033 
L 808.898283 390.003589 
L 809.731511 390.156568 
L 810.564739 390.941824 
L 811.397967 391.073198 
L 812.231194 391.522675 
L 813.064422 391.618619 
L 813.89765 392.274042 
L 816.397333 392.357383 
L 817.230561 392.676486 
L 818.897017 392.753962 
L 819.730244 393.042924 
L 823.896383 393.094542 
L 824.729611 393.305653 
L 830.562205 393.299898 
L 831.395433 393.176099 
L 838.061255 393.275205 
L 839.727711 393.35817 
L 844.727078 393.514344 
L 845.560305 393.634309 
L 845.560305 393.634309 
" clip-path="url(#p063c4da2c3)" style="fill: none; stroke: #348abd; stroke-width: 2; stroke-linecap: square"/>
   </g>
   <g id="patch_18">
    <path d="M 681.956031 411.3334 
L 681.956031 21.9534 
" style="fill: none; stroke: #bcbcbc; stroke-width: 0.8; stroke-linejoin: miter; stroke-linecap: square"/>
   </g>
   <g id="patch_19">
    <path d="M 853.350985 411.3334 
L 853.350985 21.9534 
" style="fill: none; stroke: #bcbcbc; stroke-width: 0.8; stroke-linejoin: miter; stroke-linecap: square"/>
   </g>
   <g id="patch_20">
    <path d="M 681.956031 411.3334 
L 853.350985 411.3334 
" style="fill: none; stroke: #bcbcbc; stroke-width: 0.8; stroke-linejoin: miter; stroke-linecap: square"/>
   </g>
   <g id="patch_21">
    <path d="M 681.956031 21.9534 
L 853.350985 21.9534 
" style="fill: none; stroke: #bcbcbc; stroke-width: 0.8; stroke-linejoin: miter; stroke-linecap: square"/>
   </g>
   <g id="text_27">
    <!-- MSE Loss -->
    <g transform="translate(740.922608 15.9534) scale(0.1152 -0.1152)">
     <defs>
      <path id="DejaVuSans-4d" d="M 628 4666 
L 1569 4666 
L 2759 1491 
L 3956 4666 
L 4897 4666 
L 4897 0 
L 4281 0 
L 4281 4097 
L 3078 897 
L 2444 897 
L 1241 4097 
L 1241 0 
L 628 0 
L 628 4666 
z
" transform="scale(0.015625)"/>
      <path id="DejaVuSans-53" d="M 3425 4513 
L 3425 3897 
Q 3066 4069 2747 4153 
Q 2428 4238 2131 4238 
Q 1616 4238 1336 4038 
Q 1056 3838 1056 3469 
Q 1056 3159 1242 3001 
Q 1428 2844 1947 2747 
L 2328 2669 
Q 3034 2534 3370 2195 
Q 3706 1856 3706 1288 
Q 3706 609 3251 259 
Q 2797 -91 1919 -91 
Q 1588 -91 1214 -16 
Q 841 59 441 206 
L 441 856 
Q 825 641 1194 531 
Q 1563 422 1919 422 
Q 2459 422 2753 634 
Q 3047 847 3047 1241 
Q 3047 1584 2836 1778 
Q 2625 1972 2144 2069 
L 1759 2144 
Q 1053 2284 737 2584 
Q 422 2884 422 3419 
Q 422 4038 858 4394 
Q 1294 4750 2059 4750 
Q 2388 4750 2728 4690 
Q 3069 4631 3425 4513 
z
" transform="scale(0.015625)"/>
      <path id="DejaVuSans-45" d="M 628 4666 
L 3578 4666 
L 3578 4134 
L 1259 4134 
L 1259 2753 
L 3481 2753 
L 3481 2222 
L 1259 2222 
L 1259 531 
L 3634 531 
L 3634 0 
L 628 0 
L 628 4666 
z
" transform="scale(0.015625)"/>
     </defs>
     <use xlink:href="#DejaVuSans-4d"/>
     <use xlink:href="#DejaVuSans-53" x="86.279297"/>
     <use xlink:href="#DejaVuSans-45" x="149.755859"/>
     <use xlink:href="#DejaVuSans-20" x="212.939453"/>
     <use xlink:href="#DejaVuSans-4c" x="244.726562"/>
     <use xlink:href="#DejaVuSans-6f" x="298.689453"/>
     <use xlink:href="#DejaVuSans-73" x="359.871094"/>
     <use xlink:href="#DejaVuSans-73" x="411.970703"/>
    </g>
   </g>
  </g>
  <g id="text_28">
   <!-- Wolfe Iterations -->
   <g transform="translate(398.520985 426.3534) scale(0.08 -0.08)">
    <defs>
     <path id="DejaVuSans-57" d="M 213 4666 
L 850 4666 
L 1831 722 
L 2809 4666 
L 3519 4666 
L 4500 722 
L 5478 4666 
L 6119 4666 
L 4947 0 
L 4153 0 
L 3169 4050 
L 2175 0 
L 1381 0 
L 213 4666 
z
" transform="scale(0.015625)"/>
     <path id="DejaVuSans-66" d="M 2375 4863 
L 2375 4384 
L 1825 4384 
Q 1516 4384 1395 4259 
Q 1275 4134 1275 3809 
L 1275 3500 
L 2222 3500 
L 2222 3053 
L 1275 3053 
L 1275 0 
L 697 0 
L 697 3053 
L 147 3053 
L 147 3500 
L 697 3500 
L 697 3744 
Q 697 4328 969 4595 
Q 1241 4863 1831 4863 
L 2375 4863 
z
" transform="scale(0.015625)"/>
     <path id="DejaVuSans-49" d="M 628 4666 
L 1259 4666 
L 1259 0 
L 628 0 
L 628 4666 
z
" transform="scale(0.015625)"/>
    </defs>
    <use xlink:href="#DejaVuSans-57"/>
    <use xlink:href="#DejaVuSans-6f" x="93.001953"/>
    <use xlink:href="#DejaVuSans-6c" x="154.183594"/>
    <use xlink:href="#DejaVuSans-66" x="181.966797"/>
    <use xlink:href="#DejaVuSans-65" x="217.171875"/>
    <use xlink:href="#DejaVuSans-20" x="278.695312"/>
    <use xlink:href="#DejaVuSans-49" x="310.482422"/>
    <use xlink:href="#DejaVuSans-74" x="339.974609"/>
    <use xlink:href="#DejaVuSans-65" x="379.183594"/>
    <use xlink:href="#DejaVuSans-72" x="440.707031"/>
    <use xlink:href="#DejaVuSans-61" x="481.820312"/>
    <use xlink:href="#DejaVuSans-74" x="543.099609"/>
    <use xlink:href="#DejaVuSans-69" x="582.308594"/>
    <use xlink:href="#DejaVuSans-6f" x="610.091797"/>
    <use xlink:href="#DejaVuSans-6e" x="671.273438"/>
    <use xlink:href="#DejaVuSans-73" x="734.652344"/>
   </g>
  </g>
 </g>
 <defs>
  <clipPath id="p881b99cd81">
   <rect x="29.5" y="21.9534" width="171.394954" height="389.38"/>
  </clipPath>
  <clipPath id="p2f89a51e3c">
   <rect x="246.985344" y="21.9534" width="171.394954" height="389.38"/>
  </clipPath>
  <clipPath id="p62cc590fd0">
   <rect x="464.470688" y="21.9534" width="171.394954" height="389.38"/>
  </clipPath>
  <clipPath id="p063c4da2c3">
   <rect x="681.956031" y="21.9534" width="171.394954" height="389.38"/>
  </clipPath>
 </defs>
</svg>
