<?xml version="1.0" encoding="utf-8" standalone="no"?>
<!DOCTYPE svg PUBLIC "-//W3C//DTD SVG 1.1//EN"
  "http://www.w3.org/Graphics/SVG/1.1/DTD/svg11.dtd">
<svg xmlns:xlink="http://www.w3.org/1999/xlink" width="409.123294pt" height="319.7989pt" viewBox="0 0 409.123294 319.7989" xmlns="http://www.w3.org/2000/svg" version="1.1">
 <metadata>
  <rdf:RDF xmlns:dc="http://purl.org/dc/elements/1.1/" xmlns:cc="http://creativecommons.org/ns#" xmlns:rdf="http://www.w3.org/1999/02/22-rdf-syntax-ns#">
   <cc:Work>
    <dc:type rdf:resource="http://purl.org/dc/dcmitype/StillImage"/>
    <dc:date>2023-12-02T00:30:50.880567</dc:date>
    <dc:format>image/svg+xml</dc:format>
    <dc:creator>
     <cc:Agent>
      <dc:title>Matplotlib v3.7.1, https://matplotlib.org/</dc:title>
     </cc:Agent>
    </dc:creator>
   </cc:Work>
  </rdf:RDF>
 </metadata>
 <defs>
  <style type="text/css">*{stroke-linejoin: round; stroke-linecap: butt}</style>
 </defs>
 <g id="figure_1">
  <g id="patch_1">
   <path d="M 0 319.7989 
L 409.123294 319.7989 
L 409.123294 0 
L 0 0 
z
" style="fill: #ffffff"/>
  </g>
  <g id="axes_1">
   <g id="patch_2">
    <path d="M 44.78225 288.0654 
L 401.90225 288.0654 
L 401.90225 21.9534 
L 44.78225 21.9534 
z
" style="fill: #eeeeee"/>
   </g>
   <g id="matplotlib.axis_1">
    <g id="xtick_1">
     <g id="line2d_1">
      <path d="M 80.800019 288.0654 
L 80.800019 21.9534 
" clip-path="url(#p015797f49e)" style="fill: none; stroke-dasharray: 1.85,0.8; stroke-dashoffset: 0; stroke: #b2b2b2; stroke-width: 0.5"/>
     </g>
     <g id="line2d_2">
      <defs>
       <path id="m644cba72b9" d="M 0 0 
L 0 -3.5 
" style="stroke: #000000; stroke-width: 0.8"/>
      </defs>
      <g>
       <use xlink:href="#m644cba72b9" x="80.800019" y="288.0654" style="stroke: #000000; stroke-width: 0.8"/>
      </g>
     </g>
     <g id="text_1">
      <!-- −2.0 -->
      <g transform="translate(71.086894 297.64415) scale(0.08 -0.08)">
       <defs>
        <path id="DejaVuSans-2212" d="M 678 2272 
L 4684 2272 
L 4684 1741 
L 678 1741 
L 678 2272 
z
" transform="scale(0.015625)"/>
        <path id="DejaVuSans-32" d="M 1228 531 
L 3431 531 
L 3431 0 
L 469 0 
L 469 531 
Q 828 903 1448 1529 
Q 2069 2156 2228 2338 
Q 2531 2678 2651 2914 
Q 2772 3150 2772 3378 
Q 2772 3750 2511 3984 
Q 2250 4219 1831 4219 
Q 1534 4219 1204 4116 
Q 875 4013 500 3803 
L 500 4441 
Q 881 4594 1212 4672 
Q 1544 4750 1819 4750 
Q 2544 4750 2975 4387 
Q 3406 4025 3406 3419 
Q 3406 3131 3298 2873 
Q 3191 2616 2906 2266 
Q 2828 2175 2409 1742 
Q 1991 1309 1228 531 
z
" transform="scale(0.015625)"/>
        <path id="DejaVuSans-2e" d="M 684 794 
L 1344 794 
L 1344 0 
L 684 0 
L 684 794 
z
" transform="scale(0.015625)"/>
        <path id="DejaVuSans-30" d="M 2034 4250 
Q 1547 4250 1301 3770 
Q 1056 3291 1056 2328 
Q 1056 1369 1301 889 
Q 1547 409 2034 409 
Q 2525 409 2770 889 
Q 3016 1369 3016 2328 
Q 3016 3291 2770 3770 
Q 2525 4250 2034 4250 
z
M 2034 4750 
Q 2819 4750 3233 4129 
Q 3647 3509 3647 2328 
Q 3647 1150 3233 529 
Q 2819 -91 2034 -91 
Q 1250 -91 836 529 
Q 422 1150 422 2328 
Q 422 3509 836 4129 
Q 1250 4750 2034 4750 
z
" transform="scale(0.015625)"/>
       </defs>
       <use xlink:href="#DejaVuSans-2212"/>
       <use xlink:href="#DejaVuSans-32" x="83.789062"/>
       <use xlink:href="#DejaVuSans-2e" x="147.412109"/>
       <use xlink:href="#DejaVuSans-30" x="179.199219"/>
      </g>
     </g>
    </g>
    <g id="xtick_2">
     <g id="line2d_3">
      <path d="M 125.766022 288.0654 
L 125.766022 21.9534 
" clip-path="url(#p015797f49e)" style="fill: none; stroke-dasharray: 1.85,0.8; stroke-dashoffset: 0; stroke: #b2b2b2; stroke-width: 0.5"/>
     </g>
     <g id="line2d_4">
      <g>
       <use xlink:href="#m644cba72b9" x="125.766022" y="288.0654" style="stroke: #000000; stroke-width: 0.8"/>
      </g>
     </g>
     <g id="text_2">
      <!-- −1.5 -->
      <g transform="translate(116.052897 297.64415) scale(0.08 -0.08)">
       <defs>
        <path id="DejaVuSans-31" d="M 794 531 
L 1825 531 
L 1825 4091 
L 703 3866 
L 703 4441 
L 1819 4666 
L 2450 4666 
L 2450 531 
L 3481 531 
L 3481 0 
L 794 0 
L 794 531 
z
" transform="scale(0.015625)"/>
        <path id="DejaVuSans-35" d="M 691 4666 
L 3169 4666 
L 3169 4134 
L 1269 4134 
L 1269 2991 
Q 1406 3038 1543 3061 
Q 1681 3084 1819 3084 
Q 2600 3084 3056 2656 
Q 3513 2228 3513 1497 
Q 3513 744 3044 326 
Q 2575 -91 1722 -91 
Q 1428 -91 1123 -41 
Q 819 9 494 109 
L 494 744 
Q 775 591 1075 516 
Q 1375 441 1709 441 
Q 2250 441 2565 725 
Q 2881 1009 2881 1497 
Q 2881 1984 2565 2268 
Q 2250 2553 1709 2553 
Q 1456 2553 1204 2497 
Q 953 2441 691 2322 
L 691 4666 
z
" transform="scale(0.015625)"/>
       </defs>
       <use xlink:href="#DejaVuSans-2212"/>
       <use xlink:href="#DejaVuSans-31" x="83.789062"/>
       <use xlink:href="#DejaVuSans-2e" x="147.412109"/>
       <use xlink:href="#DejaVuSans-35" x="179.199219"/>
      </g>
     </g>
    </g>
    <g id="xtick_3">
     <g id="line2d_5">
      <path d="M 170.732026 288.0654 
L 170.732026 21.9534 
" clip-path="url(#p015797f49e)" style="fill: none; stroke-dasharray: 1.85,0.8; stroke-dashoffset: 0; stroke: #b2b2b2; stroke-width: 0.5"/>
     </g>
     <g id="line2d_6">
      <g>
       <use xlink:href="#m644cba72b9" x="170.732026" y="288.0654" style="stroke: #000000; stroke-width: 0.8"/>
      </g>
     </g>
     <g id="text_3">
      <!-- −1.0 -->
      <g transform="translate(161.018901 297.64415) scale(0.08 -0.08)">
       <use xlink:href="#DejaVuSans-2212"/>
       <use xlink:href="#DejaVuSans-31" x="83.789062"/>
       <use xlink:href="#DejaVuSans-2e" x="147.412109"/>
       <use xlink:href="#DejaVuSans-30" x="179.199219"/>
      </g>
     </g>
    </g>
    <g id="xtick_4">
     <g id="line2d_7">
      <path d="M 215.698029 288.0654 
L 215.698029 21.9534 
" clip-path="url(#p015797f49e)" style="fill: none; stroke-dasharray: 1.85,0.8; stroke-dashoffset: 0; stroke: #b2b2b2; stroke-width: 0.5"/>
     </g>
     <g id="line2d_8">
      <g>
       <use xlink:href="#m644cba72b9" x="215.698029" y="288.0654" style="stroke: #000000; stroke-width: 0.8"/>
      </g>
     </g>
     <g id="text_4">
      <!-- −0.5 -->
      <g transform="translate(205.984904 297.64415) scale(0.08 -0.08)">
       <use xlink:href="#DejaVuSans-2212"/>
       <use xlink:href="#DejaVuSans-30" x="83.789062"/>
       <use xlink:href="#DejaVuSans-2e" x="147.412109"/>
       <use xlink:href="#DejaVuSans-35" x="179.199219"/>
      </g>
     </g>
    </g>
    <g id="xtick_5">
     <g id="line2d_9">
      <path d="M 260.664033 288.0654 
L 260.664033 21.9534 
" clip-path="url(#p015797f49e)" style="fill: none; stroke-dasharray: 1.85,0.8; stroke-dashoffset: 0; stroke: #b2b2b2; stroke-width: 0.5"/>
     </g>
     <g id="line2d_10">
      <g>
       <use xlink:href="#m644cba72b9" x="260.664033" y="288.0654" style="stroke: #000000; stroke-width: 0.8"/>
      </g>
     </g>
     <g id="text_5">
      <!-- 0.0 -->
      <g transform="translate(254.302783 297.64415) scale(0.08 -0.08)">
       <use xlink:href="#DejaVuSans-30"/>
       <use xlink:href="#DejaVuSans-2e" x="63.623047"/>
       <use xlink:href="#DejaVuSans-30" x="95.410156"/>
      </g>
     </g>
    </g>
    <g id="xtick_6">
     <g id="line2d_11">
      <path d="M 305.630036 288.0654 
L 305.630036 21.9534 
" clip-path="url(#p015797f49e)" style="fill: none; stroke-dasharray: 1.85,0.8; stroke-dashoffset: 0; stroke: #b2b2b2; stroke-width: 0.5"/>
     </g>
     <g id="line2d_12">
      <g>
       <use xlink:href="#m644cba72b9" x="305.630036" y="288.0654" style="stroke: #000000; stroke-width: 0.8"/>
      </g>
     </g>
     <g id="text_6">
      <!-- 0.5 -->
      <g transform="translate(299.268786 297.64415) scale(0.08 -0.08)">
       <use xlink:href="#DejaVuSans-30"/>
       <use xlink:href="#DejaVuSans-2e" x="63.623047"/>
       <use xlink:href="#DejaVuSans-35" x="95.410156"/>
      </g>
     </g>
    </g>
    <g id="xtick_7">
     <g id="line2d_13">
      <path d="M 350.59604 288.0654 
L 350.59604 21.9534 
" clip-path="url(#p015797f49e)" style="fill: none; stroke-dasharray: 1.85,0.8; stroke-dashoffset: 0; stroke: #b2b2b2; stroke-width: 0.5"/>
     </g>
     <g id="line2d_14">
      <g>
       <use xlink:href="#m644cba72b9" x="350.59604" y="288.0654" style="stroke: #000000; stroke-width: 0.8"/>
      </g>
     </g>
     <g id="text_7">
      <!-- 1.0 -->
      <g transform="translate(344.23479 297.64415) scale(0.08 -0.08)">
       <use xlink:href="#DejaVuSans-31"/>
       <use xlink:href="#DejaVuSans-2e" x="63.623047"/>
       <use xlink:href="#DejaVuSans-30" x="95.410156"/>
      </g>
     </g>
    </g>
    <g id="xtick_8">
     <g id="line2d_15">
      <path d="M 395.562044 288.0654 
L 395.562044 21.9534 
" clip-path="url(#p015797f49e)" style="fill: none; stroke-dasharray: 1.85,0.8; stroke-dashoffset: 0; stroke: #b2b2b2; stroke-width: 0.5"/>
     </g>
     <g id="line2d_16">
      <g>
       <use xlink:href="#m644cba72b9" x="395.562044" y="288.0654" style="stroke: #000000; stroke-width: 0.8"/>
      </g>
     </g>
     <g id="text_8">
      <!-- 1.5 -->
      <g transform="translate(389.200794 297.64415) scale(0.08 -0.08)">
       <use xlink:href="#DejaVuSans-31"/>
       <use xlink:href="#DejaVuSans-2e" x="63.623047"/>
       <use xlink:href="#DejaVuSans-35" x="95.410156"/>
      </g>
     </g>
    </g>
    <g id="text_9">
     <!-- $k_1$ -->
     <g transform="translate(218.83025 310.6024) scale(0.096 -0.096)">
      <defs>
       <path id="Cmmi10-6b" d="M 341 116 
Q 341 153 347 172 
L 1275 3872 
Q 1300 3981 1306 4044 
Q 1306 4147 891 4147 
Q 825 4147 825 4231 
Q 828 4247 839 4287 
Q 850 4328 867 4350 
Q 884 4372 916 4372 
L 1778 4441 
L 1797 4441 
Q 1797 4434 1819 4423 
Q 1841 4413 1844 4409 
Q 1856 4378 1856 4359 
L 1184 1684 
Q 1416 1781 1767 2145 
Q 2119 2509 2317 2668 
Q 2516 2828 2816 2828 
Q 2994 2828 3119 2706 
Q 3244 2584 3244 2406 
Q 3244 2294 3197 2198 
Q 3150 2103 3065 2043 
Q 2981 1984 2869 1984 
Q 2766 1984 2695 2048 
Q 2625 2113 2625 2216 
Q 2625 2369 2733 2473 
Q 2841 2578 2994 2578 
Q 2931 2663 2803 2663 
Q 2613 2663 2436 2553 
Q 2259 2444 2054 2239 
Q 1850 2034 1681 1864 
Q 1513 1694 1369 1606 
Q 1747 1563 2025 1408 
Q 2303 1253 2303 934 
Q 2303 869 2278 769 
Q 2222 528 2222 384 
Q 2222 97 2419 97 
Q 2650 97 2770 350 
Q 2891 603 2969 941 
Q 2981 978 3022 978 
L 3097 978 
Q 3122 978 3139 962 
Q 3156 947 3156 922 
Q 3156 916 3150 903 
Q 2909 -72 2406 -72 
Q 2225 -72 2086 12 
Q 1947 97 1872 242 
Q 1797 388 1797 569 
Q 1797 672 1825 781 
Q 1844 856 1844 922 
Q 1844 1169 1625 1297 
Q 1406 1425 1125 1453 
L 800 147 
Q 775 50 703 -11 
Q 631 -72 538 -72 
Q 456 -72 398 -17 
Q 341 38 341 116 
z
" transform="scale(0.015625)"/>
       <path id="Cmr10-31" d="M 594 0 
L 594 225 
Q 1394 225 1394 428 
L 1394 3788 
Q 1063 3628 556 3628 
L 556 3853 
Q 1341 3853 1741 4263 
L 1831 4263 
Q 1853 4263 1873 4245 
Q 1894 4228 1894 4206 
L 1894 428 
Q 1894 225 2694 225 
L 2694 0 
L 594 0 
z
" transform="scale(0.015625)"/>
      </defs>
      <use xlink:href="#Cmmi10-6b" transform="translate(0 0.609375)"/>
      <use xlink:href="#Cmr10-31" transform="translate(52.001953 -16.396875) scale(0.7)"/>
     </g>
    </g>
   </g>
   <g id="matplotlib.axis_2">
    <g id="ytick_1">
     <g id="line2d_17">
      <path d="M 44.78225 268.666155 
L 401.90225 268.666155 
" clip-path="url(#p015797f49e)" style="fill: none; stroke-dasharray: 1.85,0.8; stroke-dashoffset: 0; stroke: #b2b2b2; stroke-width: 0.5"/>
     </g>
     <g id="line2d_18">
      <defs>
       <path id="md1fd8c82da" d="M 0 0 
L 3.5 0 
" style="stroke: #000000; stroke-width: 0.8"/>
      </defs>
      <g>
       <use xlink:href="#md1fd8c82da" x="44.78225" y="268.666155" style="stroke: #000000; stroke-width: 0.8"/>
      </g>
     </g>
     <g id="text_10">
      <!-- −0.2 -->
      <g transform="translate(21.856 271.70553) scale(0.08 -0.08)">
       <use xlink:href="#DejaVuSans-2212"/>
       <use xlink:href="#DejaVuSans-30" x="83.789062"/>
       <use xlink:href="#DejaVuSans-2e" x="147.412109"/>
       <use xlink:href="#DejaVuSans-32" x="179.199219"/>
      </g>
     </g>
    </g>
    <g id="ytick_2">
     <g id="line2d_19">
      <path d="M 44.78225 230.324117 
L 401.90225 230.324117 
" clip-path="url(#p015797f49e)" style="fill: none; stroke-dasharray: 1.85,0.8; stroke-dashoffset: 0; stroke: #b2b2b2; stroke-width: 0.5"/>
     </g>
     <g id="line2d_20">
      <g>
       <use xlink:href="#md1fd8c82da" x="44.78225" y="230.324117" style="stroke: #000000; stroke-width: 0.8"/>
      </g>
     </g>
     <g id="text_11">
      <!-- 0.0 -->
      <g transform="translate(28.55975 233.363492) scale(0.08 -0.08)">
       <use xlink:href="#DejaVuSans-30"/>
       <use xlink:href="#DejaVuSans-2e" x="63.623047"/>
       <use xlink:href="#DejaVuSans-30" x="95.410156"/>
      </g>
     </g>
    </g>
    <g id="ytick_3">
     <g id="line2d_21">
      <path d="M 44.78225 191.982079 
L 401.90225 191.982079 
" clip-path="url(#p015797f49e)" style="fill: none; stroke-dasharray: 1.85,0.8; stroke-dashoffset: 0; stroke: #b2b2b2; stroke-width: 0.5"/>
     </g>
     <g id="line2d_22">
      <g>
       <use xlink:href="#md1fd8c82da" x="44.78225" y="191.982079" style="stroke: #000000; stroke-width: 0.8"/>
      </g>
     </g>
     <g id="text_12">
      <!-- 0.2 -->
      <g transform="translate(28.55975 195.021454) scale(0.08 -0.08)">
       <use xlink:href="#DejaVuSans-30"/>
       <use xlink:href="#DejaVuSans-2e" x="63.623047"/>
       <use xlink:href="#DejaVuSans-32" x="95.410156"/>
      </g>
     </g>
    </g>
    <g id="ytick_4">
     <g id="line2d_23">
      <path d="M 44.78225 153.640042 
L 401.90225 153.640042 
" clip-path="url(#p015797f49e)" style="fill: none; stroke-dasharray: 1.85,0.8; stroke-dashoffset: 0; stroke: #b2b2b2; stroke-width: 0.5"/>
     </g>
     <g id="line2d_24">
      <g>
       <use xlink:href="#md1fd8c82da" x="44.78225" y="153.640042" style="stroke: #000000; stroke-width: 0.8"/>
      </g>
     </g>
     <g id="text_13">
      <!-- 0.4 -->
      <g transform="translate(28.55975 156.679417) scale(0.08 -0.08)">
       <defs>
        <path id="DejaVuSans-34" d="M 2419 4116 
L 825 1625 
L 2419 1625 
L 2419 4116 
z
M 2253 4666 
L 3047 4666 
L 3047 1625 
L 3713 1625 
L 3713 1100 
L 3047 1100 
L 3047 0 
L 2419 0 
L 2419 1100 
L 313 1100 
L 313 1709 
L 2253 4666 
z
" transform="scale(0.015625)"/>
       </defs>
       <use xlink:href="#DejaVuSans-30"/>
       <use xlink:href="#DejaVuSans-2e" x="63.623047"/>
       <use xlink:href="#DejaVuSans-34" x="95.410156"/>
      </g>
     </g>
    </g>
    <g id="ytick_5">
     <g id="line2d_25">
      <path d="M 44.78225 115.298004 
L 401.90225 115.298004 
" clip-path="url(#p015797f49e)" style="fill: none; stroke-dasharray: 1.85,0.8; stroke-dashoffset: 0; stroke: #b2b2b2; stroke-width: 0.5"/>
     </g>
     <g id="line2d_26">
      <g>
       <use xlink:href="#md1fd8c82da" x="44.78225" y="115.298004" style="stroke: #000000; stroke-width: 0.8"/>
      </g>
     </g>
     <g id="text_14">
      <!-- 0.6 -->
      <g transform="translate(28.55975 118.337379) scale(0.08 -0.08)">
       <defs>
        <path id="DejaVuSans-36" d="M 2113 2584 
Q 1688 2584 1439 2293 
Q 1191 2003 1191 1497 
Q 1191 994 1439 701 
Q 1688 409 2113 409 
Q 2538 409 2786 701 
Q 3034 994 3034 1497 
Q 3034 2003 2786 2293 
Q 2538 2584 2113 2584 
z
M 3366 4563 
L 3366 3988 
Q 3128 4100 2886 4159 
Q 2644 4219 2406 4219 
Q 1781 4219 1451 3797 
Q 1122 3375 1075 2522 
Q 1259 2794 1537 2939 
Q 1816 3084 2150 3084 
Q 2853 3084 3261 2657 
Q 3669 2231 3669 1497 
Q 3669 778 3244 343 
Q 2819 -91 2113 -91 
Q 1303 -91 875 529 
Q 447 1150 447 2328 
Q 447 3434 972 4092 
Q 1497 4750 2381 4750 
Q 2619 4750 2861 4703 
Q 3103 4656 3366 4563 
z
" transform="scale(0.015625)"/>
       </defs>
       <use xlink:href="#DejaVuSans-30"/>
       <use xlink:href="#DejaVuSans-2e" x="63.623047"/>
       <use xlink:href="#DejaVuSans-36" x="95.410156"/>
      </g>
     </g>
    </g>
    <g id="ytick_6">
     <g id="line2d_27">
      <path d="M 44.78225 76.955966 
L 401.90225 76.955966 
" clip-path="url(#p015797f49e)" style="fill: none; stroke-dasharray: 1.85,0.8; stroke-dashoffset: 0; stroke: #b2b2b2; stroke-width: 0.5"/>
     </g>
     <g id="line2d_28">
      <g>
       <use xlink:href="#md1fd8c82da" x="44.78225" y="76.955966" style="stroke: #000000; stroke-width: 0.8"/>
      </g>
     </g>
     <g id="text_15">
      <!-- 0.8 -->
      <g transform="translate(28.55975 79.995341) scale(0.08 -0.08)">
       <defs>
        <path id="DejaVuSans-38" d="M 2034 2216 
Q 1584 2216 1326 1975 
Q 1069 1734 1069 1313 
Q 1069 891 1326 650 
Q 1584 409 2034 409 
Q 2484 409 2743 651 
Q 3003 894 3003 1313 
Q 3003 1734 2745 1975 
Q 2488 2216 2034 2216 
z
M 1403 2484 
Q 997 2584 770 2862 
Q 544 3141 544 3541 
Q 544 4100 942 4425 
Q 1341 4750 2034 4750 
Q 2731 4750 3128 4425 
Q 3525 4100 3525 3541 
Q 3525 3141 3298 2862 
Q 3072 2584 2669 2484 
Q 3125 2378 3379 2068 
Q 3634 1759 3634 1313 
Q 3634 634 3220 271 
Q 2806 -91 2034 -91 
Q 1263 -91 848 271 
Q 434 634 434 1313 
Q 434 1759 690 2068 
Q 947 2378 1403 2484 
z
M 1172 3481 
Q 1172 3119 1398 2916 
Q 1625 2713 2034 2713 
Q 2441 2713 2670 2916 
Q 2900 3119 2900 3481 
Q 2900 3844 2670 4047 
Q 2441 4250 2034 4250 
Q 1625 4250 1398 4047 
Q 1172 3844 1172 3481 
z
" transform="scale(0.015625)"/>
       </defs>
       <use xlink:href="#DejaVuSans-30"/>
       <use xlink:href="#DejaVuSans-2e" x="63.623047"/>
       <use xlink:href="#DejaVuSans-38" x="95.410156"/>
      </g>
     </g>
    </g>
    <g id="ytick_7">
     <g id="line2d_29">
      <path d="M 44.78225 38.613928 
L 401.90225 38.613928 
" clip-path="url(#p015797f49e)" style="fill: none; stroke-dasharray: 1.85,0.8; stroke-dashoffset: 0; stroke: #b2b2b2; stroke-width: 0.5"/>
     </g>
     <g id="line2d_30">
      <g>
       <use xlink:href="#md1fd8c82da" x="44.78225" y="38.613928" style="stroke: #000000; stroke-width: 0.8"/>
      </g>
     </g>
     <g id="text_16">
      <!-- 1.0 -->
      <g transform="translate(28.55975 41.653303) scale(0.08 -0.08)">
       <use xlink:href="#DejaVuSans-31"/>
       <use xlink:href="#DejaVuSans-2e" x="63.623047"/>
       <use xlink:href="#DejaVuSans-30" x="95.410156"/>
      </g>
     </g>
    </g>
    <g id="text_17">
     <!-- $k_1 F_i /u_*^2$ -->
     <g transform="translate(15.36 172.3854) rotate(-90) scale(0.096 -0.096)">
      <defs>
       <path id="Cmmi10-46" d="M 300 0 
Q 238 0 238 84 
Q 241 100 250 139 
Q 259 178 276 201 
Q 294 225 319 225 
Q 709 225 863 269 
Q 947 297 984 441 
L 1863 3956 
Q 1875 4019 1875 4044 
Q 1875 4113 1797 4122 
Q 1678 4147 1338 4147 
Q 1275 4147 1275 4231 
Q 1278 4247 1287 4286 
Q 1297 4325 1314 4348 
Q 1331 4372 1356 4372 
L 4738 4372 
Q 4800 4372 4800 4288 
L 4647 2963 
Q 4647 2944 4625 2925 
Q 4603 2906 4581 2906 
L 4525 2906 
Q 4459 2906 4459 2988 
Q 4500 3278 4500 3463 
Q 4500 3781 4362 3931 
Q 4225 4081 4015 4114 
Q 3806 4147 3438 4147 
L 2753 4147 
Q 2578 4147 2522 4117 
Q 2466 4088 2419 3928 
L 2009 2297 
L 2491 2297 
Q 2728 2297 2875 2322 
Q 3022 2347 3119 2419 
Q 3216 2491 3280 2627 
Q 3344 2763 3397 2988 
Q 3416 3047 3463 3047 
L 3519 3047 
Q 3584 3047 3584 2963 
L 3194 1381 
Q 3166 1325 3128 1325 
L 3072 1325 
Q 3009 1325 3009 1409 
Q 3025 1475 3034 1519 
Q 3044 1563 3058 1645 
Q 3072 1728 3072 1791 
Q 3072 1975 2909 2025 
Q 2747 2075 2484 2075 
L 1959 2075 
L 1544 416 
Q 1528 353 1528 353 
Q 1528 278 1575 269 
Q 1741 225 2228 225 
Q 2291 225 2291 141 
Q 2269 50 2256 25 
Q 2244 0 2181 0 
L 300 0 
z
" transform="scale(0.015625)"/>
       <path id="Cmmi10-69" d="M 500 459 
Q 500 578 550 709 
L 1069 2088 
Q 1153 2322 1153 2472 
Q 1153 2663 1013 2663 
Q 759 2663 595 2402 
Q 431 2141 353 1819 
Q 341 1778 300 1778 
L 225 1778 
Q 172 1778 172 1838 
L 172 1856 
Q 275 2238 487 2533 
Q 700 2828 1025 2828 
Q 1253 2828 1411 2678 
Q 1569 2528 1569 2297 
Q 1569 2178 1516 2047 
L 997 672 
Q 909 459 909 288 
Q 909 97 1056 97 
Q 1306 97 1473 364 
Q 1641 631 1709 941 
Q 1722 978 1759 978 
L 1838 978 
Q 1863 978 1878 961 
Q 1894 944 1894 922 
Q 1894 916 1888 903 
Q 1800 541 1583 234 
Q 1366 -72 1044 -72 
Q 819 -72 659 83 
Q 500 238 500 459 
z
M 1222 3878 
Q 1222 4013 1334 4122 
Q 1447 4231 1581 4231 
Q 1691 4231 1761 4164 
Q 1831 4097 1831 3994 
Q 1831 3850 1717 3742 
Q 1603 3634 1466 3634 
Q 1363 3634 1292 3704 
Q 1222 3775 1222 3878 
z
" transform="scale(0.015625)"/>
       <path id="Cmmi10-3d" d="M 359 -1472 
Q 359 -1453 366 -1447 
L 2591 4722 
Q 2603 4759 2634 4779 
Q 2666 4800 2706 4800 
Q 2763 4800 2798 4765 
Q 2834 4731 2834 4672 
L 2834 4647 
L 609 -1522 
Q 572 -1600 488 -1600 
Q 434 -1600 396 -1562 
Q 359 -1525 359 -1472 
z
" transform="scale(0.015625)"/>
       <path id="Cmmi10-75" d="M 678 697 
Q 678 906 734 1126 
Q 791 1347 892 1617 
Q 994 1888 1069 2088 
Q 1153 2322 1153 2472 
Q 1153 2663 1013 2663 
Q 759 2663 595 2402 
Q 431 2141 353 1819 
Q 341 1778 300 1778 
L 225 1778 
Q 172 1778 172 1838 
L 172 1856 
Q 275 2238 487 2533 
Q 700 2828 1025 2828 
Q 1253 2828 1411 2678 
Q 1569 2528 1569 2297 
Q 1569 2178 1516 2047 
Q 1488 1969 1388 1706 
Q 1288 1444 1234 1272 
Q 1181 1100 1147 934 
Q 1113 769 1113 603 
Q 1113 391 1203 244 
Q 1294 97 1497 97 
Q 1906 97 2216 603 
Q 2222 628 2226 651 
Q 2231 675 2234 697 
L 2694 2553 
Q 2716 2638 2794 2698 
Q 2872 2759 2963 2759 
Q 3041 2759 3098 2709 
Q 3156 2659 3156 2578 
Q 3156 2541 3150 2528 
L 2688 684 
Q 2644 494 2644 372 
Q 2644 97 2828 97 
Q 3034 97 3136 351 
Q 3238 606 3309 941 
Q 3322 978 3359 978 
L 3438 978 
Q 3463 978 3478 956 
Q 3494 934 3494 916 
Q 3425 641 3361 444 
Q 3297 247 3159 87 
Q 3022 -72 2816 -72 
Q 2613 -72 2452 39 
Q 2291 150 2234 341 
Q 2088 153 1894 40 
Q 1700 -72 1484 -72 
Q 1116 -72 897 129 
Q 678 331 678 697 
z
" transform="scale(0.015625)"/>
       <path id="Cmr10-32" d="M 319 0 
L 319 172 
Q 319 188 331 206 
L 1325 1306 
Q 1550 1550 1690 1715 
Q 1831 1881 1968 2097 
Q 2106 2313 2186 2536 
Q 2266 2759 2266 3009 
Q 2266 3272 2169 3511 
Q 2072 3750 1880 3894 
Q 1688 4038 1416 4038 
Q 1138 4038 916 3870 
Q 694 3703 603 3438 
Q 628 3444 672 3444 
Q 816 3444 917 3347 
Q 1019 3250 1019 3097 
Q 1019 2950 917 2848 
Q 816 2747 672 2747 
Q 522 2747 420 2851 
Q 319 2956 319 3097 
Q 319 3338 409 3548 
Q 500 3759 670 3923 
Q 841 4088 1055 4175 
Q 1269 4263 1509 4263 
Q 1875 4263 2190 4108 
Q 2506 3953 2690 3670 
Q 2875 3388 2875 3009 
Q 2875 2731 2753 2481 
Q 2631 2231 2440 2026 
Q 2250 1822 1953 1562 
Q 1656 1303 1563 1216 
L 838 519 
L 1453 519 
Q 1906 519 2211 526 
Q 2516 534 2534 550 
Q 2609 631 2688 1141 
L 2875 1141 
L 2694 0 
L 319 0 
z
" transform="scale(0.015625)"/>
       <path id="Cmsy10-a4" d="M 603 813 
Q 531 813 473 873 
Q 416 934 416 1006 
Q 416 1116 506 1159 
L 1428 1600 
L 506 2034 
Q 416 2072 416 2188 
Q 416 2259 473 2320 
Q 531 2381 603 2381 
Q 650 2381 691 2350 
L 1509 1753 
L 1416 2797 
Q 1416 2875 1469 2925 
Q 1522 2975 1600 2975 
Q 1675 2975 1726 2928 
Q 1778 2881 1778 2809 
L 1778 2797 
L 1684 1753 
L 2503 2350 
Q 2544 2381 2591 2381 
Q 2669 2381 2723 2320 
Q 2778 2259 2778 2188 
Q 2778 2072 2688 2034 
L 1766 1600 
L 2688 1159 
Q 2778 1116 2778 1006 
Q 2778 934 2723 873 
Q 2669 813 2591 813 
Q 2544 813 2503 844 
L 1684 1441 
L 1778 403 
L 1778 384 
Q 1778 313 1723 266 
Q 1669 219 1600 219 
Q 1525 219 1470 270 
Q 1416 322 1416 397 
L 1509 1441 
L 691 844 
Q 650 813 603 813 
z
" transform="scale(0.015625)"/>
      </defs>
      <use xlink:href="#Cmmi10-6b" transform="translate(0 0.109375)"/>
      <use xlink:href="#Cmr10-31" transform="translate(52.001953 -16.896875) scale(0.7)"/>
      <use xlink:href="#Cmmi10-46" transform="translate(93.379297 0.109375)"/>
      <use xlink:href="#Cmmi10-69" transform="translate(157.685937 -16.896875) scale(0.7)"/>
      <use xlink:href="#Cmmi10-3d" transform="translate(188.159961 0.109375)"/>
      <use xlink:href="#Cmmi10-75" transform="translate(238.159961 0.109375)"/>
      <use xlink:href="#Cmr10-32" transform="translate(301.640977 38.373438) scale(0.7)"/>
      <use xlink:href="#Cmsy10-a4" transform="translate(307.628711 -25.4) scale(0.7)"/>
     </g>
    </g>
   </g>
   <g id="line2d_31">
    <path d="M 61.014977 112.782783 
L 69.339453 97.954759 
L 77.663928 83.470182 
L 85.988404 69.998131 
L 94.312879 58.224717 
L 102.637355 48.774149 
L 110.96183 42.130638 
L 119.286306 38.578677 
L 127.610781 38.175239 
L 135.935257 40.758565 
L 144.259733 45.988293 
L 152.584208 53.404542 
L 160.908684 62.491521 
L 169.233159 72.733702 
L 177.557635 83.657605 
L 185.88211 94.857248 
L 194.206586 106.005052 
L 202.531061 116.851788 
L 210.855537 127.219537 
L 219.180012 136.99107 
L 227.504488 146.098136 
L 235.828963 154.51025 
L 244.153439 162.224818 
L 252.477914 169.258934 
L 260.80239 175.64286 
L 269.126865 181.415023 
L 277.451341 186.618298 
L 285.775816 191.297329 
L 294.100292 195.496662 
L 302.424767 199.25949 
L 310.749243 202.626863 
L 319.073719 205.63722 
L 327.398194 208.32616 
L 335.72267 210.726379 
L 344.047145 212.867706 
L 352.371621 214.777223 
L 360.696096 216.479418 
L 369.020572 217.996363 
L 377.345047 219.347905 
L 385.669523 220.551852 
" clip-path="url(#p015797f49e)" style="fill: none; stroke: #4169e1; stroke-width: 2; stroke-linecap: square"/>
   </g>
   <g id="line2d_32">
    <defs>
     <path id="m95b73e99d0" d="M 0 3 
C 0.795609 3 1.55874 2.683901 2.12132 2.12132 
C 2.683901 1.55874 3 0.795609 3 0 
C 3 -0.795609 2.683901 -1.55874 2.12132 -2.12132 
C 1.55874 -2.683901 0.795609 -3 0 -3 
C -0.795609 -3 -1.55874 -2.683901 -2.12132 -2.12132 
C -2.683901 -1.55874 -3 -0.795609 -3 0 
C -3 0.795609 -2.683901 1.55874 -2.12132 2.12132 
C -1.55874 2.683901 -0.795609 3 0 3 
z
" style="stroke: #4169e1"/>
    </defs>
    <g clip-path="url(#p015797f49e)">
     <use xlink:href="#m95b73e99d0" x="61.014977" y="110.505249" style="fill: #4169e1; stroke: #4169e1"/>
     <use xlink:href="#m95b73e99d0" x="80.800019" y="77.412419" style="fill: #4169e1; stroke: #4169e1"/>
     <use xlink:href="#m95b73e99d0" x="104.182341" y="43.178457" style="fill: #4169e1; stroke: #4169e1"/>
     <use xlink:href="#m95b73e99d0" x="114.974182" y="34.0494" style="fill: #4169e1; stroke: #4169e1"/>
     <use xlink:href="#m95b73e99d0" x="123.068062" y="47.742985" style="fill: #4169e1; stroke: #4169e1"/>
     <use xlink:href="#m95b73e99d0" x="130.262623" y="43.178457" style="fill: #4169e1; stroke: #4169e1"/>
     <use xlink:href="#m95b73e99d0" x="136.557863" y="43.178457" style="fill: #4169e1; stroke: #4169e1"/>
     <use xlink:href="#m95b73e99d0" x="143.752424" y="59.154306" style="fill: #4169e1; stroke: #4169e1"/>
     <use xlink:href="#m95b73e99d0" x="152.745624" y="56.872042" style="fill: #4169e1; stroke: #4169e1"/>
     <use xlink:href="#m95b73e99d0" x="159.040865" y="72.847891" style="fill: #4169e1; stroke: #4169e1"/>
     <use xlink:href="#m95b73e99d0" x="165.336105" y="77.412419" style="fill: #4169e1; stroke: #4169e1"/>
     <use xlink:href="#m95b73e99d0" x="170.732026" y="70.565626" style="fill: #4169e1; stroke: #4169e1"/>
     <use xlink:href="#m95b73e99d0" x="177.926586" y="79.694683" style="fill: #4169e1; stroke: #4169e1"/>
     <use xlink:href="#m95b73e99d0" x="186.919787" y="91.106004" style="fill: #4169e1; stroke: #4169e1"/>
     <use xlink:href="#m95b73e99d0" x="197.711628" y="97.952796" style="fill: #4169e1; stroke: #4169e1"/>
     <use xlink:href="#m95b73e99d0" x="204.906189" y="111.646381" style="fill: #4169e1; stroke: #4169e1"/>
     <use xlink:href="#m95b73e99d0" x="212.100749" y="120.775438" style="fill: #4169e1; stroke: #4169e1"/>
     <use xlink:href="#m95b73e99d0" x="218.39599" y="132.186758" style="fill: #4169e1; stroke: #4169e1"/>
     <use xlink:href="#m95b73e99d0" x="232.785111" y="145.880343" style="fill: #4169e1; stroke: #4169e1"/>
     <use xlink:href="#m95b73e99d0" x="239.080351" y="155.0094" style="fill: #4169e1; stroke: #4169e1"/>
     <use xlink:href="#m95b73e99d0" x="250.771512" y="166.420721" style="fill: #4169e1; stroke: #4169e1"/>
     <use xlink:href="#m95b73e99d0" x="257.966073" y="173.267513" style="fill: #4169e1; stroke: #4169e1"/>
     <use xlink:href="#m95b73e99d0" x="275.053154" y="184.678834" style="fill: #4169e1; stroke: #4169e1"/>
     <use xlink:href="#m95b73e99d0" x="290.341595" y="196.090155" style="fill: #4169e1; stroke: #4169e1"/>
     <use xlink:href="#m95b73e99d0" x="304.730716" y="202.936947" style="fill: #4169e1; stroke: #4169e1"/>
     <use xlink:href="#m95b73e99d0" x="318.220517" y="209.78374" style="fill: #4169e1; stroke: #4169e1"/>
     <use xlink:href="#m95b73e99d0" x="330.810998" y="214.348268" style="fill: #4169e1; stroke: #4169e1"/>
     <use xlink:href="#m95b73e99d0" x="345.20012" y="218.912796" style="fill: #4169e1; stroke: #4169e1"/>
     <use xlink:href="#m95b73e99d0" x="360.488561" y="223.477325" style="fill: #4169e1; stroke: #4169e1"/>
     <use xlink:href="#m95b73e99d0" x="376.676322" y="228.041853" style="fill: #4169e1; stroke: #4169e1"/>
     <use xlink:href="#m95b73e99d0" x="385.669523" y="228.041853" style="fill: #4169e1; stroke: #4169e1"/>
    </g>
   </g>
   <g id="line2d_33">
    <path d="M 61.014977 202.088727 
L 69.339453 196.711243 
L 77.663928 190.621254 
L 85.988404 183.8512 
L 94.312879 176.488706 
L 102.637355 168.686643 
L 110.96183 160.666835 
L 119.286306 152.713913 
L 127.610781 145.15714 
L 135.935257 138.340704 
L 144.259733 132.58655 
L 152.584208 128.156783 
L 160.908684 125.22374 
L 169.233159 123.854142 
L 177.557635 124.009865 
L 185.88211 125.563431 
L 194.206586 128.323061 
L 202.531061 132.06096 
L 210.855537 136.539425 
L 219.180012 141.531343 
L 227.504488 146.833836 
L 235.828963 152.275453 
L 244.153439 157.718244 
L 252.477914 163.056305 
L 260.80239 168.21226 
L 269.126865 173.132831 
L 277.451341 177.784257 
L 285.775816 182.148033 
L 294.100292 186.217195 
L 302.424767 189.993233 
L 310.749243 193.48361 
L 319.073719 196.699821 
L 327.398194 199.65592 
L 335.72267 202.367415 
L 344.047145 204.850464 
L 352.371621 207.121305 
L 360.696096 209.195854 
L 369.020572 211.089446 
L 377.345047 212.816659 
L 385.669523 214.391229 
" clip-path="url(#p015797f49e)" style="fill: none; stroke: #dc143c; stroke-width: 2; stroke-linecap: square"/>
   </g>
   <g id="line2d_34">
    <defs>
     <path id="mf4fb39c39c" d="M 0 3 
C 0.795609 3 1.55874 2.683901 2.12132 2.12132 
C 2.683901 1.55874 3 0.795609 3 0 
C 3 -0.795609 2.683901 -1.55874 2.12132 -2.12132 
C 1.55874 -2.683901 0.795609 -3 0 -3 
C -0.795609 -3 -1.55874 -2.683901 -2.12132 -2.12132 
C -2.683901 -1.55874 -3 -0.795609 -3 0 
C -3 0.795609 -2.683901 1.55874 -2.12132 2.12132 
C -1.55874 2.683901 -0.795609 3 0 3 
z
" style="stroke: #dc143c"/>
    </defs>
    <g clip-path="url(#p015797f49e)">
     <use xlink:href="#mf4fb39c39c" x="61.014977" y="182.39657" style="fill: #dc143c; stroke: #dc143c"/>
     <use xlink:href="#mf4fb39c39c" x="71.806818" y="173.267513" style="fill: #dc143c; stroke: #dc143c"/>
     <use xlink:href="#mf4fb39c39c" x="87.994579" y="157.291664" style="fill: #dc143c; stroke: #dc143c"/>
     <use xlink:href="#mf4fb39c39c" x="103.283021" y="159.573928" style="fill: #dc143c; stroke: #dc143c"/>
     <use xlink:href="#mf4fb39c39c" x="115.873502" y="159.573928" style="fill: #dc143c; stroke: #dc143c"/>
     <use xlink:href="#mf4fb39c39c" x="123.967382" y="155.0094" style="fill: #dc143c; stroke: #dc143c"/>
     <use xlink:href="#mf4fb39c39c" x="130.262623" y="157.291664" style="fill: #dc143c; stroke: #dc143c"/>
     <use xlink:href="#mf4fb39c39c" x="143.752424" y="152.727136" style="fill: #dc143c; stroke: #dc143c"/>
     <use xlink:href="#mf4fb39c39c" x="152.745624" y="150.444872" style="fill: #dc143c; stroke: #dc143c"/>
     <use xlink:href="#mf4fb39c39c" x="161.738825" y="141.315815" style="fill: #dc143c; stroke: #dc143c"/>
     <use xlink:href="#mf4fb39c39c" x="170.732026" y="132.186758" style="fill: #dc143c; stroke: #dc143c"/>
     <use xlink:href="#mf4fb39c39c" x="184.221827" y="132.186758" style="fill: #dc143c; stroke: #dc143c"/>
     <use xlink:href="#mf4fb39c39c" x="191.416387" y="123.057702" style="fill: #dc143c; stroke: #dc143c"/>
     <use xlink:href="#mf4fb39c39c" x="197.711628" y="125.339966" style="fill: #dc143c; stroke: #dc143c"/>
     <use xlink:href="#mf4fb39c39c" x="211.201429" y="123.057702" style="fill: #dc143c; stroke: #dc143c"/>
     <use xlink:href="#mf4fb39c39c" x="218.39599" y="127.62223" style="fill: #dc143c; stroke: #dc143c"/>
     <use xlink:href="#mf4fb39c39c" x="225.59055" y="129.904494" style="fill: #dc143c; stroke: #dc143c"/>
     <use xlink:href="#mf4fb39c39c" x="231.885791" y="136.751287" style="fill: #dc143c; stroke: #dc143c"/>
     <use xlink:href="#mf4fb39c39c" x="242.677632" y="143.598079" style="fill: #dc143c; stroke: #dc143c"/>
     <use xlink:href="#mf4fb39c39c" x="253.469472" y="152.727136" style="fill: #dc143c; stroke: #dc143c"/>
     <use xlink:href="#mf4fb39c39c" x="259.764713" y="157.291664" style="fill: #dc143c; stroke: #dc143c"/>
     <use xlink:href="#mf4fb39c39c" x="268.757914" y="166.420721" style="fill: #dc143c; stroke: #dc143c"/>
     <use xlink:href="#mf4fb39c39c" x="278.650434" y="175.549777" style="fill: #dc143c; stroke: #dc143c"/>
     <use xlink:href="#mf4fb39c39c" x="286.744315" y="182.39657" style="fill: #dc143c; stroke: #dc143c"/>
     <use xlink:href="#mf4fb39c39c" x="296.636836" y="189.243362" style="fill: #dc143c; stroke: #dc143c"/>
     <use xlink:href="#mf4fb39c39c" x="305.630036" y="196.090155" style="fill: #dc143c; stroke: #dc143c"/>
     <use xlink:href="#mf4fb39c39c" x="319.119838" y="202.936947" style="fill: #dc143c; stroke: #dc143c"/>
     <use xlink:href="#mf4fb39c39c" x="331.710318" y="209.78374" style="fill: #dc143c; stroke: #dc143c"/>
     <use xlink:href="#mf4fb39c39c" x="341.602839" y="214.348268" style="fill: #dc143c; stroke: #dc143c"/>
     <use xlink:href="#mf4fb39c39c" x="355.09264" y="218.912796" style="fill: #dc143c; stroke: #dc143c"/>
     <use xlink:href="#mf4fb39c39c" x="371.280402" y="221.19506" style="fill: #dc143c; stroke: #dc143c"/>
     <use xlink:href="#mf4fb39c39c" x="385.669523" y="223.477325" style="fill: #dc143c; stroke: #dc143c"/>
    </g>
   </g>
   <g id="line2d_35">
    <path d="M 61.014977 225.982723 
L 69.339453 224.992888 
L 77.663928 223.789118 
L 85.988404 222.331136 
L 94.312879 220.574097 
L 102.637355 218.469663 
L 110.96183 215.96811 
L 119.286306 213.021854 
L 127.610781 209.590786 
L 135.935257 205.649738 
L 144.259733 201.198098 
L 152.584208 196.271086 
L 160.908684 190.951377 
L 169.233159 185.378709 
L 177.557635 179.75418 
L 185.88211 174.335474 
L 194.206586 169.420135 
L 202.531061 165.316346 
L 210.855537 162.304552 
L 219.180012 160.597179 
L 227.504488 160.306031 
L 235.828963 161.425902 
L 244.153439 163.83865 
L 252.477914 167.335921 
L 260.80239 171.653694 
L 269.126865 176.509655 
L 277.451341 181.635551 
L 285.775816 186.799856 
L 294.100292 191.819601 
L 302.424767 196.562887 
L 310.749243 200.944876 
L 319.073719 204.920152 
L 327.398194 208.47384 
L 335.72267 211.613039 
L 344.047145 214.359442 
L 352.371621 216.743451 
L 360.696096 218.79978 
L 369.020572 220.564359 
L 377.345047 222.072275 
L 385.669523 223.356512 
" clip-path="url(#p015797f49e)" style="fill: none; stroke: #228b22; stroke-width: 2; stroke-linecap: square"/>
   </g>
   <g id="line2d_36">
    <defs>
     <path id="m248e6904da" d="M 0 3 
C 0.795609 3 1.55874 2.683901 2.12132 2.12132 
C 2.683901 1.55874 3 0.795609 3 0 
C 3 -0.795609 2.683901 -1.55874 2.12132 -2.12132 
C 1.55874 -2.683901 0.795609 -3 0 -3 
C -0.795609 -3 -1.55874 -2.683901 -2.12132 -2.12132 
C -2.683901 -1.55874 -3 -0.795609 -3 0 
C -3 0.795609 -2.683901 1.55874 -2.12132 2.12132 
C -1.55874 2.683901 -0.795609 3 0 3 
z
" style="stroke: #228b22"/>
    </defs>
    <g clip-path="url(#p015797f49e)">
     <use xlink:href="#m248e6904da" x="61.014977" y="223.477325" style="fill: #228b22; stroke: #228b22"/>
     <use xlink:href="#m248e6904da" x="73.605458" y="218.912796" style="fill: #228b22; stroke: #228b22"/>
     <use xlink:href="#m248e6904da" x="82.598659" y="216.630532" style="fill: #228b22; stroke: #228b22"/>
     <use xlink:href="#m248e6904da" x="97.8871" y="212.066004" style="fill: #228b22; stroke: #228b22"/>
     <use xlink:href="#m248e6904da" x="109.578261" y="207.501475" style="fill: #228b22; stroke: #228b22"/>
     <use xlink:href="#m248e6904da" x="120.370102" y="205.219211" style="fill: #228b22; stroke: #228b22"/>
     <use xlink:href="#m248e6904da" x="125.766022" y="205.219211" style="fill: #228b22; stroke: #228b22"/>
     <use xlink:href="#m248e6904da" x="133.859903" y="200.654683" style="fill: #228b22; stroke: #228b22"/>
     <use xlink:href="#m248e6904da" x="142.853104" y="198.372419" style="fill: #228b22; stroke: #228b22"/>
     <use xlink:href="#m248e6904da" x="151.846304" y="196.090155" style="fill: #228b22; stroke: #228b22"/>
     <use xlink:href="#m248e6904da" x="159.940185" y="191.525626" style="fill: #228b22; stroke: #228b22"/>
     <use xlink:href="#m248e6904da" x="167.134746" y="189.243362" style="fill: #228b22; stroke: #228b22"/>
     <use xlink:href="#m248e6904da" x="171.631346" y="186.961098" style="fill: #228b22; stroke: #228b22"/>
     <use xlink:href="#m248e6904da" x="177.926586" y="186.961098" style="fill: #228b22; stroke: #228b22"/>
     <use xlink:href="#m248e6904da" x="187.819107" y="177.832042" style="fill: #228b22; stroke: #228b22"/>
     <use xlink:href="#m248e6904da" x="194.114348" y="173.267513" style="fill: #228b22; stroke: #228b22"/>
     <use xlink:href="#m248e6904da" x="205.805509" y="168.702985" style="fill: #228b22; stroke: #228b22"/>
     <use xlink:href="#m248e6904da" x="216.597349" y="161.856192" style="fill: #228b22; stroke: #228b22"/>
     <use xlink:href="#m248e6904da" x="225.59055" y="159.573928" style="fill: #228b22; stroke: #228b22"/>
     <use xlink:href="#m248e6904da" x="230.986471" y="161.856192" style="fill: #228b22; stroke: #228b22"/>
     <use xlink:href="#m248e6904da" x="238.181031" y="159.573928" style="fill: #228b22; stroke: #228b22"/>
     <use xlink:href="#m248e6904da" x="245.375592" y="164.138457" style="fill: #228b22; stroke: #228b22"/>
     <use xlink:href="#m248e6904da" x="251.670832" y="164.138457" style="fill: #228b22; stroke: #228b22"/>
     <use xlink:href="#m248e6904da" x="272.355194" y="177.832042" style="fill: #228b22; stroke: #228b22"/>
     <use xlink:href="#m248e6904da" x="288.542955" y="186.961098" style="fill: #228b22; stroke: #228b22"/>
     <use xlink:href="#m248e6904da" x="300.234116" y="193.807891" style="fill: #228b22; stroke: #228b22"/>
     <use xlink:href="#m248e6904da" x="311.925277" y="200.654683" style="fill: #228b22; stroke: #228b22"/>
     <use xlink:href="#m248e6904da" x="319.119838" y="205.219211" style="fill: #228b22; stroke: #228b22"/>
     <use xlink:href="#m248e6904da" x="331.710318" y="209.78374" style="fill: #228b22; stroke: #228b22"/>
     <use xlink:href="#m248e6904da" x="359.589241" y="221.19506" style="fill: #228b22; stroke: #228b22"/>
     <use xlink:href="#m248e6904da" x="372.179722" y="225.759589" style="fill: #228b22; stroke: #228b22"/>
     <use xlink:href="#m248e6904da" x="385.669523" y="228.041853" style="fill: #228b22; stroke: #228b22"/>
    </g>
   </g>
   <g id="line2d_37">
    <path d="M 61.014977 243.271764 
L 69.339453 246.068493 
L 77.663928 249.330209 
L 85.988404 253.038975 
L 94.312879 257.107963 
L 102.637355 261.353252 
L 110.96183 265.478395 
L 119.286306 269.092471 
L 127.610781 271.777737 
L 135.935257 273.197729 
L 144.259733 273.201075 
L 152.584208 271.864368 
L 160.908684 269.451166 
L 169.233159 266.31687 
L 177.557635 262.812742 
L 185.88211 259.225023 
L 194.206586 255.754363 
L 202.531061 252.522437 
L 210.855537 249.590124 
L 219.180012 246.976867 
L 227.504488 244.676571 
L 235.828963 242.668995 
L 244.153439 240.927224 
L 252.477914 239.422236 
L 260.80239 238.12552 
L 269.126865 237.010442 
L 277.451341 236.052858 
L 285.775816 235.231294 
L 294.100292 234.526887 
L 302.424767 233.923201 
L 310.749243 233.405995 
L 319.073719 232.962975 
L 327.398194 232.583558 
L 335.72267 232.258645 
L 344.047145 231.980426 
L 352.371621 231.742204 
L 360.696096 231.538234 
L 369.020572 231.363596 
L 377.345047 231.214074 
L 385.669523 231.086058 
" clip-path="url(#p015797f49e)" style="fill: none; stroke: #ba55d3; stroke-width: 2; stroke-linecap: square"/>
   </g>
   <g id="line2d_38">
    <defs>
     <path id="m1212b4a5ce" d="M 0 3 
C 0.795609 3 1.55874 2.683901 2.12132 2.12132 
C 2.683901 1.55874 3 0.795609 3 0 
C 3 -0.795609 2.683901 -1.55874 2.12132 -2.12132 
C 1.55874 -2.683901 0.795609 -3 0 -3 
C -0.795609 -3 -1.55874 -2.683901 -2.12132 -2.12132 
C -2.683901 -1.55874 -3 -0.795609 -3 0 
C -3 0.795609 -2.683901 1.55874 -2.12132 2.12132 
C -1.55874 2.683901 -0.795609 3 0 3 
z
" style="stroke: #ba55d3"/>
    </defs>
    <g clip-path="url(#p015797f49e)">
     <use xlink:href="#m1212b4a5ce" x="61.014977" y="246.299966" style="fill: #ba55d3; stroke: #ba55d3"/>
     <use xlink:href="#m1212b4a5ce" x="87.994579" y="253.146758" style="fill: #ba55d3; stroke: #ba55d3"/>
     <use xlink:href="#m1212b4a5ce" x="104.182341" y="273.687136" style="fill: #ba55d3; stroke: #ba55d3"/>
     <use xlink:href="#m1212b4a5ce" x="114.974182" y="271.404872" style="fill: #ba55d3; stroke: #ba55d3"/>
     <use xlink:href="#m1212b4a5ce" x="123.967382" y="273.687136" style="fill: #ba55d3; stroke: #ba55d3"/>
     <use xlink:href="#m1212b4a5ce" x="130.262623" y="264.558079" style="fill: #ba55d3; stroke: #ba55d3"/>
     <use xlink:href="#m1212b4a5ce" x="136.557863" y="266.840343" style="fill: #ba55d3; stroke: #ba55d3"/>
     <use xlink:href="#m1212b4a5ce" x="143.752424" y="275.9694" style="fill: #ba55d3; stroke: #ba55d3"/>
     <use xlink:href="#m1212b4a5ce" x="152.745624" y="262.275815" style="fill: #ba55d3; stroke: #ba55d3"/>
     <use xlink:href="#m1212b4a5ce" x="159.040865" y="275.9694" style="fill: #ba55d3; stroke: #ba55d3"/>
     <use xlink:href="#m1212b4a5ce" x="165.336105" y="273.687136" style="fill: #ba55d3; stroke: #ba55d3"/>
     <use xlink:href="#m1212b4a5ce" x="171.631346" y="246.299966" style="fill: #ba55d3; stroke: #ba55d3"/>
     <use xlink:href="#m1212b4a5ce" x="177.926586" y="255.429023" style="fill: #ba55d3; stroke: #ba55d3"/>
     <use xlink:href="#m1212b4a5ce" x="184.221827" y="266.840343" style="fill: #ba55d3; stroke: #ba55d3"/>
     <use xlink:href="#m1212b4a5ce" x="191.416387" y="271.404872" style="fill: #ba55d3; stroke: #ba55d3"/>
     <use xlink:href="#m1212b4a5ce" x="198.610948" y="255.429023" style="fill: #ba55d3; stroke: #ba55d3"/>
     <use xlink:href="#m1212b4a5ce" x="204.906189" y="246.299966" style="fill: #ba55d3; stroke: #ba55d3"/>
     <use xlink:href="#m1212b4a5ce" x="211.201429" y="257.711287" style="fill: #ba55d3; stroke: #ba55d3"/>
     <use xlink:href="#m1212b4a5ce" x="218.39599" y="257.711287" style="fill: #ba55d3; stroke: #ba55d3"/>
     <use xlink:href="#m1212b4a5ce" x="224.69123" y="250.864494" style="fill: #ba55d3; stroke: #ba55d3"/>
     <use xlink:href="#m1212b4a5ce" x="231.885791" y="241.735438" style="fill: #ba55d3; stroke: #ba55d3"/>
     <use xlink:href="#m1212b4a5ce" x="245.375592" y="237.170909" style="fill: #ba55d3; stroke: #ba55d3"/>
     <use xlink:href="#m1212b4a5ce" x="251.670832" y="241.735438" style="fill: #ba55d3; stroke: #ba55d3"/>
     <use xlink:href="#m1212b4a5ce" x="259.764713" y="234.888645" style="fill: #ba55d3; stroke: #ba55d3"/>
     <use xlink:href="#m1212b4a5ce" x="266.059953" y="234.888645" style="fill: #ba55d3; stroke: #ba55d3"/>
     <use xlink:href="#m1212b4a5ce" x="272.355194" y="232.606381" style="fill: #ba55d3; stroke: #ba55d3"/>
     <use xlink:href="#m1212b4a5ce" x="288.542955" y="232.606381" style="fill: #ba55d3; stroke: #ba55d3"/>
     <use xlink:href="#m1212b4a5ce" x="313.723917" y="232.606381" style="fill: #ba55d3; stroke: #ba55d3"/>
     <use xlink:href="#m1212b4a5ce" x="326.314398" y="230.324117" style="fill: #ba55d3; stroke: #ba55d3"/>
     <use xlink:href="#m1212b4a5ce" x="346.09944" y="230.324117" style="fill: #ba55d3; stroke: #ba55d3"/>
     <use xlink:href="#m1212b4a5ce" x="361.387881" y="230.324117" style="fill: #ba55d3; stroke: #ba55d3"/>
     <use xlink:href="#m1212b4a5ce" x="380.273602" y="230.324117" style="fill: #ba55d3; stroke: #ba55d3"/>
     <use xlink:href="#m1212b4a5ce" x="385.669523" y="230.324117" style="fill: #ba55d3; stroke: #ba55d3"/>
    </g>
   </g>
   <g id="patch_3">
    <path d="M 44.78225 288.0654 
L 44.78225 21.9534 
" style="fill: none; stroke: #bcbcbc; stroke-width: 0.8; stroke-linejoin: miter; stroke-linecap: square"/>
   </g>
   <g id="patch_4">
    <path d="M 401.90225 288.0654 
L 401.90225 21.9534 
" style="fill: none; stroke: #bcbcbc; stroke-width: 0.8; stroke-linejoin: miter; stroke-linecap: square"/>
   </g>
   <g id="patch_5">
    <path d="M 44.78225 288.0654 
L 401.90225 288.0654 
" style="fill: none; stroke: #bcbcbc; stroke-width: 0.8; stroke-linejoin: miter; stroke-linecap: square"/>
   </g>
   <g id="patch_6">
    <path d="M 44.78225 21.9534 
L 401.90225 21.9534 
" style="fill: none; stroke: #bcbcbc; stroke-width: 0.8; stroke-linejoin: miter; stroke-linecap: square"/>
   </g>
   <g id="text_18">
    <!-- Filtered and Original Spectra -->
    <g transform="translate(140.95625 15.9534) scale(0.1152 -0.1152)">
     <defs>
      <path id="DejaVuSans-46" d="M 628 4666 
L 3309 4666 
L 3309 4134 
L 1259 4134 
L 1259 2759 
L 3109 2759 
L 3109 2228 
L 1259 2228 
L 1259 0 
L 628 0 
L 628 4666 
z
" transform="scale(0.015625)"/>
      <path id="DejaVuSans-69" d="M 603 3500 
L 1178 3500 
L 1178 0 
L 603 0 
L 603 3500 
z
M 603 4863 
L 1178 4863 
L 1178 4134 
L 603 4134 
L 603 4863 
z
" transform="scale(0.015625)"/>
      <path id="DejaVuSans-6c" d="M 603 4863 
L 1178 4863 
L 1178 0 
L 603 0 
L 603 4863 
z
" transform="scale(0.015625)"/>
      <path id="DejaVuSans-74" d="M 1172 4494 
L 1172 3500 
L 2356 3500 
L 2356 3053 
L 1172 3053 
L 1172 1153 
Q 1172 725 1289 603 
Q 1406 481 1766 481 
L 2356 481 
L 2356 0 
L 1766 0 
Q 1100 0 847 248 
Q 594 497 594 1153 
L 594 3053 
L 172 3053 
L 172 3500 
L 594 3500 
L 594 4494 
L 1172 4494 
z
" transform="scale(0.015625)"/>
      <path id="DejaVuSans-65" d="M 3597 1894 
L 3597 1613 
L 953 1613 
Q 991 1019 1311 708 
Q 1631 397 2203 397 
Q 2534 397 2845 478 
Q 3156 559 3463 722 
L 3463 178 
Q 3153 47 2828 -22 
Q 2503 -91 2169 -91 
Q 1331 -91 842 396 
Q 353 884 353 1716 
Q 353 2575 817 3079 
Q 1281 3584 2069 3584 
Q 2775 3584 3186 3129 
Q 3597 2675 3597 1894 
z
M 3022 2063 
Q 3016 2534 2758 2815 
Q 2500 3097 2075 3097 
Q 1594 3097 1305 2825 
Q 1016 2553 972 2059 
L 3022 2063 
z
" transform="scale(0.015625)"/>
      <path id="DejaVuSans-72" d="M 2631 2963 
Q 2534 3019 2420 3045 
Q 2306 3072 2169 3072 
Q 1681 3072 1420 2755 
Q 1159 2438 1159 1844 
L 1159 0 
L 581 0 
L 581 3500 
L 1159 3500 
L 1159 2956 
Q 1341 3275 1631 3429 
Q 1922 3584 2338 3584 
Q 2397 3584 2469 3576 
Q 2541 3569 2628 3553 
L 2631 2963 
z
" transform="scale(0.015625)"/>
      <path id="DejaVuSans-64" d="M 2906 2969 
L 2906 4863 
L 3481 4863 
L 3481 0 
L 2906 0 
L 2906 525 
Q 2725 213 2448 61 
Q 2172 -91 1784 -91 
Q 1150 -91 751 415 
Q 353 922 353 1747 
Q 353 2572 751 3078 
Q 1150 3584 1784 3584 
Q 2172 3584 2448 3432 
Q 2725 3281 2906 2969 
z
M 947 1747 
Q 947 1113 1208 752 
Q 1469 391 1925 391 
Q 2381 391 2643 752 
Q 2906 1113 2906 1747 
Q 2906 2381 2643 2742 
Q 2381 3103 1925 3103 
Q 1469 3103 1208 2742 
Q 947 2381 947 1747 
z
" transform="scale(0.015625)"/>
      <path id="DejaVuSans-20" transform="scale(0.015625)"/>
      <path id="DejaVuSans-61" d="M 2194 1759 
Q 1497 1759 1228 1600 
Q 959 1441 959 1056 
Q 959 750 1161 570 
Q 1363 391 1709 391 
Q 2188 391 2477 730 
Q 2766 1069 2766 1631 
L 2766 1759 
L 2194 1759 
z
M 3341 1997 
L 3341 0 
L 2766 0 
L 2766 531 
Q 2569 213 2275 61 
Q 1981 -91 1556 -91 
Q 1019 -91 701 211 
Q 384 513 384 1019 
Q 384 1609 779 1909 
Q 1175 2209 1959 2209 
L 2766 2209 
L 2766 2266 
Q 2766 2663 2505 2880 
Q 2244 3097 1772 3097 
Q 1472 3097 1187 3025 
Q 903 2953 641 2809 
L 641 3341 
Q 956 3463 1253 3523 
Q 1550 3584 1831 3584 
Q 2591 3584 2966 3190 
Q 3341 2797 3341 1997 
z
" transform="scale(0.015625)"/>
      <path id="DejaVuSans-6e" d="M 3513 2113 
L 3513 0 
L 2938 0 
L 2938 2094 
Q 2938 2591 2744 2837 
Q 2550 3084 2163 3084 
Q 1697 3084 1428 2787 
Q 1159 2491 1159 1978 
L 1159 0 
L 581 0 
L 581 3500 
L 1159 3500 
L 1159 2956 
Q 1366 3272 1645 3428 
Q 1925 3584 2291 3584 
Q 2894 3584 3203 3211 
Q 3513 2838 3513 2113 
z
" transform="scale(0.015625)"/>
      <path id="DejaVuSans-4f" d="M 2522 4238 
Q 1834 4238 1429 3725 
Q 1025 3213 1025 2328 
Q 1025 1447 1429 934 
Q 1834 422 2522 422 
Q 3209 422 3611 934 
Q 4013 1447 4013 2328 
Q 4013 3213 3611 3725 
Q 3209 4238 2522 4238 
z
M 2522 4750 
Q 3503 4750 4090 4092 
Q 4678 3434 4678 2328 
Q 4678 1225 4090 567 
Q 3503 -91 2522 -91 
Q 1538 -91 948 565 
Q 359 1222 359 2328 
Q 359 3434 948 4092 
Q 1538 4750 2522 4750 
z
" transform="scale(0.015625)"/>
      <path id="DejaVuSans-67" d="M 2906 1791 
Q 2906 2416 2648 2759 
Q 2391 3103 1925 3103 
Q 1463 3103 1205 2759 
Q 947 2416 947 1791 
Q 947 1169 1205 825 
Q 1463 481 1925 481 
Q 2391 481 2648 825 
Q 2906 1169 2906 1791 
z
M 3481 434 
Q 3481 -459 3084 -895 
Q 2688 -1331 1869 -1331 
Q 1566 -1331 1297 -1286 
Q 1028 -1241 775 -1147 
L 775 -588 
Q 1028 -725 1275 -790 
Q 1522 -856 1778 -856 
Q 2344 -856 2625 -561 
Q 2906 -266 2906 331 
L 2906 616 
Q 2728 306 2450 153 
Q 2172 0 1784 0 
Q 1141 0 747 490 
Q 353 981 353 1791 
Q 353 2603 747 3093 
Q 1141 3584 1784 3584 
Q 2172 3584 2450 3431 
Q 2728 3278 2906 2969 
L 2906 3500 
L 3481 3500 
L 3481 434 
z
" transform="scale(0.015625)"/>
      <path id="DejaVuSans-53" d="M 3425 4513 
L 3425 3897 
Q 3066 4069 2747 4153 
Q 2428 4238 2131 4238 
Q 1616 4238 1336 4038 
Q 1056 3838 1056 3469 
Q 1056 3159 1242 3001 
Q 1428 2844 1947 2747 
L 2328 2669 
Q 3034 2534 3370 2195 
Q 3706 1856 3706 1288 
Q 3706 609 3251 259 
Q 2797 -91 1919 -91 
Q 1588 -91 1214 -16 
Q 841 59 441 206 
L 441 856 
Q 825 641 1194 531 
Q 1563 422 1919 422 
Q 2459 422 2753 634 
Q 3047 847 3047 1241 
Q 3047 1584 2836 1778 
Q 2625 1972 2144 2069 
L 1759 2144 
Q 1053 2284 737 2584 
Q 422 2884 422 3419 
Q 422 4038 858 4394 
Q 1294 4750 2059 4750 
Q 2388 4750 2728 4690 
Q 3069 4631 3425 4513 
z
" transform="scale(0.015625)"/>
      <path id="DejaVuSans-70" d="M 1159 525 
L 1159 -1331 
L 581 -1331 
L 581 3500 
L 1159 3500 
L 1159 2969 
Q 1341 3281 1617 3432 
Q 1894 3584 2278 3584 
Q 2916 3584 3314 3078 
Q 3713 2572 3713 1747 
Q 3713 922 3314 415 
Q 2916 -91 2278 -91 
Q 1894 -91 1617 61 
Q 1341 213 1159 525 
z
M 3116 1747 
Q 3116 2381 2855 2742 
Q 2594 3103 2138 3103 
Q 1681 3103 1420 2742 
Q 1159 2381 1159 1747 
Q 1159 1113 1420 752 
Q 1681 391 2138 391 
Q 2594 391 2855 752 
Q 3116 1113 3116 1747 
z
" transform="scale(0.015625)"/>
      <path id="DejaVuSans-63" d="M 3122 3366 
L 3122 2828 
Q 2878 2963 2633 3030 
Q 2388 3097 2138 3097 
Q 1578 3097 1268 2742 
Q 959 2388 959 1747 
Q 959 1106 1268 751 
Q 1578 397 2138 397 
Q 2388 397 2633 464 
Q 2878 531 3122 666 
L 3122 134 
Q 2881 22 2623 -34 
Q 2366 -91 2075 -91 
Q 1284 -91 818 406 
Q 353 903 353 1747 
Q 353 2603 823 3093 
Q 1294 3584 2113 3584 
Q 2378 3584 2631 3529 
Q 2884 3475 3122 3366 
z
" transform="scale(0.015625)"/>
     </defs>
     <use xlink:href="#DejaVuSans-46"/>
     <use xlink:href="#DejaVuSans-69" x="50.269531"/>
     <use xlink:href="#DejaVuSans-6c" x="78.052734"/>
     <use xlink:href="#DejaVuSans-74" x="105.835938"/>
     <use xlink:href="#DejaVuSans-65" x="145.044922"/>
     <use xlink:href="#DejaVuSans-72" x="206.568359"/>
     <use xlink:href="#DejaVuSans-65" x="245.431641"/>
     <use xlink:href="#DejaVuSans-64" x="306.955078"/>
     <use xlink:href="#DejaVuSans-20" x="370.431641"/>
     <use xlink:href="#DejaVuSans-61" x="402.21875"/>
     <use xlink:href="#DejaVuSans-6e" x="463.498047"/>
     <use xlink:href="#DejaVuSans-64" x="526.876953"/>
     <use xlink:href="#DejaVuSans-20" x="590.353516"/>
     <use xlink:href="#DejaVuSans-4f" x="622.140625"/>
     <use xlink:href="#DejaVuSans-72" x="700.851562"/>
     <use xlink:href="#DejaVuSans-69" x="741.964844"/>
     <use xlink:href="#DejaVuSans-67" x="769.748047"/>
     <use xlink:href="#DejaVuSans-69" x="833.224609"/>
     <use xlink:href="#DejaVuSans-6e" x="861.007812"/>
     <use xlink:href="#DejaVuSans-61" x="924.386719"/>
     <use xlink:href="#DejaVuSans-6c" x="985.666016"/>
     <use xlink:href="#DejaVuSans-20" x="1013.449219"/>
     <use xlink:href="#DejaVuSans-53" x="1045.236328"/>
     <use xlink:href="#DejaVuSans-70" x="1108.712891"/>
     <use xlink:href="#DejaVuSans-65" x="1172.189453"/>
     <use xlink:href="#DejaVuSans-63" x="1233.712891"/>
     <use xlink:href="#DejaVuSans-74" x="1288.693359"/>
     <use xlink:href="#DejaVuSans-72" x="1327.902344"/>
     <use xlink:href="#DejaVuSans-61" x="1369.015625"/>
    </g>
   </g>
   <g id="legend_1">
    <g id="patch_7">
     <path d="M 276.32475 122.2934 
L 396.30225 122.2934 
Q 397.90225 122.2934 397.90225 120.6934 
L 397.90225 27.5534 
Q 397.90225 25.9534 396.30225 25.9534 
L 276.32475 25.9534 
Q 274.72475 25.9534 274.72475 27.5534 
L 274.72475 120.6934 
Q 274.72475 122.2934 276.32475 122.2934 
z
" style="fill: #eeeeee; opacity: 0.8; stroke: #cccccc; stroke-width: 0.5; stroke-linejoin: miter"/>
    </g>
    <g id="line2d_39">
     <path d="M 277.92475 32.43215 
L 285.92475 32.43215 
L 293.92475 32.43215 
" style="fill: none; stroke: #4169e1; stroke-width: 2; stroke-linecap: square"/>
    </g>
    <g id="text_19">
     <!-- Filtered u spectra -->
     <g transform="translate(300.32475 35.23215) scale(0.08 -0.08)">
      <defs>
       <path id="DejaVuSans-75" d="M 544 1381 
L 544 3500 
L 1119 3500 
L 1119 1403 
Q 1119 906 1312 657 
Q 1506 409 1894 409 
Q 2359 409 2629 706 
Q 2900 1003 2900 1516 
L 2900 3500 
L 3475 3500 
L 3475 0 
L 2900 0 
L 2900 538 
Q 2691 219 2414 64 
Q 2138 -91 1772 -91 
Q 1169 -91 856 284 
Q 544 659 544 1381 
z
M 1991 3584 
L 1991 3584 
z
" transform="scale(0.015625)"/>
       <path id="DejaVuSans-73" d="M 2834 3397 
L 2834 2853 
Q 2591 2978 2328 3040 
Q 2066 3103 1784 3103 
Q 1356 3103 1142 2972 
Q 928 2841 928 2578 
Q 928 2378 1081 2264 
Q 1234 2150 1697 2047 
L 1894 2003 
Q 2506 1872 2764 1633 
Q 3022 1394 3022 966 
Q 3022 478 2636 193 
Q 2250 -91 1575 -91 
Q 1294 -91 989 -36 
Q 684 19 347 128 
L 347 722 
Q 666 556 975 473 
Q 1284 391 1588 391 
Q 1994 391 2212 530 
Q 2431 669 2431 922 
Q 2431 1156 2273 1281 
Q 2116 1406 1581 1522 
L 1381 1569 
Q 847 1681 609 1914 
Q 372 2147 372 2553 
Q 372 3047 722 3315 
Q 1072 3584 1716 3584 
Q 2034 3584 2315 3537 
Q 2597 3491 2834 3397 
z
" transform="scale(0.015625)"/>
      </defs>
      <use xlink:href="#DejaVuSans-46"/>
      <use xlink:href="#DejaVuSans-69" x="50.269531"/>
      <use xlink:href="#DejaVuSans-6c" x="78.052734"/>
      <use xlink:href="#DejaVuSans-74" x="105.835938"/>
      <use xlink:href="#DejaVuSans-65" x="145.044922"/>
      <use xlink:href="#DejaVuSans-72" x="206.568359"/>
      <use xlink:href="#DejaVuSans-65" x="245.431641"/>
      <use xlink:href="#DejaVuSans-64" x="306.955078"/>
      <use xlink:href="#DejaVuSans-20" x="370.431641"/>
      <use xlink:href="#DejaVuSans-75" x="402.21875"/>
      <use xlink:href="#DejaVuSans-20" x="465.597656"/>
      <use xlink:href="#DejaVuSans-73" x="497.384766"/>
      <use xlink:href="#DejaVuSans-70" x="549.484375"/>
      <use xlink:href="#DejaVuSans-65" x="612.960938"/>
      <use xlink:href="#DejaVuSans-63" x="674.484375"/>
      <use xlink:href="#DejaVuSans-74" x="729.464844"/>
      <use xlink:href="#DejaVuSans-72" x="768.673828"/>
      <use xlink:href="#DejaVuSans-61" x="809.787109"/>
     </g>
    </g>
    <g id="line2d_40">
     <g>
      <use xlink:href="#m95b73e99d0" x="285.92475" y="44.17465" style="fill: #4169e1; stroke: #4169e1"/>
     </g>
    </g>
    <g id="text_20">
     <!-- Observed u spectra -->
     <g transform="translate(300.32475 46.97465) scale(0.08 -0.08)">
      <defs>
       <path id="DejaVuSans-62" d="M 3116 1747 
Q 3116 2381 2855 2742 
Q 2594 3103 2138 3103 
Q 1681 3103 1420 2742 
Q 1159 2381 1159 1747 
Q 1159 1113 1420 752 
Q 1681 391 2138 391 
Q 2594 391 2855 752 
Q 3116 1113 3116 1747 
z
M 1159 2969 
Q 1341 3281 1617 3432 
Q 1894 3584 2278 3584 
Q 2916 3584 3314 3078 
Q 3713 2572 3713 1747 
Q 3713 922 3314 415 
Q 2916 -91 2278 -91 
Q 1894 -91 1617 61 
Q 1341 213 1159 525 
L 1159 0 
L 581 0 
L 581 4863 
L 1159 4863 
L 1159 2969 
z
" transform="scale(0.015625)"/>
       <path id="DejaVuSans-76" d="M 191 3500 
L 800 3500 
L 1894 563 
L 2988 3500 
L 3597 3500 
L 2284 0 
L 1503 0 
L 191 3500 
z
" transform="scale(0.015625)"/>
      </defs>
      <use xlink:href="#DejaVuSans-4f"/>
      <use xlink:href="#DejaVuSans-62" x="78.710938"/>
      <use xlink:href="#DejaVuSans-73" x="142.1875"/>
      <use xlink:href="#DejaVuSans-65" x="194.287109"/>
      <use xlink:href="#DejaVuSans-72" x="255.810547"/>
      <use xlink:href="#DejaVuSans-76" x="296.923828"/>
      <use xlink:href="#DejaVuSans-65" x="356.103516"/>
      <use xlink:href="#DejaVuSans-64" x="417.626953"/>
      <use xlink:href="#DejaVuSans-20" x="481.103516"/>
      <use xlink:href="#DejaVuSans-75" x="512.890625"/>
      <use xlink:href="#DejaVuSans-20" x="576.269531"/>
      <use xlink:href="#DejaVuSans-73" x="608.056641"/>
      <use xlink:href="#DejaVuSans-70" x="660.15625"/>
      <use xlink:href="#DejaVuSans-65" x="723.632812"/>
      <use xlink:href="#DejaVuSans-63" x="785.15625"/>
      <use xlink:href="#DejaVuSans-74" x="840.136719"/>
      <use xlink:href="#DejaVuSans-72" x="879.345703"/>
      <use xlink:href="#DejaVuSans-61" x="920.458984"/>
     </g>
    </g>
    <g id="line2d_41">
     <path d="M 277.92475 55.91715 
L 285.92475 55.91715 
L 293.92475 55.91715 
" style="fill: none; stroke: #dc143c; stroke-width: 2; stroke-linecap: square"/>
    </g>
    <g id="text_21">
     <!-- Filtered v spectra -->
     <g transform="translate(300.32475 58.71715) scale(0.08 -0.08)">
      <use xlink:href="#DejaVuSans-46"/>
      <use xlink:href="#DejaVuSans-69" x="50.269531"/>
      <use xlink:href="#DejaVuSans-6c" x="78.052734"/>
      <use xlink:href="#DejaVuSans-74" x="105.835938"/>
      <use xlink:href="#DejaVuSans-65" x="145.044922"/>
      <use xlink:href="#DejaVuSans-72" x="206.568359"/>
      <use xlink:href="#DejaVuSans-65" x="245.431641"/>
      <use xlink:href="#DejaVuSans-64" x="306.955078"/>
      <use xlink:href="#DejaVuSans-20" x="370.431641"/>
      <use xlink:href="#DejaVuSans-76" x="402.21875"/>
      <use xlink:href="#DejaVuSans-20" x="461.398438"/>
      <use xlink:href="#DejaVuSans-73" x="493.185547"/>
      <use xlink:href="#DejaVuSans-70" x="545.285156"/>
      <use xlink:href="#DejaVuSans-65" x="608.761719"/>
      <use xlink:href="#DejaVuSans-63" x="670.285156"/>
      <use xlink:href="#DejaVuSans-74" x="725.265625"/>
      <use xlink:href="#DejaVuSans-72" x="764.474609"/>
      <use xlink:href="#DejaVuSans-61" x="805.587891"/>
     </g>
    </g>
    <g id="line2d_42">
     <g>
      <use xlink:href="#mf4fb39c39c" x="285.92475" y="67.65965" style="fill: #dc143c; stroke: #dc143c"/>
     </g>
    </g>
    <g id="text_22">
     <!-- Observed v spectra -->
     <g transform="translate(300.32475 70.45965) scale(0.08 -0.08)">
      <use xlink:href="#DejaVuSans-4f"/>
      <use xlink:href="#DejaVuSans-62" x="78.710938"/>
      <use xlink:href="#DejaVuSans-73" x="142.1875"/>
      <use xlink:href="#DejaVuSans-65" x="194.287109"/>
      <use xlink:href="#DejaVuSans-72" x="255.810547"/>
      <use xlink:href="#DejaVuSans-76" x="296.923828"/>
      <use xlink:href="#DejaVuSans-65" x="356.103516"/>
      <use xlink:href="#DejaVuSans-64" x="417.626953"/>
      <use xlink:href="#DejaVuSans-20" x="481.103516"/>
      <use xlink:href="#DejaVuSans-76" x="512.890625"/>
      <use xlink:href="#DejaVuSans-20" x="572.070312"/>
      <use xlink:href="#DejaVuSans-73" x="603.857422"/>
      <use xlink:href="#DejaVuSans-70" x="655.957031"/>
      <use xlink:href="#DejaVuSans-65" x="719.433594"/>
      <use xlink:href="#DejaVuSans-63" x="780.957031"/>
      <use xlink:href="#DejaVuSans-74" x="835.9375"/>
      <use xlink:href="#DejaVuSans-72" x="875.146484"/>
      <use xlink:href="#DejaVuSans-61" x="916.259766"/>
     </g>
    </g>
    <g id="line2d_43">
     <path d="M 277.92475 79.40215 
L 285.92475 79.40215 
L 293.92475 79.40215 
" style="fill: none; stroke: #228b22; stroke-width: 2; stroke-linecap: square"/>
    </g>
    <g id="text_23">
     <!-- Filtered w spectra -->
     <g transform="translate(300.32475 82.20215) scale(0.08 -0.08)">
      <defs>
       <path id="DejaVuSans-77" d="M 269 3500 
L 844 3500 
L 1563 769 
L 2278 3500 
L 2956 3500 
L 3675 769 
L 4391 3500 
L 4966 3500 
L 4050 0 
L 3372 0 
L 2619 2869 
L 1863 0 
L 1184 0 
L 269 3500 
z
" transform="scale(0.015625)"/>
      </defs>
      <use xlink:href="#DejaVuSans-46"/>
      <use xlink:href="#DejaVuSans-69" x="50.269531"/>
      <use xlink:href="#DejaVuSans-6c" x="78.052734"/>
      <use xlink:href="#DejaVuSans-74" x="105.835938"/>
      <use xlink:href="#DejaVuSans-65" x="145.044922"/>
      <use xlink:href="#DejaVuSans-72" x="206.568359"/>
      <use xlink:href="#DejaVuSans-65" x="245.431641"/>
      <use xlink:href="#DejaVuSans-64" x="306.955078"/>
      <use xlink:href="#DejaVuSans-20" x="370.431641"/>
      <use xlink:href="#DejaVuSans-77" x="402.21875"/>
      <use xlink:href="#DejaVuSans-20" x="484.005859"/>
      <use xlink:href="#DejaVuSans-73" x="515.792969"/>
      <use xlink:href="#DejaVuSans-70" x="567.892578"/>
      <use xlink:href="#DejaVuSans-65" x="631.369141"/>
      <use xlink:href="#DejaVuSans-63" x="692.892578"/>
      <use xlink:href="#DejaVuSans-74" x="747.873047"/>
      <use xlink:href="#DejaVuSans-72" x="787.082031"/>
      <use xlink:href="#DejaVuSans-61" x="828.195312"/>
     </g>
    </g>
    <g id="line2d_44">
     <g>
      <use xlink:href="#m248e6904da" x="285.92475" y="91.14465" style="fill: #228b22; stroke: #228b22"/>
     </g>
    </g>
    <g id="text_24">
     <!-- Observed w spectra -->
     <g transform="translate(300.32475 93.94465) scale(0.08 -0.08)">
      <use xlink:href="#DejaVuSans-4f"/>
      <use xlink:href="#DejaVuSans-62" x="78.710938"/>
      <use xlink:href="#DejaVuSans-73" x="142.1875"/>
      <use xlink:href="#DejaVuSans-65" x="194.287109"/>
      <use xlink:href="#DejaVuSans-72" x="255.810547"/>
      <use xlink:href="#DejaVuSans-76" x="296.923828"/>
      <use xlink:href="#DejaVuSans-65" x="356.103516"/>
      <use xlink:href="#DejaVuSans-64" x="417.626953"/>
      <use xlink:href="#DejaVuSans-20" x="481.103516"/>
      <use xlink:href="#DejaVuSans-77" x="512.890625"/>
      <use xlink:href="#DejaVuSans-20" x="594.677734"/>
      <use xlink:href="#DejaVuSans-73" x="626.464844"/>
      <use xlink:href="#DejaVuSans-70" x="678.564453"/>
      <use xlink:href="#DejaVuSans-65" x="742.041016"/>
      <use xlink:href="#DejaVuSans-63" x="803.564453"/>
      <use xlink:href="#DejaVuSans-74" x="858.544922"/>
      <use xlink:href="#DejaVuSans-72" x="897.753906"/>
      <use xlink:href="#DejaVuSans-61" x="938.867188"/>
     </g>
    </g>
    <g id="line2d_45">
     <path d="M 277.92475 102.88715 
L 285.92475 102.88715 
L 293.92475 102.88715 
" style="fill: none; stroke: #ba55d3; stroke-width: 2; stroke-linecap: square"/>
    </g>
    <g id="text_25">
     <!-- Filtered uw cospectra -->
     <g transform="translate(300.32475 105.68715) scale(0.08 -0.08)">
      <defs>
       <path id="DejaVuSans-6f" d="M 1959 3097 
Q 1497 3097 1228 2736 
Q 959 2375 959 1747 
Q 959 1119 1226 758 
Q 1494 397 1959 397 
Q 2419 397 2687 759 
Q 2956 1122 2956 1747 
Q 2956 2369 2687 2733 
Q 2419 3097 1959 3097 
z
M 1959 3584 
Q 2709 3584 3137 3096 
Q 3566 2609 3566 1747 
Q 3566 888 3137 398 
Q 2709 -91 1959 -91 
Q 1206 -91 779 398 
Q 353 888 353 1747 
Q 353 2609 779 3096 
Q 1206 3584 1959 3584 
z
" transform="scale(0.015625)"/>
      </defs>
      <use xlink:href="#DejaVuSans-46"/>
      <use xlink:href="#DejaVuSans-69" x="50.269531"/>
      <use xlink:href="#DejaVuSans-6c" x="78.052734"/>
      <use xlink:href="#DejaVuSans-74" x="105.835938"/>
      <use xlink:href="#DejaVuSans-65" x="145.044922"/>
      <use xlink:href="#DejaVuSans-72" x="206.568359"/>
      <use xlink:href="#DejaVuSans-65" x="245.431641"/>
      <use xlink:href="#DejaVuSans-64" x="306.955078"/>
      <use xlink:href="#DejaVuSans-20" x="370.431641"/>
      <use xlink:href="#DejaVuSans-75" x="402.21875"/>
      <use xlink:href="#DejaVuSans-77" x="465.597656"/>
      <use xlink:href="#DejaVuSans-20" x="547.384766"/>
      <use xlink:href="#DejaVuSans-63" x="579.171875"/>
      <use xlink:href="#DejaVuSans-6f" x="634.152344"/>
      <use xlink:href="#DejaVuSans-73" x="695.333984"/>
      <use xlink:href="#DejaVuSans-70" x="747.433594"/>
      <use xlink:href="#DejaVuSans-65" x="810.910156"/>
      <use xlink:href="#DejaVuSans-63" x="872.433594"/>
      <use xlink:href="#DejaVuSans-74" x="927.414062"/>
      <use xlink:href="#DejaVuSans-72" x="966.623047"/>
      <use xlink:href="#DejaVuSans-61" x="1007.736328"/>
     </g>
    </g>
    <g id="line2d_46">
     <g>
      <use xlink:href="#m1212b4a5ce" x="285.92475" y="114.62965" style="fill: #ba55d3; stroke: #ba55d3"/>
     </g>
    </g>
    <g id="text_26">
     <!-- Observed uw cospectra -->
     <g transform="translate(300.32475 117.42965) scale(0.08 -0.08)">
      <use xlink:href="#DejaVuSans-4f"/>
      <use xlink:href="#DejaVuSans-62" x="78.710938"/>
      <use xlink:href="#DejaVuSans-73" x="142.1875"/>
      <use xlink:href="#DejaVuSans-65" x="194.287109"/>
      <use xlink:href="#DejaVuSans-72" x="255.810547"/>
      <use xlink:href="#DejaVuSans-76" x="296.923828"/>
      <use xlink:href="#DejaVuSans-65" x="356.103516"/>
      <use xlink:href="#DejaVuSans-64" x="417.626953"/>
      <use xlink:href="#DejaVuSans-20" x="481.103516"/>
      <use xlink:href="#DejaVuSans-75" x="512.890625"/>
      <use xlink:href="#DejaVuSans-77" x="576.269531"/>
      <use xlink:href="#DejaVuSans-20" x="658.056641"/>
      <use xlink:href="#DejaVuSans-63" x="689.84375"/>
      <use xlink:href="#DejaVuSans-6f" x="744.824219"/>
      <use xlink:href="#DejaVuSans-73" x="806.005859"/>
      <use xlink:href="#DejaVuSans-70" x="858.105469"/>
      <use xlink:href="#DejaVuSans-65" x="921.582031"/>
      <use xlink:href="#DejaVuSans-63" x="983.105469"/>
      <use xlink:href="#DejaVuSans-74" x="1038.085938"/>
      <use xlink:href="#DejaVuSans-72" x="1077.294922"/>
      <use xlink:href="#DejaVuSans-61" x="1118.408203"/>
     </g>
    </g>
   </g>
  </g>
 </g>
 <defs>
  <clipPath id="p015797f49e">
   <rect x="44.78225" y="21.9534" width="357.12" height="266.112"/>
  </clipPath>
 </defs>
</svg>
