<?xml version="1.0" encoding="utf-8" standalone="no"?>
<!DOCTYPE svg PUBLIC "-//W3C//DTD SVG 1.1//EN"
  "http://www.w3.org/Graphics/SVG/1.1/DTD/svg11.dtd">
<svg xmlns:xlink="http://www.w3.org/1999/xlink" width="860.483485pt" height="292.65715pt" viewBox="0 0 860.483485 292.65715" xmlns="http://www.w3.org/2000/svg" version="1.1">
 <metadata>
  <rdf:RDF xmlns:dc="http://purl.org/dc/elements/1.1/" xmlns:cc="http://creativecommons.org/ns#" xmlns:rdf="http://www.w3.org/1999/02/22-rdf-syntax-ns#">
   <cc:Work>
    <dc:type rdf:resource="http://purl.org/dc/dcmitype/StillImage"/>
    <dc:date>2023-12-02T00:32:23.944878</dc:date>
    <dc:format>image/svg+xml</dc:format>
    <dc:creator>
     <cc:Agent>
      <dc:title>Matplotlib v3.7.1, https://matplotlib.org/</dc:title>
     </cc:Agent>
    </dc:creator>
   </cc:Work>
  </rdf:RDF>
 </metadata>
 <defs>
  <style type="text/css">*{stroke-linejoin: round; stroke-linecap: butt}</style>
 </defs>
 <g id="figure_1">
  <g id="patch_1">
   <path d="M 0 292.65715 
L 860.483485 292.65715 
L 860.483485 0 
L 0 0 
z
" style="fill: #ffffff"/>
  </g>
  <g id="axes_1">
   <g id="patch_2">
    <path d="M 29.5 267.3334 
L 211.594735 267.3334 
L 211.594735 21.9534 
L 29.5 21.9534 
z
" style="fill: #eeeeee"/>
   </g>
   <g id="matplotlib.axis_1">
    <g id="xtick_1">
     <g id="line2d_1">
      <path d="M 37.777033 267.3334 
L 37.777033 21.9534 
" clip-path="url(#p943621626d)" style="fill: none; stroke-dasharray: 1.85,0.8; stroke-dashoffset: 0; stroke: #b2b2b2; stroke-width: 0.5"/>
     </g>
     <g id="line2d_2">
      <defs>
       <path id="m7c79d53369" d="M 0 0 
L 0 -3.5 
" style="stroke: #000000; stroke-width: 0.8"/>
      </defs>
      <g>
       <use xlink:href="#m7c79d53369" x="37.777033" y="267.3334" style="stroke: #000000; stroke-width: 0.8"/>
      </g>
     </g>
     <g id="text_1">
      <!-- 0 -->
      <g transform="translate(35.232033 276.91215) scale(0.08 -0.08)">
       <defs>
        <path id="DejaVuSans-30" d="M 2034 4250 
Q 1547 4250 1301 3770 
Q 1056 3291 1056 2328 
Q 1056 1369 1301 889 
Q 1547 409 2034 409 
Q 2525 409 2770 889 
Q 3016 1369 3016 2328 
Q 3016 3291 2770 3770 
Q 2525 4250 2034 4250 
z
M 2034 4750 
Q 2819 4750 3233 4129 
Q 3647 3509 3647 2328 
Q 3647 1150 3233 529 
Q 2819 -91 2034 -91 
Q 1250 -91 836 529 
Q 422 1150 422 2328 
Q 422 3509 836 4129 
Q 1250 4750 2034 4750 
z
" transform="scale(0.015625)"/>
       </defs>
       <use xlink:href="#DejaVuSans-30"/>
      </g>
     </g>
    </g>
    <g id="xtick_2">
     <g id="line2d_3">
      <path d="M 82.517755 267.3334 
L 82.517755 21.9534 
" clip-path="url(#p943621626d)" style="fill: none; stroke-dasharray: 1.85,0.8; stroke-dashoffset: 0; stroke: #b2b2b2; stroke-width: 0.5"/>
     </g>
     <g id="line2d_4">
      <g>
       <use xlink:href="#m7c79d53369" x="82.517755" y="267.3334" style="stroke: #000000; stroke-width: 0.8"/>
      </g>
     </g>
     <g id="text_2">
      <!-- 50 -->
      <g transform="translate(77.427755 276.91215) scale(0.08 -0.08)">
       <defs>
        <path id="DejaVuSans-35" d="M 691 4666 
L 3169 4666 
L 3169 4134 
L 1269 4134 
L 1269 2991 
Q 1406 3038 1543 3061 
Q 1681 3084 1819 3084 
Q 2600 3084 3056 2656 
Q 3513 2228 3513 1497 
Q 3513 744 3044 326 
Q 2575 -91 1722 -91 
Q 1428 -91 1123 -41 
Q 819 9 494 109 
L 494 744 
Q 775 591 1075 516 
Q 1375 441 1709 441 
Q 2250 441 2565 725 
Q 2881 1009 2881 1497 
Q 2881 1984 2565 2268 
Q 2250 2553 1709 2553 
Q 1456 2553 1204 2497 
Q 953 2441 691 2322 
L 691 4666 
z
" transform="scale(0.015625)"/>
       </defs>
       <use xlink:href="#DejaVuSans-35"/>
       <use xlink:href="#DejaVuSans-30" x="63.623047"/>
      </g>
     </g>
    </g>
    <g id="xtick_3">
     <g id="line2d_5">
      <path d="M 127.258476 267.3334 
L 127.258476 21.9534 
" clip-path="url(#p943621626d)" style="fill: none; stroke-dasharray: 1.85,0.8; stroke-dashoffset: 0; stroke: #b2b2b2; stroke-width: 0.5"/>
     </g>
     <g id="line2d_6">
      <g>
       <use xlink:href="#m7c79d53369" x="127.258476" y="267.3334" style="stroke: #000000; stroke-width: 0.8"/>
      </g>
     </g>
     <g id="text_3">
      <!-- 100 -->
      <g transform="translate(119.623476 276.91215) scale(0.08 -0.08)">
       <defs>
        <path id="DejaVuSans-31" d="M 794 531 
L 1825 531 
L 1825 4091 
L 703 3866 
L 703 4441 
L 1819 4666 
L 2450 4666 
L 2450 531 
L 3481 531 
L 3481 0 
L 794 0 
L 794 531 
z
" transform="scale(0.015625)"/>
       </defs>
       <use xlink:href="#DejaVuSans-31"/>
       <use xlink:href="#DejaVuSans-30" x="63.623047"/>
       <use xlink:href="#DejaVuSans-30" x="127.246094"/>
      </g>
     </g>
    </g>
    <g id="xtick_4">
     <g id="line2d_7">
      <path d="M 171.999197 267.3334 
L 171.999197 21.9534 
" clip-path="url(#p943621626d)" style="fill: none; stroke-dasharray: 1.85,0.8; stroke-dashoffset: 0; stroke: #b2b2b2; stroke-width: 0.5"/>
     </g>
     <g id="line2d_8">
      <g>
       <use xlink:href="#m7c79d53369" x="171.999197" y="267.3334" style="stroke: #000000; stroke-width: 0.8"/>
      </g>
     </g>
     <g id="text_4">
      <!-- 150 -->
      <g transform="translate(164.364197 276.91215) scale(0.08 -0.08)">
       <use xlink:href="#DejaVuSans-31"/>
       <use xlink:href="#DejaVuSans-35" x="63.623047"/>
       <use xlink:href="#DejaVuSans-30" x="127.246094"/>
      </g>
     </g>
    </g>
   </g>
   <g id="matplotlib.axis_2">
    <g id="ytick_1">
     <g id="line2d_9">
      <path d="M 29.5 189.841404 
L 211.594735 189.841404 
" clip-path="url(#p943621626d)" style="fill: none; stroke-dasharray: 1.85,0.8; stroke-dashoffset: 0; stroke: #b2b2b2; stroke-width: 0.5"/>
     </g>
     <g id="line2d_10">
      <defs>
       <path id="m8dcd71402d" d="M 0 0 
L 3.5 0 
" style="stroke: #000000; stroke-width: 0.8"/>
      </defs>
      <g>
       <use xlink:href="#m8dcd71402d" x="29.5" y="189.841404" style="stroke: #000000; stroke-width: 0.8"/>
      </g>
     </g>
     <g id="text_5">
      <!-- $\mathdefault{10^{-2}}$ -->
      <g transform="translate(7.2 192.880779) scale(0.08 -0.08)">
       <defs>
        <path id="DejaVuSans-2212" d="M 678 2272 
L 4684 2272 
L 4684 1741 
L 678 1741 
L 678 2272 
z
" transform="scale(0.015625)"/>
        <path id="DejaVuSans-32" d="M 1228 531 
L 3431 531 
L 3431 0 
L 469 0 
L 469 531 
Q 828 903 1448 1529 
Q 2069 2156 2228 2338 
Q 2531 2678 2651 2914 
Q 2772 3150 2772 3378 
Q 2772 3750 2511 3984 
Q 2250 4219 1831 4219 
Q 1534 4219 1204 4116 
Q 875 4013 500 3803 
L 500 4441 
Q 881 4594 1212 4672 
Q 1544 4750 1819 4750 
Q 2544 4750 2975 4387 
Q 3406 4025 3406 3419 
Q 3406 3131 3298 2873 
Q 3191 2616 2906 2266 
Q 2828 2175 2409 1742 
Q 1991 1309 1228 531 
z
" transform="scale(0.015625)"/>
       </defs>
       <use xlink:href="#DejaVuSans-31" transform="translate(0 0.765625)"/>
       <use xlink:href="#DejaVuSans-30" transform="translate(63.623047 0.765625)"/>
       <use xlink:href="#DejaVuSans-2212" transform="translate(128.203125 39.046875) scale(0.7)"/>
       <use xlink:href="#DejaVuSans-32" transform="translate(186.855469 39.046875) scale(0.7)"/>
      </g>
     </g>
    </g>
    <g id="ytick_2">
     <g id="line2d_11">
      <path d="M 29.5 80.17989 
L 211.594735 80.17989 
" clip-path="url(#p943621626d)" style="fill: none; stroke-dasharray: 1.85,0.8; stroke-dashoffset: 0; stroke: #b2b2b2; stroke-width: 0.5"/>
     </g>
     <g id="line2d_12">
      <g>
       <use xlink:href="#m8dcd71402d" x="29.5" y="80.17989" style="stroke: #000000; stroke-width: 0.8"/>
      </g>
     </g>
     <g id="text_6">
      <!-- $\mathdefault{10^{-1}}$ -->
      <g transform="translate(7.2 83.219265) scale(0.08 -0.08)">
       <use xlink:href="#DejaVuSans-31" transform="translate(0 0.684375)"/>
       <use xlink:href="#DejaVuSans-30" transform="translate(63.623047 0.684375)"/>
       <use xlink:href="#DejaVuSans-2212" transform="translate(128.203125 38.965625) scale(0.7)"/>
       <use xlink:href="#DejaVuSans-31" transform="translate(186.855469 38.965625) scale(0.7)"/>
      </g>
     </g>
    </g>
    <g id="ytick_3">
     <g id="line2d_13">
      <defs>
       <path id="mf91530aae6" d="M 0 0 
L 2 0 
" style="stroke: #000000; stroke-width: 0.6"/>
      </defs>
      <g>
       <use xlink:href="#mf91530aae6" x="29.5" y="266.491513" style="stroke: #000000; stroke-width: 0.6"/>
      </g>
     </g>
    </g>
    <g id="ytick_4">
     <g id="line2d_14">
      <g>
       <use xlink:href="#mf91530aae6" x="29.5" y="247.181079" style="stroke: #000000; stroke-width: 0.6"/>
      </g>
     </g>
    </g>
    <g id="ytick_5">
     <g id="line2d_15">
      <g>
       <use xlink:href="#mf91530aae6" x="29.5" y="233.480108" style="stroke: #000000; stroke-width: 0.6"/>
      </g>
     </g>
    </g>
    <g id="ytick_6">
     <g id="line2d_16">
      <g>
       <use xlink:href="#mf91530aae6" x="29.5" y="222.852809" style="stroke: #000000; stroke-width: 0.6"/>
      </g>
     </g>
    </g>
    <g id="ytick_7">
     <g id="line2d_17">
      <g>
       <use xlink:href="#mf91530aae6" x="29.5" y="214.169674" style="stroke: #000000; stroke-width: 0.6"/>
      </g>
     </g>
    </g>
    <g id="ytick_8">
     <g id="line2d_18">
      <g>
       <use xlink:href="#mf91530aae6" x="29.5" y="206.828188" style="stroke: #000000; stroke-width: 0.6"/>
      </g>
     </g>
    </g>
    <g id="ytick_9">
     <g id="line2d_19">
      <g>
       <use xlink:href="#mf91530aae6" x="29.5" y="200.468703" style="stroke: #000000; stroke-width: 0.6"/>
      </g>
     </g>
    </g>
    <g id="ytick_10">
     <g id="line2d_20">
      <g>
       <use xlink:href="#mf91530aae6" x="29.5" y="194.85924" style="stroke: #000000; stroke-width: 0.6"/>
      </g>
     </g>
    </g>
    <g id="ytick_11">
     <g id="line2d_21">
      <g>
       <use xlink:href="#mf91530aae6" x="29.5" y="156.829999" style="stroke: #000000; stroke-width: 0.6"/>
      </g>
     </g>
    </g>
    <g id="ytick_12">
     <g id="line2d_22">
      <g>
       <use xlink:href="#mf91530aae6" x="29.5" y="137.519565" style="stroke: #000000; stroke-width: 0.6"/>
      </g>
     </g>
    </g>
    <g id="ytick_13">
     <g id="line2d_23">
      <g>
       <use xlink:href="#mf91530aae6" x="29.5" y="123.818594" style="stroke: #000000; stroke-width: 0.6"/>
      </g>
     </g>
    </g>
    <g id="ytick_14">
     <g id="line2d_24">
      <g>
       <use xlink:href="#mf91530aae6" x="29.5" y="113.191295" style="stroke: #000000; stroke-width: 0.6"/>
      </g>
     </g>
    </g>
    <g id="ytick_15">
     <g id="line2d_25">
      <g>
       <use xlink:href="#mf91530aae6" x="29.5" y="104.50816" style="stroke: #000000; stroke-width: 0.6"/>
      </g>
     </g>
    </g>
    <g id="ytick_16">
     <g id="line2d_26">
      <g>
       <use xlink:href="#mf91530aae6" x="29.5" y="97.166674" style="stroke: #000000; stroke-width: 0.6"/>
      </g>
     </g>
    </g>
    <g id="ytick_17">
     <g id="line2d_27">
      <g>
       <use xlink:href="#mf91530aae6" x="29.5" y="90.807189" style="stroke: #000000; stroke-width: 0.6"/>
      </g>
     </g>
    </g>
    <g id="ytick_18">
     <g id="line2d_28">
      <g>
       <use xlink:href="#mf91530aae6" x="29.5" y="85.197726" style="stroke: #000000; stroke-width: 0.6"/>
      </g>
     </g>
    </g>
    <g id="ytick_19">
     <g id="line2d_29">
      <g>
       <use xlink:href="#mf91530aae6" x="29.5" y="47.168485" style="stroke: #000000; stroke-width: 0.6"/>
      </g>
     </g>
    </g>
    <g id="ytick_20">
     <g id="line2d_30">
      <g>
       <use xlink:href="#mf91530aae6" x="29.5" y="27.858051" style="stroke: #000000; stroke-width: 0.6"/>
      </g>
     </g>
    </g>
   </g>
   <g id="line2d_31">
    <path d="M 37.777033 109.666029 
L 38.671848 112.445936 
L 39.566662 126.71329 
L 40.461477 126.785739 
L 41.356291 127.414202 
L 42.251106 131.359139 
L 43.14592 131.774001 
L 44.040734 133.53484 
L 44.935549 134.944599 
L 45.830363 143.485033 
L 47.619992 144.048105 
L 50.304435 144.546649 
L 51.19925 145.135635 
L 62.831837 145.229174 
L 64.621466 145.328217 
L 66.411095 145.852489 
L 67.305909 147.635866 
L 68.200724 33.107036 
L 69.095538 139.980753 
L 69.990353 149.555963 
L 70.885167 149.555963 
L 71.779981 149.718167 
L 72.674796 150.371241 
L 73.56961 152.623947 
L 74.464425 153.246208 
L 75.359239 153.521464 
L 76.254054 154.8964 
L 77.148868 154.935688 
L 78.043682 155.099919 
L 78.938497 155.447805 
L 79.833311 157.332281 
L 80.728126 157.647959 
L 81.62294 158.859638 
L 82.517755 159.384886 
L 83.412569 159.658692 
L 84.307383 161.061996 
L 86.991827 161.136174 
L 88.781456 161.264713 
L 90.571084 161.822852 
L 91.465899 162.753676 
L 92.360713 162.881616 
L 93.255528 164.027058 
L 94.150342 114.809513 
L 95.045156 163.472255 
L 95.939971 164.96874 
L 96.834785 165.119473 
L 98.624414 166.168365 
L 99.519229 169.624917 
L 100.414043 170.116773 
L 101.308857 171.984811 
L 102.203672 172.614096 
L 103.098486 174.710922 
L 103.993301 174.710922 
L 104.888115 175.002222 
L 105.78293 175.41726 
L 106.677744 176.94089 
L 107.572558 177.242877 
L 108.467373 179.184248 
L 109.362187 179.425624 
L 110.257002 181.19968 
L 111.151816 181.847055 
L 112.046631 182.703892 
L 112.941445 186.02118 
L 113.836259 186.841557 
L 114.731074 189.914869 
L 115.625888 190.74527 
L 116.520703 192.254813 
L 117.415517 192.741615 
L 118.310331 195.988022 
L 119.205146 197.152071 
L 120.09996 197.892177 
L 120.994775 199.431344 
L 121.889589 200.239314 
L 122.784404 203.219954 
L 123.679218 204.57097 
L 124.574032 204.967186 
L 125.468847 206.34395 
L 126.363661 206.787252 
L 128.15329 210.408568 
L 129.048105 211.083911 
L 129.942919 213.886507 
L 131.732548 214.831771 
L 132.627362 215.918469 
L 134.416991 216.548728 
L 135.311806 217.840434 
L 136.20662 218.438186 
L 137.101434 218.438186 
L 137.996249 218.658145 
L 138.891063 219.498048 
L 139.785878 219.72004 
L 140.680692 220.932921 
L 141.575506 221.099766 
L 142.470321 221.810692 
L 144.25995 222.235903 
L 145.154764 222.879178 
L 146.049579 223.006627 
L 146.944393 223.526788 
L 147.839207 223.711447 
L 148.734022 224.675663 
L 149.628836 225.25071 
L 150.523651 227.554318 
L 152.31328 228.1343 
L 153.208094 229.148269 
L 154.102908 229.366075 
L 154.997723 231.066857 
L 155.892537 231.519317 
L 156.787352 231.763096 
L 157.682166 233.214829 
L 158.576981 233.597468 
L 159.471795 233.766621 
L 160.366609 235.165307 
L 161.261424 235.670411 
L 162.156238 235.962048 
L 163.051053 237.141163 
L 163.945867 237.456034 
L 164.840681 238.736296 
L 165.735496 239.08745 
L 166.63031 240.475009 
L 167.525125 240.767091 
L 168.419939 241.986426 
L 169.314754 242.315985 
L 170.209568 243.857299 
L 171.104382 243.857299 
L 171.999197 244.024163 
L 172.894011 244.707479 
L 173.788826 244.797861 
L 174.68364 245.387675 
L 175.578455 248.145081 
L 176.473269 248.197255 
L 177.368083 248.426161 
L 178.262898 249.646206 
L 179.157712 249.689055 
L 180.052527 250.033526 
L 181.842156 250.171042 
L 182.73697 250.904144 
L 184.526599 251.078742 
L 185.421413 251.765282 
L 186.316228 251.800759 
L 187.211042 251.953661 
L 188.105856 252.587646 
L 189.000671 252.608722 
L 189.895485 252.764137 
L 191.685114 252.794331 
L 193.474743 252.929005 
L 194.369557 252.978633 
L 195.264372 253.218744 
L 196.159186 253.235535 
L 197.054001 253.378545 
L 197.948815 253.909295 
L 199.738444 253.994722 
L 200.633258 254.342196 
L 201.528073 254.376572 
L 202.422887 254.641126 
L 203.317702 256.179764 
L 203.317702 256.179764 
" clip-path="url(#p943621626d)" style="fill: none; stroke: #348abd; stroke-width: 2; stroke-linecap: square"/>
   </g>
   <g id="patch_3">
    <path d="M 29.5 267.3334 
L 29.5 21.9534 
" style="fill: none; stroke: #bcbcbc; stroke-width: 0.8; stroke-linejoin: miter; stroke-linecap: square"/>
   </g>
   <g id="patch_4">
    <path d="M 211.594735 267.3334 
L 211.594735 21.9534 
" style="fill: none; stroke: #bcbcbc; stroke-width: 0.8; stroke-linejoin: miter; stroke-linecap: square"/>
   </g>
   <g id="patch_5">
    <path d="M 29.5 267.3334 
L 211.594735 267.3334 
" style="fill: none; stroke: #bcbcbc; stroke-width: 0.8; stroke-linejoin: miter; stroke-linecap: square"/>
   </g>
   <g id="patch_6">
    <path d="M 29.5 21.9534 
L 211.594735 21.9534 
" style="fill: none; stroke: #bcbcbc; stroke-width: 0.8; stroke-linejoin: miter; stroke-linecap: square"/>
   </g>
   <g id="text_7">
    <!-- Total Loss -->
    <g transform="translate(92.631168 15.9534) scale(0.1152 -0.1152)">
     <defs>
      <path id="DejaVuSans-54" d="M -19 4666 
L 3928 4666 
L 3928 4134 
L 2272 4134 
L 2272 0 
L 1638 0 
L 1638 4134 
L -19 4134 
L -19 4666 
z
" transform="scale(0.015625)"/>
      <path id="DejaVuSans-6f" d="M 1959 3097 
Q 1497 3097 1228 2736 
Q 959 2375 959 1747 
Q 959 1119 1226 758 
Q 1494 397 1959 397 
Q 2419 397 2687 759 
Q 2956 1122 2956 1747 
Q 2956 2369 2687 2733 
Q 2419 3097 1959 3097 
z
M 1959 3584 
Q 2709 3584 3137 3096 
Q 3566 2609 3566 1747 
Q 3566 888 3137 398 
Q 2709 -91 1959 -91 
Q 1206 -91 779 398 
Q 353 888 353 1747 
Q 353 2609 779 3096 
Q 1206 3584 1959 3584 
z
" transform="scale(0.015625)"/>
      <path id="DejaVuSans-74" d="M 1172 4494 
L 1172 3500 
L 2356 3500 
L 2356 3053 
L 1172 3053 
L 1172 1153 
Q 1172 725 1289 603 
Q 1406 481 1766 481 
L 2356 481 
L 2356 0 
L 1766 0 
Q 1100 0 847 248 
Q 594 497 594 1153 
L 594 3053 
L 172 3053 
L 172 3500 
L 594 3500 
L 594 4494 
L 1172 4494 
z
" transform="scale(0.015625)"/>
      <path id="DejaVuSans-61" d="M 2194 1759 
Q 1497 1759 1228 1600 
Q 959 1441 959 1056 
Q 959 750 1161 570 
Q 1363 391 1709 391 
Q 2188 391 2477 730 
Q 2766 1069 2766 1631 
L 2766 1759 
L 2194 1759 
z
M 3341 1997 
L 3341 0 
L 2766 0 
L 2766 531 
Q 2569 213 2275 61 
Q 1981 -91 1556 -91 
Q 1019 -91 701 211 
Q 384 513 384 1019 
Q 384 1609 779 1909 
Q 1175 2209 1959 2209 
L 2766 2209 
L 2766 2266 
Q 2766 2663 2505 2880 
Q 2244 3097 1772 3097 
Q 1472 3097 1187 3025 
Q 903 2953 641 2809 
L 641 3341 
Q 956 3463 1253 3523 
Q 1550 3584 1831 3584 
Q 2591 3584 2966 3190 
Q 3341 2797 3341 1997 
z
" transform="scale(0.015625)"/>
      <path id="DejaVuSans-6c" d="M 603 4863 
L 1178 4863 
L 1178 0 
L 603 0 
L 603 4863 
z
" transform="scale(0.015625)"/>
      <path id="DejaVuSans-20" transform="scale(0.015625)"/>
      <path id="DejaVuSans-4c" d="M 628 4666 
L 1259 4666 
L 1259 531 
L 3531 531 
L 3531 0 
L 628 0 
L 628 4666 
z
" transform="scale(0.015625)"/>
      <path id="DejaVuSans-73" d="M 2834 3397 
L 2834 2853 
Q 2591 2978 2328 3040 
Q 2066 3103 1784 3103 
Q 1356 3103 1142 2972 
Q 928 2841 928 2578 
Q 928 2378 1081 2264 
Q 1234 2150 1697 2047 
L 1894 2003 
Q 2506 1872 2764 1633 
Q 3022 1394 3022 966 
Q 3022 478 2636 193 
Q 2250 -91 1575 -91 
Q 1294 -91 989 -36 
Q 684 19 347 128 
L 347 722 
Q 666 556 975 473 
Q 1284 391 1588 391 
Q 1994 391 2212 530 
Q 2431 669 2431 922 
Q 2431 1156 2273 1281 
Q 2116 1406 1581 1522 
L 1381 1569 
Q 847 1681 609 1914 
Q 372 2147 372 2553 
Q 372 3047 722 3315 
Q 1072 3584 1716 3584 
Q 2034 3584 2315 3537 
Q 2597 3491 2834 3397 
z
" transform="scale(0.015625)"/>
     </defs>
     <use xlink:href="#DejaVuSans-54"/>
     <use xlink:href="#DejaVuSans-6f" x="44.083984"/>
     <use xlink:href="#DejaVuSans-74" x="105.265625"/>
     <use xlink:href="#DejaVuSans-61" x="144.474609"/>
     <use xlink:href="#DejaVuSans-6c" x="205.753906"/>
     <use xlink:href="#DejaVuSans-20" x="233.537109"/>
     <use xlink:href="#DejaVuSans-4c" x="265.324219"/>
     <use xlink:href="#DejaVuSans-6f" x="319.287109"/>
     <use xlink:href="#DejaVuSans-73" x="380.46875"/>
     <use xlink:href="#DejaVuSans-73" x="432.568359"/>
    </g>
   </g>
  </g>
  <g id="axes_2">
   <g id="patch_7">
    <path d="M 243.39625 267.3334 
L 425.490985 267.3334 
L 425.490985 21.9534 
L 243.39625 21.9534 
z
" style="fill: #eeeeee"/>
   </g>
   <g id="matplotlib.axis_3">
    <g id="xtick_5">
     <g id="line2d_32">
      <path d="M 251.673283 267.3334 
L 251.673283 21.9534 
" clip-path="url(#pd7810b5b61)" style="fill: none; stroke-dasharray: 1.85,0.8; stroke-dashoffset: 0; stroke: #b2b2b2; stroke-width: 0.5"/>
     </g>
     <g id="line2d_33">
      <g>
       <use xlink:href="#m7c79d53369" x="251.673283" y="267.3334" style="stroke: #000000; stroke-width: 0.8"/>
      </g>
     </g>
     <g id="text_8">
      <!-- 0 -->
      <g transform="translate(249.128283 276.91215) scale(0.08 -0.08)">
       <use xlink:href="#DejaVuSans-30"/>
      </g>
     </g>
    </g>
    <g id="xtick_6">
     <g id="line2d_34">
      <path d="M 296.414005 267.3334 
L 296.414005 21.9534 
" clip-path="url(#pd7810b5b61)" style="fill: none; stroke-dasharray: 1.85,0.8; stroke-dashoffset: 0; stroke: #b2b2b2; stroke-width: 0.5"/>
     </g>
     <g id="line2d_35">
      <g>
       <use xlink:href="#m7c79d53369" x="296.414005" y="267.3334" style="stroke: #000000; stroke-width: 0.8"/>
      </g>
     </g>
     <g id="text_9">
      <!-- 50 -->
      <g transform="translate(291.324005 276.91215) scale(0.08 -0.08)">
       <use xlink:href="#DejaVuSans-35"/>
       <use xlink:href="#DejaVuSans-30" x="63.623047"/>
      </g>
     </g>
    </g>
    <g id="xtick_7">
     <g id="line2d_36">
      <path d="M 341.154726 267.3334 
L 341.154726 21.9534 
" clip-path="url(#pd7810b5b61)" style="fill: none; stroke-dasharray: 1.85,0.8; stroke-dashoffset: 0; stroke: #b2b2b2; stroke-width: 0.5"/>
     </g>
     <g id="line2d_37">
      <g>
       <use xlink:href="#m7c79d53369" x="341.154726" y="267.3334" style="stroke: #000000; stroke-width: 0.8"/>
      </g>
     </g>
     <g id="text_10">
      <!-- 100 -->
      <g transform="translate(333.519726 276.91215) scale(0.08 -0.08)">
       <use xlink:href="#DejaVuSans-31"/>
       <use xlink:href="#DejaVuSans-30" x="63.623047"/>
       <use xlink:href="#DejaVuSans-30" x="127.246094"/>
      </g>
     </g>
    </g>
    <g id="xtick_8">
     <g id="line2d_38">
      <path d="M 385.895447 267.3334 
L 385.895447 21.9534 
" clip-path="url(#pd7810b5b61)" style="fill: none; stroke-dasharray: 1.85,0.8; stroke-dashoffset: 0; stroke: #b2b2b2; stroke-width: 0.5"/>
     </g>
     <g id="line2d_39">
      <g>
       <use xlink:href="#m7c79d53369" x="385.895447" y="267.3334" style="stroke: #000000; stroke-width: 0.8"/>
      </g>
     </g>
     <g id="text_11">
      <!-- 150 -->
      <g transform="translate(378.260447 276.91215) scale(0.08 -0.08)">
       <use xlink:href="#DejaVuSans-31"/>
       <use xlink:href="#DejaVuSans-35" x="63.623047"/>
       <use xlink:href="#DejaVuSans-30" x="127.246094"/>
      </g>
     </g>
    </g>
   </g>
   <g id="matplotlib.axis_4">
    <g id="ytick_21">
     <g id="line2d_40">
      <path d="M 243.39625 152.262852 
L 425.490985 152.262852 
" clip-path="url(#pd7810b5b61)" style="fill: none; stroke-dasharray: 1.85,0.8; stroke-dashoffset: 0; stroke: #b2b2b2; stroke-width: 0.5"/>
     </g>
     <g id="line2d_41">
      <g>
       <use xlink:href="#m8dcd71402d" x="243.39625" y="152.262852" style="stroke: #000000; stroke-width: 0.8"/>
      </g>
     </g>
     <g id="text_12">
      <!-- $\mathdefault{10^{-6}}$ -->
      <g transform="translate(221.09625 155.302227) scale(0.08 -0.08)">
       <defs>
        <path id="DejaVuSans-36" d="M 2113 2584 
Q 1688 2584 1439 2293 
Q 1191 2003 1191 1497 
Q 1191 994 1439 701 
Q 1688 409 2113 409 
Q 2538 409 2786 701 
Q 3034 994 3034 1497 
Q 3034 2003 2786 2293 
Q 2538 2584 2113 2584 
z
M 3366 4563 
L 3366 3988 
Q 3128 4100 2886 4159 
Q 2644 4219 2406 4219 
Q 1781 4219 1451 3797 
Q 1122 3375 1075 2522 
Q 1259 2794 1537 2939 
Q 1816 3084 2150 3084 
Q 2853 3084 3261 2657 
Q 3669 2231 3669 1497 
Q 3669 778 3244 343 
Q 2819 -91 2113 -91 
Q 1303 -91 875 529 
Q 447 1150 447 2328 
Q 447 3434 972 4092 
Q 1497 4750 2381 4750 
Q 2619 4750 2861 4703 
Q 3103 4656 3366 4563 
z
" transform="scale(0.015625)"/>
       </defs>
       <use xlink:href="#DejaVuSans-31" transform="translate(0 0.765625)"/>
       <use xlink:href="#DejaVuSans-30" transform="translate(63.623047 0.765625)"/>
       <use xlink:href="#DejaVuSans-2212" transform="translate(128.203125 39.046875) scale(0.7)"/>
       <use xlink:href="#DejaVuSans-36" transform="translate(186.855469 39.046875) scale(0.7)"/>
      </g>
     </g>
    </g>
    <g id="ytick_22">
     <g id="line2d_42">
      <g>
       <use xlink:href="#mf91530aae6" x="243.39625" y="264.003127" style="stroke: #000000; stroke-width: 0.6"/>
      </g>
     </g>
    </g>
    <g id="ytick_23">
     <g id="line2d_43">
      <g>
       <use xlink:href="#mf91530aae6" x="243.39625" y="237.303459" style="stroke: #000000; stroke-width: 0.6"/>
      </g>
     </g>
    </g>
    <g id="ytick_24">
     <g id="line2d_44">
      <g>
       <use xlink:href="#mf91530aae6" x="243.39625" y="216.593588" style="stroke: #000000; stroke-width: 0.6"/>
      </g>
     </g>
    </g>
    <g id="ytick_25">
     <g id="line2d_45">
      <g>
       <use xlink:href="#mf91530aae6" x="243.39625" y="199.672391" style="stroke: #000000; stroke-width: 0.6"/>
      </g>
     </g>
    </g>
    <g id="ytick_26">
     <g id="line2d_46">
      <g>
       <use xlink:href="#mf91530aae6" x="243.39625" y="185.365723" style="stroke: #000000; stroke-width: 0.6"/>
      </g>
     </g>
    </g>
    <g id="ytick_27">
     <g id="line2d_47">
      <g>
       <use xlink:href="#mf91530aae6" x="243.39625" y="172.972723" style="stroke: #000000; stroke-width: 0.6"/>
      </g>
     </g>
    </g>
    <g id="ytick_28">
     <g id="line2d_48">
      <g>
       <use xlink:href="#mf91530aae6" x="243.39625" y="162.041323" style="stroke: #000000; stroke-width: 0.6"/>
      </g>
     </g>
    </g>
    <g id="ytick_29">
     <g id="line2d_49">
      <g>
       <use xlink:href="#mf91530aae6" x="243.39625" y="87.932116" style="stroke: #000000; stroke-width: 0.6"/>
      </g>
     </g>
    </g>
    <g id="ytick_30">
     <g id="line2d_50">
      <g>
       <use xlink:href="#mf91530aae6" x="243.39625" y="50.301048" style="stroke: #000000; stroke-width: 0.6"/>
      </g>
     </g>
    </g>
    <g id="ytick_31">
     <g id="line2d_51">
      <g>
       <use xlink:href="#mf91530aae6" x="243.39625" y="23.60138" style="stroke: #000000; stroke-width: 0.6"/>
      </g>
     </g>
    </g>
   </g>
   <g id="line2d_52">
    <path d="M 251.673283 256.151489 
L 275.833273 256.048961 
L 276.728087 256.010328 
L 278.517716 255.557744 
L 279.412531 252.975788 
L 280.307345 248.865924 
L 281.202159 216.494438 
L 282.096974 33.107036 
L 282.991788 116.006096 
L 283.886603 174.554017 
L 284.781417 174.554017 
L 285.676231 169.340918 
L 286.571046 166.863608 
L 287.46586 155.863798 
L 288.360675 152.917475 
L 289.255489 152.387958 
L 290.150304 147.656394 
L 291.045118 147.265985 
L 292.834747 143.997612 
L 293.729561 133.294912 
L 294.624376 132.271383 
L 295.51919 127.70275 
L 296.414005 124.42085 
L 297.308819 123.631943 
L 298.203633 116.624764 
L 299.098448 117.778908 
L 299.993262 117.191853 
L 302.677706 117.313621 
L 303.57252 117.135527 
L 304.467334 116.440862 
L 305.362149 113.323131 
L 306.256963 112.560079 
L 307.151778 105.775872 
L 308.046592 69.65833 
L 308.941406 90.619974 
L 309.836221 97.47836 
L 310.731035 96.71921 
L 311.62585 89.978783 
L 312.520664 89.445716 
L 313.415479 84.695744 
L 314.310293 83.747465 
L 315.205107 79.521994 
L 316.099922 78.634744 
L 316.994736 74.679606 
L 317.889551 74.679606 
L 319.67918 73.250473 
L 320.573994 70.357663 
L 321.468808 69.729267 
L 322.363623 64.149379 
L 323.258437 63.742067 
L 324.153252 60.107914 
L 325.048066 59.808993 
L 325.942881 59.132919 
L 326.837695 56.107798 
L 327.732509 55.646356 
L 328.627324 53.575596 
L 329.522138 52.975587 
L 330.416953 52.613378 
L 331.311767 52.472404 
L 332.206581 51.470694 
L 333.101396 51.001582 
L 333.99621 50.843759 
L 334.891025 50.466022 
L 335.785839 50.23009 
L 336.680654 49.165983 
L 337.575468 48.710479 
L 338.470282 48.61195 
L 339.365097 48.167502 
L 340.259911 48.05672 
L 342.04954 47.04983 
L 342.944355 46.911356 
L 343.839169 46.285179 
L 347.418427 45.930385 
L 370.683602 45.752276 
L 388.57989 45.38327 
L 389.474705 45.211641 
L 393.053962 45.108041 
L 408.265807 44.804178 
L 417.213952 44.557321 
L 417.213952 44.557321 
" clip-path="url(#pd7810b5b61)" style="fill: none; stroke: #348abd; stroke-width: 2; stroke-linecap: square"/>
   </g>
   <g id="patch_8">
    <path d="M 243.39625 267.3334 
L 243.39625 21.9534 
" style="fill: none; stroke: #bcbcbc; stroke-width: 0.8; stroke-linejoin: miter; stroke-linecap: square"/>
   </g>
   <g id="patch_9">
    <path d="M 425.490985 267.3334 
L 425.490985 21.9534 
" style="fill: none; stroke: #bcbcbc; stroke-width: 0.8; stroke-linejoin: miter; stroke-linecap: square"/>
   </g>
   <g id="patch_10">
    <path d="M 243.39625 267.3334 
L 425.490985 267.3334 
" style="fill: none; stroke: #bcbcbc; stroke-width: 0.8; stroke-linejoin: miter; stroke-linecap: square"/>
   </g>
   <g id="patch_11">
    <path d="M 243.39625 21.9534 
L 425.490985 21.9534 
" style="fill: none; stroke: #bcbcbc; stroke-width: 0.8; stroke-linejoin: miter; stroke-linecap: square"/>
   </g>
   <g id="text_13">
    <!-- Regularization -->
    <g transform="translate(293.165118 15.9534) scale(0.1152 -0.1152)">
     <defs>
      <path id="DejaVuSans-52" d="M 2841 2188 
Q 3044 2119 3236 1894 
Q 3428 1669 3622 1275 
L 4263 0 
L 3584 0 
L 2988 1197 
Q 2756 1666 2539 1819 
Q 2322 1972 1947 1972 
L 1259 1972 
L 1259 0 
L 628 0 
L 628 4666 
L 2053 4666 
Q 2853 4666 3247 4331 
Q 3641 3997 3641 3322 
Q 3641 2881 3436 2590 
Q 3231 2300 2841 2188 
z
M 1259 4147 
L 1259 2491 
L 2053 2491 
Q 2509 2491 2742 2702 
Q 2975 2913 2975 3322 
Q 2975 3731 2742 3939 
Q 2509 4147 2053 4147 
L 1259 4147 
z
" transform="scale(0.015625)"/>
      <path id="DejaVuSans-65" d="M 3597 1894 
L 3597 1613 
L 953 1613 
Q 991 1019 1311 708 
Q 1631 397 2203 397 
Q 2534 397 2845 478 
Q 3156 559 3463 722 
L 3463 178 
Q 3153 47 2828 -22 
Q 2503 -91 2169 -91 
Q 1331 -91 842 396 
Q 353 884 353 1716 
Q 353 2575 817 3079 
Q 1281 3584 2069 3584 
Q 2775 3584 3186 3129 
Q 3597 2675 3597 1894 
z
M 3022 2063 
Q 3016 2534 2758 2815 
Q 2500 3097 2075 3097 
Q 1594 3097 1305 2825 
Q 1016 2553 972 2059 
L 3022 2063 
z
" transform="scale(0.015625)"/>
      <path id="DejaVuSans-67" d="M 2906 1791 
Q 2906 2416 2648 2759 
Q 2391 3103 1925 3103 
Q 1463 3103 1205 2759 
Q 947 2416 947 1791 
Q 947 1169 1205 825 
Q 1463 481 1925 481 
Q 2391 481 2648 825 
Q 2906 1169 2906 1791 
z
M 3481 434 
Q 3481 -459 3084 -895 
Q 2688 -1331 1869 -1331 
Q 1566 -1331 1297 -1286 
Q 1028 -1241 775 -1147 
L 775 -588 
Q 1028 -725 1275 -790 
Q 1522 -856 1778 -856 
Q 2344 -856 2625 -561 
Q 2906 -266 2906 331 
L 2906 616 
Q 2728 306 2450 153 
Q 2172 0 1784 0 
Q 1141 0 747 490 
Q 353 981 353 1791 
Q 353 2603 747 3093 
Q 1141 3584 1784 3584 
Q 2172 3584 2450 3431 
Q 2728 3278 2906 2969 
L 2906 3500 
L 3481 3500 
L 3481 434 
z
" transform="scale(0.015625)"/>
      <path id="DejaVuSans-75" d="M 544 1381 
L 544 3500 
L 1119 3500 
L 1119 1403 
Q 1119 906 1312 657 
Q 1506 409 1894 409 
Q 2359 409 2629 706 
Q 2900 1003 2900 1516 
L 2900 3500 
L 3475 3500 
L 3475 0 
L 2900 0 
L 2900 538 
Q 2691 219 2414 64 
Q 2138 -91 1772 -91 
Q 1169 -91 856 284 
Q 544 659 544 1381 
z
M 1991 3584 
L 1991 3584 
z
" transform="scale(0.015625)"/>
      <path id="DejaVuSans-72" d="M 2631 2963 
Q 2534 3019 2420 3045 
Q 2306 3072 2169 3072 
Q 1681 3072 1420 2755 
Q 1159 2438 1159 1844 
L 1159 0 
L 581 0 
L 581 3500 
L 1159 3500 
L 1159 2956 
Q 1341 3275 1631 3429 
Q 1922 3584 2338 3584 
Q 2397 3584 2469 3576 
Q 2541 3569 2628 3553 
L 2631 2963 
z
" transform="scale(0.015625)"/>
      <path id="DejaVuSans-69" d="M 603 3500 
L 1178 3500 
L 1178 0 
L 603 0 
L 603 3500 
z
M 603 4863 
L 1178 4863 
L 1178 4134 
L 603 4134 
L 603 4863 
z
" transform="scale(0.015625)"/>
      <path id="DejaVuSans-7a" d="M 353 3500 
L 3084 3500 
L 3084 2975 
L 922 459 
L 3084 459 
L 3084 0 
L 275 0 
L 275 525 
L 2438 3041 
L 353 3041 
L 353 3500 
z
" transform="scale(0.015625)"/>
      <path id="DejaVuSans-6e" d="M 3513 2113 
L 3513 0 
L 2938 0 
L 2938 2094 
Q 2938 2591 2744 2837 
Q 2550 3084 2163 3084 
Q 1697 3084 1428 2787 
Q 1159 2491 1159 1978 
L 1159 0 
L 581 0 
L 581 3500 
L 1159 3500 
L 1159 2956 
Q 1366 3272 1645 3428 
Q 1925 3584 2291 3584 
Q 2894 3584 3203 3211 
Q 3513 2838 3513 2113 
z
" transform="scale(0.015625)"/>
     </defs>
     <use xlink:href="#DejaVuSans-52"/>
     <use xlink:href="#DejaVuSans-65" x="64.982422"/>
     <use xlink:href="#DejaVuSans-67" x="126.505859"/>
     <use xlink:href="#DejaVuSans-75" x="189.982422"/>
     <use xlink:href="#DejaVuSans-6c" x="253.361328"/>
     <use xlink:href="#DejaVuSans-61" x="281.144531"/>
     <use xlink:href="#DejaVuSans-72" x="342.423828"/>
     <use xlink:href="#DejaVuSans-69" x="383.537109"/>
     <use xlink:href="#DejaVuSans-7a" x="411.320312"/>
     <use xlink:href="#DejaVuSans-61" x="463.810547"/>
     <use xlink:href="#DejaVuSans-74" x="525.089844"/>
     <use xlink:href="#DejaVuSans-69" x="564.298828"/>
     <use xlink:href="#DejaVuSans-6f" x="592.082031"/>
     <use xlink:href="#DejaVuSans-6e" x="653.263672"/>
    </g>
   </g>
  </g>
  <g id="axes_3">
   <g id="patch_12">
    <path d="M 457.2925 267.3334 
L 639.387235 267.3334 
L 639.387235 21.9534 
L 457.2925 21.9534 
z
" style="fill: #eeeeee"/>
   </g>
   <g id="matplotlib.axis_5">
    <g id="xtick_9">
     <g id="line2d_53">
      <path d="M 465.569533 267.3334 
L 465.569533 21.9534 
" clip-path="url(#p59b6786da7)" style="fill: none; stroke-dasharray: 1.85,0.8; stroke-dashoffset: 0; stroke: #b2b2b2; stroke-width: 0.5"/>
     </g>
     <g id="line2d_54">
      <g>
       <use xlink:href="#m7c79d53369" x="465.569533" y="267.3334" style="stroke: #000000; stroke-width: 0.8"/>
      </g>
     </g>
     <g id="text_14">
      <!-- 0 -->
      <g transform="translate(463.024533 276.91215) scale(0.08 -0.08)">
       <use xlink:href="#DejaVuSans-30"/>
      </g>
     </g>
    </g>
    <g id="xtick_10">
     <g id="line2d_55">
      <path d="M 510.310255 267.3334 
L 510.310255 21.9534 
" clip-path="url(#p59b6786da7)" style="fill: none; stroke-dasharray: 1.85,0.8; stroke-dashoffset: 0; stroke: #b2b2b2; stroke-width: 0.5"/>
     </g>
     <g id="line2d_56">
      <g>
       <use xlink:href="#m7c79d53369" x="510.310255" y="267.3334" style="stroke: #000000; stroke-width: 0.8"/>
      </g>
     </g>
     <g id="text_15">
      <!-- 50 -->
      <g transform="translate(505.220255 276.91215) scale(0.08 -0.08)">
       <use xlink:href="#DejaVuSans-35"/>
       <use xlink:href="#DejaVuSans-30" x="63.623047"/>
      </g>
     </g>
    </g>
    <g id="xtick_11">
     <g id="line2d_57">
      <path d="M 555.050976 267.3334 
L 555.050976 21.9534 
" clip-path="url(#p59b6786da7)" style="fill: none; stroke-dasharray: 1.85,0.8; stroke-dashoffset: 0; stroke: #b2b2b2; stroke-width: 0.5"/>
     </g>
     <g id="line2d_58">
      <g>
       <use xlink:href="#m7c79d53369" x="555.050976" y="267.3334" style="stroke: #000000; stroke-width: 0.8"/>
      </g>
     </g>
     <g id="text_16">
      <!-- 100 -->
      <g transform="translate(547.415976 276.91215) scale(0.08 -0.08)">
       <use xlink:href="#DejaVuSans-31"/>
       <use xlink:href="#DejaVuSans-30" x="63.623047"/>
       <use xlink:href="#DejaVuSans-30" x="127.246094"/>
      </g>
     </g>
    </g>
    <g id="xtick_12">
     <g id="line2d_59">
      <path d="M 599.791697 267.3334 
L 599.791697 21.9534 
" clip-path="url(#p59b6786da7)" style="fill: none; stroke-dasharray: 1.85,0.8; stroke-dashoffset: 0; stroke: #b2b2b2; stroke-width: 0.5"/>
     </g>
     <g id="line2d_60">
      <g>
       <use xlink:href="#m7c79d53369" x="599.791697" y="267.3334" style="stroke: #000000; stroke-width: 0.8"/>
      </g>
     </g>
     <g id="text_17">
      <!-- 150 -->
      <g transform="translate(592.156697 276.91215) scale(0.08 -0.08)">
       <use xlink:href="#DejaVuSans-31"/>
       <use xlink:href="#DejaVuSans-35" x="63.623047"/>
       <use xlink:href="#DejaVuSans-30" x="127.246094"/>
      </g>
     </g>
    </g>
   </g>
   <g id="matplotlib.axis_6">
    <g id="ytick_32">
     <g id="line2d_61">
      <path d="M 457.2925 266.840946 
L 639.387235 266.840946 
" clip-path="url(#p59b6786da7)" style="fill: none; stroke-dasharray: 1.85,0.8; stroke-dashoffset: 0; stroke: #b2b2b2; stroke-width: 0.5"/>
     </g>
     <g id="line2d_62">
      <g>
       <use xlink:href="#m8dcd71402d" x="457.2925" y="266.840946" style="stroke: #000000; stroke-width: 0.8"/>
      </g>
     </g>
     <g id="text_18">
      <!-- $\mathdefault{10^{-9}}$ -->
      <g transform="translate(434.9925 269.880321) scale(0.08 -0.08)">
       <defs>
        <path id="DejaVuSans-39" d="M 703 97 
L 703 672 
Q 941 559 1184 500 
Q 1428 441 1663 441 
Q 2288 441 2617 861 
Q 2947 1281 2994 2138 
Q 2813 1869 2534 1725 
Q 2256 1581 1919 1581 
Q 1219 1581 811 2004 
Q 403 2428 403 3163 
Q 403 3881 828 4315 
Q 1253 4750 1959 4750 
Q 2769 4750 3195 4129 
Q 3622 3509 3622 2328 
Q 3622 1225 3098 567 
Q 2575 -91 1691 -91 
Q 1453 -91 1209 -44 
Q 966 3 703 97 
z
M 1959 2075 
Q 2384 2075 2632 2365 
Q 2881 2656 2881 3163 
Q 2881 3666 2632 3958 
Q 2384 4250 1959 4250 
Q 1534 4250 1286 3958 
Q 1038 3666 1038 3163 
Q 1038 2656 1286 2365 
Q 1534 2075 1959 2075 
z
" transform="scale(0.015625)"/>
       </defs>
       <use xlink:href="#DejaVuSans-31" transform="translate(0 0.765625)"/>
       <use xlink:href="#DejaVuSans-30" transform="translate(63.623047 0.765625)"/>
       <use xlink:href="#DejaVuSans-2212" transform="translate(128.203125 39.046875) scale(0.7)"/>
       <use xlink:href="#DejaVuSans-39" transform="translate(186.855469 39.046875) scale(0.7)"/>
      </g>
     </g>
    </g>
    <g id="ytick_33">
     <g id="line2d_63">
      <path d="M 457.2925 236.075586 
L 639.387235 236.075586 
" clip-path="url(#p59b6786da7)" style="fill: none; stroke-dasharray: 1.85,0.8; stroke-dashoffset: 0; stroke: #b2b2b2; stroke-width: 0.5"/>
     </g>
     <g id="line2d_64">
      <g>
       <use xlink:href="#m8dcd71402d" x="457.2925" y="236.075586" style="stroke: #000000; stroke-width: 0.8"/>
      </g>
     </g>
     <g id="text_19">
      <!-- $\mathdefault{10^{-8}}$ -->
      <g transform="translate(434.9925 239.114961) scale(0.08 -0.08)">
       <defs>
        <path id="DejaVuSans-38" d="M 2034 2216 
Q 1584 2216 1326 1975 
Q 1069 1734 1069 1313 
Q 1069 891 1326 650 
Q 1584 409 2034 409 
Q 2484 409 2743 651 
Q 3003 894 3003 1313 
Q 3003 1734 2745 1975 
Q 2488 2216 2034 2216 
z
M 1403 2484 
Q 997 2584 770 2862 
Q 544 3141 544 3541 
Q 544 4100 942 4425 
Q 1341 4750 2034 4750 
Q 2731 4750 3128 4425 
Q 3525 4100 3525 3541 
Q 3525 3141 3298 2862 
Q 3072 2584 2669 2484 
Q 3125 2378 3379 2068 
Q 3634 1759 3634 1313 
Q 3634 634 3220 271 
Q 2806 -91 2034 -91 
Q 1263 -91 848 271 
Q 434 634 434 1313 
Q 434 1759 690 2068 
Q 947 2378 1403 2484 
z
M 1172 3481 
Q 1172 3119 1398 2916 
Q 1625 2713 2034 2713 
Q 2441 2713 2670 2916 
Q 2900 3119 2900 3481 
Q 2900 3844 2670 4047 
Q 2441 4250 2034 4250 
Q 1625 4250 1398 4047 
Q 1172 3844 1172 3481 
z
" transform="scale(0.015625)"/>
       </defs>
       <use xlink:href="#DejaVuSans-31" transform="translate(0 0.765625)"/>
       <use xlink:href="#DejaVuSans-30" transform="translate(63.623047 0.765625)"/>
       <use xlink:href="#DejaVuSans-2212" transform="translate(128.203125 39.046875) scale(0.7)"/>
       <use xlink:href="#DejaVuSans-38" transform="translate(186.855469 39.046875) scale(0.7)"/>
      </g>
     </g>
    </g>
    <g id="ytick_34">
     <g id="line2d_65">
      <path d="M 457.2925 205.310226 
L 639.387235 205.310226 
" clip-path="url(#p59b6786da7)" style="fill: none; stroke-dasharray: 1.85,0.8; stroke-dashoffset: 0; stroke: #b2b2b2; stroke-width: 0.5"/>
     </g>
     <g id="line2d_66">
      <g>
       <use xlink:href="#m8dcd71402d" x="457.2925" y="205.310226" style="stroke: #000000; stroke-width: 0.8"/>
      </g>
     </g>
     <g id="text_20">
      <!-- $\mathdefault{10^{-7}}$ -->
      <g transform="translate(434.9925 208.349601) scale(0.08 -0.08)">
       <defs>
        <path id="DejaVuSans-37" d="M 525 4666 
L 3525 4666 
L 3525 4397 
L 1831 0 
L 1172 0 
L 2766 4134 
L 525 4134 
L 525 4666 
z
" transform="scale(0.015625)"/>
       </defs>
       <use xlink:href="#DejaVuSans-31" transform="translate(0 0.684375)"/>
       <use xlink:href="#DejaVuSans-30" transform="translate(63.623047 0.684375)"/>
       <use xlink:href="#DejaVuSans-2212" transform="translate(128.203125 38.965625) scale(0.7)"/>
       <use xlink:href="#DejaVuSans-37" transform="translate(186.855469 38.965625) scale(0.7)"/>
      </g>
     </g>
    </g>
    <g id="ytick_35">
     <g id="line2d_67">
      <path d="M 457.2925 174.544865 
L 639.387235 174.544865 
" clip-path="url(#p59b6786da7)" style="fill: none; stroke-dasharray: 1.85,0.8; stroke-dashoffset: 0; stroke: #b2b2b2; stroke-width: 0.5"/>
     </g>
     <g id="line2d_68">
      <g>
       <use xlink:href="#m8dcd71402d" x="457.2925" y="174.544865" style="stroke: #000000; stroke-width: 0.8"/>
      </g>
     </g>
     <g id="text_21">
      <!-- $\mathdefault{10^{-6}}$ -->
      <g transform="translate(434.9925 177.58424) scale(0.08 -0.08)">
       <use xlink:href="#DejaVuSans-31" transform="translate(0 0.765625)"/>
       <use xlink:href="#DejaVuSans-30" transform="translate(63.623047 0.765625)"/>
       <use xlink:href="#DejaVuSans-2212" transform="translate(128.203125 39.046875) scale(0.7)"/>
       <use xlink:href="#DejaVuSans-36" transform="translate(186.855469 39.046875) scale(0.7)"/>
      </g>
     </g>
    </g>
    <g id="ytick_36">
     <g id="line2d_69">
      <path d="M 457.2925 143.779505 
L 639.387235 143.779505 
" clip-path="url(#p59b6786da7)" style="fill: none; stroke-dasharray: 1.85,0.8; stroke-dashoffset: 0; stroke: #b2b2b2; stroke-width: 0.5"/>
     </g>
     <g id="line2d_70">
      <g>
       <use xlink:href="#m8dcd71402d" x="457.2925" y="143.779505" style="stroke: #000000; stroke-width: 0.8"/>
      </g>
     </g>
     <g id="text_22">
      <!-- $\mathdefault{10^{-5}}$ -->
      <g transform="translate(434.9925 146.81888) scale(0.08 -0.08)">
       <use xlink:href="#DejaVuSans-31" transform="translate(0 0.684375)"/>
       <use xlink:href="#DejaVuSans-30" transform="translate(63.623047 0.684375)"/>
       <use xlink:href="#DejaVuSans-2212" transform="translate(128.203125 38.965625) scale(0.7)"/>
       <use xlink:href="#DejaVuSans-35" transform="translate(186.855469 38.965625) scale(0.7)"/>
      </g>
     </g>
    </g>
    <g id="ytick_37">
     <g id="line2d_71">
      <path d="M 457.2925 113.014145 
L 639.387235 113.014145 
" clip-path="url(#p59b6786da7)" style="fill: none; stroke-dasharray: 1.85,0.8; stroke-dashoffset: 0; stroke: #b2b2b2; stroke-width: 0.5"/>
     </g>
     <g id="line2d_72">
      <g>
       <use xlink:href="#m8dcd71402d" x="457.2925" y="113.014145" style="stroke: #000000; stroke-width: 0.8"/>
      </g>
     </g>
     <g id="text_23">
      <!-- $\mathdefault{10^{-4}}$ -->
      <g transform="translate(434.9925 116.05352) scale(0.08 -0.08)">
       <defs>
        <path id="DejaVuSans-34" d="M 2419 4116 
L 825 1625 
L 2419 1625 
L 2419 4116 
z
M 2253 4666 
L 3047 4666 
L 3047 1625 
L 3713 1625 
L 3713 1100 
L 3047 1100 
L 3047 0 
L 2419 0 
L 2419 1100 
L 313 1100 
L 313 1709 
L 2253 4666 
z
" transform="scale(0.015625)"/>
       </defs>
       <use xlink:href="#DejaVuSans-31" transform="translate(0 0.684375)"/>
       <use xlink:href="#DejaVuSans-30" transform="translate(63.623047 0.684375)"/>
       <use xlink:href="#DejaVuSans-2212" transform="translate(128.203125 38.965625) scale(0.7)"/>
       <use xlink:href="#DejaVuSans-34" transform="translate(186.855469 38.965625) scale(0.7)"/>
      </g>
     </g>
    </g>
    <g id="ytick_38">
     <g id="line2d_73">
      <path d="M 457.2925 82.248785 
L 639.387235 82.248785 
" clip-path="url(#p59b6786da7)" style="fill: none; stroke-dasharray: 1.85,0.8; stroke-dashoffset: 0; stroke: #b2b2b2; stroke-width: 0.5"/>
     </g>
     <g id="line2d_74">
      <g>
       <use xlink:href="#m8dcd71402d" x="457.2925" y="82.248785" style="stroke: #000000; stroke-width: 0.8"/>
      </g>
     </g>
     <g id="text_24">
      <!-- $\mathdefault{10^{-3}}$ -->
      <g transform="translate(434.9925 85.28816) scale(0.08 -0.08)">
       <defs>
        <path id="DejaVuSans-33" d="M 2597 2516 
Q 3050 2419 3304 2112 
Q 3559 1806 3559 1356 
Q 3559 666 3084 287 
Q 2609 -91 1734 -91 
Q 1441 -91 1130 -33 
Q 819 25 488 141 
L 488 750 
Q 750 597 1062 519 
Q 1375 441 1716 441 
Q 2309 441 2620 675 
Q 2931 909 2931 1356 
Q 2931 1769 2642 2001 
Q 2353 2234 1838 2234 
L 1294 2234 
L 1294 2753 
L 1863 2753 
Q 2328 2753 2575 2939 
Q 2822 3125 2822 3475 
Q 2822 3834 2567 4026 
Q 2313 4219 1838 4219 
Q 1578 4219 1281 4162 
Q 984 4106 628 3988 
L 628 4550 
Q 988 4650 1302 4700 
Q 1616 4750 1894 4750 
Q 2613 4750 3031 4423 
Q 3450 4097 3450 3541 
Q 3450 3153 3228 2886 
Q 3006 2619 2597 2516 
z
" transform="scale(0.015625)"/>
       </defs>
       <use xlink:href="#DejaVuSans-31" transform="translate(0 0.765625)"/>
       <use xlink:href="#DejaVuSans-30" transform="translate(63.623047 0.765625)"/>
       <use xlink:href="#DejaVuSans-2212" transform="translate(128.203125 39.046875) scale(0.7)"/>
       <use xlink:href="#DejaVuSans-33" transform="translate(186.855469 39.046875) scale(0.7)"/>
      </g>
     </g>
    </g>
    <g id="ytick_39">
     <g id="line2d_75">
      <path d="M 457.2925 51.483424 
L 639.387235 51.483424 
" clip-path="url(#p59b6786da7)" style="fill: none; stroke-dasharray: 1.85,0.8; stroke-dashoffset: 0; stroke: #b2b2b2; stroke-width: 0.5"/>
     </g>
     <g id="line2d_76">
      <g>
       <use xlink:href="#m8dcd71402d" x="457.2925" y="51.483424" style="stroke: #000000; stroke-width: 0.8"/>
      </g>
     </g>
     <g id="text_25">
      <!-- $\mathdefault{10^{-2}}$ -->
      <g transform="translate(434.9925 54.522799) scale(0.08 -0.08)">
       <use xlink:href="#DejaVuSans-31" transform="translate(0 0.765625)"/>
       <use xlink:href="#DejaVuSans-30" transform="translate(63.623047 0.765625)"/>
       <use xlink:href="#DejaVuSans-2212" transform="translate(128.203125 39.046875) scale(0.7)"/>
       <use xlink:href="#DejaVuSans-32" transform="translate(186.855469 39.046875) scale(0.7)"/>
      </g>
     </g>
    </g>
    <g id="ytick_40">
     <g id="line2d_77">
      <g>
       <use xlink:href="#mf91530aae6" x="457.2925" y="257.57965" style="stroke: #000000; stroke-width: 0.6"/>
      </g>
     </g>
    </g>
    <g id="ytick_41">
     <g id="line2d_78">
      <g>
       <use xlink:href="#mf91530aae6" x="457.2925" y="252.162139" style="stroke: #000000; stroke-width: 0.6"/>
      </g>
     </g>
    </g>
    <g id="ytick_42">
     <g id="line2d_79">
      <g>
       <use xlink:href="#mf91530aae6" x="457.2925" y="248.318354" style="stroke: #000000; stroke-width: 0.6"/>
      </g>
     </g>
    </g>
    <g id="ytick_43">
     <g id="line2d_80">
      <g>
       <use xlink:href="#mf91530aae6" x="457.2925" y="245.336882" style="stroke: #000000; stroke-width: 0.6"/>
      </g>
     </g>
    </g>
    <g id="ytick_44">
     <g id="line2d_81">
      <g>
       <use xlink:href="#mf91530aae6" x="457.2925" y="242.900843" style="stroke: #000000; stroke-width: 0.6"/>
      </g>
     </g>
    </g>
    <g id="ytick_45">
     <g id="line2d_82">
      <g>
       <use xlink:href="#mf91530aae6" x="457.2925" y="240.841201" style="stroke: #000000; stroke-width: 0.6"/>
      </g>
     </g>
    </g>
    <g id="ytick_46">
     <g id="line2d_83">
      <g>
       <use xlink:href="#mf91530aae6" x="457.2925" y="239.057057" style="stroke: #000000; stroke-width: 0.6"/>
      </g>
     </g>
    </g>
    <g id="ytick_47">
     <g id="line2d_84">
      <g>
       <use xlink:href="#mf91530aae6" x="457.2925" y="237.483332" style="stroke: #000000; stroke-width: 0.6"/>
      </g>
     </g>
    </g>
    <g id="ytick_48">
     <g id="line2d_85">
      <g>
       <use xlink:href="#mf91530aae6" x="457.2925" y="226.81429" style="stroke: #000000; stroke-width: 0.6"/>
      </g>
     </g>
    </g>
    <g id="ytick_49">
     <g id="line2d_86">
      <g>
       <use xlink:href="#mf91530aae6" x="457.2925" y="221.396779" style="stroke: #000000; stroke-width: 0.6"/>
      </g>
     </g>
    </g>
    <g id="ytick_50">
     <g id="line2d_87">
      <g>
       <use xlink:href="#mf91530aae6" x="457.2925" y="217.552993" style="stroke: #000000; stroke-width: 0.6"/>
      </g>
     </g>
    </g>
    <g id="ytick_51">
     <g id="line2d_88">
      <g>
       <use xlink:href="#mf91530aae6" x="457.2925" y="214.571522" style="stroke: #000000; stroke-width: 0.6"/>
      </g>
     </g>
    </g>
    <g id="ytick_52">
     <g id="line2d_89">
      <g>
       <use xlink:href="#mf91530aae6" x="457.2925" y="212.135482" style="stroke: #000000; stroke-width: 0.6"/>
      </g>
     </g>
    </g>
    <g id="ytick_53">
     <g id="line2d_90">
      <g>
       <use xlink:href="#mf91530aae6" x="457.2925" y="210.07584" style="stroke: #000000; stroke-width: 0.6"/>
      </g>
     </g>
    </g>
    <g id="ytick_54">
     <g id="line2d_91">
      <g>
       <use xlink:href="#mf91530aae6" x="457.2925" y="208.291697" style="stroke: #000000; stroke-width: 0.6"/>
      </g>
     </g>
    </g>
    <g id="ytick_55">
     <g id="line2d_92">
      <g>
       <use xlink:href="#mf91530aae6" x="457.2925" y="206.717971" style="stroke: #000000; stroke-width: 0.6"/>
      </g>
     </g>
    </g>
    <g id="ytick_56">
     <g id="line2d_93">
      <g>
       <use xlink:href="#mf91530aae6" x="457.2925" y="196.048929" style="stroke: #000000; stroke-width: 0.6"/>
      </g>
     </g>
    </g>
    <g id="ytick_57">
     <g id="line2d_94">
      <g>
       <use xlink:href="#mf91530aae6" x="457.2925" y="190.631418" style="stroke: #000000; stroke-width: 0.6"/>
      </g>
     </g>
    </g>
    <g id="ytick_58">
     <g id="line2d_95">
      <g>
       <use xlink:href="#mf91530aae6" x="457.2925" y="186.787633" style="stroke: #000000; stroke-width: 0.6"/>
      </g>
     </g>
    </g>
    <g id="ytick_59">
     <g id="line2d_96">
      <g>
       <use xlink:href="#mf91530aae6" x="457.2925" y="183.806162" style="stroke: #000000; stroke-width: 0.6"/>
      </g>
     </g>
    </g>
    <g id="ytick_60">
     <g id="line2d_97">
      <g>
       <use xlink:href="#mf91530aae6" x="457.2925" y="181.370122" style="stroke: #000000; stroke-width: 0.6"/>
      </g>
     </g>
    </g>
    <g id="ytick_61">
     <g id="line2d_98">
      <g>
       <use xlink:href="#mf91530aae6" x="457.2925" y="179.31048" style="stroke: #000000; stroke-width: 0.6"/>
      </g>
     </g>
    </g>
    <g id="ytick_62">
     <g id="line2d_99">
      <g>
       <use xlink:href="#mf91530aae6" x="457.2925" y="177.526337" style="stroke: #000000; stroke-width: 0.6"/>
      </g>
     </g>
    </g>
    <g id="ytick_63">
     <g id="line2d_100">
      <g>
       <use xlink:href="#mf91530aae6" x="457.2925" y="175.952611" style="stroke: #000000; stroke-width: 0.6"/>
      </g>
     </g>
    </g>
    <g id="ytick_64">
     <g id="line2d_101">
      <g>
       <use xlink:href="#mf91530aae6" x="457.2925" y="165.283569" style="stroke: #000000; stroke-width: 0.6"/>
      </g>
     </g>
    </g>
    <g id="ytick_65">
     <g id="line2d_102">
      <g>
       <use xlink:href="#mf91530aae6" x="457.2925" y="159.866058" style="stroke: #000000; stroke-width: 0.6"/>
      </g>
     </g>
    </g>
    <g id="ytick_66">
     <g id="line2d_103">
      <g>
       <use xlink:href="#mf91530aae6" x="457.2925" y="156.022273" style="stroke: #000000; stroke-width: 0.6"/>
      </g>
     </g>
    </g>
    <g id="ytick_67">
     <g id="line2d_104">
      <g>
       <use xlink:href="#mf91530aae6" x="457.2925" y="153.040801" style="stroke: #000000; stroke-width: 0.6"/>
      </g>
     </g>
    </g>
    <g id="ytick_68">
     <g id="line2d_105">
      <g>
       <use xlink:href="#mf91530aae6" x="457.2925" y="150.604762" style="stroke: #000000; stroke-width: 0.6"/>
      </g>
     </g>
    </g>
    <g id="ytick_69">
     <g id="line2d_106">
      <g>
       <use xlink:href="#mf91530aae6" x="457.2925" y="148.54512" style="stroke: #000000; stroke-width: 0.6"/>
      </g>
     </g>
    </g>
    <g id="ytick_70">
     <g id="line2d_107">
      <g>
       <use xlink:href="#mf91530aae6" x="457.2925" y="146.760977" style="stroke: #000000; stroke-width: 0.6"/>
      </g>
     </g>
    </g>
    <g id="ytick_71">
     <g id="line2d_108">
      <g>
       <use xlink:href="#mf91530aae6" x="457.2925" y="145.187251" style="stroke: #000000; stroke-width: 0.6"/>
      </g>
     </g>
    </g>
    <g id="ytick_72">
     <g id="line2d_109">
      <g>
       <use xlink:href="#mf91530aae6" x="457.2925" y="134.518209" style="stroke: #000000; stroke-width: 0.6"/>
      </g>
     </g>
    </g>
    <g id="ytick_73">
     <g id="line2d_110">
      <g>
       <use xlink:href="#mf91530aae6" x="457.2925" y="129.100698" style="stroke: #000000; stroke-width: 0.6"/>
      </g>
     </g>
    </g>
    <g id="ytick_74">
     <g id="line2d_111">
      <g>
       <use xlink:href="#mf91530aae6" x="457.2925" y="125.256913" style="stroke: #000000; stroke-width: 0.6"/>
      </g>
     </g>
    </g>
    <g id="ytick_75">
     <g id="line2d_112">
      <g>
       <use xlink:href="#mf91530aae6" x="457.2925" y="122.275441" style="stroke: #000000; stroke-width: 0.6"/>
      </g>
     </g>
    </g>
    <g id="ytick_76">
     <g id="line2d_113">
      <g>
       <use xlink:href="#mf91530aae6" x="457.2925" y="119.839402" style="stroke: #000000; stroke-width: 0.6"/>
      </g>
     </g>
    </g>
    <g id="ytick_77">
     <g id="line2d_114">
      <g>
       <use xlink:href="#mf91530aae6" x="457.2925" y="117.779759" style="stroke: #000000; stroke-width: 0.6"/>
      </g>
     </g>
    </g>
    <g id="ytick_78">
     <g id="line2d_115">
      <g>
       <use xlink:href="#mf91530aae6" x="457.2925" y="115.995616" style="stroke: #000000; stroke-width: 0.6"/>
      </g>
     </g>
    </g>
    <g id="ytick_79">
     <g id="line2d_116">
      <g>
       <use xlink:href="#mf91530aae6" x="457.2925" y="114.421891" style="stroke: #000000; stroke-width: 0.6"/>
      </g>
     </g>
    </g>
    <g id="ytick_80">
     <g id="line2d_117">
      <g>
       <use xlink:href="#mf91530aae6" x="457.2925" y="103.752849" style="stroke: #000000; stroke-width: 0.6"/>
      </g>
     </g>
    </g>
    <g id="ytick_81">
     <g id="line2d_118">
      <g>
       <use xlink:href="#mf91530aae6" x="457.2925" y="98.335338" style="stroke: #000000; stroke-width: 0.6"/>
      </g>
     </g>
    </g>
    <g id="ytick_82">
     <g id="line2d_119">
      <g>
       <use xlink:href="#mf91530aae6" x="457.2925" y="94.491552" style="stroke: #000000; stroke-width: 0.6"/>
      </g>
     </g>
    </g>
    <g id="ytick_83">
     <g id="line2d_120">
      <g>
       <use xlink:href="#mf91530aae6" x="457.2925" y="91.510081" style="stroke: #000000; stroke-width: 0.6"/>
      </g>
     </g>
    </g>
    <g id="ytick_84">
     <g id="line2d_121">
      <g>
       <use xlink:href="#mf91530aae6" x="457.2925" y="89.074041" style="stroke: #000000; stroke-width: 0.6"/>
      </g>
     </g>
    </g>
    <g id="ytick_85">
     <g id="line2d_122">
      <g>
       <use xlink:href="#mf91530aae6" x="457.2925" y="87.014399" style="stroke: #000000; stroke-width: 0.6"/>
      </g>
     </g>
    </g>
    <g id="ytick_86">
     <g id="line2d_123">
      <g>
       <use xlink:href="#mf91530aae6" x="457.2925" y="85.230256" style="stroke: #000000; stroke-width: 0.6"/>
      </g>
     </g>
    </g>
    <g id="ytick_87">
     <g id="line2d_124">
      <g>
       <use xlink:href="#mf91530aae6" x="457.2925" y="83.65653" style="stroke: #000000; stroke-width: 0.6"/>
      </g>
     </g>
    </g>
    <g id="ytick_88">
     <g id="line2d_125">
      <g>
       <use xlink:href="#mf91530aae6" x="457.2925" y="72.987488" style="stroke: #000000; stroke-width: 0.6"/>
      </g>
     </g>
    </g>
    <g id="ytick_89">
     <g id="line2d_126">
      <g>
       <use xlink:href="#mf91530aae6" x="457.2925" y="67.569977" style="stroke: #000000; stroke-width: 0.6"/>
      </g>
     </g>
    </g>
    <g id="ytick_90">
     <g id="line2d_127">
      <g>
       <use xlink:href="#mf91530aae6" x="457.2925" y="63.726192" style="stroke: #000000; stroke-width: 0.6"/>
      </g>
     </g>
    </g>
    <g id="ytick_91">
     <g id="line2d_128">
      <g>
       <use xlink:href="#mf91530aae6" x="457.2925" y="60.744721" style="stroke: #000000; stroke-width: 0.6"/>
      </g>
     </g>
    </g>
    <g id="ytick_92">
     <g id="line2d_129">
      <g>
       <use xlink:href="#mf91530aae6" x="457.2925" y="58.308681" style="stroke: #000000; stroke-width: 0.6"/>
      </g>
     </g>
    </g>
    <g id="ytick_93">
     <g id="line2d_130">
      <g>
       <use xlink:href="#mf91530aae6" x="457.2925" y="56.249039" style="stroke: #000000; stroke-width: 0.6"/>
      </g>
     </g>
    </g>
    <g id="ytick_94">
     <g id="line2d_131">
      <g>
       <use xlink:href="#mf91530aae6" x="457.2925" y="54.464896" style="stroke: #000000; stroke-width: 0.6"/>
      </g>
     </g>
    </g>
    <g id="ytick_95">
     <g id="line2d_132">
      <g>
       <use xlink:href="#mf91530aae6" x="457.2925" y="52.89117" style="stroke: #000000; stroke-width: 0.6"/>
      </g>
     </g>
    </g>
    <g id="ytick_96">
     <g id="line2d_133">
      <g>
       <use xlink:href="#mf91530aae6" x="457.2925" y="42.222128" style="stroke: #000000; stroke-width: 0.6"/>
      </g>
     </g>
    </g>
    <g id="ytick_97">
     <g id="line2d_134">
      <g>
       <use xlink:href="#mf91530aae6" x="457.2925" y="36.804617" style="stroke: #000000; stroke-width: 0.6"/>
      </g>
     </g>
    </g>
    <g id="ytick_98">
     <g id="line2d_135">
      <g>
       <use xlink:href="#mf91530aae6" x="457.2925" y="32.960832" style="stroke: #000000; stroke-width: 0.6"/>
      </g>
     </g>
    </g>
    <g id="ytick_99">
     <g id="line2d_136">
      <g>
       <use xlink:href="#mf91530aae6" x="457.2925" y="29.97936" style="stroke: #000000; stroke-width: 0.6"/>
      </g>
     </g>
    </g>
    <g id="ytick_100">
     <g id="line2d_137">
      <g>
       <use xlink:href="#mf91530aae6" x="457.2925" y="27.543321" style="stroke: #000000; stroke-width: 0.6"/>
      </g>
     </g>
    </g>
    <g id="ytick_101">
     <g id="line2d_138">
      <g>
       <use xlink:href="#mf91530aae6" x="457.2925" y="25.483679" style="stroke: #000000; stroke-width: 0.6"/>
      </g>
     </g>
    </g>
    <g id="ytick_102">
     <g id="line2d_139">
      <g>
       <use xlink:href="#mf91530aae6" x="457.2925" y="23.699535" style="stroke: #000000; stroke-width: 0.6"/>
      </g>
     </g>
    </g>
    <g id="ytick_103">
     <g id="line2d_140">
      <g>
       <use xlink:href="#mf91530aae6" x="457.2925" y="22.12581" style="stroke: #000000; stroke-width: 0.6"/>
      </g>
     </g>
    </g>
   </g>
   <g id="line2d_141">
    <path d="M 465.569533 114.695452 
L 466.464348 114.563495 
L 467.359162 113.458329 
L 469.148791 113.518003 
L 470.043606 114.061738 
L 470.93842 113.969562 
L 472.728049 113.134599 
L 473.622863 109.261425 
L 478.096935 108.200309 
L 478.99175 106.521061 
L 487.939894 106.396822 
L 489.729523 106.309529 
L 491.519152 106.15 
L 492.413966 106.118752 
L 493.308781 105.90832 
L 494.203595 106.329774 
L 495.098409 112.685337 
L 495.993224 33.107036 
L 496.888038 142.948371 
L 497.782853 125.916516 
L 498.677667 125.916516 
L 499.572481 128.171366 
L 500.467296 129.438586 
L 501.36211 134.584561 
L 502.256925 135.678983 
L 503.151739 136.036092 
L 504.046554 138.850015 
L 504.941368 138.986383 
L 505.836182 139.687572 
L 506.730997 140.125414 
L 507.625811 142.790123 
L 508.520626 142.421166 
L 509.41544 142.41468 
L 510.310255 141.840986 
L 511.205069 141.673614 
L 512.099883 139.3705 
L 512.994698 138.860304 
L 513.889512 139.156915 
L 514.784327 139.096925 
L 515.679141 138.540418 
L 516.573956 138.444853 
L 517.46877 138.065881 
L 518.363584 138.443483 
L 519.258399 138.967183 
L 520.153213 139.009488 
L 521.048028 137.772528 
L 521.942842 77.690869 
L 522.837656 153.857801 
L 523.732471 147.250814 
L 524.627285 148.480795 
L 525.5221 156.430555 
L 526.416914 156.967452 
L 527.311729 166.347859 
L 528.206543 167.866017 
L 529.101357 187.349981 
L 529.996172 187.12835 
L 530.890986 218.60789 
L 531.785801 218.60789 
L 531.788 293.65715 
M 533.57433 293.65715 
L 533.57543 256.179764 
L 534.470244 209.772509 
L 535.365058 206.162537 
L 536.259873 142.094795 
L 537.154687 140.492391 
L 538.049502 126.088073 
L 538.944316 125.985067 
L 539.839131 124.029207 
L 540.733945 117.881025 
L 541.628759 117.416116 
L 542.523574 111.003092 
L 543.418388 109.540032 
L 544.313203 105.741316 
L 545.208017 104.723949 
L 546.102831 100.910969 
L 546.997646 98.601896 
L 547.89246 97.864499 
L 548.787275 95.412043 
L 549.682089 94.249132 
L 550.576904 89.516483 
L 551.471718 88.84986 
L 552.366532 88.608836 
L 553.261347 87.795647 
L 554.156161 87.53627 
L 555.050976 86.403313 
L 555.94579 85.870076 
L 556.840605 85.969356 
L 557.735419 87.213238 
L 558.630233 87.060562 
L 559.525048 86.766916 
L 560.419862 85.704666 
L 561.314677 85.37776 
L 562.209491 85.20624 
L 563.104306 84.369862 
L 563.99912 83.92077 
L 564.893934 83.92077 
L 565.788749 83.775219 
L 566.683563 83.008888 
L 567.578378 82.934146 
L 568.473192 82.532538 
L 569.368006 82.467892 
L 570.262821 82.220817 
L 572.05245 82.08903 
L 572.947264 81.82506 
L 575.631707 81.922991 
L 577.421336 82.733795 
L 578.316151 85.143692 
L 579.210965 85.616071 
L 580.10578 85.939847 
L 581.000594 87.431116 
L 581.895408 87.804279 
L 582.790223 91.569576 
L 583.685037 92.81497 
L 584.579852 93.444744 
L 585.474666 98.29368 
L 586.369481 99.170476 
L 587.264295 99.559652 
L 588.159109 103.305254 
L 589.053924 104.456959 
L 589.948738 104.996052 
L 590.843553 107.188819 
L 591.738367 107.823768 
L 592.633181 110.508813 
L 593.527996 111.316394 
L 594.42281 115.050848 
L 595.317625 115.709825 
L 596.212439 118.765397 
L 597.107254 119.447932 
L 598.002068 122.865029 
L 598.896882 122.865029 
L 599.791697 123.349307 
L 600.686511 125.473086 
L 601.581326 125.783302 
L 602.47614 127.913364 
L 603.370955 142.338907 
L 604.265769 142.712362 
L 605.160583 144.387327 
L 606.055398 149.101631 
L 606.950212 149.04756 
L 607.845027 147.948203 
L 608.739841 147.819576 
L 609.634656 147.192354 
L 610.52947 142.391134 
L 611.424284 142.542364 
L 612.319099 143.31146 
L 613.213913 151.048196 
L 614.108728 151.390537 
L 615.003542 152.951521 
L 615.898356 160.467716 
L 616.793171 160.501918 
L 617.687985 159.737967 
L 618.5828 159.69623 
L 619.477614 159.489759 
L 620.372429 158.03212 
L 621.267243 157.956987 
L 622.162057 157.593061 
L 623.056872 154.860698 
L 623.951686 154.627125 
L 624.846501 152.445267 
L 625.741315 144.798394 
L 626.63613 144.666725 
L 627.530944 144.074729 
L 628.425758 141.045851 
L 629.320573 140.851025 
L 630.215387 139.421771 
L 631.110202 136.9724 
L 631.110202 136.9724 
" clip-path="url(#p59b6786da7)" style="fill: none; stroke: #348abd; stroke-width: 2; stroke-linecap: square"/>
   </g>
   <g id="patch_13">
    <path d="M 457.2925 267.3334 
L 457.2925 21.9534 
" style="fill: none; stroke: #bcbcbc; stroke-width: 0.8; stroke-linejoin: miter; stroke-linecap: square"/>
   </g>
   <g id="patch_14">
    <path d="M 639.387235 267.3334 
L 639.387235 21.9534 
" style="fill: none; stroke: #bcbcbc; stroke-width: 0.8; stroke-linejoin: miter; stroke-linecap: square"/>
   </g>
   <g id="patch_15">
    <path d="M 457.2925 267.3334 
L 639.387235 267.3334 
" style="fill: none; stroke: #bcbcbc; stroke-width: 0.8; stroke-linejoin: miter; stroke-linecap: square"/>
   </g>
   <g id="patch_16">
    <path d="M 457.2925 21.9534 
L 639.387235 21.9534 
" style="fill: none; stroke: #bcbcbc; stroke-width: 0.8; stroke-linejoin: miter; stroke-linecap: square"/>
   </g>
   <g id="text_26">
    <!-- 2nd Order Penalty -->
    <g transform="translate(496.080468 15.9534) scale(0.1152 -0.1152)">
     <defs>
      <path id="DejaVuSans-64" d="M 2906 2969 
L 2906 4863 
L 3481 4863 
L 3481 0 
L 2906 0 
L 2906 525 
Q 2725 213 2448 61 
Q 2172 -91 1784 -91 
Q 1150 -91 751 415 
Q 353 922 353 1747 
Q 353 2572 751 3078 
Q 1150 3584 1784 3584 
Q 2172 3584 2448 3432 
Q 2725 3281 2906 2969 
z
M 947 1747 
Q 947 1113 1208 752 
Q 1469 391 1925 391 
Q 2381 391 2643 752 
Q 2906 1113 2906 1747 
Q 2906 2381 2643 2742 
Q 2381 3103 1925 3103 
Q 1469 3103 1208 2742 
Q 947 2381 947 1747 
z
" transform="scale(0.015625)"/>
      <path id="DejaVuSans-4f" d="M 2522 4238 
Q 1834 4238 1429 3725 
Q 1025 3213 1025 2328 
Q 1025 1447 1429 934 
Q 1834 422 2522 422 
Q 3209 422 3611 934 
Q 4013 1447 4013 2328 
Q 4013 3213 3611 3725 
Q 3209 4238 2522 4238 
z
M 2522 4750 
Q 3503 4750 4090 4092 
Q 4678 3434 4678 2328 
Q 4678 1225 4090 567 
Q 3503 -91 2522 -91 
Q 1538 -91 948 565 
Q 359 1222 359 2328 
Q 359 3434 948 4092 
Q 1538 4750 2522 4750 
z
" transform="scale(0.015625)"/>
      <path id="DejaVuSans-50" d="M 1259 4147 
L 1259 2394 
L 2053 2394 
Q 2494 2394 2734 2622 
Q 2975 2850 2975 3272 
Q 2975 3691 2734 3919 
Q 2494 4147 2053 4147 
L 1259 4147 
z
M 628 4666 
L 2053 4666 
Q 2838 4666 3239 4311 
Q 3641 3956 3641 3272 
Q 3641 2581 3239 2228 
Q 2838 1875 2053 1875 
L 1259 1875 
L 1259 0 
L 628 0 
L 628 4666 
z
" transform="scale(0.015625)"/>
      <path id="DejaVuSans-79" d="M 2059 -325 
Q 1816 -950 1584 -1140 
Q 1353 -1331 966 -1331 
L 506 -1331 
L 506 -850 
L 844 -850 
Q 1081 -850 1212 -737 
Q 1344 -625 1503 -206 
L 1606 56 
L 191 3500 
L 800 3500 
L 1894 763 
L 2988 3500 
L 3597 3500 
L 2059 -325 
z
" transform="scale(0.015625)"/>
     </defs>
     <use xlink:href="#DejaVuSans-32"/>
     <use xlink:href="#DejaVuSans-6e" x="63.623047"/>
     <use xlink:href="#DejaVuSans-64" x="127.001953"/>
     <use xlink:href="#DejaVuSans-20" x="190.478516"/>
     <use xlink:href="#DejaVuSans-4f" x="222.265625"/>
     <use xlink:href="#DejaVuSans-72" x="300.976562"/>
     <use xlink:href="#DejaVuSans-64" x="340.339844"/>
     <use xlink:href="#DejaVuSans-65" x="403.816406"/>
     <use xlink:href="#DejaVuSans-72" x="465.339844"/>
     <use xlink:href="#DejaVuSans-20" x="506.453125"/>
     <use xlink:href="#DejaVuSans-50" x="538.240234"/>
     <use xlink:href="#DejaVuSans-65" x="594.917969"/>
     <use xlink:href="#DejaVuSans-6e" x="656.441406"/>
     <use xlink:href="#DejaVuSans-61" x="719.820312"/>
     <use xlink:href="#DejaVuSans-6c" x="781.099609"/>
     <use xlink:href="#DejaVuSans-74" x="808.882812"/>
     <use xlink:href="#DejaVuSans-79" x="848.091797"/>
    </g>
   </g>
  </g>
  <g id="axes_4">
   <g id="patch_17">
    <path d="M 671.18875 267.3334 
L 853.283485 267.3334 
L 853.283485 21.9534 
L 671.18875 21.9534 
z
" style="fill: #eeeeee"/>
   </g>
   <g id="matplotlib.axis_7">
    <g id="xtick_13">
     <g id="line2d_142">
      <path d="M 679.465783 267.3334 
L 679.465783 21.9534 
" clip-path="url(#p1d3303747b)" style="fill: none; stroke-dasharray: 1.85,0.8; stroke-dashoffset: 0; stroke: #b2b2b2; stroke-width: 0.5"/>
     </g>
     <g id="line2d_143">
      <g>
       <use xlink:href="#m7c79d53369" x="679.465783" y="267.3334" style="stroke: #000000; stroke-width: 0.8"/>
      </g>
     </g>
     <g id="text_27">
      <!-- 0 -->
      <g transform="translate(676.920783 276.91215) scale(0.08 -0.08)">
       <use xlink:href="#DejaVuSans-30"/>
      </g>
     </g>
    </g>
    <g id="xtick_14">
     <g id="line2d_144">
      <path d="M 724.206505 267.3334 
L 724.206505 21.9534 
" clip-path="url(#p1d3303747b)" style="fill: none; stroke-dasharray: 1.85,0.8; stroke-dashoffset: 0; stroke: #b2b2b2; stroke-width: 0.5"/>
     </g>
     <g id="line2d_145">
      <g>
       <use xlink:href="#m7c79d53369" x="724.206505" y="267.3334" style="stroke: #000000; stroke-width: 0.8"/>
      </g>
     </g>
     <g id="text_28">
      <!-- 50 -->
      <g transform="translate(719.116505 276.91215) scale(0.08 -0.08)">
       <use xlink:href="#DejaVuSans-35"/>
       <use xlink:href="#DejaVuSans-30" x="63.623047"/>
      </g>
     </g>
    </g>
    <g id="xtick_15">
     <g id="line2d_146">
      <path d="M 768.947226 267.3334 
L 768.947226 21.9534 
" clip-path="url(#p1d3303747b)" style="fill: none; stroke-dasharray: 1.85,0.8; stroke-dashoffset: 0; stroke: #b2b2b2; stroke-width: 0.5"/>
     </g>
     <g id="line2d_147">
      <g>
       <use xlink:href="#m7c79d53369" x="768.947226" y="267.3334" style="stroke: #000000; stroke-width: 0.8"/>
      </g>
     </g>
     <g id="text_29">
      <!-- 100 -->
      <g transform="translate(761.312226 276.91215) scale(0.08 -0.08)">
       <use xlink:href="#DejaVuSans-31"/>
       <use xlink:href="#DejaVuSans-30" x="63.623047"/>
       <use xlink:href="#DejaVuSans-30" x="127.246094"/>
      </g>
     </g>
    </g>
    <g id="xtick_16">
     <g id="line2d_148">
      <path d="M 813.687947 267.3334 
L 813.687947 21.9534 
" clip-path="url(#p1d3303747b)" style="fill: none; stroke-dasharray: 1.85,0.8; stroke-dashoffset: 0; stroke: #b2b2b2; stroke-width: 0.5"/>
     </g>
     <g id="line2d_149">
      <g>
       <use xlink:href="#m7c79d53369" x="813.687947" y="267.3334" style="stroke: #000000; stroke-width: 0.8"/>
      </g>
     </g>
     <g id="text_30">
      <!-- 150 -->
      <g transform="translate(806.052947 276.91215) scale(0.08 -0.08)">
       <use xlink:href="#DejaVuSans-31"/>
       <use xlink:href="#DejaVuSans-35" x="63.623047"/>
       <use xlink:href="#DejaVuSans-30" x="127.246094"/>
      </g>
     </g>
    </g>
   </g>
   <g id="matplotlib.axis_8">
    <g id="ytick_104">
     <g id="line2d_150">
      <path d="M 671.18875 187.232587 
L 853.283485 187.232587 
" clip-path="url(#p1d3303747b)" style="fill: none; stroke-dasharray: 1.85,0.8; stroke-dashoffset: 0; stroke: #b2b2b2; stroke-width: 0.5"/>
     </g>
     <g id="line2d_151">
      <g>
       <use xlink:href="#m8dcd71402d" x="671.18875" y="187.232587" style="stroke: #000000; stroke-width: 0.8"/>
      </g>
     </g>
     <g id="text_31">
      <!-- $\mathdefault{10^{-2}}$ -->
      <g transform="translate(648.88875 190.271962) scale(0.08 -0.08)">
       <use xlink:href="#DejaVuSans-31" transform="translate(0 0.765625)"/>
       <use xlink:href="#DejaVuSans-30" transform="translate(63.623047 0.765625)"/>
       <use xlink:href="#DejaVuSans-2212" transform="translate(128.203125 39.046875) scale(0.7)"/>
       <use xlink:href="#DejaVuSans-32" transform="translate(186.855469 39.046875) scale(0.7)"/>
      </g>
     </g>
    </g>
    <g id="ytick_105">
     <g id="line2d_152">
      <path d="M 671.18875 73.910925 
L 853.283485 73.910925 
" clip-path="url(#p1d3303747b)" style="fill: none; stroke-dasharray: 1.85,0.8; stroke-dashoffset: 0; stroke: #b2b2b2; stroke-width: 0.5"/>
     </g>
     <g id="line2d_153">
      <g>
       <use xlink:href="#m8dcd71402d" x="671.18875" y="73.910925" style="stroke: #000000; stroke-width: 0.8"/>
      </g>
     </g>
     <g id="text_32">
      <!-- $\mathdefault{10^{-1}}$ -->
      <g transform="translate(648.88875 76.9503) scale(0.08 -0.08)">
       <use xlink:href="#DejaVuSans-31" transform="translate(0 0.684375)"/>
       <use xlink:href="#DejaVuSans-30" transform="translate(63.623047 0.684375)"/>
       <use xlink:href="#DejaVuSans-2212" transform="translate(128.203125 38.965625) scale(0.7)"/>
       <use xlink:href="#DejaVuSans-31" transform="translate(186.855469 38.965625) scale(0.7)"/>
      </g>
     </g>
    </g>
    <g id="ytick_106">
     <g id="line2d_154">
      <g>
       <use xlink:href="#mf91530aae6" x="671.18875" y="266.44103" style="stroke: #000000; stroke-width: 0.6"/>
      </g>
     </g>
    </g>
    <g id="ytick_107">
     <g id="line2d_155">
      <g>
       <use xlink:href="#mf91530aae6" x="671.18875" y="246.486076" style="stroke: #000000; stroke-width: 0.6"/>
      </g>
     </g>
    </g>
    <g id="ytick_108">
     <g id="line2d_156">
      <g>
       <use xlink:href="#mf91530aae6" x="671.18875" y="232.32781" style="stroke: #000000; stroke-width: 0.6"/>
      </g>
     </g>
    </g>
    <g id="ytick_109">
     <g id="line2d_157">
      <g>
       <use xlink:href="#mf91530aae6" x="671.18875" y="221.345807" style="stroke: #000000; stroke-width: 0.6"/>
      </g>
     </g>
    </g>
    <g id="ytick_110">
     <g id="line2d_158">
      <g>
       <use xlink:href="#mf91530aae6" x="671.18875" y="212.372856" style="stroke: #000000; stroke-width: 0.6"/>
      </g>
     </g>
    </g>
    <g id="ytick_111">
     <g id="line2d_159">
      <g>
       <use xlink:href="#mf91530aae6" x="671.18875" y="204.786335" style="stroke: #000000; stroke-width: 0.6"/>
      </g>
     </g>
    </g>
    <g id="ytick_112">
     <g id="line2d_160">
      <g>
       <use xlink:href="#mf91530aae6" x="671.18875" y="198.214591" style="stroke: #000000; stroke-width: 0.6"/>
      </g>
     </g>
    </g>
    <g id="ytick_113">
     <g id="line2d_161">
      <g>
       <use xlink:href="#mf91530aae6" x="671.18875" y="192.417902" style="stroke: #000000; stroke-width: 0.6"/>
      </g>
     </g>
    </g>
    <g id="ytick_114">
     <g id="line2d_162">
      <g>
       <use xlink:href="#mf91530aae6" x="671.18875" y="153.119368" style="stroke: #000000; stroke-width: 0.6"/>
      </g>
     </g>
    </g>
    <g id="ytick_115">
     <g id="line2d_163">
      <g>
       <use xlink:href="#mf91530aae6" x="671.18875" y="133.164414" style="stroke: #000000; stroke-width: 0.6"/>
      </g>
     </g>
    </g>
    <g id="ytick_116">
     <g id="line2d_164">
      <g>
       <use xlink:href="#mf91530aae6" x="671.18875" y="119.006148" style="stroke: #000000; stroke-width: 0.6"/>
      </g>
     </g>
    </g>
    <g id="ytick_117">
     <g id="line2d_165">
      <g>
       <use xlink:href="#mf91530aae6" x="671.18875" y="108.024144" style="stroke: #000000; stroke-width: 0.6"/>
      </g>
     </g>
    </g>
    <g id="ytick_118">
     <g id="line2d_166">
      <g>
       <use xlink:href="#mf91530aae6" x="671.18875" y="99.051194" style="stroke: #000000; stroke-width: 0.6"/>
      </g>
     </g>
    </g>
    <g id="ytick_119">
     <g id="line2d_167">
      <g>
       <use xlink:href="#mf91530aae6" x="671.18875" y="91.464673" style="stroke: #000000; stroke-width: 0.6"/>
      </g>
     </g>
    </g>
    <g id="ytick_120">
     <g id="line2d_168">
      <g>
       <use xlink:href="#mf91530aae6" x="671.18875" y="84.892929" style="stroke: #000000; stroke-width: 0.6"/>
      </g>
     </g>
    </g>
    <g id="ytick_121">
     <g id="line2d_169">
      <g>
       <use xlink:href="#mf91530aae6" x="671.18875" y="79.09624" style="stroke: #000000; stroke-width: 0.6"/>
      </g>
     </g>
    </g>
    <g id="ytick_122">
     <g id="line2d_170">
      <g>
       <use xlink:href="#mf91530aae6" x="671.18875" y="39.797705" style="stroke: #000000; stroke-width: 0.6"/>
      </g>
     </g>
    </g>
   </g>
   <g id="line2d_171">
    <path d="M 679.465783 104.462179 
L 680.360598 107.340592 
L 681.255412 122.124526 
L 682.150227 122.199527 
L 683.045041 122.850144 
L 683.939856 126.9323 
L 684.83467 127.363111 
L 685.729484 129.192266 
L 686.624299 130.658279 
L 687.519113 139.576455 
L 689.308742 140.170075 
L 691.993185 140.700018 
L 692.888 141.349269 
L 704.520587 141.45222 
L 706.310216 141.559229 
L 708.099845 142.0995 
L 708.994659 143.827752 
L 709.889474 33.107036 
L 710.784288 135.72869 
L 711.679103 145.684697 
L 712.573917 145.684697 
L 713.468731 145.840141 
L 714.363546 146.509767 
L 715.25836 148.819954 
L 716.153175 149.460096 
L 717.047989 149.743699 
L 717.942804 151.157902 
L 718.837618 151.198192 
L 719.732432 151.366341 
L 720.627247 151.725086 
L 721.522061 153.668254 
L 722.416876 153.995456 
L 723.31169 155.248548 
L 724.206505 155.793059 
L 725.101319 156.076616 
L 725.996133 157.53399 
L 728.680577 157.611456 
L 730.470206 157.746314 
L 732.259834 158.323649 
L 733.154649 159.284965 
L 734.049463 159.417205 
L 734.944278 160.606257 
L 735.839092 111.152485 
L 736.733906 160.002125 
L 737.628721 161.557543 
L 738.523535 161.711452 
L 740.313164 162.786473 
L 741.207979 166.353953 
L 742.102793 166.861781 
L 742.997607 168.788703 
L 743.892422 169.439201 
L 744.787236 171.605495 
L 745.682051 171.605495 
L 746.576865 171.906506 
L 747.47168 172.335538 
L 748.366494 173.910837 
L 749.261308 174.22311 
L 750.156123 176.274562 
L 751.050937 176.53004 
L 751.945752 178.46808 
L 752.840566 179.140581 
L 753.735381 180.054571 
L 754.630195 183.614305 
L 755.525009 184.479317 
L 756.419824 187.89928 
L 757.314638 188.836297 
L 758.209453 190.642452 
L 759.104267 191.22775 
L 759.999081 195.006622 
L 760.893896 196.52197 
L 761.78871 197.415362 
L 762.683525 199.461871 
L 763.578339 200.556076 
L 764.473154 205.015698 
L 765.367968 206.747435 
L 766.262782 207.276466 
L 767.157597 209.133402 
L 768.052411 209.739715 
L 769.84204 214.661691 
L 770.736855 215.404396 
L 771.631669 218.080532 
L 773.421298 219.406667 
L 774.316112 221.262797 
L 776.105741 222.309377 
L 777.000556 224.406054 
L 777.89537 225.448233 
L 778.790184 225.448233 
L 779.684999 225.823496 
L 780.579813 227.446714 
L 781.474628 227.784891 
L 782.369442 229.651487 
L 783.264256 229.919676 
L 784.159071 231.048152 
L 785.053885 231.454009 
L 785.9487 231.716305 
L 786.843514 232.799307 
L 787.738329 232.957751 
L 788.633143 233.61983 
L 789.527957 233.790973 
L 790.422772 234.601962 
L 791.317586 235.021043 
L 792.212401 235.877699 
L 794.00203 235.986966 
L 794.896844 236.174919 
L 795.791658 236.192244 
L 797.581287 236.012041 
L 800.265731 236.09582 
L 801.160545 236.176331 
L 802.055359 236.821197 
L 803.844988 237.356163 
L 804.739803 238.253737 
L 805.634617 238.493455 
L 806.529431 239.490167 
L 807.424246 239.764732 
L 808.31906 240.841354 
L 809.213875 241.090411 
L 810.108689 242.131326 
L 811.003504 242.430052 
L 811.898318 243.837908 
L 812.793132 243.837908 
L 813.687947 243.986564 
L 814.582761 244.59665 
L 815.477576 244.677041 
L 816.37239 245.204099 
L 817.267205 247.72235 
L 818.162019 247.771362 
L 819.056833 247.987463 
L 819.951648 249.204589 
L 820.846462 249.249499 
L 821.741277 249.616835 
L 823.530906 249.76695 
L 824.42572 250.587207 
L 826.215349 250.755365 
L 827.110163 251.385802 
L 828.004978 251.419919 
L 828.899792 251.567102 
L 829.794606 252.184393 
L 830.689421 252.206088 
L 831.584235 252.37018 
L 833.373864 252.402506 
L 834.268679 252.536915 
L 836.058307 252.602166 
L 836.953122 252.866002 
L 837.847936 252.884842 
L 838.742751 253.04782 
L 839.637565 253.674681 
L 841.427194 253.773197 
L 842.322008 254.181808 
L 843.216823 254.221009 
L 844.111637 254.523216 
L 845.006452 256.179764 
L 845.006452 256.179764 
" clip-path="url(#p1d3303747b)" style="fill: none; stroke: #348abd; stroke-width: 2; stroke-linecap: square"/>
   </g>
   <g id="patch_18">
    <path d="M 671.18875 267.3334 
L 671.18875 21.9534 
" style="fill: none; stroke: #bcbcbc; stroke-width: 0.8; stroke-linejoin: miter; stroke-linecap: square"/>
   </g>
   <g id="patch_19">
    <path d="M 853.283485 267.3334 
L 853.283485 21.9534 
" style="fill: none; stroke: #bcbcbc; stroke-width: 0.8; stroke-linejoin: miter; stroke-linecap: square"/>
   </g>
   <g id="patch_20">
    <path d="M 671.18875 267.3334 
L 853.283485 267.3334 
" style="fill: none; stroke: #bcbcbc; stroke-width: 0.8; stroke-linejoin: miter; stroke-linecap: square"/>
   </g>
   <g id="patch_21">
    <path d="M 671.18875 21.9534 
L 853.283485 21.9534 
" style="fill: none; stroke: #bcbcbc; stroke-width: 0.8; stroke-linejoin: miter; stroke-linecap: square"/>
   </g>
   <g id="text_33">
    <!-- MSE Loss -->
    <g transform="translate(735.505218 15.9534) scale(0.1152 -0.1152)">
     <defs>
      <path id="DejaVuSans-4d" d="M 628 4666 
L 1569 4666 
L 2759 1491 
L 3956 4666 
L 4897 4666 
L 4897 0 
L 4281 0 
L 4281 4097 
L 3078 897 
L 2444 897 
L 1241 4097 
L 1241 0 
L 628 0 
L 628 4666 
z
" transform="scale(0.015625)"/>
      <path id="DejaVuSans-53" d="M 3425 4513 
L 3425 3897 
Q 3066 4069 2747 4153 
Q 2428 4238 2131 4238 
Q 1616 4238 1336 4038 
Q 1056 3838 1056 3469 
Q 1056 3159 1242 3001 
Q 1428 2844 1947 2747 
L 2328 2669 
Q 3034 2534 3370 2195 
Q 3706 1856 3706 1288 
Q 3706 609 3251 259 
Q 2797 -91 1919 -91 
Q 1588 -91 1214 -16 
Q 841 59 441 206 
L 441 856 
Q 825 641 1194 531 
Q 1563 422 1919 422 
Q 2459 422 2753 634 
Q 3047 847 3047 1241 
Q 3047 1584 2836 1778 
Q 2625 1972 2144 2069 
L 1759 2144 
Q 1053 2284 737 2584 
Q 422 2884 422 3419 
Q 422 4038 858 4394 
Q 1294 4750 2059 4750 
Q 2388 4750 2728 4690 
Q 3069 4631 3425 4513 
z
" transform="scale(0.015625)"/>
      <path id="DejaVuSans-45" d="M 628 4666 
L 3578 4666 
L 3578 4134 
L 1259 4134 
L 1259 2753 
L 3481 2753 
L 3481 2222 
L 1259 2222 
L 1259 531 
L 3634 531 
L 3634 0 
L 628 0 
L 628 4666 
z
" transform="scale(0.015625)"/>
     </defs>
     <use xlink:href="#DejaVuSans-4d"/>
     <use xlink:href="#DejaVuSans-53" x="86.279297"/>
     <use xlink:href="#DejaVuSans-45" x="149.755859"/>
     <use xlink:href="#DejaVuSans-20" x="212.939453"/>
     <use xlink:href="#DejaVuSans-4c" x="244.726562"/>
     <use xlink:href="#DejaVuSans-6f" x="298.689453"/>
     <use xlink:href="#DejaVuSans-73" x="359.871094"/>
     <use xlink:href="#DejaVuSans-73" x="411.970703"/>
    </g>
   </g>
  </g>
  <g id="text_34">
   <!-- Wolfe Iterations -->
   <g transform="translate(398.453485 283.7934) scale(0.08 -0.08)">
    <defs>
     <path id="DejaVuSans-57" d="M 213 4666 
L 850 4666 
L 1831 722 
L 2809 4666 
L 3519 4666 
L 4500 722 
L 5478 4666 
L 6119 4666 
L 4947 0 
L 4153 0 
L 3169 4050 
L 2175 0 
L 1381 0 
L 213 4666 
z
" transform="scale(0.015625)"/>
     <path id="DejaVuSans-66" d="M 2375 4863 
L 2375 4384 
L 1825 4384 
Q 1516 4384 1395 4259 
Q 1275 4134 1275 3809 
L 1275 3500 
L 2222 3500 
L 2222 3053 
L 1275 3053 
L 1275 0 
L 697 0 
L 697 3053 
L 147 3053 
L 147 3500 
L 697 3500 
L 697 3744 
Q 697 4328 969 4595 
Q 1241 4863 1831 4863 
L 2375 4863 
z
" transform="scale(0.015625)"/>
     <path id="DejaVuSans-49" d="M 628 4666 
L 1259 4666 
L 1259 0 
L 628 0 
L 628 4666 
z
" transform="scale(0.015625)"/>
    </defs>
    <use xlink:href="#DejaVuSans-57"/>
    <use xlink:href="#DejaVuSans-6f" x="93.001953"/>
    <use xlink:href="#DejaVuSans-6c" x="154.183594"/>
    <use xlink:href="#DejaVuSans-66" x="181.966797"/>
    <use xlink:href="#DejaVuSans-65" x="217.171875"/>
    <use xlink:href="#DejaVuSans-20" x="278.695312"/>
    <use xlink:href="#DejaVuSans-49" x="310.482422"/>
    <use xlink:href="#DejaVuSans-74" x="339.974609"/>
    <use xlink:href="#DejaVuSans-65" x="379.183594"/>
    <use xlink:href="#DejaVuSans-72" x="440.707031"/>
    <use xlink:href="#DejaVuSans-61" x="481.820312"/>
    <use xlink:href="#DejaVuSans-74" x="543.099609"/>
    <use xlink:href="#DejaVuSans-69" x="582.308594"/>
    <use xlink:href="#DejaVuSans-6f" x="610.091797"/>
    <use xlink:href="#DejaVuSans-6e" x="671.273438"/>
    <use xlink:href="#DejaVuSans-73" x="734.652344"/>
   </g>
  </g>
 </g>
 <defs>
  <clipPath id="p943621626d">
   <rect x="29.5" y="21.9534" width="182.094735" height="245.38"/>
  </clipPath>
  <clipPath id="pd7810b5b61">
   <rect x="243.39625" y="21.9534" width="182.094735" height="245.38"/>
  </clipPath>
  <clipPath id="p59b6786da7">
   <rect x="457.2925" y="21.9534" width="182.094735" height="245.38"/>
  </clipPath>
  <clipPath id="p1d3303747b">
   <rect x="671.18875" y="21.9534" width="182.094735" height="245.38"/>
  </clipPath>
 </defs>
</svg>
