<?xml version="1.0" encoding="utf-8" standalone="no"?>
<!DOCTYPE svg PUBLIC "-//W3C//DTD SVG 1.1//EN"
  "http://www.w3.org/Graphics/SVG/1.1/DTD/svg11.dtd">
<svg xmlns:xlink="http://www.w3.org/1999/xlink" width="402.419544pt" height="319.7989pt" viewBox="0 0 402.419544 319.7989" xmlns="http://www.w3.org/2000/svg" version="1.1">
 <metadata>
  <rdf:RDF xmlns:dc="http://purl.org/dc/elements/1.1/" xmlns:cc="http://creativecommons.org/ns#" xmlns:rdf="http://www.w3.org/1999/02/22-rdf-syntax-ns#">
   <cc:Work>
    <dc:type rdf:resource="http://purl.org/dc/dcmitype/StillImage"/>
    <dc:date>2023-12-02T00:30:50.062654</dc:date>
    <dc:format>image/svg+xml</dc:format>
    <dc:creator>
     <cc:Agent>
      <dc:title>Matplotlib v3.7.1, https://matplotlib.org/</dc:title>
     </cc:Agent>
    </dc:creator>
   </cc:Work>
  </rdf:RDF>
 </metadata>
 <defs>
  <style type="text/css">*{stroke-linejoin: round; stroke-linecap: butt}</style>
 </defs>
 <g id="figure_1">
  <g id="patch_1">
   <path d="M 0 319.7989 
L 402.419544 319.7989 
L 402.419544 0 
L 0 0 
z
" style="fill: #ffffff"/>
  </g>
  <g id="axes_1">
   <g id="patch_2">
    <path d="M 38.0785 288.0654 
L 395.1985 288.0654 
L 395.1985 21.9534 
L 38.0785 21.9534 
z
" style="fill: #eeeeee"/>
   </g>
   <g id="matplotlib.axis_1">
    <g id="xtick_1">
     <g id="line2d_1">
      <path d="M 74.096269 288.0654 
L 74.096269 21.9534 
" clip-path="url(#pfeafda64ed)" style="fill: none; stroke-dasharray: 1.85,0.8; stroke-dashoffset: 0; stroke: #b2b2b2; stroke-width: 0.5"/>
     </g>
     <g id="line2d_2">
      <defs>
       <path id="m5d3fc6449f" d="M 0 0 
L 0 -3.5 
" style="stroke: #000000; stroke-width: 0.8"/>
      </defs>
      <g>
       <use xlink:href="#m5d3fc6449f" x="74.096269" y="288.0654" style="stroke: #000000; stroke-width: 0.8"/>
      </g>
     </g>
     <g id="text_1">
      <!-- −2.0 -->
      <g transform="translate(64.383144 297.64415) scale(0.08 -0.08)">
       <defs>
        <path id="DejaVuSans-2212" d="M 678 2272 
L 4684 2272 
L 4684 1741 
L 678 1741 
L 678 2272 
z
" transform="scale(0.015625)"/>
        <path id="DejaVuSans-32" d="M 1228 531 
L 3431 531 
L 3431 0 
L 469 0 
L 469 531 
Q 828 903 1448 1529 
Q 2069 2156 2228 2338 
Q 2531 2678 2651 2914 
Q 2772 3150 2772 3378 
Q 2772 3750 2511 3984 
Q 2250 4219 1831 4219 
Q 1534 4219 1204 4116 
Q 875 4013 500 3803 
L 500 4441 
Q 881 4594 1212 4672 
Q 1544 4750 1819 4750 
Q 2544 4750 2975 4387 
Q 3406 4025 3406 3419 
Q 3406 3131 3298 2873 
Q 3191 2616 2906 2266 
Q 2828 2175 2409 1742 
Q 1991 1309 1228 531 
z
" transform="scale(0.015625)"/>
        <path id="DejaVuSans-2e" d="M 684 794 
L 1344 794 
L 1344 0 
L 684 0 
L 684 794 
z
" transform="scale(0.015625)"/>
        <path id="DejaVuSans-30" d="M 2034 4250 
Q 1547 4250 1301 3770 
Q 1056 3291 1056 2328 
Q 1056 1369 1301 889 
Q 1547 409 2034 409 
Q 2525 409 2770 889 
Q 3016 1369 3016 2328 
Q 3016 3291 2770 3770 
Q 2525 4250 2034 4250 
z
M 2034 4750 
Q 2819 4750 3233 4129 
Q 3647 3509 3647 2328 
Q 3647 1150 3233 529 
Q 2819 -91 2034 -91 
Q 1250 -91 836 529 
Q 422 1150 422 2328 
Q 422 3509 836 4129 
Q 1250 4750 2034 4750 
z
" transform="scale(0.015625)"/>
       </defs>
       <use xlink:href="#DejaVuSans-2212"/>
       <use xlink:href="#DejaVuSans-32" x="83.789062"/>
       <use xlink:href="#DejaVuSans-2e" x="147.412109"/>
       <use xlink:href="#DejaVuSans-30" x="179.199219"/>
      </g>
     </g>
    </g>
    <g id="xtick_2">
     <g id="line2d_3">
      <path d="M 119.062272 288.0654 
L 119.062272 21.9534 
" clip-path="url(#pfeafda64ed)" style="fill: none; stroke-dasharray: 1.85,0.8; stroke-dashoffset: 0; stroke: #b2b2b2; stroke-width: 0.5"/>
     </g>
     <g id="line2d_4">
      <g>
       <use xlink:href="#m5d3fc6449f" x="119.062272" y="288.0654" style="stroke: #000000; stroke-width: 0.8"/>
      </g>
     </g>
     <g id="text_2">
      <!-- −1.5 -->
      <g transform="translate(109.349147 297.64415) scale(0.08 -0.08)">
       <defs>
        <path id="DejaVuSans-31" d="M 794 531 
L 1825 531 
L 1825 4091 
L 703 3866 
L 703 4441 
L 1819 4666 
L 2450 4666 
L 2450 531 
L 3481 531 
L 3481 0 
L 794 0 
L 794 531 
z
" transform="scale(0.015625)"/>
        <path id="DejaVuSans-35" d="M 691 4666 
L 3169 4666 
L 3169 4134 
L 1269 4134 
L 1269 2991 
Q 1406 3038 1543 3061 
Q 1681 3084 1819 3084 
Q 2600 3084 3056 2656 
Q 3513 2228 3513 1497 
Q 3513 744 3044 326 
Q 2575 -91 1722 -91 
Q 1428 -91 1123 -41 
Q 819 9 494 109 
L 494 744 
Q 775 591 1075 516 
Q 1375 441 1709 441 
Q 2250 441 2565 725 
Q 2881 1009 2881 1497 
Q 2881 1984 2565 2268 
Q 2250 2553 1709 2553 
Q 1456 2553 1204 2497 
Q 953 2441 691 2322 
L 691 4666 
z
" transform="scale(0.015625)"/>
       </defs>
       <use xlink:href="#DejaVuSans-2212"/>
       <use xlink:href="#DejaVuSans-31" x="83.789062"/>
       <use xlink:href="#DejaVuSans-2e" x="147.412109"/>
       <use xlink:href="#DejaVuSans-35" x="179.199219"/>
      </g>
     </g>
    </g>
    <g id="xtick_3">
     <g id="line2d_5">
      <path d="M 164.028276 288.0654 
L 164.028276 21.9534 
" clip-path="url(#pfeafda64ed)" style="fill: none; stroke-dasharray: 1.85,0.8; stroke-dashoffset: 0; stroke: #b2b2b2; stroke-width: 0.5"/>
     </g>
     <g id="line2d_6">
      <g>
       <use xlink:href="#m5d3fc6449f" x="164.028276" y="288.0654" style="stroke: #000000; stroke-width: 0.8"/>
      </g>
     </g>
     <g id="text_3">
      <!-- −1.0 -->
      <g transform="translate(154.315151 297.64415) scale(0.08 -0.08)">
       <use xlink:href="#DejaVuSans-2212"/>
       <use xlink:href="#DejaVuSans-31" x="83.789062"/>
       <use xlink:href="#DejaVuSans-2e" x="147.412109"/>
       <use xlink:href="#DejaVuSans-30" x="179.199219"/>
      </g>
     </g>
    </g>
    <g id="xtick_4">
     <g id="line2d_7">
      <path d="M 208.994279 288.0654 
L 208.994279 21.9534 
" clip-path="url(#pfeafda64ed)" style="fill: none; stroke-dasharray: 1.85,0.8; stroke-dashoffset: 0; stroke: #b2b2b2; stroke-width: 0.5"/>
     </g>
     <g id="line2d_8">
      <g>
       <use xlink:href="#m5d3fc6449f" x="208.994279" y="288.0654" style="stroke: #000000; stroke-width: 0.8"/>
      </g>
     </g>
     <g id="text_4">
      <!-- −0.5 -->
      <g transform="translate(199.281154 297.64415) scale(0.08 -0.08)">
       <use xlink:href="#DejaVuSans-2212"/>
       <use xlink:href="#DejaVuSans-30" x="83.789062"/>
       <use xlink:href="#DejaVuSans-2e" x="147.412109"/>
       <use xlink:href="#DejaVuSans-35" x="179.199219"/>
      </g>
     </g>
    </g>
    <g id="xtick_5">
     <g id="line2d_9">
      <path d="M 253.960283 288.0654 
L 253.960283 21.9534 
" clip-path="url(#pfeafda64ed)" style="fill: none; stroke-dasharray: 1.85,0.8; stroke-dashoffset: 0; stroke: #b2b2b2; stroke-width: 0.5"/>
     </g>
     <g id="line2d_10">
      <g>
       <use xlink:href="#m5d3fc6449f" x="253.960283" y="288.0654" style="stroke: #000000; stroke-width: 0.8"/>
      </g>
     </g>
     <g id="text_5">
      <!-- 0.0 -->
      <g transform="translate(247.599033 297.64415) scale(0.08 -0.08)">
       <use xlink:href="#DejaVuSans-30"/>
       <use xlink:href="#DejaVuSans-2e" x="63.623047"/>
       <use xlink:href="#DejaVuSans-30" x="95.410156"/>
      </g>
     </g>
    </g>
    <g id="xtick_6">
     <g id="line2d_11">
      <path d="M 298.926286 288.0654 
L 298.926286 21.9534 
" clip-path="url(#pfeafda64ed)" style="fill: none; stroke-dasharray: 1.85,0.8; stroke-dashoffset: 0; stroke: #b2b2b2; stroke-width: 0.5"/>
     </g>
     <g id="line2d_12">
      <g>
       <use xlink:href="#m5d3fc6449f" x="298.926286" y="288.0654" style="stroke: #000000; stroke-width: 0.8"/>
      </g>
     </g>
     <g id="text_6">
      <!-- 0.5 -->
      <g transform="translate(292.565036 297.64415) scale(0.08 -0.08)">
       <use xlink:href="#DejaVuSans-30"/>
       <use xlink:href="#DejaVuSans-2e" x="63.623047"/>
       <use xlink:href="#DejaVuSans-35" x="95.410156"/>
      </g>
     </g>
    </g>
    <g id="xtick_7">
     <g id="line2d_13">
      <path d="M 343.89229 288.0654 
L 343.89229 21.9534 
" clip-path="url(#pfeafda64ed)" style="fill: none; stroke-dasharray: 1.85,0.8; stroke-dashoffset: 0; stroke: #b2b2b2; stroke-width: 0.5"/>
     </g>
     <g id="line2d_14">
      <g>
       <use xlink:href="#m5d3fc6449f" x="343.89229" y="288.0654" style="stroke: #000000; stroke-width: 0.8"/>
      </g>
     </g>
     <g id="text_7">
      <!-- 1.0 -->
      <g transform="translate(337.53104 297.64415) scale(0.08 -0.08)">
       <use xlink:href="#DejaVuSans-31"/>
       <use xlink:href="#DejaVuSans-2e" x="63.623047"/>
       <use xlink:href="#DejaVuSans-30" x="95.410156"/>
      </g>
     </g>
    </g>
    <g id="xtick_8">
     <g id="line2d_15">
      <path d="M 388.858294 288.0654 
L 388.858294 21.9534 
" clip-path="url(#pfeafda64ed)" style="fill: none; stroke-dasharray: 1.85,0.8; stroke-dashoffset: 0; stroke: #b2b2b2; stroke-width: 0.5"/>
     </g>
     <g id="line2d_16">
      <g>
       <use xlink:href="#m5d3fc6449f" x="388.858294" y="288.0654" style="stroke: #000000; stroke-width: 0.8"/>
      </g>
     </g>
     <g id="text_8">
      <!-- 1.5 -->
      <g transform="translate(382.497044 297.64415) scale(0.08 -0.08)">
       <use xlink:href="#DejaVuSans-31"/>
       <use xlink:href="#DejaVuSans-2e" x="63.623047"/>
       <use xlink:href="#DejaVuSans-35" x="95.410156"/>
      </g>
     </g>
    </g>
    <g id="text_9">
     <!-- $k_1$ -->
     <g transform="translate(212.1265 310.6024) scale(0.096 -0.096)">
      <defs>
       <path id="Cmmi10-6b" d="M 341 116 
Q 341 153 347 172 
L 1275 3872 
Q 1300 3981 1306 4044 
Q 1306 4147 891 4147 
Q 825 4147 825 4231 
Q 828 4247 839 4287 
Q 850 4328 867 4350 
Q 884 4372 916 4372 
L 1778 4441 
L 1797 4441 
Q 1797 4434 1819 4423 
Q 1841 4413 1844 4409 
Q 1856 4378 1856 4359 
L 1184 1684 
Q 1416 1781 1767 2145 
Q 2119 2509 2317 2668 
Q 2516 2828 2816 2828 
Q 2994 2828 3119 2706 
Q 3244 2584 3244 2406 
Q 3244 2294 3197 2198 
Q 3150 2103 3065 2043 
Q 2981 1984 2869 1984 
Q 2766 1984 2695 2048 
Q 2625 2113 2625 2216 
Q 2625 2369 2733 2473 
Q 2841 2578 2994 2578 
Q 2931 2663 2803 2663 
Q 2613 2663 2436 2553 
Q 2259 2444 2054 2239 
Q 1850 2034 1681 1864 
Q 1513 1694 1369 1606 
Q 1747 1563 2025 1408 
Q 2303 1253 2303 934 
Q 2303 869 2278 769 
Q 2222 528 2222 384 
Q 2222 97 2419 97 
Q 2650 97 2770 350 
Q 2891 603 2969 941 
Q 2981 978 3022 978 
L 3097 978 
Q 3122 978 3139 962 
Q 3156 947 3156 922 
Q 3156 916 3150 903 
Q 2909 -72 2406 -72 
Q 2225 -72 2086 12 
Q 1947 97 1872 242 
Q 1797 388 1797 569 
Q 1797 672 1825 781 
Q 1844 856 1844 922 
Q 1844 1169 1625 1297 
Q 1406 1425 1125 1453 
L 800 147 
Q 775 50 703 -11 
Q 631 -72 538 -72 
Q 456 -72 398 -17 
Q 341 38 341 116 
z
" transform="scale(0.015625)"/>
       <path id="Cmr10-31" d="M 594 0 
L 594 225 
Q 1394 225 1394 428 
L 1394 3788 
Q 1063 3628 556 3628 
L 556 3853 
Q 1341 3853 1741 4263 
L 1831 4263 
Q 1853 4263 1873 4245 
Q 1894 4228 1894 4206 
L 1894 428 
Q 1894 225 2694 225 
L 2694 0 
L 594 0 
z
" transform="scale(0.015625)"/>
      </defs>
      <use xlink:href="#Cmmi10-6b" transform="translate(0 0.609375)"/>
      <use xlink:href="#Cmr10-31" transform="translate(52.001953 -16.396875) scale(0.7)"/>
     </g>
    </g>
   </g>
   <g id="matplotlib.axis_2">
    <g id="ytick_1">
     <g id="line2d_17">
      <path d="M 38.0785 275.503036 
L 395.1985 275.503036 
" clip-path="url(#pfeafda64ed)" style="fill: none; stroke-dasharray: 1.85,0.8; stroke-dashoffset: 0; stroke: #b2b2b2; stroke-width: 0.5"/>
     </g>
     <g id="line2d_18">
      <defs>
       <path id="me7b95cd64d" d="M 0 0 
L 3.5 0 
" style="stroke: #000000; stroke-width: 0.8"/>
      </defs>
      <g>
       <use xlink:href="#me7b95cd64d" x="38.0785" y="275.503036" style="stroke: #000000; stroke-width: 0.8"/>
      </g>
     </g>
     <g id="text_10">
      <!-- 0.0 -->
      <g transform="translate(21.856 278.542411) scale(0.08 -0.08)">
       <use xlink:href="#DejaVuSans-30"/>
       <use xlink:href="#DejaVuSans-2e" x="63.623047"/>
       <use xlink:href="#DejaVuSans-30" x="95.410156"/>
      </g>
     </g>
    </g>
    <g id="ytick_2">
     <g id="line2d_19">
      <path d="M 38.0785 228.440563 
L 395.1985 228.440563 
" clip-path="url(#pfeafda64ed)" style="fill: none; stroke-dasharray: 1.85,0.8; stroke-dashoffset: 0; stroke: #b2b2b2; stroke-width: 0.5"/>
     </g>
     <g id="line2d_20">
      <g>
       <use xlink:href="#me7b95cd64d" x="38.0785" y="228.440563" style="stroke: #000000; stroke-width: 0.8"/>
      </g>
     </g>
     <g id="text_11">
      <!-- 0.2 -->
      <g transform="translate(21.856 231.479938) scale(0.08 -0.08)">
       <use xlink:href="#DejaVuSans-30"/>
       <use xlink:href="#DejaVuSans-2e" x="63.623047"/>
       <use xlink:href="#DejaVuSans-32" x="95.410156"/>
      </g>
     </g>
    </g>
    <g id="ytick_3">
     <g id="line2d_21">
      <path d="M 38.0785 181.37809 
L 395.1985 181.37809 
" clip-path="url(#pfeafda64ed)" style="fill: none; stroke-dasharray: 1.85,0.8; stroke-dashoffset: 0; stroke: #b2b2b2; stroke-width: 0.5"/>
     </g>
     <g id="line2d_22">
      <g>
       <use xlink:href="#me7b95cd64d" x="38.0785" y="181.37809" style="stroke: #000000; stroke-width: 0.8"/>
      </g>
     </g>
     <g id="text_12">
      <!-- 0.4 -->
      <g transform="translate(21.856 184.417465) scale(0.08 -0.08)">
       <defs>
        <path id="DejaVuSans-34" d="M 2419 4116 
L 825 1625 
L 2419 1625 
L 2419 4116 
z
M 2253 4666 
L 3047 4666 
L 3047 1625 
L 3713 1625 
L 3713 1100 
L 3047 1100 
L 3047 0 
L 2419 0 
L 2419 1100 
L 313 1100 
L 313 1709 
L 2253 4666 
z
" transform="scale(0.015625)"/>
       </defs>
       <use xlink:href="#DejaVuSans-30"/>
       <use xlink:href="#DejaVuSans-2e" x="63.623047"/>
       <use xlink:href="#DejaVuSans-34" x="95.410156"/>
      </g>
     </g>
    </g>
    <g id="ytick_4">
     <g id="line2d_23">
      <path d="M 38.0785 134.315617 
L 395.1985 134.315617 
" clip-path="url(#pfeafda64ed)" style="fill: none; stroke-dasharray: 1.85,0.8; stroke-dashoffset: 0; stroke: #b2b2b2; stroke-width: 0.5"/>
     </g>
     <g id="line2d_24">
      <g>
       <use xlink:href="#me7b95cd64d" x="38.0785" y="134.315617" style="stroke: #000000; stroke-width: 0.8"/>
      </g>
     </g>
     <g id="text_13">
      <!-- 0.6 -->
      <g transform="translate(21.856 137.354992) scale(0.08 -0.08)">
       <defs>
        <path id="DejaVuSans-36" d="M 2113 2584 
Q 1688 2584 1439 2293 
Q 1191 2003 1191 1497 
Q 1191 994 1439 701 
Q 1688 409 2113 409 
Q 2538 409 2786 701 
Q 3034 994 3034 1497 
Q 3034 2003 2786 2293 
Q 2538 2584 2113 2584 
z
M 3366 4563 
L 3366 3988 
Q 3128 4100 2886 4159 
Q 2644 4219 2406 4219 
Q 1781 4219 1451 3797 
Q 1122 3375 1075 2522 
Q 1259 2794 1537 2939 
Q 1816 3084 2150 3084 
Q 2853 3084 3261 2657 
Q 3669 2231 3669 1497 
Q 3669 778 3244 343 
Q 2819 -91 2113 -91 
Q 1303 -91 875 529 
Q 447 1150 447 2328 
Q 447 3434 972 4092 
Q 1497 4750 2381 4750 
Q 2619 4750 2861 4703 
Q 3103 4656 3366 4563 
z
" transform="scale(0.015625)"/>
       </defs>
       <use xlink:href="#DejaVuSans-30"/>
       <use xlink:href="#DejaVuSans-2e" x="63.623047"/>
       <use xlink:href="#DejaVuSans-36" x="95.410156"/>
      </g>
     </g>
    </g>
    <g id="ytick_5">
     <g id="line2d_25">
      <path d="M 38.0785 87.253145 
L 395.1985 87.253145 
" clip-path="url(#pfeafda64ed)" style="fill: none; stroke-dasharray: 1.85,0.8; stroke-dashoffset: 0; stroke: #b2b2b2; stroke-width: 0.5"/>
     </g>
     <g id="line2d_26">
      <g>
       <use xlink:href="#me7b95cd64d" x="38.0785" y="87.253145" style="stroke: #000000; stroke-width: 0.8"/>
      </g>
     </g>
     <g id="text_14">
      <!-- 0.8 -->
      <g transform="translate(21.856 90.29252) scale(0.08 -0.08)">
       <defs>
        <path id="DejaVuSans-38" d="M 2034 2216 
Q 1584 2216 1326 1975 
Q 1069 1734 1069 1313 
Q 1069 891 1326 650 
Q 1584 409 2034 409 
Q 2484 409 2743 651 
Q 3003 894 3003 1313 
Q 3003 1734 2745 1975 
Q 2488 2216 2034 2216 
z
M 1403 2484 
Q 997 2584 770 2862 
Q 544 3141 544 3541 
Q 544 4100 942 4425 
Q 1341 4750 2034 4750 
Q 2731 4750 3128 4425 
Q 3525 4100 3525 3541 
Q 3525 3141 3298 2862 
Q 3072 2584 2669 2484 
Q 3125 2378 3379 2068 
Q 3634 1759 3634 1313 
Q 3634 634 3220 271 
Q 2806 -91 2034 -91 
Q 1263 -91 848 271 
Q 434 634 434 1313 
Q 434 1759 690 2068 
Q 947 2378 1403 2484 
z
M 1172 3481 
Q 1172 3119 1398 2916 
Q 1625 2713 2034 2713 
Q 2441 2713 2670 2916 
Q 2900 3119 2900 3481 
Q 2900 3844 2670 4047 
Q 2441 4250 2034 4250 
Q 1625 4250 1398 4047 
Q 1172 3844 1172 3481 
z
" transform="scale(0.015625)"/>
       </defs>
       <use xlink:href="#DejaVuSans-30"/>
       <use xlink:href="#DejaVuSans-2e" x="63.623047"/>
       <use xlink:href="#DejaVuSans-38" x="95.410156"/>
      </g>
     </g>
    </g>
    <g id="ytick_6">
     <g id="line2d_27">
      <path d="M 38.0785 40.190672 
L 395.1985 40.190672 
" clip-path="url(#pfeafda64ed)" style="fill: none; stroke-dasharray: 1.85,0.8; stroke-dashoffset: 0; stroke: #b2b2b2; stroke-width: 0.5"/>
     </g>
     <g id="line2d_28">
      <g>
       <use xlink:href="#me7b95cd64d" x="38.0785" y="40.190672" style="stroke: #000000; stroke-width: 0.8"/>
      </g>
     </g>
     <g id="text_15">
      <!-- 1.0 -->
      <g transform="translate(21.856 43.230047) scale(0.08 -0.08)">
       <use xlink:href="#DejaVuSans-31"/>
       <use xlink:href="#DejaVuSans-2e" x="63.623047"/>
       <use xlink:href="#DejaVuSans-30" x="95.410156"/>
      </g>
     </g>
    </g>
    <g id="text_16">
     <!-- $k_1 F_i /u_*^2$ -->
     <g transform="translate(15.36 172.3854) rotate(-90) scale(0.096 -0.096)">
      <defs>
       <path id="Cmmi10-46" d="M 300 0 
Q 238 0 238 84 
Q 241 100 250 139 
Q 259 178 276 201 
Q 294 225 319 225 
Q 709 225 863 269 
Q 947 297 984 441 
L 1863 3956 
Q 1875 4019 1875 4044 
Q 1875 4113 1797 4122 
Q 1678 4147 1338 4147 
Q 1275 4147 1275 4231 
Q 1278 4247 1287 4286 
Q 1297 4325 1314 4348 
Q 1331 4372 1356 4372 
L 4738 4372 
Q 4800 4372 4800 4288 
L 4647 2963 
Q 4647 2944 4625 2925 
Q 4603 2906 4581 2906 
L 4525 2906 
Q 4459 2906 4459 2988 
Q 4500 3278 4500 3463 
Q 4500 3781 4362 3931 
Q 4225 4081 4015 4114 
Q 3806 4147 3438 4147 
L 2753 4147 
Q 2578 4147 2522 4117 
Q 2466 4088 2419 3928 
L 2009 2297 
L 2491 2297 
Q 2728 2297 2875 2322 
Q 3022 2347 3119 2419 
Q 3216 2491 3280 2627 
Q 3344 2763 3397 2988 
Q 3416 3047 3463 3047 
L 3519 3047 
Q 3584 3047 3584 2963 
L 3194 1381 
Q 3166 1325 3128 1325 
L 3072 1325 
Q 3009 1325 3009 1409 
Q 3025 1475 3034 1519 
Q 3044 1563 3058 1645 
Q 3072 1728 3072 1791 
Q 3072 1975 2909 2025 
Q 2747 2075 2484 2075 
L 1959 2075 
L 1544 416 
Q 1528 353 1528 353 
Q 1528 278 1575 269 
Q 1741 225 2228 225 
Q 2291 225 2291 141 
Q 2269 50 2256 25 
Q 2244 0 2181 0 
L 300 0 
z
" transform="scale(0.015625)"/>
       <path id="Cmmi10-69" d="M 500 459 
Q 500 578 550 709 
L 1069 2088 
Q 1153 2322 1153 2472 
Q 1153 2663 1013 2663 
Q 759 2663 595 2402 
Q 431 2141 353 1819 
Q 341 1778 300 1778 
L 225 1778 
Q 172 1778 172 1838 
L 172 1856 
Q 275 2238 487 2533 
Q 700 2828 1025 2828 
Q 1253 2828 1411 2678 
Q 1569 2528 1569 2297 
Q 1569 2178 1516 2047 
L 997 672 
Q 909 459 909 288 
Q 909 97 1056 97 
Q 1306 97 1473 364 
Q 1641 631 1709 941 
Q 1722 978 1759 978 
L 1838 978 
Q 1863 978 1878 961 
Q 1894 944 1894 922 
Q 1894 916 1888 903 
Q 1800 541 1583 234 
Q 1366 -72 1044 -72 
Q 819 -72 659 83 
Q 500 238 500 459 
z
M 1222 3878 
Q 1222 4013 1334 4122 
Q 1447 4231 1581 4231 
Q 1691 4231 1761 4164 
Q 1831 4097 1831 3994 
Q 1831 3850 1717 3742 
Q 1603 3634 1466 3634 
Q 1363 3634 1292 3704 
Q 1222 3775 1222 3878 
z
" transform="scale(0.015625)"/>
       <path id="Cmmi10-3d" d="M 359 -1472 
Q 359 -1453 366 -1447 
L 2591 4722 
Q 2603 4759 2634 4779 
Q 2666 4800 2706 4800 
Q 2763 4800 2798 4765 
Q 2834 4731 2834 4672 
L 2834 4647 
L 609 -1522 
Q 572 -1600 488 -1600 
Q 434 -1600 396 -1562 
Q 359 -1525 359 -1472 
z
" transform="scale(0.015625)"/>
       <path id="Cmmi10-75" d="M 678 697 
Q 678 906 734 1126 
Q 791 1347 892 1617 
Q 994 1888 1069 2088 
Q 1153 2322 1153 2472 
Q 1153 2663 1013 2663 
Q 759 2663 595 2402 
Q 431 2141 353 1819 
Q 341 1778 300 1778 
L 225 1778 
Q 172 1778 172 1838 
L 172 1856 
Q 275 2238 487 2533 
Q 700 2828 1025 2828 
Q 1253 2828 1411 2678 
Q 1569 2528 1569 2297 
Q 1569 2178 1516 2047 
Q 1488 1969 1388 1706 
Q 1288 1444 1234 1272 
Q 1181 1100 1147 934 
Q 1113 769 1113 603 
Q 1113 391 1203 244 
Q 1294 97 1497 97 
Q 1906 97 2216 603 
Q 2222 628 2226 651 
Q 2231 675 2234 697 
L 2694 2553 
Q 2716 2638 2794 2698 
Q 2872 2759 2963 2759 
Q 3041 2759 3098 2709 
Q 3156 2659 3156 2578 
Q 3156 2541 3150 2528 
L 2688 684 
Q 2644 494 2644 372 
Q 2644 97 2828 97 
Q 3034 97 3136 351 
Q 3238 606 3309 941 
Q 3322 978 3359 978 
L 3438 978 
Q 3463 978 3478 956 
Q 3494 934 3494 916 
Q 3425 641 3361 444 
Q 3297 247 3159 87 
Q 3022 -72 2816 -72 
Q 2613 -72 2452 39 
Q 2291 150 2234 341 
Q 2088 153 1894 40 
Q 1700 -72 1484 -72 
Q 1116 -72 897 129 
Q 678 331 678 697 
z
" transform="scale(0.015625)"/>
       <path id="Cmr10-32" d="M 319 0 
L 319 172 
Q 319 188 331 206 
L 1325 1306 
Q 1550 1550 1690 1715 
Q 1831 1881 1968 2097 
Q 2106 2313 2186 2536 
Q 2266 2759 2266 3009 
Q 2266 3272 2169 3511 
Q 2072 3750 1880 3894 
Q 1688 4038 1416 4038 
Q 1138 4038 916 3870 
Q 694 3703 603 3438 
Q 628 3444 672 3444 
Q 816 3444 917 3347 
Q 1019 3250 1019 3097 
Q 1019 2950 917 2848 
Q 816 2747 672 2747 
Q 522 2747 420 2851 
Q 319 2956 319 3097 
Q 319 3338 409 3548 
Q 500 3759 670 3923 
Q 841 4088 1055 4175 
Q 1269 4263 1509 4263 
Q 1875 4263 2190 4108 
Q 2506 3953 2690 3670 
Q 2875 3388 2875 3009 
Q 2875 2731 2753 2481 
Q 2631 2231 2440 2026 
Q 2250 1822 1953 1562 
Q 1656 1303 1563 1216 
L 838 519 
L 1453 519 
Q 1906 519 2211 526 
Q 2516 534 2534 550 
Q 2609 631 2688 1141 
L 2875 1141 
L 2694 0 
L 319 0 
z
" transform="scale(0.015625)"/>
       <path id="Cmsy10-a4" d="M 603 813 
Q 531 813 473 873 
Q 416 934 416 1006 
Q 416 1116 506 1159 
L 1428 1600 
L 506 2034 
Q 416 2072 416 2188 
Q 416 2259 473 2320 
Q 531 2381 603 2381 
Q 650 2381 691 2350 
L 1509 1753 
L 1416 2797 
Q 1416 2875 1469 2925 
Q 1522 2975 1600 2975 
Q 1675 2975 1726 2928 
Q 1778 2881 1778 2809 
L 1778 2797 
L 1684 1753 
L 2503 2350 
Q 2544 2381 2591 2381 
Q 2669 2381 2723 2320 
Q 2778 2259 2778 2188 
Q 2778 2072 2688 2034 
L 1766 1600 
L 2688 1159 
Q 2778 1116 2778 1006 
Q 2778 934 2723 873 
Q 2669 813 2591 813 
Q 2544 813 2503 844 
L 1684 1441 
L 1778 403 
L 1778 384 
Q 1778 313 1723 266 
Q 1669 219 1600 219 
Q 1525 219 1470 270 
Q 1416 322 1416 397 
L 1509 1441 
L 691 844 
Q 650 813 603 813 
z
" transform="scale(0.015625)"/>
      </defs>
      <use xlink:href="#Cmmi10-6b" transform="translate(0 0.109375)"/>
      <use xlink:href="#Cmr10-31" transform="translate(52.001953 -16.896875) scale(0.7)"/>
      <use xlink:href="#Cmmi10-46" transform="translate(93.379297 0.109375)"/>
      <use xlink:href="#Cmmi10-69" transform="translate(157.685937 -16.896875) scale(0.7)"/>
      <use xlink:href="#Cmmi10-3d" transform="translate(188.159961 0.109375)"/>
      <use xlink:href="#Cmmi10-75" transform="translate(238.159961 0.109375)"/>
      <use xlink:href="#Cmr10-32" transform="translate(301.640977 38.373438) scale(0.7)"/>
      <use xlink:href="#Cmsy10-a4" transform="translate(307.628711 -25.4) scale(0.7)"/>
     </g>
    </g>
   </g>
   <g id="line2d_29">
    <defs>
     <path id="m89873bfb94" d="M 0 3 
C 0.795609 3 1.55874 2.683901 2.12132 2.12132 
C 2.683901 1.55874 3 0.795609 3 0 
C 3 -0.795609 2.683901 -1.55874 2.12132 -2.12132 
C 1.55874 -2.683901 0.795609 -3 0 -3 
C -0.795609 -3 -1.55874 -2.683901 -2.12132 -2.12132 
C -2.683901 -1.55874 -3 -0.795609 -3 0 
C -3 0.795609 -2.683901 1.55874 -2.12132 2.12132 
C -1.55874 2.683901 -0.795609 3 0 3 
z
" style="stroke: #4169e1"/>
    </defs>
    <g clip-path="url(#pfeafda64ed)">
     <use xlink:href="#m89873bfb94" x="54.311227" y="128.432808" style="fill: #4169e1; stroke: #4169e1"/>
     <use xlink:href="#m89873bfb94" x="74.096269" y="87.813412" style="fill: #4169e1; stroke: #4169e1"/>
     <use xlink:href="#m89873bfb94" x="97.478591" y="45.793347" style="fill: #4169e1; stroke: #4169e1"/>
     <use xlink:href="#m89873bfb94" x="108.270432" y="34.587996" style="fill: #4169e1; stroke: #4169e1"/>
     <use xlink:href="#m89873bfb94" x="116.364312" y="51.396022" style="fill: #4169e1; stroke: #4169e1"/>
     <use xlink:href="#m89873bfb94" x="123.558873" y="45.793347" style="fill: #4169e1; stroke: #4169e1"/>
     <use xlink:href="#m89873bfb94" x="129.854113" y="45.793347" style="fill: #4169e1; stroke: #4169e1"/>
     <use xlink:href="#m89873bfb94" x="137.048674" y="65.402711" style="fill: #4169e1; stroke: #4169e1"/>
     <use xlink:href="#m89873bfb94" x="146.041874" y="62.601373" style="fill: #4169e1; stroke: #4169e1"/>
     <use xlink:href="#m89873bfb94" x="152.337115" y="82.210737" style="fill: #4169e1; stroke: #4169e1"/>
     <use xlink:href="#m89873bfb94" x="158.632355" y="87.813412" style="fill: #4169e1; stroke: #4169e1"/>
     <use xlink:href="#m89873bfb94" x="164.028276" y="79.409399" style="fill: #4169e1; stroke: #4169e1"/>
     <use xlink:href="#m89873bfb94" x="171.222836" y="90.61475" style="fill: #4169e1; stroke: #4169e1"/>
     <use xlink:href="#m89873bfb94" x="180.216037" y="104.621438" style="fill: #4169e1; stroke: #4169e1"/>
     <use xlink:href="#m89873bfb94" x="191.007878" y="113.025451" style="fill: #4169e1; stroke: #4169e1"/>
     <use xlink:href="#m89873bfb94" x="198.202439" y="129.833477" style="fill: #4169e1; stroke: #4169e1"/>
     <use xlink:href="#m89873bfb94" x="205.396999" y="141.038828" style="fill: #4169e1; stroke: #4169e1"/>
     <use xlink:href="#m89873bfb94" x="211.69224" y="155.045516" style="fill: #4169e1; stroke: #4169e1"/>
     <use xlink:href="#m89873bfb94" x="226.081361" y="171.853542" style="fill: #4169e1; stroke: #4169e1"/>
     <use xlink:href="#m89873bfb94" x="232.376601" y="183.058893" style="fill: #4169e1; stroke: #4169e1"/>
     <use xlink:href="#m89873bfb94" x="244.067762" y="197.065581" style="fill: #4169e1; stroke: #4169e1"/>
     <use xlink:href="#m89873bfb94" x="251.262323" y="205.469594" style="fill: #4169e1; stroke: #4169e1"/>
     <use xlink:href="#m89873bfb94" x="268.349404" y="219.476283" style="fill: #4169e1; stroke: #4169e1"/>
     <use xlink:href="#m89873bfb94" x="283.637845" y="233.482971" style="fill: #4169e1; stroke: #4169e1"/>
     <use xlink:href="#m89873bfb94" x="298.026966" y="241.886984" style="fill: #4169e1; stroke: #4169e1"/>
     <use xlink:href="#m89873bfb94" x="311.516767" y="250.290997" style="fill: #4169e1; stroke: #4169e1"/>
     <use xlink:href="#m89873bfb94" x="324.107248" y="255.893673" style="fill: #4169e1; stroke: #4169e1"/>
     <use xlink:href="#m89873bfb94" x="338.49637" y="261.496348" style="fill: #4169e1; stroke: #4169e1"/>
     <use xlink:href="#m89873bfb94" x="353.784811" y="267.099023" style="fill: #4169e1; stroke: #4169e1"/>
     <use xlink:href="#m89873bfb94" x="369.972572" y="272.701699" style="fill: #4169e1; stroke: #4169e1"/>
     <use xlink:href="#m89873bfb94" x="378.965773" y="272.701699" style="fill: #4169e1; stroke: #4169e1"/>
    </g>
   </g>
   <g id="line2d_30">
    <path d="M 54.311227 128.432808 
L 62.635703 109.353154 
L 70.960178 93.34939 
L 79.284654 78.939287 
L 87.609129 64.640617 
L 95.933605 48.971152 
L 104.25808 34.0494 
L 112.582556 44.109119 
L 120.907031 49.404411 
L 129.231507 44.727274 
L 137.555983 65.877965 
L 145.880458 62.382445 
L 154.204934 86.576969 
L 162.529409 81.017929 
L 170.853885 89.756264 
L 179.17836 103.72819 
L 187.502836 108.623884 
L 195.827311 124.375035 
L 204.151787 138.904285 
L 212.476262 156.511403 
L 220.800738 165.956382 
L 229.125213 177.125431 
L 237.449689 190.022836 
L 245.774164 199.033987 
L 254.09864 208.294163 
L 262.423115 214.889972 
L 270.747591 221.60926 
L 279.072066 229.581686 
L 287.396542 236.048386 
L 295.721017 240.604487 
L 304.045493 245.655919 
L 312.369969 250.754801 
L 320.694444 254.541073 
L 329.01892 257.837655 
L 337.343395 261.066529 
L 345.667871 264.081836 
L 353.992346 267.181072 
L 362.316822 270.485452 
L 370.641297 272.818279 
L 378.965773 272.701699 
" clip-path="url(#pfeafda64ed)" style="fill: none; stroke: #4169e1; stroke-width: 2; stroke-linecap: square"/>
   </g>
   <g id="line2d_31">
    <defs>
     <path id="mab22bab11e" d="M 0 3 
C 0.795609 3 1.55874 2.683901 2.12132 2.12132 
C 2.683901 1.55874 3 0.795609 3 0 
C 3 -0.795609 2.683901 -1.55874 2.12132 -2.12132 
C 1.55874 -2.683901 0.795609 -3 0 -3 
C -0.795609 -3 -1.55874 -2.683901 -2.12132 -2.12132 
C -2.683901 -1.55874 -3 -0.795609 -3 0 
C -3 0.795609 -2.683901 1.55874 -2.12132 2.12132 
C -1.55874 2.683901 -0.795609 3 0 3 
z
" style="stroke: #dc143c"/>
    </defs>
    <g clip-path="url(#pfeafda64ed)">
     <use xlink:href="#mab22bab11e" x="54.311227" y="216.674945" style="fill: #dc143c; stroke: #dc143c"/>
     <use xlink:href="#mab22bab11e" x="65.103068" y="205.469594" style="fill: #dc143c; stroke: #dc143c"/>
     <use xlink:href="#mab22bab11e" x="81.290829" y="185.860231" style="fill: #dc143c; stroke: #dc143c"/>
     <use xlink:href="#mab22bab11e" x="96.579271" y="188.661568" style="fill: #dc143c; stroke: #dc143c"/>
     <use xlink:href="#mab22bab11e" x="109.169752" y="188.661568" style="fill: #dc143c; stroke: #dc143c"/>
     <use xlink:href="#mab22bab11e" x="117.263632" y="183.058893" style="fill: #dc143c; stroke: #dc143c"/>
     <use xlink:href="#mab22bab11e" x="123.558873" y="185.860231" style="fill: #dc143c; stroke: #dc143c"/>
     <use xlink:href="#mab22bab11e" x="137.048674" y="180.257555" style="fill: #dc143c; stroke: #dc143c"/>
     <use xlink:href="#mab22bab11e" x="146.041874" y="177.456218" style="fill: #dc143c; stroke: #dc143c"/>
     <use xlink:href="#mab22bab11e" x="155.035075" y="166.250867" style="fill: #dc143c; stroke: #dc143c"/>
     <use xlink:href="#mab22bab11e" x="164.028276" y="155.045516" style="fill: #dc143c; stroke: #dc143c"/>
     <use xlink:href="#mab22bab11e" x="177.518077" y="155.045516" style="fill: #dc143c; stroke: #dc143c"/>
     <use xlink:href="#mab22bab11e" x="184.712637" y="143.840166" style="fill: #dc143c; stroke: #dc143c"/>
     <use xlink:href="#mab22bab11e" x="191.007878" y="146.641503" style="fill: #dc143c; stroke: #dc143c"/>
     <use xlink:href="#mab22bab11e" x="204.497679" y="143.840166" style="fill: #dc143c; stroke: #dc143c"/>
     <use xlink:href="#mab22bab11e" x="211.69224" y="149.442841" style="fill: #dc143c; stroke: #dc143c"/>
     <use xlink:href="#mab22bab11e" x="218.8868" y="152.244179" style="fill: #dc143c; stroke: #dc143c"/>
     <use xlink:href="#mab22bab11e" x="225.182041" y="160.648192" style="fill: #dc143c; stroke: #dc143c"/>
     <use xlink:href="#mab22bab11e" x="235.973882" y="169.052205" style="fill: #dc143c; stroke: #dc143c"/>
     <use xlink:href="#mab22bab11e" x="246.765722" y="180.257555" style="fill: #dc143c; stroke: #dc143c"/>
     <use xlink:href="#mab22bab11e" x="253.060963" y="185.860231" style="fill: #dc143c; stroke: #dc143c"/>
     <use xlink:href="#mab22bab11e" x="262.054164" y="197.065581" style="fill: #dc143c; stroke: #dc143c"/>
     <use xlink:href="#mab22bab11e" x="271.946684" y="208.270932" style="fill: #dc143c; stroke: #dc143c"/>
     <use xlink:href="#mab22bab11e" x="280.040565" y="216.674945" style="fill: #dc143c; stroke: #dc143c"/>
     <use xlink:href="#mab22bab11e" x="289.933086" y="225.078958" style="fill: #dc143c; stroke: #dc143c"/>
     <use xlink:href="#mab22bab11e" x="298.926286" y="233.482971" style="fill: #dc143c; stroke: #dc143c"/>
     <use xlink:href="#mab22bab11e" x="312.416088" y="241.886984" style="fill: #dc143c; stroke: #dc143c"/>
     <use xlink:href="#mab22bab11e" x="325.006568" y="250.290997" style="fill: #dc143c; stroke: #dc143c"/>
     <use xlink:href="#mab22bab11e" x="334.899089" y="255.893673" style="fill: #dc143c; stroke: #dc143c"/>
     <use xlink:href="#mab22bab11e" x="348.38889" y="261.496348" style="fill: #dc143c; stroke: #dc143c"/>
     <use xlink:href="#mab22bab11e" x="364.576652" y="264.297686" style="fill: #dc143c; stroke: #dc143c"/>
     <use xlink:href="#mab22bab11e" x="378.965773" y="267.099023" style="fill: #dc143c; stroke: #dc143c"/>
    </g>
   </g>
   <g id="line2d_32">
    <path d="M 54.311227 216.674945 
L 62.635703 208.874046 
L 70.960178 196.893804 
L 79.284654 187.154893 
L 87.609129 185.137476 
L 95.933605 188.377038 
L 104.25808 190.469968 
L 112.582556 185.711692 
L 120.907031 184.490455 
L 129.231507 184.883765 
L 137.555983 180.07192 
L 145.880458 177.561798 
L 154.204934 167.571327 
L 162.529409 155.942487 
L 170.853885 156.572751 
L 179.17836 152.448979 
L 187.502836 144.175983 
L 195.827311 146.370116 
L 204.151787 143.723316 
L 212.476262 149.819074 
L 220.800738 154.394251 
L 229.125213 164.474333 
L 237.449689 170.34727 
L 245.774164 179.283404 
L 254.09864 186.964345 
L 262.423115 197.529275 
L 270.747591 206.977334 
L 279.072066 215.755558 
L 287.396542 222.885759 
L 295.721017 230.614074 
L 304.045493 237.087818 
L 312.369969 241.859126 
L 320.694444 247.400453 
L 329.01892 252.727032 
L 337.343395 257.104065 
L 345.667871 260.621175 
L 353.992346 262.812725 
L 362.316822 264.021848 
L 370.641297 265.147886 
L 378.965773 267.099023 
" clip-path="url(#pfeafda64ed)" style="fill: none; stroke: #dc143c; stroke-width: 2; stroke-linecap: square"/>
   </g>
   <g id="line2d_33">
    <defs>
     <path id="m303ac36f3f" d="M 0 3 
C 0.795609 3 1.55874 2.683901 2.12132 2.12132 
C 2.683901 1.55874 3 0.795609 3 0 
C 3 -0.795609 2.683901 -1.55874 2.12132 -2.12132 
C 1.55874 -2.683901 0.795609 -3 0 -3 
C -0.795609 -3 -1.55874 -2.683901 -2.12132 -2.12132 
C -2.683901 -1.55874 -3 -0.795609 -3 0 
C -3 0.795609 -2.683901 1.55874 -2.12132 2.12132 
C -1.55874 2.683901 -0.795609 3 0 3 
z
" style="stroke: #228b22"/>
    </defs>
    <g clip-path="url(#pfeafda64ed)">
     <use xlink:href="#m303ac36f3f" x="54.311227" y="267.099023" style="fill: #228b22; stroke: #228b22"/>
     <use xlink:href="#m303ac36f3f" x="66.901708" y="261.496348" style="fill: #228b22; stroke: #228b22"/>
     <use xlink:href="#m303ac36f3f" x="75.894909" y="258.69501" style="fill: #228b22; stroke: #228b22"/>
     <use xlink:href="#m303ac36f3f" x="91.18335" y="253.092335" style="fill: #228b22; stroke: #228b22"/>
     <use xlink:href="#m303ac36f3f" x="102.874511" y="247.489659" style="fill: #228b22; stroke: #228b22"/>
     <use xlink:href="#m303ac36f3f" x="113.666352" y="244.688322" style="fill: #228b22; stroke: #228b22"/>
     <use xlink:href="#m303ac36f3f" x="119.062272" y="244.688322" style="fill: #228b22; stroke: #228b22"/>
     <use xlink:href="#m303ac36f3f" x="127.156153" y="239.085646" style="fill: #228b22; stroke: #228b22"/>
     <use xlink:href="#m303ac36f3f" x="136.149354" y="236.284309" style="fill: #228b22; stroke: #228b22"/>
     <use xlink:href="#m303ac36f3f" x="145.142554" y="233.482971" style="fill: #228b22; stroke: #228b22"/>
     <use xlink:href="#m303ac36f3f" x="153.236435" y="227.880296" style="fill: #228b22; stroke: #228b22"/>
     <use xlink:href="#m303ac36f3f" x="160.430996" y="225.078958" style="fill: #228b22; stroke: #228b22"/>
     <use xlink:href="#m303ac36f3f" x="164.927596" y="222.27762" style="fill: #228b22; stroke: #228b22"/>
     <use xlink:href="#m303ac36f3f" x="171.222836" y="222.27762" style="fill: #228b22; stroke: #228b22"/>
     <use xlink:href="#m303ac36f3f" x="181.115357" y="211.07227" style="fill: #228b22; stroke: #228b22"/>
     <use xlink:href="#m303ac36f3f" x="187.410598" y="205.469594" style="fill: #228b22; stroke: #228b22"/>
     <use xlink:href="#m303ac36f3f" x="199.101759" y="199.866919" style="fill: #228b22; stroke: #228b22"/>
     <use xlink:href="#m303ac36f3f" x="209.893599" y="191.462906" style="fill: #228b22; stroke: #228b22"/>
     <use xlink:href="#m303ac36f3f" x="218.8868" y="188.661568" style="fill: #228b22; stroke: #228b22"/>
     <use xlink:href="#m303ac36f3f" x="224.282721" y="191.462906" style="fill: #228b22; stroke: #228b22"/>
     <use xlink:href="#m303ac36f3f" x="231.477281" y="188.661568" style="fill: #228b22; stroke: #228b22"/>
     <use xlink:href="#m303ac36f3f" x="238.671842" y="194.264244" style="fill: #228b22; stroke: #228b22"/>
     <use xlink:href="#m303ac36f3f" x="244.967082" y="194.264244" style="fill: #228b22; stroke: #228b22"/>
     <use xlink:href="#m303ac36f3f" x="265.651444" y="211.07227" style="fill: #228b22; stroke: #228b22"/>
     <use xlink:href="#m303ac36f3f" x="281.839205" y="222.27762" style="fill: #228b22; stroke: #228b22"/>
     <use xlink:href="#m303ac36f3f" x="293.530366" y="230.681633" style="fill: #228b22; stroke: #228b22"/>
     <use xlink:href="#m303ac36f3f" x="305.221527" y="239.085646" style="fill: #228b22; stroke: #228b22"/>
     <use xlink:href="#m303ac36f3f" x="312.416088" y="244.688322" style="fill: #228b22; stroke: #228b22"/>
     <use xlink:href="#m303ac36f3f" x="325.006568" y="250.290997" style="fill: #228b22; stroke: #228b22"/>
     <use xlink:href="#m303ac36f3f" x="352.885491" y="264.297686" style="fill: #228b22; stroke: #228b22"/>
     <use xlink:href="#m303ac36f3f" x="365.475972" y="269.900361" style="fill: #228b22; stroke: #228b22"/>
     <use xlink:href="#m303ac36f3f" x="378.965773" y="272.701699" style="fill: #228b22; stroke: #228b22"/>
    </g>
   </g>
   <g id="line2d_34">
    <path d="M 54.311227 267.099023 
L 62.635703 263.0478 
L 70.960178 260.198387 
L 79.284654 257.621599 
L 87.609129 254.616728 
L 95.933605 250.83075 
L 104.25808 246.882256 
L 112.582556 244.68401 
L 120.907031 243.831942 
L 129.231507 237.961713 
L 137.555983 236.05797 
L 145.880458 233.015398 
L 154.204934 227.452593 
L 162.529409 223.607229 
L 170.853885 222.380129 
L 179.17836 213.624725 
L 187.502836 205.413084 
L 195.827311 201.558579 
L 204.151787 196.172116 
L 212.476262 189.656968 
L 220.800738 189.808554 
L 229.125213 189.216982 
L 237.449689 193.427059 
L 245.774164 194.293865 
L 254.09864 199.022694 
L 262.423115 207.804871 
L 270.747591 215.227436 
L 279.072066 220.525855 
L 287.396542 226.181556 
L 295.721017 232.227886 
L 304.045493 238.170368 
L 312.369969 244.65764 
L 320.694444 248.694708 
L 329.01892 251.959751 
L 337.343395 256.013701 
L 345.667871 260.472419 
L 353.992346 264.859864 
L 362.316822 268.693761 
L 370.641297 271.475009 
L 378.965773 272.701699 
" clip-path="url(#pfeafda64ed)" style="fill: none; stroke: #228b22; stroke-width: 2; stroke-linecap: square"/>
   </g>
   <g id="line2d_35">
    <defs>
     <path id="m34fa356d85" d="M 0 3 
C 0.795609 3 1.55874 2.683901 2.12132 2.12132 
C 2.683901 1.55874 3 0.795609 3 0 
C 3 -0.795609 2.683901 -1.55874 2.12132 -2.12132 
C 1.55874 -2.683901 0.795609 -3 0 -3 
C -0.795609 -3 -1.55874 -2.683901 -2.12132 -2.12132 
C -2.683901 -1.55874 -3 -0.795609 -3 0 
C -3 0.795609 -2.683901 1.55874 -2.12132 2.12132 
C -1.55874 2.683901 -0.795609 3 0 3 
z
" style="stroke: #ba55d3"/>
    </defs>
    <g clip-path="url(#pfeafda64ed)">
     <use xlink:href="#m34fa356d85" x="54.311227" y="255.893673" style="fill: #ba55d3; stroke: #ba55d3"/>
     <use xlink:href="#m34fa356d85" x="81.290829" y="247.489659" style="fill: #ba55d3; stroke: #ba55d3"/>
     <use xlink:href="#m34fa356d85" x="97.478591" y="222.27762" style="fill: #ba55d3; stroke: #ba55d3"/>
     <use xlink:href="#m34fa356d85" x="108.270432" y="225.078958" style="fill: #ba55d3; stroke: #ba55d3"/>
     <use xlink:href="#m34fa356d85" x="117.263632" y="222.27762" style="fill: #ba55d3; stroke: #ba55d3"/>
     <use xlink:href="#m34fa356d85" x="123.558873" y="233.482971" style="fill: #ba55d3; stroke: #ba55d3"/>
     <use xlink:href="#m34fa356d85" x="129.854113" y="230.681633" style="fill: #ba55d3; stroke: #ba55d3"/>
     <use xlink:href="#m34fa356d85" x="137.048674" y="219.476283" style="fill: #ba55d3; stroke: #ba55d3"/>
     <use xlink:href="#m34fa356d85" x="146.041874" y="236.284309" style="fill: #ba55d3; stroke: #ba55d3"/>
     <use xlink:href="#m34fa356d85" x="152.337115" y="219.476283" style="fill: #ba55d3; stroke: #ba55d3"/>
     <use xlink:href="#m34fa356d85" x="158.632355" y="222.27762" style="fill: #ba55d3; stroke: #ba55d3"/>
     <use xlink:href="#m34fa356d85" x="164.927596" y="255.893673" style="fill: #ba55d3; stroke: #ba55d3"/>
     <use xlink:href="#m34fa356d85" x="171.222836" y="244.688322" style="fill: #ba55d3; stroke: #ba55d3"/>
     <use xlink:href="#m34fa356d85" x="177.518077" y="230.681633" style="fill: #ba55d3; stroke: #ba55d3"/>
     <use xlink:href="#m34fa356d85" x="184.712637" y="225.078958" style="fill: #ba55d3; stroke: #ba55d3"/>
     <use xlink:href="#m34fa356d85" x="191.907198" y="244.688322" style="fill: #ba55d3; stroke: #ba55d3"/>
     <use xlink:href="#m34fa356d85" x="198.202439" y="255.893673" style="fill: #ba55d3; stroke: #ba55d3"/>
     <use xlink:href="#m34fa356d85" x="204.497679" y="241.886984" style="fill: #ba55d3; stroke: #ba55d3"/>
     <use xlink:href="#m34fa356d85" x="211.69224" y="241.886984" style="fill: #ba55d3; stroke: #ba55d3"/>
     <use xlink:href="#m34fa356d85" x="217.98748" y="250.290997" style="fill: #ba55d3; stroke: #ba55d3"/>
     <use xlink:href="#m34fa356d85" x="225.182041" y="261.496348" style="fill: #ba55d3; stroke: #ba55d3"/>
     <use xlink:href="#m34fa356d85" x="238.671842" y="267.099023" style="fill: #ba55d3; stroke: #ba55d3"/>
     <use xlink:href="#m34fa356d85" x="244.967082" y="261.496348" style="fill: #ba55d3; stroke: #ba55d3"/>
     <use xlink:href="#m34fa356d85" x="253.060963" y="269.900361" style="fill: #ba55d3; stroke: #ba55d3"/>
     <use xlink:href="#m34fa356d85" x="259.356203" y="269.900361" style="fill: #ba55d3; stroke: #ba55d3"/>
     <use xlink:href="#m34fa356d85" x="265.651444" y="272.701699" style="fill: #ba55d3; stroke: #ba55d3"/>
     <use xlink:href="#m34fa356d85" x="281.839205" y="272.701699" style="fill: #ba55d3; stroke: #ba55d3"/>
     <use xlink:href="#m34fa356d85" x="307.020167" y="272.701699" style="fill: #ba55d3; stroke: #ba55d3"/>
     <use xlink:href="#m34fa356d85" x="319.610648" y="275.503036" style="fill: #ba55d3; stroke: #ba55d3"/>
     <use xlink:href="#m34fa356d85" x="339.39569" y="275.503036" style="fill: #ba55d3; stroke: #ba55d3"/>
     <use xlink:href="#m34fa356d85" x="354.684131" y="275.503036" style="fill: #ba55d3; stroke: #ba55d3"/>
     <use xlink:href="#m34fa356d85" x="373.569852" y="275.503036" style="fill: #ba55d3; stroke: #ba55d3"/>
     <use xlink:href="#m34fa356d85" x="378.965773" y="275.503036" style="fill: #ba55d3; stroke: #ba55d3"/>
    </g>
   </g>
   <g id="line2d_36">
    <path d="M 54.311227 255.893673 
L 62.635703 272.340063 
L 70.960178 267.942635 
L 79.284654 252.013007 
L 87.609129 233.8628 
L 95.933605 222.803633 
L 104.25808 224.61346 
L 112.582556 222.185039 
L 120.907031 228.830908 
L 129.231507 231.789564 
L 137.555983 219.916731 
L 145.880458 236.355695 
L 154.204934 215.919489 
L 162.529409 245.300606 
L 170.853885 245.880419 
L 179.17836 227.903131 
L 187.502836 230.60437 
L 195.827311 254.765895 
L 204.151787 242.568659 
L 212.476262 242.768384 
L 220.800738 254.75731 
L 229.125213 266.203747 
L 237.449689 268.07524 
L 245.774164 261.719042 
L 254.09864 270.36842 
L 262.423115 270.909748 
L 270.747591 274.082191 
L 279.072066 273.253709 
L 287.396542 271.867635 
L 295.721017 271.470332 
L 304.045493 272.169757 
L 312.369969 273.95736 
L 320.694444 275.648597 
L 329.01892 275.9694 
L 337.343395 275.589369 
L 345.667871 275.410702 
L 353.992346 275.495529 
L 362.316822 275.534958 
L 370.641297 275.51172 
L 378.965773 275.503036 
" clip-path="url(#pfeafda64ed)" style="fill: none; stroke: #ba55d3; stroke-width: 2; stroke-linecap: square"/>
   </g>
   <g id="patch_3">
    <path d="M 38.0785 288.0654 
L 38.0785 21.9534 
" style="fill: none; stroke: #bcbcbc; stroke-width: 0.8; stroke-linejoin: miter; stroke-linecap: square"/>
   </g>
   <g id="patch_4">
    <path d="M 395.1985 288.0654 
L 395.1985 21.9534 
" style="fill: none; stroke: #bcbcbc; stroke-width: 0.8; stroke-linejoin: miter; stroke-linecap: square"/>
   </g>
   <g id="patch_5">
    <path d="M 38.0785 288.0654 
L 395.1985 288.0654 
" style="fill: none; stroke: #bcbcbc; stroke-width: 0.8; stroke-linejoin: miter; stroke-linecap: square"/>
   </g>
   <g id="patch_6">
    <path d="M 38.0785 21.9534 
L 395.1985 21.9534 
" style="fill: none; stroke: #bcbcbc; stroke-width: 0.8; stroke-linejoin: miter; stroke-linecap: square"/>
   </g>
   <g id="text_17">
    <!-- Logspace Spectra Interpolation -->
    <g transform="translate(126.7447 15.9534) scale(0.1152 -0.1152)">
     <defs>
      <path id="DejaVuSans-4c" d="M 628 4666 
L 1259 4666 
L 1259 531 
L 3531 531 
L 3531 0 
L 628 0 
L 628 4666 
z
" transform="scale(0.015625)"/>
      <path id="DejaVuSans-6f" d="M 1959 3097 
Q 1497 3097 1228 2736 
Q 959 2375 959 1747 
Q 959 1119 1226 758 
Q 1494 397 1959 397 
Q 2419 397 2687 759 
Q 2956 1122 2956 1747 
Q 2956 2369 2687 2733 
Q 2419 3097 1959 3097 
z
M 1959 3584 
Q 2709 3584 3137 3096 
Q 3566 2609 3566 1747 
Q 3566 888 3137 398 
Q 2709 -91 1959 -91 
Q 1206 -91 779 398 
Q 353 888 353 1747 
Q 353 2609 779 3096 
Q 1206 3584 1959 3584 
z
" transform="scale(0.015625)"/>
      <path id="DejaVuSans-67" d="M 2906 1791 
Q 2906 2416 2648 2759 
Q 2391 3103 1925 3103 
Q 1463 3103 1205 2759 
Q 947 2416 947 1791 
Q 947 1169 1205 825 
Q 1463 481 1925 481 
Q 2391 481 2648 825 
Q 2906 1169 2906 1791 
z
M 3481 434 
Q 3481 -459 3084 -895 
Q 2688 -1331 1869 -1331 
Q 1566 -1331 1297 -1286 
Q 1028 -1241 775 -1147 
L 775 -588 
Q 1028 -725 1275 -790 
Q 1522 -856 1778 -856 
Q 2344 -856 2625 -561 
Q 2906 -266 2906 331 
L 2906 616 
Q 2728 306 2450 153 
Q 2172 0 1784 0 
Q 1141 0 747 490 
Q 353 981 353 1791 
Q 353 2603 747 3093 
Q 1141 3584 1784 3584 
Q 2172 3584 2450 3431 
Q 2728 3278 2906 2969 
L 2906 3500 
L 3481 3500 
L 3481 434 
z
" transform="scale(0.015625)"/>
      <path id="DejaVuSans-73" d="M 2834 3397 
L 2834 2853 
Q 2591 2978 2328 3040 
Q 2066 3103 1784 3103 
Q 1356 3103 1142 2972 
Q 928 2841 928 2578 
Q 928 2378 1081 2264 
Q 1234 2150 1697 2047 
L 1894 2003 
Q 2506 1872 2764 1633 
Q 3022 1394 3022 966 
Q 3022 478 2636 193 
Q 2250 -91 1575 -91 
Q 1294 -91 989 -36 
Q 684 19 347 128 
L 347 722 
Q 666 556 975 473 
Q 1284 391 1588 391 
Q 1994 391 2212 530 
Q 2431 669 2431 922 
Q 2431 1156 2273 1281 
Q 2116 1406 1581 1522 
L 1381 1569 
Q 847 1681 609 1914 
Q 372 2147 372 2553 
Q 372 3047 722 3315 
Q 1072 3584 1716 3584 
Q 2034 3584 2315 3537 
Q 2597 3491 2834 3397 
z
" transform="scale(0.015625)"/>
      <path id="DejaVuSans-70" d="M 1159 525 
L 1159 -1331 
L 581 -1331 
L 581 3500 
L 1159 3500 
L 1159 2969 
Q 1341 3281 1617 3432 
Q 1894 3584 2278 3584 
Q 2916 3584 3314 3078 
Q 3713 2572 3713 1747 
Q 3713 922 3314 415 
Q 2916 -91 2278 -91 
Q 1894 -91 1617 61 
Q 1341 213 1159 525 
z
M 3116 1747 
Q 3116 2381 2855 2742 
Q 2594 3103 2138 3103 
Q 1681 3103 1420 2742 
Q 1159 2381 1159 1747 
Q 1159 1113 1420 752 
Q 1681 391 2138 391 
Q 2594 391 2855 752 
Q 3116 1113 3116 1747 
z
" transform="scale(0.015625)"/>
      <path id="DejaVuSans-61" d="M 2194 1759 
Q 1497 1759 1228 1600 
Q 959 1441 959 1056 
Q 959 750 1161 570 
Q 1363 391 1709 391 
Q 2188 391 2477 730 
Q 2766 1069 2766 1631 
L 2766 1759 
L 2194 1759 
z
M 3341 1997 
L 3341 0 
L 2766 0 
L 2766 531 
Q 2569 213 2275 61 
Q 1981 -91 1556 -91 
Q 1019 -91 701 211 
Q 384 513 384 1019 
Q 384 1609 779 1909 
Q 1175 2209 1959 2209 
L 2766 2209 
L 2766 2266 
Q 2766 2663 2505 2880 
Q 2244 3097 1772 3097 
Q 1472 3097 1187 3025 
Q 903 2953 641 2809 
L 641 3341 
Q 956 3463 1253 3523 
Q 1550 3584 1831 3584 
Q 2591 3584 2966 3190 
Q 3341 2797 3341 1997 
z
" transform="scale(0.015625)"/>
      <path id="DejaVuSans-63" d="M 3122 3366 
L 3122 2828 
Q 2878 2963 2633 3030 
Q 2388 3097 2138 3097 
Q 1578 3097 1268 2742 
Q 959 2388 959 1747 
Q 959 1106 1268 751 
Q 1578 397 2138 397 
Q 2388 397 2633 464 
Q 2878 531 3122 666 
L 3122 134 
Q 2881 22 2623 -34 
Q 2366 -91 2075 -91 
Q 1284 -91 818 406 
Q 353 903 353 1747 
Q 353 2603 823 3093 
Q 1294 3584 2113 3584 
Q 2378 3584 2631 3529 
Q 2884 3475 3122 3366 
z
" transform="scale(0.015625)"/>
      <path id="DejaVuSans-65" d="M 3597 1894 
L 3597 1613 
L 953 1613 
Q 991 1019 1311 708 
Q 1631 397 2203 397 
Q 2534 397 2845 478 
Q 3156 559 3463 722 
L 3463 178 
Q 3153 47 2828 -22 
Q 2503 -91 2169 -91 
Q 1331 -91 842 396 
Q 353 884 353 1716 
Q 353 2575 817 3079 
Q 1281 3584 2069 3584 
Q 2775 3584 3186 3129 
Q 3597 2675 3597 1894 
z
M 3022 2063 
Q 3016 2534 2758 2815 
Q 2500 3097 2075 3097 
Q 1594 3097 1305 2825 
Q 1016 2553 972 2059 
L 3022 2063 
z
" transform="scale(0.015625)"/>
      <path id="DejaVuSans-20" transform="scale(0.015625)"/>
      <path id="DejaVuSans-53" d="M 3425 4513 
L 3425 3897 
Q 3066 4069 2747 4153 
Q 2428 4238 2131 4238 
Q 1616 4238 1336 4038 
Q 1056 3838 1056 3469 
Q 1056 3159 1242 3001 
Q 1428 2844 1947 2747 
L 2328 2669 
Q 3034 2534 3370 2195 
Q 3706 1856 3706 1288 
Q 3706 609 3251 259 
Q 2797 -91 1919 -91 
Q 1588 -91 1214 -16 
Q 841 59 441 206 
L 441 856 
Q 825 641 1194 531 
Q 1563 422 1919 422 
Q 2459 422 2753 634 
Q 3047 847 3047 1241 
Q 3047 1584 2836 1778 
Q 2625 1972 2144 2069 
L 1759 2144 
Q 1053 2284 737 2584 
Q 422 2884 422 3419 
Q 422 4038 858 4394 
Q 1294 4750 2059 4750 
Q 2388 4750 2728 4690 
Q 3069 4631 3425 4513 
z
" transform="scale(0.015625)"/>
      <path id="DejaVuSans-74" d="M 1172 4494 
L 1172 3500 
L 2356 3500 
L 2356 3053 
L 1172 3053 
L 1172 1153 
Q 1172 725 1289 603 
Q 1406 481 1766 481 
L 2356 481 
L 2356 0 
L 1766 0 
Q 1100 0 847 248 
Q 594 497 594 1153 
L 594 3053 
L 172 3053 
L 172 3500 
L 594 3500 
L 594 4494 
L 1172 4494 
z
" transform="scale(0.015625)"/>
      <path id="DejaVuSans-72" d="M 2631 2963 
Q 2534 3019 2420 3045 
Q 2306 3072 2169 3072 
Q 1681 3072 1420 2755 
Q 1159 2438 1159 1844 
L 1159 0 
L 581 0 
L 581 3500 
L 1159 3500 
L 1159 2956 
Q 1341 3275 1631 3429 
Q 1922 3584 2338 3584 
Q 2397 3584 2469 3576 
Q 2541 3569 2628 3553 
L 2631 2963 
z
" transform="scale(0.015625)"/>
      <path id="DejaVuSans-49" d="M 628 4666 
L 1259 4666 
L 1259 0 
L 628 0 
L 628 4666 
z
" transform="scale(0.015625)"/>
      <path id="DejaVuSans-6e" d="M 3513 2113 
L 3513 0 
L 2938 0 
L 2938 2094 
Q 2938 2591 2744 2837 
Q 2550 3084 2163 3084 
Q 1697 3084 1428 2787 
Q 1159 2491 1159 1978 
L 1159 0 
L 581 0 
L 581 3500 
L 1159 3500 
L 1159 2956 
Q 1366 3272 1645 3428 
Q 1925 3584 2291 3584 
Q 2894 3584 3203 3211 
Q 3513 2838 3513 2113 
z
" transform="scale(0.015625)"/>
      <path id="DejaVuSans-6c" d="M 603 4863 
L 1178 4863 
L 1178 0 
L 603 0 
L 603 4863 
z
" transform="scale(0.015625)"/>
      <path id="DejaVuSans-69" d="M 603 3500 
L 1178 3500 
L 1178 0 
L 603 0 
L 603 3500 
z
M 603 4863 
L 1178 4863 
L 1178 4134 
L 603 4134 
L 603 4863 
z
" transform="scale(0.015625)"/>
     </defs>
     <use xlink:href="#DejaVuSans-4c"/>
     <use xlink:href="#DejaVuSans-6f" x="53.962891"/>
     <use xlink:href="#DejaVuSans-67" x="115.144531"/>
     <use xlink:href="#DejaVuSans-73" x="178.621094"/>
     <use xlink:href="#DejaVuSans-70" x="230.720703"/>
     <use xlink:href="#DejaVuSans-61" x="294.197266"/>
     <use xlink:href="#DejaVuSans-63" x="355.476562"/>
     <use xlink:href="#DejaVuSans-65" x="410.457031"/>
     <use xlink:href="#DejaVuSans-20" x="471.980469"/>
     <use xlink:href="#DejaVuSans-53" x="503.767578"/>
     <use xlink:href="#DejaVuSans-70" x="567.244141"/>
     <use xlink:href="#DejaVuSans-65" x="630.720703"/>
     <use xlink:href="#DejaVuSans-63" x="692.244141"/>
     <use xlink:href="#DejaVuSans-74" x="747.224609"/>
     <use xlink:href="#DejaVuSans-72" x="786.433594"/>
     <use xlink:href="#DejaVuSans-61" x="827.546875"/>
     <use xlink:href="#DejaVuSans-20" x="888.826172"/>
     <use xlink:href="#DejaVuSans-49" x="920.613281"/>
     <use xlink:href="#DejaVuSans-6e" x="950.105469"/>
     <use xlink:href="#DejaVuSans-74" x="1013.484375"/>
     <use xlink:href="#DejaVuSans-65" x="1052.693359"/>
     <use xlink:href="#DejaVuSans-72" x="1114.216797"/>
     <use xlink:href="#DejaVuSans-70" x="1155.330078"/>
     <use xlink:href="#DejaVuSans-6f" x="1218.806641"/>
     <use xlink:href="#DejaVuSans-6c" x="1279.988281"/>
     <use xlink:href="#DejaVuSans-61" x="1307.771484"/>
     <use xlink:href="#DejaVuSans-74" x="1369.050781"/>
     <use xlink:href="#DejaVuSans-69" x="1408.259766"/>
     <use xlink:href="#DejaVuSans-6f" x="1436.042969"/>
     <use xlink:href="#DejaVuSans-6e" x="1497.224609"/>
    </g>
   </g>
   <g id="legend_1">
    <g id="patch_7">
     <path d="M 268.4335 75.3234 
L 389.5985 75.3234 
Q 391.1985 75.3234 391.1985 73.7234 
L 391.1985 27.5534 
Q 391.1985 25.9534 389.5985 25.9534 
L 268.4335 25.9534 
Q 266.8335 25.9534 266.8335 27.5534 
L 266.8335 73.7234 
Q 266.8335 75.3234 268.4335 75.3234 
z
" style="fill: #eeeeee; opacity: 0.8; stroke: #cccccc; stroke-width: 0.5; stroke-linejoin: miter"/>
    </g>
    <g id="line2d_37">
     <g>
      <use xlink:href="#m89873bfb94" x="278.0335" y="32.43215" style="fill: #4169e1; stroke: #4169e1"/>
     </g>
    </g>
    <g id="text_18">
     <!-- Observed u Spectra -->
     <g transform="translate(292.4335 35.23215) scale(0.08 -0.08)">
      <defs>
       <path id="DejaVuSans-4f" d="M 2522 4238 
Q 1834 4238 1429 3725 
Q 1025 3213 1025 2328 
Q 1025 1447 1429 934 
Q 1834 422 2522 422 
Q 3209 422 3611 934 
Q 4013 1447 4013 2328 
Q 4013 3213 3611 3725 
Q 3209 4238 2522 4238 
z
M 2522 4750 
Q 3503 4750 4090 4092 
Q 4678 3434 4678 2328 
Q 4678 1225 4090 567 
Q 3503 -91 2522 -91 
Q 1538 -91 948 565 
Q 359 1222 359 2328 
Q 359 3434 948 4092 
Q 1538 4750 2522 4750 
z
" transform="scale(0.015625)"/>
       <path id="DejaVuSans-62" d="M 3116 1747 
Q 3116 2381 2855 2742 
Q 2594 3103 2138 3103 
Q 1681 3103 1420 2742 
Q 1159 2381 1159 1747 
Q 1159 1113 1420 752 
Q 1681 391 2138 391 
Q 2594 391 2855 752 
Q 3116 1113 3116 1747 
z
M 1159 2969 
Q 1341 3281 1617 3432 
Q 1894 3584 2278 3584 
Q 2916 3584 3314 3078 
Q 3713 2572 3713 1747 
Q 3713 922 3314 415 
Q 2916 -91 2278 -91 
Q 1894 -91 1617 61 
Q 1341 213 1159 525 
L 1159 0 
L 581 0 
L 581 4863 
L 1159 4863 
L 1159 2969 
z
" transform="scale(0.015625)"/>
       <path id="DejaVuSans-76" d="M 191 3500 
L 800 3500 
L 1894 563 
L 2988 3500 
L 3597 3500 
L 2284 0 
L 1503 0 
L 191 3500 
z
" transform="scale(0.015625)"/>
       <path id="DejaVuSans-64" d="M 2906 2969 
L 2906 4863 
L 3481 4863 
L 3481 0 
L 2906 0 
L 2906 525 
Q 2725 213 2448 61 
Q 2172 -91 1784 -91 
Q 1150 -91 751 415 
Q 353 922 353 1747 
Q 353 2572 751 3078 
Q 1150 3584 1784 3584 
Q 2172 3584 2448 3432 
Q 2725 3281 2906 2969 
z
M 947 1747 
Q 947 1113 1208 752 
Q 1469 391 1925 391 
Q 2381 391 2643 752 
Q 2906 1113 2906 1747 
Q 2906 2381 2643 2742 
Q 2381 3103 1925 3103 
Q 1469 3103 1208 2742 
Q 947 2381 947 1747 
z
" transform="scale(0.015625)"/>
       <path id="DejaVuSans-75" d="M 544 1381 
L 544 3500 
L 1119 3500 
L 1119 1403 
Q 1119 906 1312 657 
Q 1506 409 1894 409 
Q 2359 409 2629 706 
Q 2900 1003 2900 1516 
L 2900 3500 
L 3475 3500 
L 3475 0 
L 2900 0 
L 2900 538 
Q 2691 219 2414 64 
Q 2138 -91 1772 -91 
Q 1169 -91 856 284 
Q 544 659 544 1381 
z
M 1991 3584 
L 1991 3584 
z
" transform="scale(0.015625)"/>
      </defs>
      <use xlink:href="#DejaVuSans-4f"/>
      <use xlink:href="#DejaVuSans-62" x="78.710938"/>
      <use xlink:href="#DejaVuSans-73" x="142.1875"/>
      <use xlink:href="#DejaVuSans-65" x="194.287109"/>
      <use xlink:href="#DejaVuSans-72" x="255.810547"/>
      <use xlink:href="#DejaVuSans-76" x="296.923828"/>
      <use xlink:href="#DejaVuSans-65" x="356.103516"/>
      <use xlink:href="#DejaVuSans-64" x="417.626953"/>
      <use xlink:href="#DejaVuSans-20" x="481.103516"/>
      <use xlink:href="#DejaVuSans-75" x="512.890625"/>
      <use xlink:href="#DejaVuSans-20" x="576.269531"/>
      <use xlink:href="#DejaVuSans-53" x="608.056641"/>
      <use xlink:href="#DejaVuSans-70" x="671.533203"/>
      <use xlink:href="#DejaVuSans-65" x="735.009766"/>
      <use xlink:href="#DejaVuSans-63" x="796.533203"/>
      <use xlink:href="#DejaVuSans-74" x="851.513672"/>
      <use xlink:href="#DejaVuSans-72" x="890.722656"/>
      <use xlink:href="#DejaVuSans-61" x="931.835938"/>
     </g>
    </g>
    <g id="line2d_38">
     <g>
      <use xlink:href="#mab22bab11e" x="278.0335" y="44.17465" style="fill: #dc143c; stroke: #dc143c"/>
     </g>
    </g>
    <g id="text_19">
     <!-- Observed v Spectra -->
     <g transform="translate(292.4335 46.97465) scale(0.08 -0.08)">
      <use xlink:href="#DejaVuSans-4f"/>
      <use xlink:href="#DejaVuSans-62" x="78.710938"/>
      <use xlink:href="#DejaVuSans-73" x="142.1875"/>
      <use xlink:href="#DejaVuSans-65" x="194.287109"/>
      <use xlink:href="#DejaVuSans-72" x="255.810547"/>
      <use xlink:href="#DejaVuSans-76" x="296.923828"/>
      <use xlink:href="#DejaVuSans-65" x="356.103516"/>
      <use xlink:href="#DejaVuSans-64" x="417.626953"/>
      <use xlink:href="#DejaVuSans-20" x="481.103516"/>
      <use xlink:href="#DejaVuSans-76" x="512.890625"/>
      <use xlink:href="#DejaVuSans-20" x="572.070312"/>
      <use xlink:href="#DejaVuSans-53" x="603.857422"/>
      <use xlink:href="#DejaVuSans-70" x="667.333984"/>
      <use xlink:href="#DejaVuSans-65" x="730.810547"/>
      <use xlink:href="#DejaVuSans-63" x="792.333984"/>
      <use xlink:href="#DejaVuSans-74" x="847.314453"/>
      <use xlink:href="#DejaVuSans-72" x="886.523438"/>
      <use xlink:href="#DejaVuSans-61" x="927.636719"/>
     </g>
    </g>
    <g id="line2d_39">
     <g>
      <use xlink:href="#m303ac36f3f" x="278.0335" y="55.91715" style="fill: #228b22; stroke: #228b22"/>
     </g>
    </g>
    <g id="text_20">
     <!-- Observed w Spectra -->
     <g transform="translate(292.4335 58.71715) scale(0.08 -0.08)">
      <defs>
       <path id="DejaVuSans-77" d="M 269 3500 
L 844 3500 
L 1563 769 
L 2278 3500 
L 2956 3500 
L 3675 769 
L 4391 3500 
L 4966 3500 
L 4050 0 
L 3372 0 
L 2619 2869 
L 1863 0 
L 1184 0 
L 269 3500 
z
" transform="scale(0.015625)"/>
      </defs>
      <use xlink:href="#DejaVuSans-4f"/>
      <use xlink:href="#DejaVuSans-62" x="78.710938"/>
      <use xlink:href="#DejaVuSans-73" x="142.1875"/>
      <use xlink:href="#DejaVuSans-65" x="194.287109"/>
      <use xlink:href="#DejaVuSans-72" x="255.810547"/>
      <use xlink:href="#DejaVuSans-76" x="296.923828"/>
      <use xlink:href="#DejaVuSans-65" x="356.103516"/>
      <use xlink:href="#DejaVuSans-64" x="417.626953"/>
      <use xlink:href="#DejaVuSans-20" x="481.103516"/>
      <use xlink:href="#DejaVuSans-77" x="512.890625"/>
      <use xlink:href="#DejaVuSans-20" x="594.677734"/>
      <use xlink:href="#DejaVuSans-53" x="626.464844"/>
      <use xlink:href="#DejaVuSans-70" x="689.941406"/>
      <use xlink:href="#DejaVuSans-65" x="753.417969"/>
      <use xlink:href="#DejaVuSans-63" x="814.941406"/>
      <use xlink:href="#DejaVuSans-74" x="869.921875"/>
      <use xlink:href="#DejaVuSans-72" x="909.130859"/>
      <use xlink:href="#DejaVuSans-61" x="950.244141"/>
     </g>
    </g>
    <g id="line2d_40">
     <g>
      <use xlink:href="#m34fa356d85" x="278.0335" y="67.65965" style="fill: #ba55d3; stroke: #ba55d3"/>
     </g>
    </g>
    <g id="text_21">
     <!-- Observed uw Cospectra -->
     <g transform="translate(292.4335 70.45965) scale(0.08 -0.08)">
      <defs>
       <path id="DejaVuSans-43" d="M 4122 4306 
L 4122 3641 
Q 3803 3938 3442 4084 
Q 3081 4231 2675 4231 
Q 1875 4231 1450 3742 
Q 1025 3253 1025 2328 
Q 1025 1406 1450 917 
Q 1875 428 2675 428 
Q 3081 428 3442 575 
Q 3803 722 4122 1019 
L 4122 359 
Q 3791 134 3420 21 
Q 3050 -91 2638 -91 
Q 1578 -91 968 557 
Q 359 1206 359 2328 
Q 359 3453 968 4101 
Q 1578 4750 2638 4750 
Q 3056 4750 3426 4639 
Q 3797 4528 4122 4306 
z
" transform="scale(0.015625)"/>
      </defs>
      <use xlink:href="#DejaVuSans-4f"/>
      <use xlink:href="#DejaVuSans-62" x="78.710938"/>
      <use xlink:href="#DejaVuSans-73" x="142.1875"/>
      <use xlink:href="#DejaVuSans-65" x="194.287109"/>
      <use xlink:href="#DejaVuSans-72" x="255.810547"/>
      <use xlink:href="#DejaVuSans-76" x="296.923828"/>
      <use xlink:href="#DejaVuSans-65" x="356.103516"/>
      <use xlink:href="#DejaVuSans-64" x="417.626953"/>
      <use xlink:href="#DejaVuSans-20" x="481.103516"/>
      <use xlink:href="#DejaVuSans-75" x="512.890625"/>
      <use xlink:href="#DejaVuSans-77" x="576.269531"/>
      <use xlink:href="#DejaVuSans-20" x="658.056641"/>
      <use xlink:href="#DejaVuSans-43" x="689.84375"/>
      <use xlink:href="#DejaVuSans-6f" x="759.667969"/>
      <use xlink:href="#DejaVuSans-73" x="820.849609"/>
      <use xlink:href="#DejaVuSans-70" x="872.949219"/>
      <use xlink:href="#DejaVuSans-65" x="936.425781"/>
      <use xlink:href="#DejaVuSans-63" x="997.949219"/>
      <use xlink:href="#DejaVuSans-74" x="1052.929688"/>
      <use xlink:href="#DejaVuSans-72" x="1092.138672"/>
      <use xlink:href="#DejaVuSans-61" x="1133.251953"/>
     </g>
    </g>
   </g>
  </g>
 </g>
 <defs>
  <clipPath id="pfeafda64ed">
   <rect x="38.0785" y="21.9534" width="357.12" height="266.112"/>
  </clipPath>
 </defs>
</svg>
